<?xml version="1.0" encoding="UTF-8"?>
<svg xmlns="http://www.w3.org/2000/svg" id="Layer_1" data-name="Layer 1" viewBox="0 0 24 24">
  <path d="m8,5h-3v-2h3V0h2v3h3v2h-3v3h-2v-3Zm16,6v6h-1.587c-.665,1.634-1.868,3.013-3.413,3.908v3.092h-5v-2h-4v2h-5v-3.08c-2.449-1.42-4-4.07-4-6.92,0-1.176.262-2.291.72-3.298-1.013-.482-1.72-1.508-1.72-2.702,0-1.654,1.346-3,3-3v2c-.551,0-1,.448-1,1,0,.479.346.862.796.959.844-1.037,1.948-1.849,3.204-2.361v3.403h6v-4h3c.115,0,.226.021.341.026,1.109-3.01,4.659-3.026,4.659-3.026v4.811c1.043.839,1.896,1.915,2.414,3.189h1.586Zm-5,1.5c0-.828-.672-1.5-1.5-1.5s-1.5.672-1.5,1.5.672,1.5,1.5,1.5,1.5-.672,1.5-1.5Z"/>
</svg>
