<?xml version="1.0" encoding="UTF-8"?>
<svg xmlns="http://www.w3.org/2000/svg" id="Layer_1" data-name="Layer 1" viewBox="0 0 24 24">
  <path d="m19.5,1.5c0-.828.672-1.5,1.5-1.5s1.5.672,1.5,1.5-.672,1.5-1.5,1.5-1.5-.672-1.5-1.5Zm3,8.5c0-.828-.672-1.5-1.5-1.5s-1.5.672-1.5,1.5.672,1.5,1.5,1.5,1.5-.672,1.5-1.5Zm0,8.5c0-.828-.672-1.5-1.5-1.5s-1.5.672-1.5,1.5.672,1.5,1.5,1.5,1.5-.672,1.5-1.5Zm-.5-14.5h-2c-1.103,0-2,.897-2,2v1h6v-1c0-1.103-.897-2-2-2Zm0,17h-2c-1.103,0-2,.897-2,2v1h6v-1c0-1.103-.897-2-2-2Zm0-8.5h-2c-1.103,0-2,.897-2,2v1h6v-1c0-1.103-.897-2-2-2Zm-6-.5c0-1.155-.878-2.099-2-2.225v-4.775h-2c0,2.708-2.448,3-3.5,3H3c-1.657,0-3,1.343-3,3v2c0,1.657,1.343,3,3,3h5.5c1.052,0,3.5.292,3.5,3h2v-4.775c1.122-.126,2-1.07,2-2.225Zm-8.175,8.941l-1.307-2.941H2.064l2.667,6h1.106c.739,0,1.421-.37,1.824-.99.403-.619.464-1.393.164-2.069Z"/>
</svg>
