<?xml version="1.0" encoding="UTF-8"?>
<svg xmlns="http://www.w3.org/2000/svg" id="Layer_1" data-name="Layer 1" viewBox="0 0 24 24">
  <path d="m23.954,10.039c-.297-3.767-2.416-6.827-5.647-8.539l-3.3,2.936-.007-4.119c-.952-.2-1.951-.317-3-.317s-2.048.117-3,.317l.007,4.119-3.339-2.923C2.446,3.231.351,6.298.059,10.061l3.941,1.939-3.664,1.577c.715,2.959,2.546,5.746,4.894,7.693l2.77-2.27v4.042c1.292.603,2.647.958,4,.958s2.708-.355,4-.958v-4.042l2.77,2.27c2.342-1.941,4.176-4.714,4.893-7.667l-3.664-1.603,3.954-1.961Zm-17.954-1.039c0-1.105,1.119-2,2.5-2s2.5.895,2.5,2-1.119,2-2.5,2-2.5-.895-2.5-2Zm6.005,9c-2.405,0-4.005-2-4.005-2.999,0-.002,8,0,8,0,0,.999-1.6,2.999-3.995,2.999Zm3.495-7c-1.381,0-2.5-.895-2.5-2s1.119-2,2.5-2,2.5.895,2.5,2-1.119,2-2.5,2Z"/>
</svg>
