<?xml version="1.0" encoding="UTF-8"?>
<svg xmlns="http://www.w3.org/2000/svg" id="Layer_1" data-name="Layer 1" viewBox="0 0 24 24">
  <path d="M17.448,.552c-.52-.52-1.272-.687-1.965-.439l-.156,.057c-3.326,1.199-6.474,2.353-9.231,4.851-2.537,.095-4.623,1.288-6.096,3.39v3.589H2.365l1.139,1.082-1.454,1.454,1.414,1.414,1.454-1.454,1.082,1.139v2.365h3.589s.614-.688,.863-.919l-2.223-2.219c-.879-.877-1.301-2.025-1.207-3.197,.095-1.172,.7-2.241,1.661-2.933,1.546-1.115,3.759-.918,5.177,.45l.729,.64c1.451-2.221,2.335-4.634,3.241-7.15l.057-.156c.249-.692,.081-1.445-.439-1.965Zm-4.448,5.948c-.828,0-1.5-.672-1.5-1.5s.672-1.5,1.5-1.5,1.5,.672,1.5,1.5-.672,1.5-1.5,1.5Zm11,17.503H14.003c-1.106,0-2.003-.897-2.003-2.003h0c0-1.104,.893-2,1.997-2.003l2.66,.006-7.062-6.602c-.859-.859-.773-2.305,.257-3.047,.808-.582,1.943-.411,2.647,.294l3.164,2.688,6.962-3.611,1.374,1.459v12.819Z"/>
</svg>
