<?xml version="1.0" encoding="UTF-8"?>
<svg xmlns="http://www.w3.org/2000/svg" id="Layer_1" data-name="Layer 1" viewBox="0 0 24 24">
  <path d="M5,5.5c0-1.381,1.119-2.5,2.5-2.5s2.5,1.119,2.5,2.5-1.119,2.5-2.5,2.5-2.5-1.119-2.5-2.5Zm4.035,3.5h-1.443c-1.429,0-2.667,1.017-2.943,2.417-.221,1.12-.472,2.718-.587,4.583H0v1.902l2.685,4.027c.865,1.297,2.311,2.07,3.869,2.07h6.498c-.344-.577-.551-1.247-.551-2,0-.859,.432-3.223,1.5-4.968v-1.032h-5.432c.087-1.342,.248-2.529,.412-3.478l.985,1.478h4.035v-2h-2.965l-2-3ZM19.5,2c0-1.381-1.119-2-2.5-2s-2.5,.619-2.5,2c0,1.025,.617,3.281,1.5,4.377v11.247c-.883,1.096-1.5,3.352-1.5,4.377,0,1.381,1.119,2,2.5,2s2.5-.619,2.5-2c0-1.025-.617-3.281-1.5-4.377V6.377c.883-1.096,1.5-3.352,1.5-4.377Zm.5,14v1.032c.956,1.562,1.4,3.612,1.483,4.642,0,0,.001,0,.002,.001l2.515-3.773v-1.902h-4Z"/>
</svg>
