<?xml version="1.0" encoding="UTF-8"?>
<svg xmlns="http://www.w3.org/2000/svg" id="Layer_1" data-name="Layer 1" viewBox="0 0 24 24">
  <path d="M24,5v1H0V3C0,1.346,1.346,0,3,0h5.236l4,2h8.764c1.654,0,3,1.346,3,3Zm0,13c0,3.314-2.686,6-6,6s-6-2.686-6-6c0-1.725,1-3.06,1.995-4.087,0,0,.681,2.087,1.287,2.087,1.263,0,.897-3.898,2.718-6,1.895,1.895,6,4.526,6,8Zm-4.586,.585h0l-1.415-1.415-1.415,1.415c-.781,.781-.781,2.048,0,2.829,.781,.781,2.048,.781,2.829,0s.781-2.048,0-2.829Zm-9.414-.585c0-2.542,1.46-4.345,2.559-5.479,0,0,3.318-3.126,3.929-3.831l.598-.69H0v14H11.082c-.684-1.178-1.082-2.542-1.082-4Zm9.415-9.414c.351,.352,.83,.767,1.337,1.207,1.036,.899,2.248,1.957,3.249,3.199v-4.992h-5.171l.586,.586Z"/>
</svg>
