<?xml version="1.0" encoding="UTF-8"?>
<svg xmlns="http://www.w3.org/2000/svg" id="Layer_1" data-name="Layer 1" viewBox="0 0 24 24">
  <path d="M18,8v5.5c0,1.381-1.119,2.5-2.5,2.5s-2.5-1.119-2.5-2.5v-5.5h1.6v5.5c0,.496,.404,.9,.9,.9s.9-.404,.9-.9v-5.5h1.6Zm-7,1.6v-1.6H6.5v8h4.5v-1.6h-2.9v-1.601h2.9v-1.6h-2.9v-1.601h2.9Zm1.013-6.6c.828,0,1.5-.672,1.5-1.5s-.672-1.5-1.5-1.5-1.5,.672-1.5,1.5,.672,1.5,1.5,1.5Zm-.013,21c.828,0,1.5-.672,1.5-1.5s-.672-1.5-1.5-1.5-1.5,.672-1.5,1.5,.672,1.5,1.5,1.5Zm9.006-11.994c0,.828,.672,1.5,1.5,1.5s1.5-.672,1.5-1.5-.672-1.5-1.5-1.5-1.5,.672-1.5,1.5ZM.006,11.994c0,.828,.672,1.5,1.5,1.5s1.5-.672,1.5-1.5-.672-1.5-1.5-1.5S.006,11.165,.006,11.994Zm19.728,4.62c-.424,.712-.191,1.632,.52,2.056s1.632,.191,2.056-.52,.191-1.632-.52-2.056-1.632-.191-2.056,.52ZM1.702,5.85c-.424,.712-.191,1.632,.52,2.056s1.632,.191,2.056-.52,.191-1.632-.52-2.056-1.632-.191-2.056,.52ZM7.913,2.216c-.424-.712-1.345-.945-2.056-.52s-.945,1.345-.52,2.056,1.345,.945,2.056,.52,.945-1.345,.52-2.056Zm10.763,18.032c-.424-.712-1.345-.945-2.056-.52s-.945,1.345-.52,2.056,1.345,.945,2.056,.52,.945-1.345,.52-2.056ZM2.222,16.093c-.712,.424-.945,1.345-.52,2.056s1.345,.945,2.056,.52,.945-1.345,.52-2.056-1.345-.945-2.056-.52ZM20.254,5.33c-.712,.424-.945,1.345-.52,2.056s1.345,.945,2.056,.52,.945-1.345,.52-2.056-1.345-.945-2.056-.52Zm-3.634-1.057c.712,.424,1.632,.191,2.056-.52s.191-1.632-.52-2.056-1.632-.191-2.056,.52-.191,1.632,.52,2.056ZM5.857,22.304c.712,.424,1.632,.191,2.056-.52s.191-1.632-.52-2.056-1.632-.191-2.056,.52-.191,1.632,.52,2.056Z"/>
</svg>
