<?xml version="1.0" encoding="UTF-8"?>
<svg xmlns="http://www.w3.org/2000/svg" id="Layer_1" data-name="Layer 1" viewBox="0 0 24 24">
  <path d="M15.352,.008l-3.352,9.099L8.648,.008C8.966-.006,15.034-.006,15.352,.008ZM5.202,.498c-1.297,.347-2.202,1.538-2.202,2.896v4.606c0,.933-1.319,2.831-2,3.632v12.368H11V12.178L6.59,.209c-.445,.07-.917,.163-1.388,.289ZM23,11.631v12.369H13V12.178L17.41,.209c.445,.07,.917,.163,1.388,.289,1.297,.347,2.202,1.538,2.202,2.896v4.606c0,.973,1.426,2.958,2,3.631Zm-1.909,3.907c0-.849-.626-1.538-1.398-1.538s-1.398,.688-1.398,1.538c0-.849-.626-1.538-1.398-1.538s-1.398,.688-1.398,1.538c0,1.61,2.795,3.587,2.795,3.587,0,0,2.795-1.977,2.795-3.587Z"/>
</svg>
