<?xml version="1.0" encoding="UTF-8"?>
<svg xmlns="http://www.w3.org/2000/svg" id="Layer_1" data-name="Layer 1" viewBox="0 0 24 24">
  <path d="m18.5,10c1.381,0,2.5,1.119,2.5,2.5s-1.119,2.5-2.5,2.5-2.5-1.119-2.5-2.5,1.119-2.5,2.5-2.5Zm-3.5-8c0-1.105-.895-2-2-2s-2,.895-2,2,.895,2,2,2,2-.895,2-2Zm7,20v-6.703c-.825,1.03-2.078,1.703-3.5,1.703s-2.675-.673-3.5-1.703v6.703h-2v2h11v-2h-2ZM9.566,4.02l-2.98,2.98H2.586L.017,9.569l1.414,1.414,1.983-1.983h2.586v2.586l-1.983,1.983,1.414,1.414,2.569-2.569v-4l2.98-2.98c-.585-.345-1.069-.829-1.414-1.414Zm8.896,3.984l-2.062-3.93c-.715,1.17-1.999,1.931-3.451,1.912l2.008,3.771c.816-1.052,2.074-1.74,3.505-1.752Z"/>
</svg>
