<?xml version="1.0" encoding="UTF-8"?>
<svg xmlns="http://www.w3.org/2000/svg" id="Layer_1" data-name="Layer 1" viewBox="0 0 24 24">
  <path d="M15.535,1.464c-.945-.944-2.2-1.464-3.535-1.464s-2.592,.52-3.535,1.464c-.944,.944-1.465,2.2-1.465,3.536s.523,2.595,1.48,3.551l3.52,3.442,3.535-3.458c.944-.944,1.465-2.2,1.465-3.536s-.521-2.592-1.465-3.536Zm-3.535,5.036c-.828,0-1.5-.672-1.5-1.5s.672-1.5,1.5-1.5,1.5,.672,1.5,1.5-.672,1.5-1.5,1.5Zm10-.5v1h-3.29c-.327,1.103-.924,2.114-1.76,2.95l-2.065,2.02,4.03,4.03h3.086v2h-3.914l-4.632-4.632-1.454,1.423-4.918-4.81c-.854-.852-1.459-1.873-1.79-2.981H2v-1H0V24H2v-1H22v1h2V6h-2Zm-12,15h-2v-2.586l-3.414-3.414H2v-2h3.414l4.586,4.586v3.414Z"/>
</svg>
