<?xml version="1.0" encoding="UTF-8"?>
<svg xmlns="http://www.w3.org/2000/svg" id="Layer_1" data-name="Layer 1" viewBox="0 0 24 24">
  <path d="M6.75,7.9h-.65v-1.3h.65c.358,0,.65,.292,.65,.65s-.292,.65-.65,.65ZM2.149,20.003c-1.151,.022-2.173-.99-2.149-2.148V3C0,1.346,1.346,0,3,0h13c1.654,0,3,1.346,3,3v14H7.303l-3.963,2.643c-.36,.239-.774,.36-1.19,.36Zm7.851-10.253c0,1.243,1.007,2.25,2.25,2.25s2.25-1.007,2.25-2.25V5h-1.6v4.75c0,.358-.292,.65-.65,.65s-.65-.292-.65-.65V5h-1.6v4.75Zm-5.5,2.25h1.6v-2.5h.413l.909,2.5h1.703l-1.064-2.927c.567-.409,.94-1.07,.94-1.823,0-1.243-1.007-2.25-2.25-2.25h-2.25v7ZM21,4v15H7.908l-1.908,1.272v.728h10.697l3.964,2.643c1.355,.968,3.392-.126,3.339-1.788V7c0-1.654-1.346-3-3-3Z"/>
</svg>
