<?xml version="1.0" encoding="UTF-8"?>
<svg xmlns="http://www.w3.org/2000/svg" id="Layer_1" data-name="Layer 1" viewBox="0 0 24 24">
  <path d="M14.4,5.25c0,.358-.292,.65-.65,.65h-.65v-1.3h.65c.358,0,.65,.292,.65,.65Zm-3.4,6.857c0-.996-.681-1.92-1.664-2.08-1.253-.204-2.336,.758-2.336,1.973v8.817c-1.076-.886-2.111-1.752-2.145-1.784-.922-.861-2.373-.813-3.235,.109-.863,.923-.819,2.372,.098,3.23l1.821,1.628H20v-4l-9-3.538v-4.355ZM24,3V13H13v-1c0-.732-.211-1.41-.555-2h.654v-2.5h.65c1.243,0,2.25-1.007,2.25-2.25s-1.007-2.25-2.25-2.25h-2.25v5.901c-.409-.331-.881-.579-1.4-.728V3h-1.6v5.05c-.845,.107-1.605,.467-2.2,1.015V4.6h1.2v-1.6H3.5v1.6h1.2v5.4h.855c-.344,.59-.555,1.268-.555,2v1H0V3C0,1.346,1.346,0,3,0H21c1.654,0,3,1.346,3,3Zm-3,4.923c0-1.303-1.128-1.842-1.951-2.235-.618-.296-1.023-.509-1.023-.765,0-.443,.525-.456,.585-.456,.23,0,.724,.279,1.022,.529l1.033-1.222c-.179-.151-1.117-.907-2.056-.907-1.245,0-2.185,.884-2.185,2.056,0,1.283,1.117,1.817,1.933,2.208,.734,.352,1.042,.539,1.042,.792,0,.519-.664,.534-.739,.534-.425,0-1.017-.381-1.288-.619l-1.064,1.195c.118,.104,1.185,1.023,2.353,1.023,1.134,0,2.339-.748,2.339-2.134Z"/>
</svg>
