<?xml version="1.0" encoding="UTF-8"?>
<svg xmlns="http://www.w3.org/2000/svg" id="Layer_1" data-name="Layer 1" viewBox="0 0 24 24">
  <path d="M4.5,8c-2.485,0-4.5,2.015-4.5,4.5,0,1.895,1.175,3.509,2.833,4.172l1.067,1.1-1.414,1.414,1.414,1.414-1.399,1.399,1.999,2,2.001-2v-5.489c1.476-.738,2.499-2.248,2.499-4.011,0-2.485-2.015-4.5-4.5-4.5Zm0,5c-.828,0-1.5-.672-1.5-1.5s.672-1.5,1.5-1.5,1.5,.672,1.5,1.5-.672,1.5-1.5,1.5ZM23.997,3v7c0,1.654-1.346,3-3,3H12.21c-1.22,0-2.213-.993-2.213-2.213,0-1.094,.816-2.036,1.9-2.191l4.241-.606-.05-.349h0l-.233-1.631-4.24,.606c-.99,.141-1.853,.634-2.489,1.333-1.179-1.199-2.812-1.949-4.626-1.949-.718,0-1.406,.121-2.052,.336L11.333,0h9.664C22.651,0,23.997,1.345,23.997,3Z"/>
</svg>
