<?xml version="1.0" encoding="UTF-8"?>
<svg xmlns="http://www.w3.org/2000/svg" id="Layer_1" data-name="Layer 1" viewBox="0 0 24 24">
  <path d="M10,18c0-.692,.097-1.36,.262-2H4v-2h7.079c.437-.754,.992-1.428,1.642-2H4v-2h14c.692,0,1.36,.097,2,.262V2h-3V0h-2V2h-2V0h-2V2h-2V0h-2V2h-2V0H3V2H0V21c0,1.654,1.346,3,3,3H12.721c-1.665-1.466-2.721-3.607-2.721-6ZM4,6h12v2H4v-2Zm14,6c-3.314,0-6,2.686-6,6s2.686,6,6,6,6-2.686,6-6-2.686-6-6-6Zm.619,8.414c-.378,.378-.88,.586-1.414,.586h-.002c-.534,0-1.036-.209-1.413-.587l-2.012-2.012,1.414-1.414,2.013,2.013,3.615-3.615,1.414,1.414-3.615,3.615Z"/>
</svg>
