<?xml version="1.0" encoding="UTF-8"?>
<svg xmlns="http://www.w3.org/2000/svg" id="Layer_1" data-name="Layer 1" viewBox="0 0 24 24">
  <path d="M18,12c-3.314,0-6,2.686-6,6s2.686,6,6,6,6-2.686,6-6-2.686-6-6-6Zm.619,8.414c-.378,.378-.88,.586-1.414,.586h-.002c-.534,0-1.036-.209-1.413-.587l-2.012-2.012,1.414-1.414,2.013,2.013,3.615-3.615,1.414,1.414-3.615,3.615Zm-.619-10.414c2.393,0,4.534,1.056,6,2.721V0H0V12.929l.834,.14c2.414,.405,4.166,2.479,4.166,4.931v6h2v-6c0-2.668,2.107-4.836,4.741-4.974,1.466-1.842,3.722-3.026,6.259-3.026Zm.5-8h3.5v3h-3.5V2Zm-5.5,0h3.5v3h-3.5V2Zm-7.5,3H2V2h3.5v3Zm2,0V2h3.5v3h-3.5Z"/>
</svg>
