<?xml version="1.0" encoding="UTF-8"?>
<svg xmlns="http://www.w3.org/2000/svg" id="Layer_1" data-name="Layer 1" viewBox="0 0 24 24">
  <path d="M23.526,10.783c.67,.671,.67,1.762,0,2.433l-2.405,2.405-1.414-1.414,1.208-1.208h-2.915v-2h2.915l-1.208-1.208,1.414-1.414,2.405,2.405Zm-6.889-5.783h4.278l-1.208,1.208,1.414,1.414,2.405-2.405c.67-.671,.67-1.762,0-2.433L21.122,.378l-1.414,1.414,1.208,1.208h-5.214c.286,.524,.615,1.194,.936,2Zm4.484,11.378l-1.414,1.414,1.208,1.208h-4.278c-.321,.806-.65,1.476-.936,2h5.214l-1.208,1.208,1.414,1.414,2.405-2.405c.67-.671,.67-1.762,0-2.433l-2.405-2.405Zm-12.121-4.378c0-3.356,2.374-6.164,5.53-6.842-.6-1.357-1.166-2.169-1.216-2.239l-.326-.457-.559,.04C4.96,3.036,.589,11.188,.407,11.535l-.245,.465,.245,.465c.183,.347,4.553,8.499,12.022,9.032l.559,.04,.326-.457c.05-.07,.617-.882,1.216-2.239-3.156-.677-5.53-3.486-5.53-6.842Zm6.876-1.987c-.133-1.08-.362-2.064-.631-2.936-2.397,.368-4.245,2.425-4.245,4.924s1.848,4.556,4.245,4.924c.269-.872,.498-1.856,.631-2.936-1.045-.065-1.876-.925-1.876-1.987s.83-1.922,1.876-1.987Z"/>
</svg>
