<?xml version="1.0" encoding="UTF-8"?>
<svg xmlns="http://www.w3.org/2000/svg" id="Layer_1" data-name="Layer 1" viewBox="0 0 24 24">
  <path d="M18,16c0,.379,.271,.698,.645,.761l3.04,.506c1.342,.224,2.315,1.374,2.315,2.733,0,1.654-1.346,3-3,3v1h-2v-1c-1.654,0-3-1.346-3-3h2c0,.552,.448,1,1,1h2c.552,0,1-.448,1-1,0-.379-.271-.698-.645-.761l-3.04-.506c-1.342-.224-2.315-1.374-2.315-2.733,0-1.654,1.346-3,3-3v-1h2v1c1.654,0,3,1.346,3,3h-2c0-.552-.448-1-1-1h-2c-.552,0-1,.448-1,1Zm-4,4c0,1.36,.549,2.591,1.433,3.494-1.089,.326-2.24,.506-3.433,.506C5.383,24,0,18.617,0,12S5.383,0,12,0s12,5.383,12,12c0,.008-.001,.016-.001,.025-.595-.45-1.282-.78-2.041-.928-.065-.725-.214-1.425-.426-2.097H7.972c-.292,.953-.472,1.961-.472,3s.179,2.048,.47,3h6.131c-.066,.323-.101,.658-.101,1v1h-5.227c1.024,2.084,2.411,3.723,3.224,4.584,.516-.549,1.259-1.405,2.003-2.499v.915ZM8.778,7h6.435c-1.019-2.079-2.402-3.722-3.212-4.585-.812,.862-2.198,2.503-3.223,4.585ZM14.612,2.358c.937,1.162,1.988,2.773,2.766,4.642h3.268c-1.309-2.249-3.465-3.945-6.034-4.642ZM3.353,7h3.225c.787-1.875,1.87-3.475,2.811-4.642-2.57,.697-4.728,2.389-6.036,4.642Zm-1.353,5c0,1.045,.163,2.052,.461,3h3.442c-.246-.956-.403-1.958-.403-3s.157-2.044,.403-3H2.461c-.299,.948-.461,1.955-.461,3Zm7.389,9.642c-.94-1.167-2.024-2.767-2.811-4.642H3.353c1.308,2.253,3.466,3.945,6.035,4.642Z"/>
</svg>
