<?xml version="1.0" encoding="UTF-8"?>
<svg xmlns="http://www.w3.org/2000/svg" id="Layer_1" data-name="Layer 1" viewBox="0 0 24 24">
  <path d="M0,21H9v3H0v-3ZM5,2H0V6H5V2Zm15.522,11.603c-1.022-.306-1.855-.506-2.589-.682-.036-.009-.066-.016-.101-.024l-2.005,2.892-1.605-1.193,1.562-2.294c-.455-.188-.87-.427-1.308-.777l-2.489,1.383-.972-1.748,2.986-1.659V3c0-.939-.385-1.766-1.085-2.327-.72-.578-1.688-.804-2.585-.603l-3.33,1.417V6c0,1.105-.895,2-2,2H0v11H8.167c.32,0,.636,.077,.92,.224l4.912,2.545v2.23h2v-2h2v2h2v-2h2v2h2v-4.967c0-2.236-1.204-4.822-3.478-5.43Z"/>
</svg>
