<?xml version="1.0" encoding="UTF-8"?>
<svg xmlns="http://www.w3.org/2000/svg" id="Layer_1" data-name="Layer 1" viewBox="0 0 24 24">
  <path d="M2.594,8.419L.087,5.913l1.414-1.414,1.499,1.499V3c0-1.654,1.346-3,3-3h4V2H6c-.551,0-1,.449-1,1v3.006l1.499-1.508,1.414,1.414-2.506,2.506c-.388,.388-.897,.581-1.406,.581s-1.019-.193-1.406-.581Zm16,7.162l-2.506,2.506,1.414,1.414,1.499-1.508v3.006c0,.551-.449,1-1,1h-4v2h4c1.654,0,3-1.346,3-3v-2.997l1.499,1.499,1.414-1.414-2.507-2.507c-.774-.774-2.037-.775-2.812,0ZM21,0h-6c-1.654,0-3,1.346-3,3V11h6.896l2.802,1.754c.248,.166,.534,.249,.822,.249,.239,0,.479-.058,.698-.175,.483-.258,.782-.758,.782-1.306V3c0-1.654-1.346-3-3-3ZM0,13.997v8.522c0,.547,.3,1.047,.782,1.306,.219,.117,.459,.175,.698,.175,.287,0,.573-.083,.822-.249l2.802-1.754h6.896V13.997c0-1.654-1.346-3-3-3H3c-1.654,0-3,1.346-3,3Z"/>
</svg>
