<?xml version="1.0" encoding="UTF-8"?>
<svg xmlns="http://www.w3.org/2000/svg" id="Layer_1" data-name="Layer 1" viewBox="0 0 24 24">
  <path d="m10,11c0-1.654-1.346-3-3-3H3c-1.654,0-3,1.346-3,3v2h10v-2Zm-5-4c1.93,0,3.5-1.57,3.5-3.5S6.93,0,5,0,1.5,1.57,1.5,3.5s1.57,3.5,3.5,3.5Zm16,1h-4c-1.654,0-3,1.346-3,3v2h10v-2c0-1.654-1.346-3-3-3Zm-2-1c1.93,0,3.5-1.57,3.5-3.5s-1.57-3.5-3.5-3.5-3.5,1.57-3.5,3.5,1.57,3.5,3.5,3.5Zm1.351,8.548l2.66,2.66-1.414,1.414-1.596-1.596v2.974c0,1.654-1.346,3-3,3H7c-1.654,0-3-1.346-3-3v-6h2v6c0,.552.449,1,1,1h10c.551,0,1-.448,1-1v-2.923l-1.545,1.545-1.414-1.414,2.659-2.659c.731-.73,1.92-.729,2.65,0Z"/>
</svg>
