<?xml version="1.0" encoding="UTF-8"?>
<svg xmlns="http://www.w3.org/2000/svg" id="Layer_1" data-name="Layer 1" viewBox="0 0 24 24">
  <path d="M17.575,22l1.994-16.286-1.94-.285,.662-4.291L9.346,.038l-.662,4.291-2-.269-2.293,17.94H0v2H24v-2h-6.425Zm-1.222-7.253l-1.983-.263,.263-1.983c.073-.547,.575-.933,1.123-.86,.547,.073,.932,.575,.86,1.123l-.263,1.983Zm.839-6.435l-.263,1.983-1.983-.263,.263-1.983c.073-.547,.575-.933,1.123-.86,.548,.073,.933,.575,.86,1.123Zm-3.035-5.305c.073-.547,.575-.932,1.123-.86,.547,.073,.932,.575,.86,1.123l-.263,1.983-1.983-.263,.263-1.983Zm-.324,4.795l-.263,1.983-1.983-.263,.263-1.983c.073-.547,.575-.932,1.123-.86,.547,.073,.932,.575,.86,1.123Zm-.839,6.435l-1.983-.263,.263-1.983c.073-.547,.575-.932,1.123-.86,.547,.073,.933,.575,.86,1.123l-.263,1.983ZM10.836,2.536c.073-.547,.575-.932,1.123-.86,.548,.073,.933,.575,.86,1.123l-.263,1.983-1.983-.263,.263-1.983Zm-2.306,4.533c.073-.547,.575-.932,1.123-.86,.548,.073,.933,.575,.86,1.123l-.263,1.983-1.983-.263,.263-1.983Zm-.577,4.453c.073-.548,.575-.933,1.123-.86,.547,.073,.932,.575,.86,1.123l-.263,1.983-1.983-.263,.263-1.983Zm-1.389,10.479l.816-6.185c.073-.547,.575-.933,1.123-.86,.547,.073,.932,.575,.86,1.123l-.777,5.922h-2.022Zm3.391,0l.746-5.714c.073-.547,.575-.932,1.123-.86,.547,.073,.932,.575,.86,1.123l-.706,5.451h-2.022Zm3.435,0l.669-5.204c.073-.547,.575-.932,1.123-.86,.547,.073,.932,.575,.86,1.123l-.63,4.941h-2.022Z"/>
</svg>
