<?xml version="1.0" encoding="UTF-8"?>
<svg xmlns="http://www.w3.org/2000/svg" id="Layer_1" data-name="Layer 1" viewBox="0 0 24 24">
  <path d="m16.284,10.158l-.601-.452,1.086-3.396-2.769-1.54v-.769h3.625l.981-3.75h.809l.98,3.75h3.605v.764l-2.75,1.591,1.105,3.357-.625.436-2.717-2.101-2.729,2.11Zm-2.804,6.822c-2.96-1.282-5.08-3.407-6.453-6.468l4.125-4.125L4.887.122,1.716,3.292c-1.106,1.105-1.716,2.6-1.716,4.208,0,7.248,9.252,16.5,16.5,16.5,1.607,0,3.102-.609,4.207-1.716l3.171-3.171-6.265-6.266-4.133,4.132Z"/>
</svg>
