<?xml version="1.0" encoding="UTF-8"?>
<svg xmlns="http://www.w3.org/2000/svg" id="Layer_1" data-name="Layer 1" viewBox="0 0 24 24">
  <path d="M18,12c-3.314,0-6,2.686-6,6s2.686,6,6,6,6-2.686,6-6-2.686-6-6-6Zm0,10c-.69,0-1.25-.56-1.25-1.25s.56-1.25,1.25-1.25,1.25,.56,1.25,1.25-.56,1.25-1.25,1.25Zm1.697-2.697c-.936-.936-2.458-.936-3.394,0l-1.132-1.131c1.56-1.56,4.098-1.56,5.657,0l-1.132,1.131Zm1.768-1.768c-.925-.925-2.155-1.435-3.464-1.435s-2.539,.51-3.464,1.435l-1.132-1.131c1.228-1.228,2.86-1.904,4.596-1.904s3.369,.676,4.596,1.904l-1.132,1.131Z"/>
  <path d="M10,18c0-.7,.099-1.376,.268-2.023-.718-.112-1.268-.728-1.268-1.477,0-.828,.672-1.5,1.5-1.5,.377,0,.717,.144,.981,.374,.289-.407,.615-.786,.973-1.132-1.177-1.018-2.958-.981-4.076,.136l-1.414-1.414c1.949-1.949,5.122-1.949,7.071,0l.068,.057c1.153-.647,2.48-1.022,3.897-1.022,1.06,0,2.07,.211,2.996,.585,0-.029,.004-.057,.004-.085C21,4.701,16.299,0,10.5,0S0,4.701,0,10.5s4.701,10.5,10.5,10.5c.029,0,.057-.004,.085-.004-.375-.926-.585-1.936-.585-2.996ZM4.49,8.49c1.605-1.605,3.74-2.49,6.01-2.49s4.405,.884,6.01,2.49l-1.414,1.414c-1.228-1.228-2.86-1.904-4.596-1.904s-3.369,.676-4.596,1.904l-1.414-1.414Z"/>
</svg>
