<?xml version="1.0" encoding="UTF-8"?>
<svg xmlns="http://www.w3.org/2000/svg" id="Layer_1" data-name="Layer 1" viewBox="0 0 24 24">
  <path d="m21,5h-2.435c.201-.358.342-.75.401-1.169.127-.888-.1-1.771-.637-2.488-.538-.718-1.323-1.183-2.211-1.31-.885-.125-1.771.1-2.488.637-.696.522-1.226,1.196-1.63,1.882-.404-.685-.934-1.36-1.63-1.881C9.653.133,8.769-.091,7.882.034c-.888.127-1.673.592-2.21,1.309-.538.717-.765,1.601-.638,2.488.06.419.2.813.399,1.169h-2.433c-1.654,0-3,1.346-3,3v3h24v-3c0-1.654-1.346-3-3-3Zm-6.171-2.729c.289-.217.648-.31,1.006-.257.358.051.676.239.894.529.218.29.309.647.258,1.005-.051.359-.239.676-.561.918-.037.029-.37.278-1.018.533h-2.308c.222-.757.75-1.994,1.73-2.729Zm-7.287,2.171c-.289-.218-.478-.535-.528-.894-.051-.358.04-.715.259-1.006.217-.29.534-.478.893-.529.354-.052.716.04,1.006.258.98.735,1.507,1.971,1.73,2.729h-2.308c-.648-.255-.984-.506-1.05-.558Zm12.492,12.558h3.966v.84l-3.025,1.75,1.216,3.693-.688.48-2.989-2.311-3.002,2.321-.661-.498,1.195-3.736-3.046-1.694v-.846h3.987l1.079-4.125h.89l1.078,4.125Zm-9.034,2.022l2.642,1.469-1.123,3.509H2v-11h13.967l-.523,2h-4.443v4.022Z"/>
</svg>
