<?xml version="1.0" encoding="UTF-8"?>
<svg xmlns="http://www.w3.org/2000/svg" id="Layer_1" data-name="Layer 1" viewBox="0 0 24 24">
  <path d="M23.996,13.957l-.127,1.124c-.794,7.021-7.366,8.876-10.731,8.876h-2.28C7.494,23.957,.921,22.102,.127,15.081l-.127-1.124H1.025c6.004,0,8.8,4.077,9.973,6.672v-5.72c-2.832-.479-4.998-2.943-4.998-5.909,0-2.18-.468-4.099-.743-5.039,.228,.006,1.839,.134,3.864,.964,2.135,.875,4.678,4.002,5.19,8.103,.002,.013,.092,.596,.197,1.415-.473,.219-.982,.372-1.511,.463v5.723c1.172-2.596,3.969-6.672,9.973-6.672h1.025ZM9.879,3.075c.697,.286,1.417,.742,2.113,1.34,.687-.587,1.41-1.045,2.128-1.34,1.002-.41,1.814-.661,2.434-.818,.124-1.579,.446-2.257,.446-2.257,0,0-2.5,0-5,1.5C9.5,0,7,0,7,0c0,0,.322,.678,.446,2.257,.619,.157,1.427,.405,2.433,.817Zm3.509,2.784c1.419,1.747,2.559,4.127,2.904,6.892,.003,.019,.024,.155,.055,.372,1.021-1.076,1.653-2.526,1.653-4.124,0-2.234,.491-4.194,.763-5.107-.202,.028-1.859,.202-3.884,1.032-.493,.202-.998,.524-1.491,.934Z"/>
</svg>
