<?xml version="1.0" encoding="UTF-8"?>
<svg xmlns="http://www.w3.org/2000/svg" id="Layer_1" data-name="Layer 1" viewBox="0 0 24 24">
  <path d="m17.5,16c0,.829-.671,1.5-1.5,1.5s-1.5-.671-1.5-1.5.671-1.5,1.5-1.5,1.5.671,1.5,1.5Zm4.639,7.553l-2.668-2.668c-.981.699-2.177,1.115-3.471,1.115-3.308,0-6-2.692-6-6s2.692-6,6-6,6,2.692,6,6c0,1.294-.416,2.49-1.115,3.471l2.668,2.668-1.414,1.414Zm-1.639-7.553c-.385-.777-1.728-3-4.5-3s-4.115,2.223-4.5,3c.383.775,1.728,3,4.5,3s4.115-2.223,4.5-3ZM15,.586v4.414h4.414L15,.586Zm-7,15.414c0-4.418,3.582-8,8-8,1.459,0,2.822.397,4,1.079v-2.079h-7V0H3C1.343,0,0,1.343,0,3v21h16c-4.418,0-8-3.582-8-8Z"/>
</svg>
