<?xml version="1.0" encoding="UTF-8"?>
<svg xmlns="http://www.w3.org/2000/svg" id="Layer_1" data-name="Layer 1" viewBox="0 0 24 24">
  <path d="M12,1.711l-.293-.293c-.146-.145-1.492-1.418-4.082-1.418C5.249,0,3.919,1.071,3.604,1.36,1.973,2.607,1,4.571,1,6.625c0,4.024,.675,9.038,1.241,12.535l.136,.84h5.827l-.221-1.184c-.501-2.684-.838-4.975-.991-6.728,.211,.024,.422,.037,.633,.037,2.59,0,3.937-1.273,4.082-1.418l.293-.293V1.711Zm-3.272,20.289l.456,2H3.279l-.403-2h5.851ZM21.759,4.84l-.136-.84h-5.827l.221,1.184c.501,2.684,.838,4.975,.991,6.728-.211-.024-.422-.037-.633-.037-2.59,0-3.937,1.273-4.082,1.418l-.293,.293v8.703l.293,.293c.146,.145,1.492,1.418,4.082,1.418,2.376,0,3.706-1.071,4.021-1.36,1.631-1.247,2.604-3.21,2.604-5.265,0-4.024-.675-9.038-1.241-12.535Zm-6.487-2.84l-.456-2h5.905l.403,2h-5.851Z"/>
</svg>
