<?xml version="1.0" encoding="UTF-8"?>
<svg xmlns="http://www.w3.org/2000/svg" id="Layer_1" data-name="Layer 1" viewBox="0 0 24 24">
  <path d="M21,4v15H7.908l-1.908,1.272v.728h10.697l3.964,2.643c1.355,.968,3.392-.126,3.339-1.788V7c0-1.654-1.346-3-3-3ZM16,0H3C1.346,0,0,1.346,0,3v14.854c-.053,1.663,1.984,2.753,3.339,1.788l3.963-2.643h11.697V3c0-1.654-1.346-3-3-3Zm-7.5,6.6h-1.9v1.101h1.9v1.6h-1.9v1.101h1.9v1.6h-3.5V5h3.5v1.6Zm5.667,5.4h-1.493l-1.68-3.547v3.547h-1.493V5h1.493v.008l1.68,3.547v-3.555h1.493v7Z"/>
</svg>
