<?xml version="1.0" encoding="UTF-8"?>
<svg xmlns="http://www.w3.org/2000/svg" id="Layer_1" data-name="Layer 1" viewBox="0 0 24 24">
  <path d="M4.418,5.907l-1.918-3.866L4.541,0l1.21,2.501,1.45-1.45c.343-.343,.928-.166,1.024,.309l.775,5.329-.446,.446-1.694-2.541-1.459,1.459c-.294,.294-.787,.221-.983-.146Zm12.682-1.401l1.432,1.432c.288,.288,.772,.216,.965-.143l1.882-3.793-2.002-2.002-1.187,2.454-1.422-1.422c-.336-.336-.911-.163-1.005,.303l-.76,5.228,.438,.438,1.662-2.493Zm5.901,11.493c0,2.757-2.243,5-5,5h-5v-3c0-1.156-.291-2.279-.825-3.283l-1.687,1.125c.322,.671,.512,1.402,.512,2.159v6h-2v-2.029c-.807,.608-1.795,.989-2.875,1.016-2.836-.068-5.125-2.386-5.125-5.237,0-1.694,.834-3.293,2.205-4.272,.588-2.229,2.443-3.938,4.72-4.355,.93-1.32,2.449-2.122,4.076-2.122s3.139,.804,4.071,2.128c1.331,.261,2.504,.993,3.316,2.069,2.117,.61,3.613,2.566,3.613,4.803Zm-4-1c-1.103,0-2-.897-2-2h-2c0,2.206,1.794,4,4,4v-2Z"/>
</svg>
