<?xml version="1.0" encoding="UTF-8"?>
<svg xmlns="http://www.w3.org/2000/svg" id="Layer_1" data-name="Layer 1" viewBox="0 0 24 24">
  <path d="M19.79,14.08c-.77-2.868-1.923-6.013-2.504-7.534,.455-.18,1.016-.385,1.504-.514,.38-.103,.671,.062,.81,.169,.254,.195,.4,.491,.4,.81h2c0-.944-.431-1.817-1.181-2.395-.732-.564-1.658-.753-2.542-.518-1.982,.593-2.467,.914-3.561,1.383,.516,1.309,.52,1.244,1.476,3.881l-4.424,3.441-2.523-2.803h1.755v-2H5v2h1.555l3.63,4.034-1.744,1.356c-.898-.856-2.106-1.39-3.442-1.39-2.757,0-5,2.243-5,5s2.243,5,5,5,5-2.243,5-5c0-.7-.147-1.366-.408-1.971l7.288-5.668c.304,.919,.604,1.881,.866,2.819-2.148,.561-3.746,2.5-3.746,4.821,0,2.757,2.243,5,5,5s5-2.243,5-5c0-2.486-1.83-4.538-4.21-4.92ZM10,6H1v-2H10v2Zm2-4H3V0H12V2ZM3,10H0v-2H3v2Z"/>
</svg>
