<?xml version="1.0" encoding="UTF-8"?>
<svg xmlns="http://www.w3.org/2000/svg" id="Layer_1" data-name="Layer 1" viewBox="0 0 24 24">
  <path d="M8.5,0L2,3.753v7.247H15V3.753L8.5,0Zm-2,10h-.91l-1.59-2.868v2.868h-1V5h.961l1.539,2.775v-2.775h1v5Zm3.499-1.989l-1.499-.004v1.993h-1V5h2.5v1h-1.5v1.007l1.501,.004-.003,1Zm4.001-2h-1v3.989h-1v-3.989h-1v-1h3v1Zm9.148,4.67c-.515-.469-1.186-.712-1.878-.678-.697,.032-1.339,.334-1.794,.835l-3.541,3.737c.032,.21,.065,.42,.065,.638,0,2.083-1.555,3.876-3.617,4.17l-4.241,.606-.283-1.979,4.152-.593c.936-.134,1.748-.806,1.94-1.732,.296-1.425-.79-2.685-2.164-2.685H3c-1.657,0-3,1.343-3,3v5c0,1.657,1.343,3,3,3h7.469c2.508,0,4.902-1.046,6.605-2.887l6.264-6.768c.948-1.062,.862-2.707-.189-3.665Z"/>
</svg>
