<?xml version="1.0" encoding="UTF-8"?>
<svg xmlns="http://www.w3.org/2000/svg" id="Layer_1" data-name="Layer 1" viewBox="0 0 24 24">
  <path d="m16.5,15.5c0-1.379,1.121-2.5,2.5-2.5s2.5,1.121,2.5,2.5-1.121,2.5-2.5,2.5-2.5-1.121-2.5-2.5Zm7.5,6.5v2h-10v-2c0-1.654,1.346-3,3-3h4c1.654,0,3,1.346,3,3Zm-5-17c1.379,0,2.5-1.121,2.5-2.5s-1.121-2.5-2.5-2.5-2.5,1.121-2.5,2.5,1.121,2.5,2.5,2.5Zm5,4v2h-10v-2c0-1.654,1.346-3,3-3h4c1.654,0,3,1.346,3,3Zm-12.562,8.635c.359.359.562.848.562,1.367,0,.519-.203,1.006-.57,1.372l-3.484,3.565-1.43-1.398,2.483-2.541H3c-1.654,0-3-1.346-3-3V7c0-1.654,1.346-3,3-3h8v2H3c-.552,0-1,.448-1,1v10c0,.552.448,1,1,1h6.046l-2.53-2.541,1.43-1.398,3.493,3.574Z"/>
</svg>
