<?xml version="1.0" encoding="UTF-8"?>
<svg xmlns="http://www.w3.org/2000/svg" id="Layer_1" data-name="Layer 1" viewBox="0 0 24 24">
  <path d="M3.365,3.333l-.833,1.667-.833-1.667L.031,2.5l1.667-.833,.833-1.667,.833,1.667,1.667,.833-1.667,.833Zm10.23,15.513l.49,2.694c.233,1.281-.751,2.46-2.053,2.46s-2.286-1.179-2.053-2.46l.489-2.689c-4.216-.774-7.436-4.667-7.436-9.351C3.031,4.262,7.055,0,12,0c4.977,0,9,4.262,9,9.5,0,4.673-3.204,8.559-7.406,9.346ZM8.076,6.152h0l-.576-1.152-1,2-2,1,2,1,1,2,1-2,2-1-2-1-.424-.848Zm10.924,3.348c0-4.136-3.112-7.5-6.969-7.5-1.209,0-2.346,.333-3.338,.914l.902,1.803c.729-.452,1.567-.718,2.468-.718,2.723,0,4.938,2.468,4.938,5.5s-2.229,5.5-4.969,5.5h-.031c-1.354,0-2.572-.615-3.469-1.591l-.945,1.89c1.203,1.062,2.74,1.701,4.413,1.701h.031c3.843,0,6.969-3.364,6.969-7.5Z"/>
</svg>
