<?xml version="1.0" encoding="UTF-8"?>
<svg xmlns="http://www.w3.org/2000/svg" id="Layer_1" data-name="Layer 1" viewBox="0 0 24 24">
  <path d="M7.132,6.95c-1.269-1.268-2.055-3.019-2.055-4.95,0-.695,.105-1.366,.295-2h2.129c-.269,.614-.424,1.288-.424,2,0,1.033,.315,1.994,.854,2.791l-.799,2.159Zm10.504,2.113l.719,1.956c2.849-1.99,4.721-5.288,4.721-9.019,0-.684-.071-1.35-.191-2h-2.041c.147,.644,.232,1.312,.232,2,0,2.864-1.349,5.414-3.44,7.063Zm-.737-2.003c1.338-1.276,2.177-3.07,2.177-5.06,0-.695-.105-1.366-.295-2h-2.129c.269,.614,.424,1.288,.424,2,0,1.095-.364,2.1-.963,2.924l.786,2.136Zm-11.236,3.859l.723-1.953c-2.018-1.652-3.31-4.16-3.31-6.966,0-.688,.085-1.356,.232-2H1.268c-.12,.65-.191,1.316-.191,2,0,3.671,1.815,6.92,4.587,8.919ZM13.429,3.418l7.571,20.582h-2.107L11.999,5.323l-3.571,9.677h5.011l.738,2H7.69l-1.107,3H15.285l.738,2H5.845l-.738,2H2.957L10.583,3.387c-.347-.36-.563-.847-.563-1.387,0-1.105,.895-2,2-2s2,.895,2,2c0,.554-.226,1.056-.59,1.418Zm-1.41-1.418h-.002s0,0,0,0h0Z"/>
</svg>
