<?xml version="1.0" encoding="UTF-8"?>
<svg xmlns="http://www.w3.org/2000/svg" id="Layer_1" data-name="Layer 1" viewBox="0 0 24 24">
  <path d="m3,19.5c0,.828-.672,1.5-1.5,1.5s-1.5-.672-1.5-1.5.672-1.5,1.5-1.5,1.5.672,1.5,1.5Zm3.5,1.5c-.828,0-1.5.672-1.5,1.5s.672,1.5,1.5,1.5,1.5-.672,1.5-1.5-.672-1.5-1.5-1.5Zm11,0c-.828,0-1.5.672-1.5,1.5s.672,1.5,1.5,1.5,1.5-.672,1.5-1.5-.672-1.5-1.5-1.5Zm-5.5-3c-.828,0-1.5.672-1.5,1.5s.672,1.5,1.5,1.5,1.5-.672,1.5-1.5-.672-1.5-1.5-1.5Zm10.5,0c-.828,0-1.5.672-1.5,1.5s.672,1.5,1.5,1.5,1.5-.672,1.5-1.5-.672-1.5-1.5-1.5ZM12,5c-1.654,0-3,1.346-3,3s1.346,3,3,3,3-1.346,3-3-1.346-3-3-3Zm12,3v8c-.69,0-1.326-.23-1.833-.616-.673-.512-1.661-.512-2.334,0-.507.386-1.143.616-1.833.616s-1.326-.23-1.833-.616c-.673-.512-1.661-.512-2.334,0-.507.386-1.143.616-1.833.616s-1.326-.23-1.833-.616c-.673-.512-1.661-.512-2.334,0-.507.386-1.143.616-1.833.616s-1.326-.23-1.833-.616c-.673-.512-1.661-.512-2.334,0-.507.386-1.143.616-1.833.616v-8c1.783,0,3.419-.975,4.27-2.545.351-.647.658-1.209.801-1.456C6.498,1.532,9.153,0,12,0s5.502,1.532,6.929,3.999c.143.247.45.808.801,1.456.851,1.57,2.487,2.545,4.27,2.545Zm-7,0c0-2.757-2.243-5-5-5s-5,2.243-5,5,2.243,5,5,5,5-2.243,5-5Z"/>
</svg>
