<?xml version="1.0" encoding="UTF-8"?>
<svg xmlns="http://www.w3.org/2000/svg" id="Layer_1" data-name="Layer 1" viewBox="0 0 24 24">
  <path d="M15,2.5c0-1.381,1.119-2.5,2.5-2.5s2.5,1.119,2.5,2.5-1.119,2.5-2.5,2.5-2.5-1.119-2.5-2.5ZM2.5,5c1.381,0,2.5-1.119,2.5-2.5S3.881,0,2.5,0,0,1.119,0,2.5s1.119,2.5,2.5,2.5Zm14.903,10.374l.953-3.747,4.72,2.551,.951-1.76-5.162-2.796c.222-.873,.034-1.783-.515-2.498-.549-.714-1.397-1.13-2.298-1.14-.682,0-1.523,.396-2.462,.989-.16,.101-3.851,2.247-3.851,2.247L3.824,6.377c-.386-.237-.833-.377-1.311-.377-.768,0-1.483,.344-1.962,.944S-.107,8.317,.063,9.068l2.072,8.761,1.833-.452,1.603,6.611h2.058l-1.719-7.09,1.244-.307-1.866-7.357,4.609,2.254,4.041-2.274-.859,3.531c-.301,1.286,.291,2.64,1.439,3.292l4.741,2.693,2.864,5.25,1.756-.958-3.136-5.75-3.339-1.897Zm-4.381,1.758l-2.144,6.868h2.199l1.722-5.774-1.029-.585c-.259-.147-.508-.317-.747-.509Z"/>
</svg>
