<?xml version="1.0" encoding="UTF-8"?>
<svg xmlns="http://www.w3.org/2000/svg" id="Layer_1" data-name="Layer 1" viewBox="0 0 24 24">
  <path d="m23.972,7.434l-.796-3.79c-.478-2.282-2.039-3.645-4.176-3.645-2.157,0-3.678,1.327-4.175,3.64-.291,1.356-.646,3.066-.798,3.798-.08.384.016.778.263,1.082.249.305.617.48,1.012.48h1.971c.123.844.843,1.494,1.722,1.494s1.598-.65,1.722-1.494h1.981c.396,0,.765-.175,1.013-.481.247-.304.342-.699.261-1.084Z"/>
  <path d="m17.613,12.848l6.265,6.266-3.171,3.171c-1.105,1.106-2.6,1.716-4.207,1.716C9.252,24,0,14.748,0,7.5c0-1.608.609-3.103,1.716-4.208L4.887.122l6.265,6.265-4.125,4.125c1.373,3.061,3.493,5.186,6.453,6.468l4.133-4.132Z"/>
</svg>
