<?xml version="1.0" encoding="UTF-8"?>
<svg xmlns="http://www.w3.org/2000/svg" id="Layer_1" data-name="Layer 1" viewBox="0 0 24 24">
  <path d="M7,19c0,2.757-2.243,5-5,5H-.037l2.339-3.946c.457-.771,.698-1.653,.698-2.549v-5.505C3,5.383,8.383,0,15,0c2.911,0,5.719,1.056,7.906,2.973l.749,.657-2.686,3.087c-1.449-1.632-3.54-2.684-5.856-2.716-2.151-.042-4.194,.788-5.73,2.303-1.536,1.516-2.383,3.539-2.383,5.696v7Zm12-6l1.429,2.859c.494,.988,1.698,1.384,2.682,.881l-2.128-4.535v-.528c-.173-3.058-2.816-5.634-5.897-5.677-.883,0-1.859,.153-2.648,.55-2.184,1.099-3.438,3.174-3.438,5.45v7c0,1.958-.81,3.728-2.111,5H23l-3.018-6.904-4.982-2.096v-2h4Z"/>
</svg>
