<?xml version="1.0" encoding="UTF-8"?>
<svg xmlns="http://www.w3.org/2000/svg" id="Layer_1" data-name="Layer 1" viewBox="0 0 24 24">
  <path d="M22.589,.73c-.027,.013-2.835,1.27-5.587,1.27C14.002,1.952,10.066-.027,7.002,0,3.16,.147,.778,2.017,0,2.464V24H2v-6.437c.892-.51,2.981-1.563,5.002-1.563,2.999,.049,6.937,2.027,10,2,3.916-.138,5.98-1.31,7-1.715V.09l-1.413,.64ZM8.836,12.534c-.719,.411-1.636,.16-2.046-.559-.411-.719-.16-1.636,.559-2.046,.719-.411,1.636-.16,2.046,.559,.411,.719,.16,1.636-.559,2.046Zm.559-5.021c-.411,.719-1.327,.97-2.046,.559-.719-.411-.97-1.327-.559-2.046s1.327-.97,2.046-.559,.97,1.327,.559,2.046Zm2.605,7.487c-.828,0-1.5-.672-1.5-1.5s.672-1.5,1.5-1.5,1.5,.672,1.5,1.5-.672,1.5-1.5,1.5Zm0-9c-.828,0-1.5-.672-1.5-1.5s.672-1.5,1.5-1.5,1.5,.672,1.5,1.5-.672,1.5-1.5,1.5Zm5.211,5.974c-.411,.719-1.327,.97-2.046,.559-.719-.411-.97-1.327-.559-2.046,.411-.719,1.327-.97,2.046-.559,.719,.411,.97,1.327,.559,2.046Zm-.559-3.903c-.719,.411-1.636,.16-2.046-.559-.411-.719-.16-1.636,.559-2.046s1.636-.16,2.046,.559,.16,1.636-.559,2.046Z"/>
</svg>
