<?xml version="1.0" encoding="UTF-8"?>
<svg xmlns="http://www.w3.org/2000/svg" id="Layer_1" data-name="Layer 1" viewBox="0 0 24 24">
  <path d="M14.5,14.6c.496,0,.9,.404,.9,.9v3c0,.496-.404,.9-.9,.9s-.9-.404-.9-.9v-3c0-.496,.404-.9,.9-.9m0-1.6c-1.381,0-2.5,1.119-2.5,2.5v3c0,1.381,1.119,2.5,2.5,2.5s2.5-1.119,2.5-2.5v-3c0-1.381-1.119-2.5-2.5-2.5h0Zm-6,6.4c-.496,0-.9-.404-.9-.9v-3c0-.496,.404-.9,.9-.9s.9,.404,.9,.9h1.6c0-1.381-1.119-2.5-2.5-2.5s-2.5,1.119-2.5,2.5v3c0,1.381,1.119,2.5,2.5,2.5s2.5-1.119,2.5-2.5h-1.6c0,.496-.404,.9-.9,.9Zm13.385,.6c0-1.105-.895-2-2-2s-2,.895-2,2v.333h1.333v-.333c0-.368,.298-.667,.667-.667s.667,.298,.667,.667h0c0,1-2.667,1.84-2.667,3.346v.654h4v-1.333h-2c.575-.526,2-1.244,2-2.667ZM9,11h5c2.761,0,5,2.239,5,5v.106c.286-.065,.58-.106,.885-.106,.999,0,1.903,.381,2.605,.989h.008c.942-1.252,1.503-2.805,1.503-4.489,0-3.838-2.829-6.981-6.559-7.441C15.954,1.311,11.723-.945,7.556,.384,4.141,1.473,1.83,4.829,2.01,8.409c.028,.557,.113,1.105,.255,1.64-1.416,1.025-2.266,2.664-2.266,4.45,0,2.594,1.808,4.769,4.228,5.346-.135-.428-.228-.874-.228-1.346v-2.5c0-2.761,2.239-5,5-5Z"/>
</svg>
