<?xml version="1.0" encoding="UTF-8"?>
<svg xmlns="http://www.w3.org/2000/svg" id="Layer_1" data-name="Layer 1" viewBox="0 0 24 24">
  <path d="m15.5,4l-6,7,2.06-6h-4.121l2.06,6L3.5,4,6.5,0h2.126l-1.126,3h4l-1.126-3h2.126l3,4Zm7.652,4.681c-.515-.469-1.186-.712-1.878-.678-.697.032-1.339.334-1.794.835l-3.541,3.737c.032.21.065.42.065.638,0,2.083-1.555,3.876-3.617,4.17l-4.241.606-.283-1.979,4.241-.606c1.084-.155,1.9-1.097,1.9-2.191,0-1.22-.993-2.213-2.213-2.213H3.003C1.349,11,.003,12.346.003,14v7c0,1.654,1.346,3,3,3h9.664l10.674-11.655c.948-1.062.862-2.707-.189-3.665Z"/>
</svg>
