<?xml version="1.0" encoding="UTF-8"?>
<svg xmlns="http://www.w3.org/2000/svg" id="Layer_1" data-name="Layer 1" viewBox="0 0 24 24">
  <path d="M19,18.5c0,.275-.225,.5-.5,.5h-2.5v-1c0-1.103-.897-2-2-2h-3c-1.103,0-2,.897-2,2v1h-2v-1c0-1.103-.897-2-2-2H2c-1.103,0-2,.897-2,2v4c0,1.103,.897,2,2,2h3c1.103,0,2-.897,2-2v-1h2v1c0,1.103,.897,2,2,2h3c1.103,0,2-.897,2-2v-1h2.5c1.379,0,2.5-1.121,2.5-2.5v-1.5h-2v1.5Zm3-10h-4c-1.103,0-2,.897-2,2v3c0,1.103,.897,2,2,2h4c1.103,0,2-.897,2-2v-3c0-1.103-.897-2-2-2Zm-20-.5h3c1.103,0,2-.897,2-2v-1h2v1c0,1.103,.897,2,2,2h3c1.103,0,2-.897,2-2v-1h2.5c.275,0,.5,.224,.5,.5v1.5h2v-1.5c0-1.378-1.121-2.5-2.5-2.5h-2.5v-1c0-1.103-.897-2-2-2h-3c-1.103,0-2,.897-2,2v1h-2v-1c0-1.103-.897-2-2-2H2C.897,0,0,.897,0,2V6c0,1.103,.897,2,2,2Z"/>
</svg>
