<?xml version="1.0" encoding="UTF-8"?>
<svg xmlns="http://www.w3.org/2000/svg" id="Layer_1" data-name="Layer 1" viewBox="0 0 24 24">
  <path d="M21,0H3C1.346,0,0,1.346,0,3V20H6.923l3.749,3.157c.382,.339,.861,.507,1.337,.507,.468,0,.931-.163,1.292-.484l3.848-3.18h6.852V3c0-1.654-1.346-3-3-3ZM8.5,5c1.381,0,2.5,1.119,2.5,2.5s-1.119,2.5-2.5,2.5-2.5-1.119-2.5-2.5,1.119-2.5,2.5-2.5Zm4.5,10h-2v-1.5c0-.276-.225-.5-.5-.5H6.5c-.275,0-.5,.224-.5,.5v1.5h-2v-1.5c0-1.378,1.121-2.5,2.5-2.5h4c1.379,0,2.5,1.122,2.5,2.5v1.5Zm7-4h-2v2h-2v-2h-2v-2h2v-2h2v2h2v2Z"/>
</svg>
