<?xml version="1.0" encoding="UTF-8"?>
<svg xmlns="http://www.w3.org/2000/svg" id="Layer_1" data-name="Layer 1" viewBox="0 0 24 24">
  <path d="M14.4,10.25c0,.358-.292,.65-.65,.65h-.65v-1.3h.65c.358,0,.65,.292,.65,.65Zm9.6-2.25v10H0V8c0-1.654,1.346-3,3-3H21c1.654,0,3,1.346,3,3Zm-16.5,0H3.5v1.6h1.2v5.4h1.6v-5.4h1.2v-1.6Zm2.6,0h-1.6v7h1.6v-7Zm5.9,2.25c0-1.243-1.007-2.25-2.25-2.25h-2.25v7h1.6v-2.5h.65c1.243,0,2.25-1.007,2.25-2.25Zm5,2.673c0-1.303-1.128-1.842-1.951-2.235-.618-.296-1.023-.509-1.023-.765,0-.443,.525-.456,.585-.456,.23,0,.724,.279,1.022,.529l1.033-1.222c-.179-.151-1.117-.907-2.056-.907-1.245,0-2.185,.884-2.185,2.056,0,1.283,1.117,1.817,1.933,2.208,.734,.352,1.042,.539,1.042,.792,0,.519-.664,.534-.739,.534-.425,0-1.017-.381-1.288-.619l-1.064,1.195c.118,.104,1.185,1.023,2.353,1.023,1.134,0,2.339-.748,2.339-2.134Z"/>
</svg>
