<?xml version="1.0" encoding="UTF-8"?>
<svg xmlns="http://www.w3.org/2000/svg" id="Layer_1" data-name="Layer 1" viewBox="0 0 24 24">
  <path d="m14.121,17.122l6.879-6.879V3c0-1.654-1.346-3-3-3H6c-1.654,0-3,1.346-3,3v7.243l6.878,6.879c1.134,1.133,3.11,1.133,4.243,0ZM6,7c0-2.206,1.794-4,4-4h5.5c1.379,0,2.5,1.122,2.5,2.5s-1.121,2.5-2.5,2.5h-5.5v-2h5.5c.275,0,.5-.224.5-.5s-.225-.5-.5-.5h-5.5c-1.103,0-2,.897-2,2s.897,2,2,2h6v2h-6c-2.206,0-4-1.794-4-4Zm18,5.231v11.769H0v-11.769c.001-.609.156-1.201.419-1.742l8.046,8.046c.945.944,2.2,1.464,3.536,1.464s2.591-.52,3.535-1.464l8.048-8.048c.263.541.417,1.134.417,1.744Z"/>
</svg>
