<?xml version="1.0" encoding="UTF-8"?>
<svg xmlns="http://www.w3.org/2000/svg" id="Layer_1" data-name="Layer 1" viewBox="0 0 24 24">
  <path d="m9.5,2.5c0-1.381,1.119-2.5,2.5-2.5s2.5,1.119,2.5,2.5-1.119,2.5-2.5,2.5-2.5-1.119-2.5-2.5Zm-.5,5.439L4.257,2.669l1.486-1.338,4.202,4.669h4.109l4.202-4.669,1.486,1.338-4.743,5.27v8.061h-2v-3h-2v3h-2V7.939Zm5,10.061h-4c-1.105,0-2,.895-2,2v4h8v-4c0-1.105-.895-2-2-2Zm-9.5,2H1.5c-.828,0-1.5.672-1.5,1.5v2.5h6v-2.5c0-.828-.672-1.5-1.5-1.5Zm18,1h-3c-.828,0-1.5.672-1.5,1.5v1.5h6v-1.5c0-.828-.672-1.5-1.5-1.5Z"/>
</svg>
