<?xml version="1.0" encoding="UTF-8"?>
<svg xmlns="http://www.w3.org/2000/svg" id="Layer_1" data-name="Layer 1" viewBox="0 0 24 24">
  <path d="M9,7.785l7.056,4.218-7.038,4.233,1.805-4.239-1.825-4.211h.001Zm15,4.214c0,6.617-5.383,12-12,12S0,18.617,0,12,5.383,0,12,0s12,5.383,12,12Zm-4.055-.002L10.004,6.055l-.023-.013c-.609-.342-1.338-.344-1.948-.007-.965,.533-1.316,1.752-.826,2.63l1.44,3.339-1.408,3.316c-.304,.592-.292,1.312,.036,1.896,.365,.647,1.039,1.013,1.741,1.013,.34,0,.686-.085,1.007-.266l9.921-5.965Z"/>
</svg>
