<?xml version="1.0" encoding="UTF-8"?>
<svg xmlns="http://www.w3.org/2000/svg" id="Layer_1" data-name="Layer 1" viewBox="0 0 24 24">
  <path d="m22.528,18.01l1.472-4.01h-7.263l2.741-12.791-1.955-.419-2.831,13.209h-1.692V0h-2v14h-1.692L6.478.791l-1.955.419,2.741,12.791H0l1.43,3.909.045.104c.797,1.59,1.57,2.331,2.587,2.681-.264.356-.524.764-.785,1.285l-.743,2.02h2.118l.437-1.174c.814-1.61,1.249-1.804,2.708-1.828l8.137-.004c1.901.013,2.276.256,3.081,1.839l.435,1.166h2.119l-.696-1.908-.047-.108c-.269-.531-.535-.967-.807-1.328.973-.366,1.732-1.109,2.509-2.645Z"/>
</svg>
