<?xml version="1.0" encoding="UTF-8"?>
<svg xmlns="http://www.w3.org/2000/svg" id="Layer_1" data-name="Layer 1" viewBox="0 0 24 24">
  <path d="M12,13.333s-4-2.829-4-5.133c0-1.215,.895-2.2,2-2.2s2,.985,2,2.2c0-1.215,.895-2.2,2-2.2s2,.985,2,2.2c0,2.304-4,5.133-4,5.133ZM5,5c1.381,0,2.5-1.119,2.5-2.5S6.381,0,5,0,2.5,1.119,2.5,2.5s1.119,2.5,2.5,2.5Zm1,3.2c0-.809,.229-1.558,.608-2.2H3c-1.654,0-3,1.346-3,3v8H2v7h2v-7h2v7h2v-7h2v-2.673c-1.525-1.223-4-3.596-4-6.127ZM21.5,2.5c0-1.381-1.119-2.5-2.5-2.5s-2.5,1.119-2.5,2.5,1.119,2.5,2.5,2.5,2.5-1.119,2.5-2.5Zm-7.5,11.827v2.673h2s0,7,0,7h2v-7s2,0,2,0v7h2v-7s2,0,2,0V9c0-1.654-1.346-3-3-3h-3.608c.379,.642,.608,1.391,.608,2.2,0,2.531-2.475,4.904-4,6.127Z"/>
</svg>
