<?xml version="1.0" encoding="UTF-8"?>
<svg xmlns="http://www.w3.org/2000/svg" id="Layer_1" data-name="Layer 1" viewBox="0 0 24 24">
  <path d="M15.458,4.291l3.642-.167,1.899,.875v1h3v2l-2.5,1.5-2.4,.442-2.033,3.403,1.384,1.652-1.951,3.002-1.5,.5-1.5,1.5h-4l-2.5,2.185-3.5-3.5,1-3-1.5-3,1-.5v-2l1.816-1.952-.816-1.048-2.5,.5L.5,6.685,0,3.678l2.5-.993,1-1.5,1.5,1,2,.5,2.5,.5s.787-.621,1-1c1.268,.245,4.438,1.096,4.438,1.096l.52,1.01Zm8.458,13.257l-3,2.5-2.049-2.102,2.132-2.761,2.917,2.363Zm-4.982,3.966l-.608-1.343-2.318,1.738,1.159,1.159,1.766-1.554Zm4.536-7.505l.535-.974-1.606-1.703-1.071,1.606,2.142,1.071Z"/>
</svg>
