<?xml version="1.0" encoding="UTF-8"?>
<svg xmlns="http://www.w3.org/2000/svg" id="Layer_1" data-name="Layer 1" viewBox="0 0 24 24">
  <path d="M21.414,5h-4.414V.586l4.414,4.414Zm-6.625,10.03l-.759-.147-.049-.771c-.074-1.184-1.054-2.111-2.231-2.111-1.241,0-2.25,1.01-2.25,2.25,0,.246,.048,.497,.146,.767l.458,1.253-1.332,.088c-.433,.028-.772,.387-.772,.816,0,.455,.371,.826,.826,.826h5.674c.827,0,1.5-.673,1.5-1.5,0-.715-.51-1.333-1.211-1.47Zm.211-8.03V0H5c-1.657,0-3,1.343-3,3V24H22V7h-7Zm-.5,13h-5.674c-1.559,0-2.826-1.268-2.826-2.826,0-1.078,.616-2.026,1.523-2.5-.016-.142-.023-.283-.023-.424,0-2.344,1.907-4.25,4.25-4.25,1.99,0,3.684,1.395,4.124,3.283,1.266,.54,2.126,1.797,2.126,3.217,0,1.93-1.57,3.5-3.5,3.5Z"/>
</svg>
