<?xml version="1.0" encoding="UTF-8"?>
<svg xmlns="http://www.w3.org/2000/svg" id="Layer_1" data-name="Layer 1" viewBox="0 0 24 24">
  <path d="m19,0c-2.761,0-5,2.239-5,5s2.239,5,5,5,5-2.239,5-5S21.761,0,19,0Zm1.293,7.707l-2.293-2.293v-3.414h2v2.586l1.707,1.707-1.414,1.414Zm-10.413,6.413L.362,4.602c.505-.948,1.491-1.602,2.638-1.602h9.294c-.189.634-.294,1.305-.294,2,0,3.041,1.943,5.622,4.652,6.588l-2.532,2.532c-1.17,1.17-3.07,1.17-4.24,0Zm14.12-4.226v14.106H0V7.07l8.46,8.46c.98.97,2.26,1.46,3.54,1.46s2.57-.49,3.54-1.46l3.534-3.534c1.93-.02,3.672-.82,4.926-2.102Z"/>
</svg>
