<?xml version="1.0" encoding="UTF-8"?>
<svg xmlns="http://www.w3.org/2000/svg" id="Layer_1" data-name="Layer 1" viewBox="0 0 24 24">
  <path d="m17,2h-4V0h4c1.654,0,3,1.346,3,3v3.006l1.498-1.508,1.414,1.414-2.506,2.506c-.388.387-.897.581-1.406.581s-1.018-.193-1.405-.58l-2.507-2.507,1.414-1.414,1.498,1.498v-2.997c0-.551-.448-1-1-1ZM6,21v-2.997l1.498,1.498,1.414-1.414-2.507-2.507c-.774-.771-2.035-.774-2.812,0l-2.506,2.506,1.414,1.414,1.498-1.508v3.006c0,1.654,1.346,3,3,3h4v-2h-4c-.552,0-1-.449-1-1Zm5-15.5c0,1.899-.968,3.636-2.588,4.647-.254.158-.412.468-.412.807v2.046H3v-2.045c0-.341-.153-.647-.4-.801C.727,8.992-.269,6.829.065,4.643.408,2.403,2.115.588,4.314.125c1.655-.35,3.353.051,4.648,1.102,1.295,1.05,2.037,2.608,2.037,4.273Zm-3.5-1.5H3.5c0,.738.405,1.376,1,1.723v4.277h2v-4.277c.595-.346,1-.984,1-1.723Zm16.5,12.5c0,1.899-.968,3.636-2.588,4.647-.254.158-.412.468-.412.807v2.046h-5v-2.045c0-.341-.153-.647-.4-.801-1.873-1.162-2.868-3.325-2.534-5.511.343-2.239,2.05-4.055,4.249-4.518,1.655-.35,3.353.051,4.648,1.102,1.295,1.05,2.037,2.608,2.037,4.273Zm-3.5-1.5h-4c0,.738.405,1.376,1,1.723v4.277h2v-4.277c.595-.346,1-.984,1-1.723Z"/>
</svg>
