<?xml version="1.0" encoding="UTF-8"?>
<svg xmlns="http://www.w3.org/2000/svg" id="Layer_1" data-name="Layer 1" viewBox="0 0 24 24">
  <path d="M12,2c0-1.105-.895-2-2-2H2C.895,0,0,.895,0,2V11.604c0,.515,.282,.987,.737,1.231,.207,.111,.433,.166,.659,.166,.27,0,.54-.079,.774-.234l2.576-1.717,.081-.048h7.173V2Zm-2.5,1.753h-.932c-.121,1.275-.617,2.731-1.607,3.866,.663,.403,1.49,.665,2.539,.665v1.253c-1.456,0-2.595-.418-3.488-1.053-.896,.64-2.049,1.053-3.512,1.053v-1.253c1.049,0,1.881-.258,2.545-.661-.554-.636-.957-1.372-1.223-2.123h1.336c.204,.468,.487,.92,.847,1.325,.818-.92,1.192-2.108,1.303-3.071H2.5v-1.253h2.873V1.5h1.253v1h2.873v1.253Zm8.639,10.21l.787,3.437h-1.757l.811-3.437c.016-.082,.142-.082,.159,0Zm3.861-2.963H14c-1.105,0-2,.895-2,2v9h7.173l.081,.048,2.576,1.717c.234,.155,.504,.234,.774,.234,.226,0,.453-.055,.659-.166,.454-.244,.737-.715,.737-1.231V13c0-1.105-.895-2-2-2Zm-2.364,9.5l-.389-1.7h-2.409l-.401,1.7h-1.437l1.616-6.853c.271-1.486,2.63-1.519,2.898,.049l1.559,6.804h-1.437Zm-1.636-18.5h-4V0h4c1.654,0,3,1.346,3,3v3.006l1.499-1.508,1.414,1.414-2.506,2.507c-.775,.775-2.037,.775-2.812,0l-2.507-2.508,1.414-1.414,1.499,1.499V3c0-.552-.449-1-1-1Z"/>
</svg>
