<?xml version="1.0" encoding="UTF-8"?>
<svg xmlns="http://www.w3.org/2000/svg" id="Layer_1" data-name="Layer 1" viewBox="0 0 24 24">
  <path d="M18,8v8h-1.6v-2h-1.601c-.993,0-1.8-.807-1.8-1.8v-4.2h1.6v4.2c0,.11,.09,.2,.2,.2h1.601v-4.4h1.6Zm3.5,5.1h.9v.4c0,.496-.404,.9-.9,.9s-.9-.404-.9-.9v-3c0-.496,.404-.9,.9-.9s.9,.404,.9,.9h1.6c0-1.381-1.119-2.5-2.5-2.5s-2.5,1.119-2.5,2.5v3c0,1.381,1.119,2.5,2.5,2.5s2.5-1.119,2.5-2.5v-2h-2.5v1.6Zm-1.5,4.9v3c0,1.654-1.346,3-3,3H7c-1.654,0-3-1.346-3-3v-3H20Zm-6,2h-4v2h4v-2Zm.4-4.021c-1.908-.2-3.4-1.819-3.4-3.779V6h9V0H4V16H14.4v-.021Z"/>
</svg>
