<?xml version="1.0" encoding="UTF-8"?>
<svg xmlns="http://www.w3.org/2000/svg" id="Layer_1" data-name="Layer 1" viewBox="0 0 24 24">
  <path d="M24.034,4.958l-.062,1.739c-.032,.952-.296,5.811-2.302,7.816-.979,.972-2.271,1.479-3.583,1.479-.795,0-1.596-.187-2.339-.569l-.34-.251c.131-.23,.281-.449,.469-.637l3.828-3.829-1.414-1.414-3.828,3.829c-.195,.195-.361,.411-.519,.631-.193-.26-.363-.49-.363-.49-1.022-1.974-.66-4.356,.901-5.93,1.916-1.916,6.462-2.249,7.81-2.305l1.74-.069ZM13.946,13.753c-.607,.843-.946,1.845-.946,2.904v2.343c0,1.654-1.346,3-3,3s-3-1.346-3-3v-6h.5c1.93,0,3.5-1.57,3.5-3.5v-3.5h1v-2h-3V0h-2V4h-2V0H3V4H0v2H1v3.5c0,1.93,1.57,3.5,3.5,3.5h.5v6c0,2.757,2.243,5,5,5s5-2.243,5-5v-2.343c0-.523,.152-1.033,.409-1.484,0,0-1.207-1.074-1.463-1.42Z"/>
</svg>
