<?xml version="1.0" encoding="UTF-8"?>
<svg xmlns="http://www.w3.org/2000/svg" id="Layer_1" data-name="Layer 1" viewBox="0 0 24 24">
  <path d="m13.631,18.507c0,.492-.4.893-.893.893h-1.738l-.013-1.785h1.752c.492,0,.893.4.893.892Zm-.617-3.192c0-.394-.321-.715-.715-.715h-1.298v1.415h1.374c.357-.04.639-.332.639-.7Zm5.987,1.685c0,3.866-3.134,7-7,7s-7-3.134-7-7c0-3.525,2.608-6.433,5.999-6.92l-.02-7.074-3.255,3.244-1.414-1.414L10.561.586c.779-.779,2.049-.779,2.828,0l4.286,4.2-1.4,1.428-3.295-3.229.02,7.095c3.392.486,6.001,3.395,6.001,6.921Zm-3.769,1.507c0-.734-.481-1.507-1.058-1.843.275-.381.441-.844.441-1.349,0-1.106-.803-2.022-1.84-2.252l-.002-1.063h-1.6l-.007,1h-1.665v8h1.7v1h1.6v-1l.231-.029c1.237-.146,2.2-1.187,2.2-2.463Z"/>
</svg>
