<?xml version="1.0" encoding="UTF-8"?>
<svg xmlns="http://www.w3.org/2000/svg" id="Layer_1" data-name="Layer 1" viewBox="0 0 24 24">
  <path d="M22.5,18c0-.46-.089-.895-.218-1.313l1.416-.816-.998-1.732-1.411,.813c-.605-.652-1.393-1.126-2.29-1.331v-1.621h-2v1.621c-.896,.205-1.685,.679-2.29,1.331l-1.411-.813-.998,1.732,1.416,.816c-.129,.418-.218,.853-.218,1.313s.089,.895,.218,1.313l-1.416,.816,.998,1.732,1.411-.813c.605,.652,1.393,1.126,2.29,1.331v1.621h2v-1.621c.896-.205,1.685-.679,2.29-1.331l1.411,.813,.998-1.732-1.416-.816c.129-.418,.218-.853,.218-1.313Zm-4.5,1.5c-.827,0-1.5-.673-1.5-1.5s.673-1.5,1.5-1.5,1.5,.673,1.5,1.5-.673,1.5-1.5,1.5Zm6-14.5v1H0V3C0,1.346,1.346,0,3,0h5.236l4,2h8.764c1.654,0,3,1.346,3,3ZM11.079,22H0V8H24v4.721c-1.466-1.665-3.607-2.721-6-2.721-4.418,0-8,3.582-8,8,0,1.459,.397,2.822,1.079,4Z"/>
</svg>
