<?xml version="1.0" encoding="UTF-8"?>
<svg xmlns="http://www.w3.org/2000/svg" id="Layer_1" data-name="Layer 1" viewBox="0 0 24 24">
  <path d="M21.01,9.249l-4.463,.867,3.769-2.542c1.233-1.043,1.311-2.917,.169-4.059-1.142-1.142-3.016-1.064-4.059,.169l-2.553,3.824,.878-4.518c.134-1.609-1.136-2.99-2.751-2.99s-2.885,1.38-2.751,2.99l.899,4.51-2.574-3.816c-1.043-1.233-2.917-1.311-4.059-.169h0c-1.142,1.142-1.064,3.016,.169,4.059l3.824,2.553-4.518-.878c-1.609-.134-2.99,1.136-2.99,2.751H0c0,1.615,1.38,2.885,2.99,2.751l4.566-.91-3.872,2.585c-1.233,1.043-1.311,2.917-.169,4.059h0c1.142,1.142,3.016,1.064,4.059-.169l2.574-3.816-.899,4.51c-.134,1.609,1.136,2.99,2.751,2.99s2.885-1.38,2.751-2.99l-.878-4.518,2.553,3.824c1.043,1.233,2.917,1.311,4.059,.169,1.142-1.142,1.064-3.016-.169-4.059l-3.816-2.574,4.51,.899c1.609,.134,2.99-1.136,2.99-2.751h0c0-1.615-1.38-2.885-2.99-2.751Zm-9.01,5.251c-1.381,0-2.5-1.119-2.5-2.5s1.119-2.5,2.5-2.5,2.5,1.119,2.5,2.5-1.119,2.5-2.5,2.5Z"/>
</svg>
