<?xml version="1.0" encoding="UTF-8"?>
<svg xmlns="http://www.w3.org/2000/svg" id="Layer_1" data-name="Layer 1" viewBox="0 0 24 24">
  <path d="M15,10.278c0-.787-.5-1.778-2-2.778,0,0,0-.008,0-.009,1.132-.044,2-.559,2-1.991,0-1.5-3.222-5.5-4.462-5.5-.916,0-1.52,.371-2.431,1.046-.199-.019-.392-.046-.608-.046s-.409,.027-.608,.046c-.911-.675-1.515-1.046-2.431-1.046C3.222,0,0,4,0,5.5c0,1.432,.868,1.947,2,1.991,0,0,0,.009,0,.009-1.5,1-2,1.991-2,2.778,0,3.5,3.624,4.722,7.125,4.722h.751c3.5,0,7.124-1.222,7.124-4.722ZM3.5,6.5c0-.828,.672-1.5,1.5-1.5s1.5,.672,1.5,1.5-.672,1.5-1.5,1.5-1.5-.672-1.5-1.5Zm4,4.5c-.966,0-1.5-.771-1.5-1.208s.534-.792,1.5-.792,1.5,.354,1.5,.792-.534,1.208-1.5,1.208Zm2.5-3c-.828,0-1.5-.672-1.5-1.5s.672-1.5,1.5-1.5,1.5,.672,1.5,1.5-.672,1.5-1.5,1.5Zm13.404,2.803l-.414-2.276-2.938,2.01c-.95-.55-1.985-.858-3.06-.934,.001,.039,.008,.08,.008,.118,0,.017-.024,.052-.033,.076,.02,.168,.033,.33,.033,.48,0,1.73-.649,3.197-1.811,4.317,.192,.252,.311,.563,.311,.905,0,.828-.672,1.5-1.5,1.5-.585,0-1.087-.339-1.334-.828-1.062,.421-2.289,.692-3.662,.787-.001,.132-.004,.263-.004,.399,0,3.663,2.98,6.643,6.643,6.643h1.714c3.663,0,6.643-2.979,6.643-6.643,0-3.241-.571-6.421-.596-6.554Zm-6.904,9.197c-.966,0-1.5-.771-1.5-1.208s.534-.792,1.5-.792,1.5,.354,1.5,.792-.534,1.208-1.5,1.208Zm2.5-3c-.828,0-1.5-.672-1.5-1.5s.672-1.5,1.5-1.5,1.5,.672,1.5,1.5-.672,1.5-1.5,1.5Z"/>
</svg>
