<?xml version="1.0" encoding="UTF-8"?>
<svg xmlns="http://www.w3.org/2000/svg" id="Layer_1" data-name="Layer 1" viewBox="0 0 24 24">
  <path d="m4,4c0-1.105,2-4,2-4,0,0,2,2.895,2,4s-.895,2-2,2-2-.895-2-2Zm11,12.858c.909-1.21,2.093-2.179,3.489-2.844-.537-1.812-1.478-3.502-2.782-4.807l-.707-.708-.707.708c-1.304,1.304-2.245,2.995-2.782,4.807,1.396.665,2.58,1.634,3.489,2.844Zm8.1-1.858c-4.769,0-8.1,3.331-8.1,8.1,0-4.769-3.331-8.1-8.1-8.1h-.9v.9c0,4.996,3.104,8.1,8.1,8.1h1.8c4.997,0,8.1-3.104,8.1-8.1v-.9h-.9Zm-19.1.9v-2.9h2.9c.956,0,1.87.113,2.729.329.438-1.432,1.097-2.742,1.911-3.902.008.013.015.026,0,0-.013-.022-.008-.013-.002-.002-.544-.77-1.526-1.424-2.538-1.424H3c-1.654,0-3,1.346-3,3v13h7.616c-2.293-1.75-3.616-4.562-3.616-8.1Z"/>
</svg>
