<?xml version="1.0" encoding="UTF-8"?>
<svg xmlns="http://www.w3.org/2000/svg" id="Layer_1" data-name="Layer 1" viewBox="0 0 24 24">
  <path d="m6,6.054v.946s2,1,6,1,6-1,6-1v-.979c1.219-.563,1.962-1.386,1.962-2.521,0-2.5-3.582-3.5-8-3.5S3.962,1,3.962,3.5c0,1.158.775,1.99,2.038,2.554Zm3.5-3.054h1.812l.491-1.875h.404l.49,1.875h1.802v.382l-1.375.796.552,1.679-.312.218-1.359-1.051-1.364,1.055-.301-.226.543-1.698-1.384-.77v-.384Zm8.5,15l-1.333,2h4.333v4H3v-4h4.333l-1.333-2h-3v-2h6.535l2.465,3.697,2.465-3.697h6.535v2h-3Zm-6.026-8c2.93,0,4.93-.494,5.998-.854-.078,3.241-2.738,5.854-5.998,5.854s-5.92-2.613-5.998-5.854c1.068.36,3.068.854,5.998.854Z"/>
</svg>
