<?xml version="1.0" encoding="UTF-8"?>
<svg xmlns="http://www.w3.org/2000/svg" id="Layer_1" data-name="Layer 1" viewBox="0 0 24 24">
  <path d="m13.246,6.988c0,.048,0,1.976,0,2.024.001.403-.322.729-.724.736-.402-.007-.768-.333-.767-.736,0-.048,0-1.976,0-2.024-.001-.403.344-.725.746-.731.402.007.747.328.746.731Zm5.754,16.426l4.414-4.414h-4.414v4.414ZM24,3v14h-7v7H0V3C0,1.346,1.346,0,3,0h18c1.654,0,3,1.346,3,3Zm-14.69,8.069l-.385-5.31c-.032-.535-.358-.759-.749-.759-.26,0-.501.184-.638.486l-.883,1.942-.883-1.942c-.137-.302-.378-.486-.638-.486-.391,0-.717.224-.749.759l-.385,5.31h1.217l.242-3.339,1.196,2.631,1.196-2.631.242,3.339h1.217Zm5.19-4.102c0-1.086-.914-1.964-2-1.964s-2,.877-2,1.964v2.066c0,1.086.914,1.967,2,1.967s2-.881,2-1.967v-2.066Zm4.747-1.934h-1.252l-.684,3.282-.826-3.282h-1.252l1.511,6h1.25l1.252-6Z"/>
</svg>
