<?xml version="1.0" encoding="UTF-8"?>
<svg xmlns="http://www.w3.org/2000/svg" id="Layer_1" data-name="Layer 1" viewBox="0 0 24 24">
  <path d="M20.403,17c-1.513,0-2.673,.948-3.403,1.785-.73-.837-1.89-1.785-3.403-1.785-1.983,0-3.597,1.57-3.597,3.5s1.614,3.5,3.597,3.5c1.513,0,2.673-.948,3.403-1.785,.73,.837,1.89,1.785,3.403,1.785,1.983,0,3.597-1.57,3.597-3.5s-1.614-3.5-3.597-3.5Zm-6.806,5c-.881,0-1.597-.673-1.597-1.5s.716-1.5,1.597-1.5c.931,0,1.759,.859,2.221,1.5-.457,.631-1.291,1.5-2.221,1.5Zm6.806,0c-.931,0-1.759-.859-2.221-1.5,.457-.631,1.291-1.5,2.221-1.5,.881,0,1.597,.673,1.597,1.5s-.716,1.5-1.597,1.5Zm-.989-17h-4.414V.586l4.414,4.414Zm-11.414,15.5c0,1.328,.482,2.548,1.283,3.5H0V3C0,1.343,1.343,0,3,0H13V7h7V15.024c-1.181,.084-2.183,.521-3,1.088-.909-.631-2.043-1.112-3.403-1.112-3.086,0-5.597,2.468-5.597,5.5Z"/>
</svg>
