<?xml version="1.0" encoding="UTF-8"?>
<svg xmlns="http://www.w3.org/2000/svg" id="Layer_1" data-name="Layer 1" viewBox="0 0 24 24">
  <path d="M20.791,8l2.66-2.66c.729-.73,.729-1.919,0-2.65L20.791,.03l-1.414,1.414,1.57,1.571H11.999C7.028,3.015,2.999,7.045,2.999,12.015c0,.353,.026,.7,.065,1.043l4.386,4.386-1.571,1.571H3.051l1.571-1.571-1.414-1.414-2.659,2.659c-.731,.731-.731,1.92,0,2.651l2.659,2.659,1.414-1.414-1.571-1.571H11.999c4.971,0,9-4.029,9-9,0-.354-.026-.701-.065-1.044l-4.385-4.385,1.571-1.571h2.828l-1.57,1.571,1.414,1.414Zm-8.44,8.8c-1.747,0-3.207-1.191-3.649-2.8h-1.201v-1.6h1.051v-.8h-1.051v-1.6h1.201c.442-1.608,1.902-2.8,3.649-2.8s3.207,1.191,3.649,2.8h-1.701c-.366-.709-1.097-1.2-1.948-1.2s-1.583,.491-1.948,1.2h2.098v1.6h-2.349v.8h2.349v1.6h-2.098c.366,.709,1.097,1.2,1.948,1.2s1.583-.491,1.948-1.2h1.701c-.442,1.609-1.902,2.8-3.649,2.8Z"/>
</svg>
