<?xml version="1.0" encoding="UTF-8"?>
<svg xmlns="http://www.w3.org/2000/svg" id="Layer_1" data-name="Layer 1" viewBox="0 0 24 24">
  <path d="M6.154,3.142c0-1.747,1.345-3.142,2.999-3.142h.001c.898,0,1.741,.422,2.315,1.156l.685,.877,.684-.877c.574-.735,1.417-1.156,2.315-1.156h.002c1.654,0,2.999,1.394,2.999,3.142,0,3.858-6.154,8.358-6.154,8.358,0,0-5.846-4.5-5.846-8.358ZM22.844,13.316l-.877,.684,.877,.685c.735,.574,1.156,1.417,1.156,2.315h0c0,1.655-1.394,3-3.142,3-2.609,0-6.128-2.737-7.95-4.513,.02,1.758,.527,4.853,3.597,6.649l-1.01,1.727c-3.864-2.261-4.544-6.069-4.583-8.288-1.829,1.782-5.223,4.425-7.77,4.425-1.747,0-3.142-1.345-3.142-2.999H0c0-.899,.422-1.742,1.156-2.316l.877-.685-.877-.684c-.735-.574-1.156-1.417-1.156-2.315v-.002c0-1.654,1.394-2.999,3.142-2.999,3.852,0,8.841,6.48,8.858,6.5h0c.013-.015,5.005-6.5,8.858-6.5,1.747,0,3.142,1.345,3.142,2.999v.002c0,.898-.422,1.741-1.156,2.315Z"/>
</svg>
