<?xml version="1.0" encoding="UTF-8"?>
<svg xmlns="http://www.w3.org/2000/svg" id="Layer_1" data-name="Layer 1" viewBox="0 0 24 24">
  <path d="m3,22.5c0,.828-.672,1.5-1.5,1.5s-1.5-.672-1.5-1.5.672-1.5,1.5-1.5,1.5.672,1.5,1.5Zm10.5,0c0,.828-.672,1.5-1.5,1.5s-1.5-.672-1.5-1.5.672-1.5,1.5-1.5,1.5.672,1.5,1.5Zm10.5,0c0,.828-.672,1.5-1.5,1.5s-1.5-.672-1.5-1.5.672-1.5,1.5-1.5,1.5.672,1.5,1.5ZM7.01,6.469L5.629,0h1.633s1.347,6.267,1.366,6.308c.02-.047,1.304-6.308,1.304-6.308h1.632l-1.308,6.425c-.126.647-.486,1.175-.961,1.412-.215.108-.442.162-.667.162-.262,0-.521-.073-.758-.218-.437-.268-.752-.752-.86-1.313Zm-7.01-.969V0h1.6v5.5c0,.496.404.9.9.9s.9-.404.9-.9V0h1.6v5.5c0,1.381-1.119,2.5-2.5,2.5S0,6.881,0,5.5Zm24-3.5v5h-2v-3.586l-8.5,8.5-2.698-2.698c.519-.419.926-.987,1.184-1.644l1.514,1.514,7.086-7.086h-3.586V0h5c1.103,0,2,.897,2,2Zm0,11v6c-.69,0-1.326-.23-1.833-.616-.673-.512-1.661-.512-2.334,0-.507.386-1.143.616-1.833.616s-1.326-.23-1.833-.616c-.673-.512-1.661-.512-2.334,0-.507.386-1.143.616-1.833.616s-1.326-.23-1.833-.616c-.673-.512-1.661-.512-2.334,0-.507.386-1.143.616-1.833.616s-1.326-.23-1.833-.616c-.673-.512-1.661-.512-2.334,0-.507.386-1.143.616-1.833.616v-6h24Z"/>
</svg>
