<?xml version="1.0" encoding="UTF-8"?>
<svg xmlns="http://www.w3.org/2000/svg" id="Layer_1" data-name="Layer 1" viewBox="0 0 24 24">
  <path d="m5.5,7c-1.93,0-3.5-1.57-3.5-3.5S3.57,0,5.5,0s3.5,1.57,3.5,3.5-1.57,3.5-3.5,3.5Zm9,0c-1.93,0-3.5-1.57-3.5-3.5s1.57-3.5,3.5-3.5,3.5,1.57,3.5,3.5-1.57,3.5-3.5,3.5Zm-10,4.5c0-1.328.474-2.548,1.261-3.5h-2.761c-1.654,0-3,1.346-3,3v3h5.121c-.394-.762-.621-1.612-.621-2.5Zm16.787,7.614l-1.775,1.775c-2.027-.773-3.521-2.208-4.403-4.403l1.775-1.775-2.712-2.712-1.378,1.378c-.54.539-.795,1.249-.795,1.957,0,3.914,5.032,8.665,8.665,8.665.708,0,1.418-.256,1.957-.795l1.378-1.378-2.712-2.712h-.001Zm-11.24-3.115h-3.048c-1.657,0-3,1.343-3,3v3h9.038c-1.627-1.785-2.78-3.94-2.99-6Zm-.048-1c.011,0,.021-.003.032-.003.079-1.154.538-2.224,1.349-3.034l1.836-1.836c-.535-1.249-1.776-2.127-3.218-2.127-1.93,0-3.5,1.57-3.5,3.5s1.57,3.5,3.5,3.5Zm7-7h-2.757c.56.678.96,1.492,1.144,2.385l3.615,3.615h.999v-3c0-1.654-1.346-3-3-3Z"/>
</svg>
