<?xml version="1.0" encoding="UTF-8"?>
<svg xmlns="http://www.w3.org/2000/svg" id="Layer_1" data-name="Layer 1" viewBox="0 0 24 24">
  <path d="M2.5,2.5C2.5,1.119,3.619,0,5,0s2.5,1.119,2.5,2.5-1.119,2.5-2.5,2.5-2.5-1.119-2.5-2.5Zm16.5,2.5c1.381,0,2.5-1.119,2.5-2.5s-1.119-2.5-2.5-2.5-2.5,1.119-2.5,2.5,1.119,2.5,2.5,2.5ZM11.996,0l-2.333,2.458,2.508,2.705-2.5,2.699,2.5,2.697-2.5,2.698,2.5,2.698-2.5,2.698,2.49,2.688-2.542,2.658h2.767l2.521-2.637-2.51-2.709,2.5-2.698-2.5-2.698,2.5-2.698-2.5-2.697,2.5-2.699-2.492-2.689L14.754,0h-2.757ZM6,24h2v-7h.477l.967-1.044-2.5-2.698,2.5-2.698-2.5-2.697,1.411-1.523c-.409-.209-.865-.339-1.356-.339H3c-1.654,0-3,1.346-3,3v8H2v7h2v-7h2v7ZM22.583,8.628c-.187-1.498-1.467-2.628-2.977-2.628h-1.213c-1.384,0-2.563,.953-2.897,2.265l2.127,2.295-2.5,2.698,2.5,2.698-2.5,2.698,.876,.946v4.4h2v-4h2v4h2v-4h2.004l-1.421-11.372Z"/>
</svg>
