<?xml version="1.0" encoding="UTF-8"?>
<svg xmlns="http://www.w3.org/2000/svg" id="Layer_1" data-name="Layer 1" viewBox="0 0 24 24">
  <path d="M20.402,17c-1.513,0-2.672,.947-3.402,1.784-.73-.837-1.89-1.784-3.402-1.784-1.983,0-3.598,1.57-3.598,3.5s1.614,3.5,3.598,3.5c1.513,0,2.672-.947,3.402-1.784,.73,.837,1.89,1.784,3.402,1.784,1.983,0,3.598-1.57,3.598-3.5s-1.614-3.5-3.598-3.5Zm-6.805,5c-.881,0-1.598-.673-1.598-1.5s.717-1.5,1.598-1.5c.931,0,1.759,.859,2.221,1.5-.462,.641-1.29,1.5-2.221,1.5Zm6.805,0c-.931,0-1.759-.859-2.221-1.5,.462-.641,1.29-1.5,2.221-1.5,.881,0,1.598,.673,1.598,1.5s-.717,1.5-1.598,1.5Zm3.598-17v1H0V3C0,1.346,1.346,0,3,0h5.236l4,2h8.764c1.654,0,3,1.346,3,3ZM0,8H24v8.292c-.974-.805-2.228-1.292-3.598-1.292-1.361,0-2.494,.479-3.402,1.108-.908-.629-2.041-1.108-3.402-1.108-3.087,0-5.598,2.468-5.598,5.5,0,.521,.079,1.022,.217,1.5H0V8Z"/>
</svg>
