<?xml version="1.0" encoding="UTF-8"?>
<svg xmlns="http://www.w3.org/2000/svg" id="Layer_1" data-name="Layer 1" viewBox="0 0 24 24">
  <path d="M15.013,18l.846-1h8.14v1c0,1.657-1.343,3-3,3H3c-1.657,0-3-1.343-3-3v-1H8.145l.846,1h6.023Zm2.487-11.4c-.496,0-.9,.404-.9,.9v3c0,.496,.404,.9,.9,.9s.9-.404,.9-.9v-3c0-.496-.404-.9-.9-.9Zm-11,0c-.496,0-.9,.404-.9,.9v3c0,.496,.404,.9,.9,.9s.9-.404,.9-.9v-3c0-.496-.404-.9-.9-.9ZM2,3V15h7.082l.846,1h4.157l.846-1h7.068V3H2Zm7,7.5c0,1.381-1.119,2.5-2.5,2.5s-2.5-1.119-2.5-2.5v-3c0-1.381,1.119-2.5,2.5-2.5s2.5,1.119,2.5,2.5v3Zm4.203,2.5h-1.6V7.835l-.417,.461-1.186-1.075,2.013-2.221h1.19V13Zm6.797-2.5c0,1.381-1.119,2.5-2.5,2.5s-2.5-1.119-2.5-2.5v-3c0-1.381,1.119-2.5,2.5-2.5s2.5,1.119,2.5,2.5v3Z"/>
</svg>
