<?xml version="1.0" encoding="UTF-8"?>
<svg xmlns="http://www.w3.org/2000/svg" id="Layer_1" data-name="Layer 1" viewBox="0 0 24 24">
  <path d="m8,12c-3.309,0-6-2.691-6-6S4.691,0,8,0s6,2.691,6,6-2.691,6-6,6Zm13,7v-2h2.91c-.423-2.507-2.403-4.486-4.91-4.91v2.91h-2v-2.91c-2.507.423-4.486,2.403-4.91,4.91h2.91v2h-2.91c.423,2.507,2.403,4.486,4.91,4.91v-2.91h2v2.91c2.507-.423,4.486-2.403,4.91-4.91h-2.91Zm-11-1c0-1.459.397-2.822,1.079-4h-6.079c-2.761,0-5,2.239-5,5v5h12.721c-1.665-1.466-2.721-3.607-2.721-6Z"/>
</svg>
