<?xml version="1.0" encoding="UTF-8"?>
<svg xmlns="http://www.w3.org/2000/svg" id="Layer_1" data-name="Layer 1" viewBox="0 0 24 24">
  <path d="m15,17.574h0v1.426c0,2.761-2.239,5-5,5h-2.602c-1.526,0-2.99-.606-4.069-1.685l-2.743-2.616c-.859-.859-.773-2.305.257-3.047.808-.582,1.943-.411,2.647.294l.51.525v-7.971c0-.828.672-1.5,1.5-1.5s1.5.672,1.5,1.5v5.5h1.01c-.003-2.326-.007-5.909-.007-6.503,0-.827.671-1.497,1.498-1.497s1.502.675,1.498,1.505l.003,6.495h.997v-4.501c0-.828.672-1.499,1.5-1.499s1.5.673,1.499,1.501h0s0,.007,0,.007v7.066Zm8.157-7.921c-.808-.582-1.943-.411-2.647.294l-.51.525V2.5c0-.828-.672-1.5-1.5-1.5s-1.5.672-1.5,1.5v5.5h-1.01c.003-2.326.007-5.909.007-6.503,0-.827-.671-1.497-1.498-1.497s-1.502.675-1.498,1.505l-.003,5.537c1.054-.148,2.197.201,2.978.984.64.641,1.001,1.486,1.022,2.389v6.564c1.382-.096,2.688-.681,3.673-1.666l2.743-2.616c.859-.859.773-2.305-.257-3.047Zm-13.656-4.652c.938,0,1.819.366,2.48,1.031.007.007.011.015.018.022v-2.554c0-.828-.672-1.499-1.5-1.499s-1.5.673-1.499,1.501h0s0,1.555,0,1.555c.166-.024.329-.057.501-.057Z"/>
</svg>
