<?xml version="1.0" encoding="UTF-8"?>
<svg xmlns="http://www.w3.org/2000/svg" id="Layer_1" data-name="Layer 1" viewBox="0 0 24 24">
  <path d="M3,6.75c0-.862,.49-1.601,1.201-1.979-.127-.316-.201-.659-.201-1.021,0-1.43,1.095-2.591,2.49-2.724,.455-.619,1.183-1.026,2.01-1.026,.837,0,1.574,.415,2.028,1.048,.155-.025,.31-.048,.472-.048,.959,0,1.804,.458,2.353,1.159,.959,.35,1.647,1.261,1.647,2.341,0,1.381-1.119,2.5-2.5,2.5h-2.88c-.162,.242-.379,.438-.62,.602v2.398h-2v-1.876c-.411,.525-1.032,.876-1.75,.876-1.243,0-2.25-1.007-2.25-2.25Zm20.152,2.931c-1.007-.963-2.764-.882-3.672,.157l-3.541,3.737c.032,.21,.065,.42,.065,.638,0,2.083-1.555,3.876-3.617,4.17l-4.241,.606-.283-1.979,4.152-.593c.936-.134,1.748-.806,1.94-1.732,.296-1.425-.79-2.685-2.164-2.685H3.003C1.346,12,.003,13.343,.003,15v6c0,1.657,1.343,3,3,3H13.583l9.758-10.655c.948-1.062,.862-2.707-.189-3.665Z"/>
</svg>
