<?xml version="1.0" encoding="UTF-8"?>
<svg xmlns="http://www.w3.org/2000/svg" id="Layer_1" data-name="Layer 1" viewBox="0 0 24 24">
  <path d="M13.63,11.184c.483-.938,.52-2.559-.13-4.184l-4.5,1c.661,1.322,1.376,2.631,2.183,3.376-3.12,1.372-6.183,6.286-6.183,9.005,0,.979,.303,1.777,.901,2.374,1.261,1.257,3.48,1.251,5.636,1.245,.433-.002,.96,0,1.392,0,2,0,3.999-.079,5.169-1.246,.598-.597,.901-1.395,.901-2.374,0-2.599-2.618-8.16-5.37-9.197ZM5.293,3.707c-.834-.833-1.293-1.942-1.293-3.121V0h2V.586c0,.635,.258,1.258,.707,1.707,.834,.833,1.293,1.942,1.293,3.121v.586h-2v-.586c0-.635-.258-1.258-.707-1.707Zm13.707,1.707v.586h-2v-.586c0-.635-.258-1.258-.707-1.707-.834-.833-1.293-1.942-1.293-3.121V0h2V.586c0,.635,.258,1.258,.707,1.707,.834,.833,1.293,1.942,1.293,3.121ZM10.787,3.157c-.83-.845-1.287-1.966-1.287-3.157h2c0,.654,.26,1.294,.713,1.756,.806,.82,1.287,2.033,1.287,3.244h-2c0-.689-.273-1.395-.713-1.843ZM4.308,23.948c-1.352-.096-2.584-.374-3.406-1.194-.598-.597-.901-1.395-.901-2.374,0-2.97,1.789-7.199,4.393-8.172,0-.003,0-.004,0-.007-.47-.691-.78-1.728-.893-2.706l3.5-.5c.145,.944,.001,2.487-.327,3.434-2.165,2.446-3.673,5.687-3.673,7.952,0,1.401,.462,2.62,1.308,3.567Zm19.692-3.567c0,.979-.303,1.777-.901,2.374-.822,.819-2.054,1.098-3.406,1.194,.845-.947,1.308-2.166,1.308-3.567,0-2.262-1.432-5.979-3.496-8.535,.001,0,.002-.002,.004-.003,.035-1.534,.203-2.263,.542-2.991l3.341,1.157c-.354,.841-.894,1.736-1.489,2.333,2.442,1.171,4.098,5.182,4.098,8.038Z"/>
</svg>
