<?xml version="1.0" encoding="UTF-8"?>
<svg xmlns="http://www.w3.org/2000/svg" id="Layer_1" data-name="Layer 1" viewBox="0 0 24 24">
  <path d="M15.463,1.227C14.167,.176,12.47-.225,10.815,.125c-2.199,.463-3.906,2.278-4.249,4.518-.334,2.187,.661,4.35,2.534,5.511,.247,.153,.4,.46,.4,.801v2.045h5v-2.046c0-.339,.158-.649,.412-.807,1.62-1.011,2.588-2.748,2.588-4.647,0-1.666-.742-3.223-2.037-4.273Zm-2.463,4.496v4.277h-2V5.723c-.595-.346-1-.984-1-1.723h4c0,.738-.405,1.376-1,1.723Zm10-.723V21H8.775l-4.479,2.67c-.333,.222-.73,.336-1.136,.336-.349,0-.703-.084-1.026-.258-.7-.374-1.134-1.1-1.134-1.894V5c0-1.654,1.346-3,3-3h1.374c-.381,.722-.658,1.507-.786,2.341-.421,2.758,.71,5.49,2.912,7.141v3.519h9v-3.519c1.89-1.41,3-3.603,3-5.981,0-1.242-.312-2.435-.876-3.5h1.376c1.654,0,3,1.346,3,3Z"/>
</svg>
