<?xml version="1.0" encoding="UTF-8"?>
<svg xmlns="http://www.w3.org/2000/svg" id="Layer_1" data-name="Layer 1" viewBox="0 0 24 24">
  <path d="m24,18c0,3.314-2.686,6-6,6s-6-2.686-6-6c0-1.725,1-3.06,1.995-4.087,0,0,.681,2.087,1.287,2.087,1.263,0,.897-3.898,2.718-6,1.895,1.895,6,4.526,6,8Zm-4.585.585l-1.415-1.415-1.415,1.415c-.781.781-.781,2.048,0,2.829.781.781,2.048.781,2.829,0s.781-2.048,0-2.829h0Zm4.585-15.585c0-1.654-1.346-3-3-3h-3v5h6v-2Zm-3.25,6.792c.432.375.894.777,1.359,1.208h1.89v-4h-11v4h1.047l3.847-3.934s2.35,2.286,2.856,2.726Zm-12.75,3.208v4h2.082c.268-1.716,1.181-3.041,2.033-4h-4.115Zm2.069,6H0v5h11v-2.136c-.482-.869-.802-1.837-.931-2.864Zm-4.069-6H0v4h6v-4ZM16,0h-8v5h8V0ZM6,0h-3C1.346,0,0,1.346,0,3v2h6V0Zm5,7H0v4h11v-4Z"/>
</svg>
