<?xml version="1.0" encoding="UTF-8"?>
<svg xmlns="http://www.w3.org/2000/svg" id="Layer_1" data-name="Layer 1" viewBox="0 0 24 24">
  <path d="M6.75,8.985c0,.398-.349,.735-.762,.735l-.231,.003-.005-1.473h.236c.413,0,.762,.336,.762,.735Zm15.654-1.934c-.409-1.227-1.553-2.051-2.846-2.051h-1.559v6h5.721l-1.316-3.949ZM2.058,20c-.034,.162-.058,.328-.058,.5,0,1.381,1.119,2.5,2.5,2.5s2.5-1.119,2.5-2.5c0-.172-.024-.338-.058-.5H2.058ZM16,4v14H0V4C0,2.346,1.346,1,3,1H13c1.654,0,3,1.346,3,3ZM3.5,7H1v6h1.25v-2.248l1.25-.002v-1.25l-1.243,.002-.005-1.252h1.248v-1.25Zm4.75,6l-.807-2.652c.343-.356,.557-.835,.557-1.364,0-1.094-.902-1.985-2.012-1.985h-1.488v6h1.25v-2.027l.238-.003c.121,0,.238-.015,.353-.035l.601,2.066h1.308Zm3.25-6h-2.5v6h2.5v-1.25h-1.248l.004-1.067,1.244-.002v-1.25l-1.243,.002-.005-1.183h1.248v-1.25Zm3.5,0h-2.5v6h2.5v-1.25h-1.248l.004-1.067,1.244-.002v-1.25l-1.243,.002-.005-1.183h1.248v-1.25Zm2.058,13c-.034,.162-.058,.328-.058,.5,0,1.381,1.119,2.5,2.5,2.5s2.5-1.119,2.5-2.5c0-.172-.024-.338-.058-.5h-4.885Zm.942-7v5h6v-5h-6Z"/>
</svg>
