<?xml version="1.0" encoding="UTF-8"?>
<svg xmlns="http://www.w3.org/2000/svg" id="Layer_1" data-name="Layer 1" viewBox="0 0 24 24">
  <path d="M5.003,2.496c-.013-1.384-1.116-2.496-2.5-2.496C1.109,0,.003,1.13,.003,2.525c0,.123,0,.658,0,1.475H5.011c0-.559-.003-1.073-.007-1.504Z"/>
  <path d="M13.901,11.738c.605,.27,1.17,.529,1.66,.819,.177-.749,.75-1.057,1.439-1.057s1.265,.312,1.44,1.062c.492-.292,1.062-.553,1.67-.824,1.733-.773,3.89-1.736,3.89-3.973,0-.976-.377-2.008-.993-2.964l.006-2.708c0-.808-.452-1.528-1.179-1.88-.727-.353-1.573-.26-2.206,.24l-1.055,.822c-.526-.171-1.054-.274-1.568-.274s-1.043,.103-1.57,.275l-1.051-.823c-.633-.5-1.479-.593-2.206-.24-.727,.352-1.179,1.073-1.179,1.88v2.714c-.614,.955-.989,1.985-.989,2.959,0,2.237,2.157,3.2,3.89,3.973Zm4.598-5.738c1.501,0,3.501,1.172,3.501,2s-2.673,.998-3.501,.998-1.499-.671-1.499-1.499,.671-1.499,1.499-1.499Zm-2.998,.003c.828,.001,1.499,.671,1.499,1.499s-.671,1.499-1.499,1.499-3.501-.173-3.501-1.001,2-2,3.501-1.997Z"/>
  <path d="M24.003,24l-.003-2h-2V13.065c-.381,.188-.748,.353-1.075,.499-.586,.261-1.139,.508-1.541,.757-.715,.444-1.539,.68-2.378,.68s-1.663-.235-2.381-.682c-.399-.247-.952-.494-1.538-.755-.885-.395-2.046-.918-3.036-1.717-4.966,3.852-5.051,10.074-5.051,10.153-1.115,0-1.963-1.004-1.764-2.101,.193-1.065,.545-2.441,1.184-3.899H0c0,1.164,.001,2.206,.003,3.012,.005,2.758,2.242,4.988,5,4.988h12.997v-7.081c.699-.108,1.371-.338,2-.666v7.747h4.003Z"/>
  <path d="M4.853,11H0c0,1.007,0,2.022,0,3H4.664c.079-1.013,.141-2.019,.189-3Z"/>
  <path d="M5,6H.002c0,.903,0,1.924-.001,3H4.935c.035-1.067,.055-2.073,.065-3Z"/>
</svg>
