<?xml version="1.0" encoding="UTF-8"?>
<svg xmlns="http://www.w3.org/2000/svg" id="Layer_1" data-name="Layer 1" viewBox="0 0 24 24">
  <path d="M8.964,7c0,1.103-.897,2-2,2s-2-.897-2-2,.897-2,2-2,2,.897,2,2Zm7.036-1.5v6.166l3.134,2.804-1.351,1.522,.017-.032-4.882-4.367c-.878-.778-2.194-.791-3.088-.032-.992,.843-1.113,2.33-.27,3.321l4.439,6.398v2.721h10V12.5l-8-7ZM7.965,16.091c-.705-.873-1.042-1.965-.951-3.087,.062-.762,.333-1.469,.753-2.084-.259,.053-.528,.081-.803,.081-2.206,0-4-1.794-4-4S4.759,3,6.964,3s4,1.794,4,4c0,.788-.237,1.518-.631,2.138,.334-.081,.675-.138,1.023-.138,.96,0,1.88,.331,2.644,.916v-2.916C14,3.14,10.86,0,7,0S0,3.14,0,7v13H10.678l-2.713-3.909Z"/>
</svg>
