<?xml version="1.0" encoding="UTF-8"?>
<svg xmlns="http://www.w3.org/2000/svg" id="Layer_1" data-name="Layer 1" viewBox="0 0 24 24">
  <path d="M3,12H0v-.5c0-.828,.672-1.5,1.5-1.5h1.851c-.219,.456-.351,.961-.351,1.5v.5Zm11.5-2h-1.851c.219,.456,.351,.961,.351,1.5v.5h3v-.5c0-.828-.672-1.5-1.5-1.5Zm-6.494-5.976l1.359,1.051,.312-.218-.553-1.679,1.375-.796v-.382h-1.803l-.49-1.875h-.404l-.491,1.875h-1.812v.384l1.384,.77-.543,1.698,.301,.226,1.364-1.055Zm5.499,.595l1.087,.84,.25-.174-.442-1.343,1.1-.636v-.306h-1.442l-.392-1.5h-.323l-.392,1.5h-1.45v.308l1.107,.616-.434,1.359,.241,.181,1.092-.844Zm-11,0l1.087,.84,.25-.174-.442-1.343,1.1-.636v-.306h-1.442l-.392-1.5h-.323l-.392,1.5H.5v.308l1.107,.616-.434,1.359,.241,.181,1.092-.844Zm-.005,4.381c.828,0,1.5-.672,1.5-1.5s-.672-1.5-1.5-1.5-1.5,.672-1.5,1.5,.672,1.5,1.5,1.5Zm8.5,3v-.5c0-.828-.672-1.5-1.5-1.5h-3c-.828,0-1.5,.672-1.5,1.5v.5h6Zm-3-3c.828,0,1.5-.672,1.5-1.5s-.672-1.5-1.5-1.5-1.5,.672-1.5,1.5,.672,1.5,1.5,1.5Zm5.5,0c.828,0,1.5-.672,1.5-1.5s-.672-1.5-1.5-1.5-1.5,.672-1.5,1.5,.672,1.5,1.5,1.5Zm9.841,6.345l-7.927,8.655H.003v-7C.003,15.346,1.349,14,3.003,14H11.79c1.22,0,2.213,.993,2.213,2.213,0,1.094-.816,2.036-1.9,2.191l-4.241,.606,.283,1.979,4.241-.606c2.062-.294,3.617-2.087,3.617-4.17,0-.219-.032-.429-.065-.638l3.541-3.737c.908-1.04,2.665-1.12,3.672-.157,1.052,.958,1.138,2.602,.189,3.665Z"/>
</svg>
