<?xml version="1.0" encoding="UTF-8"?>
<svg xmlns="http://www.w3.org/2000/svg" id="Layer_1" data-name="Layer 1" viewBox="0 0 24 24">
  <path d="m19.305.132c-2.715-.384-5.444.581-7.299,2.594-2.276,2.47-5.401,6.391-7.364,11.045-.096.23-.487.266-.812.199-.679-.138-1.829-.859-1.829-2.691v-3.278H0v4.51c0,4.824,3.572,8.83,8.308,9.319.55.057,1.118.096,1.692.128v2.043h2v-1.985c.062,0,1.389-.022,2-.047v2.032h4.5v-2h-2.5v-1c0-3.859-3.14-7-7-7h-.062c.327-.667.678-1.313,1.046-1.94,3.53.387,6.45,2.821,7.545,6.089.243-.692.47-1.573.47-2.649v-2.248c.514.213,1.143.606,1.7,1.348l1.6-1.199c-1.088-1.451-2.41-2.02-3.3-2.247v-2.153h3c1.654,0,3-1.346,3-3v-.454c0-2.704-2.019-5.031-4.695-5.414Z"/>
</svg>
