<?xml version="1.0" encoding="UTF-8"?>
<svg xmlns="http://www.w3.org/2000/svg" id="Layer_1" data-name="Layer 1" viewBox="0 0 24 24">
  <path d="M15,18v-2h3v-4c0-3.309-2.691-6-6-6s-6,2.691-6,6v4h3v2h6Zm-.5-7c.828,0,1.5,.672,1.5,1.5s-.672,1.5-1.5,1.5-1.5-.672-1.5-1.5,.672-1.5,1.5-1.5Zm-6.5,1.5c0-.828,.672-1.5,1.5-1.5s1.5,.672,1.5,1.5-.672,1.5-1.5,1.5-1.5-.672-1.5-1.5Zm-4,2.77C1.816,12.74,0,9.808,0,7.05,0,3.162,2.916,0,6.5,0c2.313,0,4.348,1.317,5.5,3.296,1.152-1.979,3.187-3.296,5.5-3.296,3.584,0,6.5,3.162,6.5,7.05,0,2.758-1.816,5.69-4,8.22v-3.27c0-4.411-3.589-8-8-8S4,7.589,4,12v3.27Zm18.196,4.71l-5.098,1.02,5.098,1.02-.393,1.961-9.804-1.961-9.804,1.961-.393-1.961,5.098-1.02-5.098-1.02,.393-1.961,9.804,1.961,9.804-1.961,.393,1.961Z"/>
</svg>
