<?xml version="1.0" encoding="UTF-8"?>
<svg xmlns="http://www.w3.org/2000/svg" id="Layer_1" data-name="Layer 1" viewBox="0 0 24 24">
  <path d="m23.671,22.652c-.466.844-1.32,1.348-2.284,1.348h-2.387v-2h2.387c.325,0,.481-.221.534-.315.052-.095.155-.345-.017-.619l-1.147-1.826,1.693-1.064,1.147,1.826c.513.816.541,1.808.074,2.651Zm-2.816-7.019l-1.182-1.881c-.481-.767-1.306-1.223-2.21-1.223h-.011c-.909.004-1.735.468-2.212,1.241l-1.138,1.848,1.703,1.049,1.138-1.848c.161-.261.416-.29.518-.29.127.008.356.026.519.286l1.182,1.882,1.693-1.064Zm-7.775,6.054c-.053-.094-.157-.343.013-.618l1.139-1.848-1.702-1.049-1.139,1.848c-.503.817-.524,1.805-.056,2.643.468.837,1.32,1.337,2.279,1.337h2.387v-2h-2.387c-.323,0-.48-.219-.533-.312Zm-3.492,1.951c.071.127.153.243.234.361h-3.494c-1.531,0-2.813-1.147-2.982-2.669L1.644,6H0v-2h6v-2c0-1.103.897-2,2-2h6c1.103,0,2,.897,2,2v2h6v2h-1.682l-.563,5.142c-.688-.393-1.477-.611-2.31-.611-1.604.007-3.064.826-3.906,2.192l-3.852,6.25c-.887,1.442-.924,3.187-.098,4.666Zm-1.588-19.639h6v-2h-6v2Z"/>
</svg>
