<?xml version="1.0" encoding="UTF-8"?>
<svg xmlns="http://www.w3.org/2000/svg" id="Layer_1" data-name="Layer 1" viewBox="0 0 24 24">
  <path d="M12,0C5.383,0,0,5.383,0,12s5.383,12,12,12,12-5.383,12-12S18.617,0,12,0Zm0,2c2.398,0,4.6,.85,6.325,2.262l-1.71,1.71c-1.591-1.274-3.556-1.972-5.615-1.972v2c1.526,0,2.984,.494,4.189,1.398l-1.437,1.437c-.81-.535-1.763-.834-2.752-.834v2c.452,0,.89,.107,1.289,.298l-4.104,4.104c-.42-.561-.785-1.192-1.075-1.915l1.775-1.775-2.712-2.712-1.378,1.378c-.54,.539-.795,1.249-.795,1.957,0,1.664,.916,3.474,2.241,5.011l-1.979,1.979c-1.412-1.725-2.262-3.927-2.262-6.325C2,6.486,6.486,2,12,2Zm0,20c-2.398,0-4.599-.85-6.324-2.262L19.738,5.676c1.412,1.725,2.262,3.926,2.262,6.324,0,5.514-4.486,10-10,10Zm1.288-6.884l2.712,2.712-1.378,1.378c-.539,.54-1.249,.795-1.957,.795-1.066,0-2.193-.375-3.27-.992l3.893-3.893Zm6.712-2.116h-2c0-.816-.145-1.605-.409-2.348l1.527-1.527c.571,1.193,.882,2.506,.882,3.876Z"/>
</svg>
