<?xml version="1.0" encoding="UTF-8"?>
<svg xmlns="http://www.w3.org/2000/svg" id="Layer_1" data-name="Layer 1" viewBox="0 0 24 24">
  <path d="M5.5,2.475c0-1.367,1.007-2.475,2.25-2.475s2.25,1.125,2.25,2.25c0-1.125,1.007-2.25,2.25-2.25s2.25,1.108,2.25,2.475c0,2.592-4.5,5.4-4.5,5.4,0,0-4.5-2.808-4.5-5.4Zm18.515,14.668c0,2.091-1.832,3.857-4,3.857h-3.153c-1.096,1.643-2.058,2.625-2.14,2.707l-.293,.293H5.601l-.293-.293c-.172-.173-4.237-4.294-5.268-10.308-.14-.818,.094-1.661,.643-2.312,.583-.69,1.433-1.087,2.334-1.087l13.996,.003c.902,0,1.752,.397,2.334,1.088,.548,.65,.782,1.493,.642,2.312-.035,.203-.081,.399-.123,.598h.149c2.467,0,4,1.204,4,3.143Zm-2,0c0-.758-.673-1.143-2-1.143h-.688c-.365,1.097-.808,2.103-1.279,3h1.967c1.065,0,2-.868,2-1.857Z"/>
</svg>
