<?xml version="1.0" encoding="UTF-8"?>
<svg xmlns="http://www.w3.org/2000/svg" id="Layer_1" data-name="Layer 1" viewBox="0 0 24 24">
  <path d="M21.332,8.48h0s0,0,0,0c-.222-1.257-1.2-2.211-2.417-2.431-.22,1.471-.893,2.831-1.965,3.902l-3.949,3.864v3.186h-2v-3.186l-3.916-3.832c-1.093-1.09-1.775-2.457-1.997-3.932-1.216,.222-2.191,1.177-2.412,2.433h0S-.04,24-.04,24H24.062l-2.729-15.52Zm-10.332,13.52v-3h2v3h-2Zm1-10.006l3.535-3.458c.944-.944,1.465-2.2,1.465-3.536,.056-2.688-2.313-5.055-5-5-2.687-.055-5.056,2.312-5,5,0,1.336,.523,2.596,1.482,3.552l3.518,3.442Zm0-8.994c1.105,0,2,.895,2,2s-.895,2-2,2-2-.895-2-2,.895-2,2-2Z"/>
</svg>
