<?xml version="1.0" encoding="UTF-8"?>
<svg xmlns="http://www.w3.org/2000/svg" id="Layer_1" data-name="Layer 1" viewBox="0 0 24 24">
  <path d="M13.633,14.508v3c0,.496-.404,.9-.9,.9s-.9-.404-.9-.9v-3c0-.496,.404-.9,.9-.9s.9,.404,.9,.9Zm8.367-7.508V24H2V3C2,1.343,3.343,0,5,0H15V7h7ZM7.519,15.353c-.56-.227-1.084-.467-1.366-.595-.099-.045-.428-.173-.433-.615-.002-.131,.103-.441,.515-.577,.73-.236,1.392,.2,1.611,.367l.86-1.113c-.401-.369-1.539-1.123-2.863-.686-.796,.263-1.359,.951-1.471,1.796-.106,.818,.23,1.565,.921,2.049,.003,0,.838,.409,1.753,.78,.214,.086,.905,.409,.817,.959-.065,.391-.492,.795-1.096,.795-.572,0-1.124-.24-1.497-.646l-1.009,1.006c.633,.723,1.541,1.136,2.506,1.136,1.221,0,2.245-.853,2.436-2.028,.143-.882-.224-2.036-1.685-2.627Zm8.445,4.255l-.998-.998c.165-.334,.267-.705,.267-1.102v-3c0-1.381-1.119-2.5-2.5-2.5s-2.5,1.119-2.5,2.5v3c0,1.381,1.119,2.5,2.5,2.5,.398,0,.769-.101,1.102-.267l.998,.998,1.131-1.131Zm4.269-1.2c-1.105,0-2.133,0-2.133,0v-6.401h-1.6v8h3.733v-1.599ZM17,.586V5h4.414L17,.586Z"/>
</svg>
