<?xml version="1.0" encoding="UTF-8"?>
<svg xmlns="http://www.w3.org/2000/svg" id="Layer_1" data-name="Layer 1" viewBox="0 0 24 24">
  <path d="m21.2,23.079l-1.708-1.041c.025-.041,2.508-4.208,2.508-10.038s-2.483-9.997-2.508-10.038l1.708-1.041c.114.188,2.8,4.662,2.8,11.079s-2.686,10.892-2.8,11.079Zm-6.2-11.079c0,2.446,1.964,4.434,4.398,4.49.168-.628.31-1.305.415-2.021-.104.013-.206.031-.313.031-1.381,0-2.5-1.119-2.5-2.5s1.119-2.5,2.5-2.5c.107,0,.209.018.313.031-.105-.717-.247-1.393-.415-2.021-2.433.056-4.398,2.043-4.398,4.49Zm-2,0c0-3.33,2.518-6.08,5.75-6.453-.747-1.895-1.562-3.047-1.625-3.134l-.32-.442-.546.031C7.081,2.522.67,11.042.401,11.405l-.44.595.44.595c.269.363,6.68,8.883,15.857,9.403l.546.031.32-.442c.063-.087.879-1.239,1.625-3.134-3.232-.374-5.75-3.123-5.75-6.453Z"/>
</svg>
