<?xml version="1.0" encoding="UTF-8"?>
<svg xmlns="http://www.w3.org/2000/svg" id="Layer_1" data-name="Layer 1" viewBox="0 0 24 24">
  <path d="M13,6.5c0-1.381,1.119-2.5,2.5-2.5,.012,0,.024,.003,.036,.004l-.602-1.004h-.934V1h2.066l1.359,2.265,1.052-.574-.477-.955V0h4V2h-1.632l1.006,2.013c.042-.002,.083-.013,.125-.013,1.381,0,2.5,1.119,2.5,2.5s-1.119,2.5-2.5,2.5-2.5-1.119-2.5-2.5c0-.608,.226-1.158,.586-1.591l-.214-.428-1.648,.899c.171,.338,.276,.715,.276,1.119,0,1.381-1.119,2.5-2.5,2.5s-2.5-1.119-2.5-2.5Zm6,7.5H4.5c-1.378,0-2.5-1.121-2.5-2.5s1.122-2.5,2.5-2.5h7.29c-.399-.584-.657-1.263-.742-2H4.5C2.019,7,0,9.019,0,11.5s2.019,4.5,4.5,4.5h14.5c1.654,0,3,1.346,3,3s-1.346,3-3,3h-7v2h7c2.757,0,5-2.243,5-5s-2.243-5-5-5ZM6,24h4v-2H6v2Zm-6,0H4v-2H0v2Z"/>
</svg>
