<?xml version="1.0" encoding="UTF-8"?>
<svg xmlns="http://www.w3.org/2000/svg" id="Layer_1" data-name="Layer 1" viewBox="0 0 24 24">
  <path d="M18.949,14.795L12.419,1.191l1.78-.866c.787-.38,1.651-.427,2.454-.145,.802,.282,1.446,.859,1.813,1.625l.694,1.446c-.003-.061-.005-.117-.005-.166,0-.833,.675-1.508,1.508-1.508s1.508,.675,1.508,1.508c0,.729-.331,1.39-.752,1.938,.631-.043,1.29,.037,1.855,.38,.712,.432,.939,1.36,.506,2.072-.432,.712-1.36,.939-2.072,.506-.11-.067-.259-.174-.42-.296l.954,1.987c.757,1.577,.094,3.476-1.479,4.239l-1.815,.884Zm-6.949-6.795l-2.25,2.455-2.25-2.455-2.25,2.455-2.25-2.455v5H0v11H6.5V15h2v9h6.5V13h-3v-5Zm10,11l-1-2-1,2-2,1,2,1,1,2,1-2,2-1-2-1ZM9.5,7l.833-1.667,1.667-.833-1.667-.833-.833-1.667-.833,1.667-1.667,.833,1.667,.833,.833,1.667ZM2.5,5l.833-1.667,1.667-.833-1.667-.833-.833-1.667-.833,1.667-1.667,.833,1.667,.833,.833,1.667Z"/>
</svg>
