<?xml version="1.0" encoding="UTF-8"?>
<svg xmlns="http://www.w3.org/2000/svg" id="Layer_1" data-name="Layer 1" viewBox="0 0 24 24">
  <path d="m7,2c0-1.105.895-2,2-2s2,.895,2,2-.895,2-2,2-2-.895-2-2Zm-4,2c1.105,0,2-.895,2-2S4.105,0,3,0,1,.895,1,2s.895,2,2,2Zm12,0c1.105,0,2-.895,2-2s-.895-2-2-2-2,.895-2,2,.895,2,2,2Zm3,5H0v3l7,5.718v3.582l4,2.7v-6.282l3.078-2.514c.332-2.042,1.905-3.648,3.922-4.061v-2.143Zm3.685,8.267l-3.041-.506c-.373-.062-.644-.382-.644-.761,0-.552.449-1,1-1h2c.551,0,1,.448,1,1h2c0-1.654-1.346-3-3-3v-1h-2v1c-1.654,0-3,1.346-3,3,0,1.359.974,2.51,2.315,2.733l3.041.506c.373.062.644.382.644.761,0,.552-.449,1-1,1h-2c-.551,0-1-.448-1-1h-2c0,1.654,1.346,3,3,3v1h2v-1c1.654,0,3-1.346,3-3,0-1.359-.974-2.51-2.315-2.733ZM4,5h-2c-1.105,0-2,.895-2,2h6c0-1.105-.895-2-2-2Zm6,0h-2c-1.105,0-2,.895-2,2h6c0-1.105-.895-2-2-2Zm6,0h-2c-1.105,0-2,.895-2,2h6c0-1.105-.895-2-2-2Z"/>
</svg>
