<?xml version="1.0" encoding="UTF-8"?>
<svg xmlns="http://www.w3.org/2000/svg" id="Layer_1" data-name="Layer 1" viewBox="0 0 24 24">
  <path d="m9,4H2V0h7v4Zm2,2H0v4.479l2.71-2.479h2.963L0,13.191v3.809c0,.127.012.251.019.377L11,7.33v-1.33Zm0,4.04L.518,19.631c.423,1.038,1.088,1.95,1.925,2.671l8.558-8.302v-3.96Zm-6.815,13.364c.862.381,1.814.596,2.815.596h3.842l-3.684-3.42-2.973,2.824Zm18.815-4.404h-5v-1h4c.553,0,1-.447,1-1s-.447-1-1-1h-4v-1.186l.612-.623c.48-.465.52-1.222.091-1.735-.428-.511-1.18-.607-1.723-.214l-2.077,1.758h-.819l-1.728,1.641,3.644,3.384v2.729l-5.097-4.733-2.293,2.178,5.17,4.801h7.219c.553,0,1-.447,1-1s-.447-1-1-1h-3v-1h5c.553,0,1-.447,1-1s-.447-1-1-1Z"/>
</svg>
