<?xml version="1.0" encoding="UTF-8"?>
<svg xmlns="http://www.w3.org/2000/svg" id="Layer_1" data-name="Layer 1" viewBox="0 0 24 24">
  <path d="M20,2c0-1.105,.895-2,2-2s2,.895,2,2-.895,2-2,2-2-.895-2-2ZM2,4c1.105,0,2-.895,2-2S3.105,0,2,0,0,.895,0,2,.895,4,2,4ZM22,24c1.105,0,2-.895,2-2s-.895-2-2-2-2,.895-2,2,.895,2,2,2Zm-20,0c1.105,0,2-.895,2-2s-.895-2-2-2-2,.895-2,2,.895,2,2,2ZM18,12c0-3.308-2.692-6-6-6s-6,2.692-6,6,2.692,6,6,6,6-2.692,6-6Zm1.699,2.146c-.75,2.687-2.867,4.803-5.553,5.553l1.02,1.023c.93,1.012,2.63,1.034,3.58,.045l2.021-2.021c1.001-.958,.957-2.637-.021-3.556l-1.047-1.044ZM4.301,9.854c.75-2.687,2.867-4.803,5.553-5.553l-1.02-1.023c-.929-1.018-2.626-1.015-3.58-.045l-2.021,2.021c-1.001,.958-.957,2.637,.021,3.556l1.047,1.044Zm15.398,0l1.023-1.021c1.011-.932,1.033-2.63,.045-3.58l-2.021-2.021c-.937-.993-2.642-.96-3.556,.021l-1.044,1.047c2.686,.75,4.802,2.866,5.552,5.553ZM4.301,14.146l-1.023,1.021c-1.011,.932-1.033,2.63-.045,3.58l2.021,2.021c.957,1,2.636,.958,3.556-.021l1.044-1.047c-2.686-.75-4.802-2.867-5.552-5.553Z"/>
</svg>
