<?xml version="1.0" encoding="UTF-8"?>
<svg xmlns="http://www.w3.org/2000/svg" id="Layer_1" data-name="Layer 1" viewBox="0 0 24 24">
  <path d="M13,18.941v-5.527l3.707-3.707-1.414-1.414-2.293,2.293v-3.586h-2v3.586l-2.293-2.293-1.414,1.414,3.707,3.707v5.527c-3.945-.426-7-3.902-7-9.441h0C4,3.5,7,0,12,0s8,3.5,8,9.5h0c0,5.539-3.055,9.015-7,9.441Zm-2,0v5.059h2v-5.059c-.328,.035-.661,.059-1,.059s-.672-.024-1-.059ZM2,10v-1c0-1.711,.266-3.198,.717-4.492-1.611,1.352-2.717,3.663-2.717,7.129,0,5.217,2.138,7.624,5,8.211v4.152h2v-4.297c-2.86-1.608-5-4.755-5-9.703Zm19.949-2.225c.03,.397,.051,.802,.051,1.225v1c0,4.948-2.14,8.094-5,9.702v4.298h2v-4.171c2.862-.646,5-3.143,5-6.829,0-2.233-.794-4.016-2.051-5.225Z"/>
</svg>
