<?xml version="1.0" encoding="UTF-8"?>
<svg xmlns="http://www.w3.org/2000/svg" id="Layer_1" data-name="Layer 1" viewBox="0 0 24 24">
  <path d="M16.248,8.994l-4.246,7.062-4.217-7.054s0-.001,0-.003l4.212,1.825,4.251-1.83Zm7.752,3.006c0,6.617-5.383,12-12,12S0,18.617,0,12,5.383,0,12,0s12,5.383,12,12Zm-6.786-4.725c-.582-.327-1.303-.339-1.895-.035l-3.316,1.408-3.251-1.398c-.965-.533-2.185-.182-2.718,.782v.002c-.338,.611-.334,1.339,.021,1.97l5.942,9.941,5.98-9.946c.54-.96,.198-2.182-.764-2.724Z"/>
</svg>
