<?xml version="1.0" encoding="UTF-8"?>
<svg xmlns="http://www.w3.org/2000/svg" id="Layer_1" data-name="Layer 1" viewBox="0 0 24 24">
  <path d="m6.729,6.985c0,.398-.349.735-.762.735l-.71.003-.005-1.473h.715c.413,0,.762.336.762.735Zm17.271-3.985v14h-7v7H0V3C0,1.346,1.346,0,3,0h18c1.654,0,3,1.346,3,3ZM7.979,6.985c0-1.094-.902-1.985-2.012-1.985h-1.967v6.069h1.25v-2.096l.717-.003c1.109,0,2.012-.891,2.012-1.985Zm5.021-1.985h-1.28v3.047l-1.44-3.041v-.006h-1.28v6h1.28v-3.041l1.44,3.041h1.28v-6Zm5,2.5h-2v1.25h.745c0,.145,0,.252,0,.262.001.403-.322.729-.724.736-.402-.007-.768-.333-.767-.736,0-.048,0-1.976,0-2.024-.001-.403.344-.725.746-.731.212.003.404.098.542.243h1.394c-.218-.859-1.011-1.497-1.936-1.497-1.086,0-2,.877-2,1.964v2.066c0,1.086.914,1.967,2,1.967s2-.881,2-1.967v-1.533Zm1,15.914l4.414-4.414h-4.414v4.414Z"/>
</svg>
