<?xml version="1.0" encoding="UTF-8"?>
<svg xmlns="http://www.w3.org/2000/svg" id="Layer_1" data-name="Layer 1" viewBox="0 0 24 24">
  <path d="m13,21.478v-7.558c3.391-.486,6-3.395,6-6.92,0-3.866-3.134-7-7-7s-7,3.134-7,7c0,3.526,2.609,6.434,6,6.92v7.558c-1.392-2.658-4.511-6.478-11-6.478,1.67,9.777,11.904,8.99,11.996,8.982h.008c.091.007,10.325.795,11.996-8.982-6.489,0-9.608,3.82-11,6.478Zm-4.291-12.778h1.62c.086.289.354.5.671.5h2.126c.316,0,.574-.257.574-.574,0-.272-.194-.509-.462-.563l-2.791-.559c-1.013-.203-1.747-1.099-1.747-2.131,0-1.199.975-2.173,2.173-2.173h.327v-1.2h1.6v1.2h.2c1.201,0,2.189.925,2.291,2.1h-1.62c-.086-.289-.354-.5-.671-.5h-2.127c-.316,0-.573.257-.573.574,0,.272.194.509.461.562l2.792.559c1.013.202,1.747,1.099,1.747,2.131,0,1.199-.975,2.173-2.174,2.173h-.326v1.2h-1.6v-1.2h-.2c-1.201,0-2.189-.925-2.291-2.1Z"/>
</svg>
