<?xml version="1.0" encoding="UTF-8"?>
<svg xmlns="http://www.w3.org/2000/svg" id="Layer_1" data-name="Layer 1" viewBox="0 0 24 24">
  <path d="M5,4.864L1.843,2.233c.356-.15,.747-.233,1.157-.233h2v2.864ZM.361,3.603c-.223,.419-.361,.89-.361,1.397v1H3.237L.361,3.603Zm6.639-1.603v2.864l3.437-2.864h-3.437ZM0,8v2.698l3.237-2.698H0Zm24-3V22H0V12H1.563l3.437-2.864v2.864h2v-2.864l3.437,2.864h1.563v-1.302l-3.237-2.698h3.237v-2h-3.237l3.237-2.698v-1.302h9c1.654,0,3,1.346,3,3ZM7,18c0-.552-.448-1-1-1s-1,.448-1,1,.448,1,1,1,1-.448,1-1Zm8.5-6c.552,0,1-.448,1-1s-.448-1-1-1-1,.448-1,1,.448,1,1,1Zm1.5,6c0-.552-.448-1-1-1s-1,.448-1,1,.448,1,1,1,1-.448,1-1Zm2-4c0-.552-.448-1-1-1s-1,.448-1,1,.448,1,1,1,1-.448,1-1Zm0-6c0-.552-.448-1-1-1s-1,.448-1,1,.448,1,1,1,1-.448,1-1Zm2.5,3c0-.552-.448-1-1-1s-1,.448-1,1,.448,1,1,1,1-.448,1-1Z"/>
</svg>
