<?xml version="1.0" encoding="UTF-8"?>
<svg xmlns="http://www.w3.org/2000/svg" id="Layer_1" data-name="Layer 1" viewBox="0 0 24 24">
  <path d="M23.957,1.457L1.457,23.957,.043,22.543,22.543,.043l1.414,1.414Zm-.2,8.996c-1.014-1.052-2.315-1.819-3.773-2.194l-9.725,9.725c.884,3.457,4.01,6.016,7.742,6.016,2.262,0,4.301-.943,5.757-2.453-2.45-.658-4.257-2.889-4.257-5.547s1.806-4.889,4.257-5.547ZM3.983,12.689l-1.834,1.834,1.414,1.414L15.938,3.563l-1.414-1.414-1.834,1.834c-.786-.569-1.688-.941-2.646-1.095V0h-2V2.894c-.957,.154-1.856,.526-2.641,1.094L3.083,1.669l-1.414,1.414,2.319,2.319c-.559,.773-.93,1.657-1.088,2.598H0v2H2.882c.149,.974,.524,1.892,1.101,2.689Z"/>
</svg>
