<?xml version="1.0" encoding="UTF-8"?>
<svg xmlns="http://www.w3.org/2000/svg" id="Layer_1" data-name="Layer 1" viewBox="0 0 24 24">
  <path d="M24,22c0,1.105-.895,2-2,2-.738,0-1.376-.405-1.723-1h-4.277V14h2v7h2.277c.346-.595,.984-1,1.723-1,1.105,0,2,.895,2,2Zm-11-1.723v-6.277h-2v6.277c-.595,.346-1,.984-1,1.723,0,1.105,.895,2,2,2s2-.895,2-2c0-.738-.405-1.376-1-1.723Zm-7,.723H3.723c-.346-.595-.984-1-1.723-1-1.105,0-2,.895-2,2s.895,2,2,2c.738,0,1.376-.405,1.723-1h4.277V14h-2v7ZM18.341,4.837C17.085,1.923,14.199,0,11,0,6.589,0,3,3.589,3,8c0,.324,.021,.65,.061,.976-1.287,.934-2.061,2.418-2.061,4.024,0,2.044,1.239,3.793,3,4.568v-5.568H20v4.841c1.803-1.212,3-3.26,3-5.591,0-2.951-1.891-5.517-4.659-6.413Z"/>
</svg>
