<?xml version="1.0" encoding="UTF-8"?>
<svg xmlns="http://www.w3.org/2000/svg" id="Layer_1" data-name="Layer 1" viewBox="0 0 24 24">
  <path d="M18,12c-3.309,0-6,2.691-6,6s2.691,6,6,6,6-2.691,6-6-2.691-6-6-6Zm0,10c-2.206,0-4-1.794-4-4,0-.74,.216-1.424,.567-2.019l5.452,5.453c-.595,.351-1.279,.567-2.019,.567Zm3.433-1.981l-5.452-5.453c.595-.351,1.279-.567,2.019-.567,2.206,0,4,1.794,4,4,0,.74-.216,1.424-.567,2.019Zm-8.712,3.981h-1.721C4.935,24,0,19.065,0,13H2c0,4.962,4.038,9,9,9h.079c.437,.754,.992,1.428,1.642,2Zm-2.513-4.211c-3.231-.745-5.719-3.446-6.138-6.789h4.931v-2H4v-2h5v-2H4.069C4.564,3.06,7.928,0,12,0s7.436,3.06,7.931,7h-4.931v2h5v1.262c-.64-.165-1.308-.262-2-.262-4.418,0-8,3.582-8,8,0,.616,.076,1.213,.208,1.789Z"/>
</svg>
