<?xml version="1.0" encoding="UTF-8"?>
<svg xmlns="http://www.w3.org/2000/svg" id="Layer_1" data-name="Layer 1" viewBox="0 0 24 24">
  <path d="M14.723,18.987l5,5h-7.723c-2.206,0-4-1.794-4-4v-1h6.723Zm9.182,1.863c.131-.496,.09-1.302,.095-1.82h-3.599l-2-2h5.599v-1c0-2.206-1.794-4-4-4h-6.599l-1.965-1.965c.186-.018,.373-.035,.564-.035h4.635l.292-2.333c.199-.894-.015-1.815-.587-2.53-.572-.714-1.426-1.124-2.341-1.124h-2.376l.006-.043h-.006l-.724,5.484-1.787-1.787,.48-3.654H5.414L1.457,.086,.043,1.5,21.991,23.448c.958-.556,1.671-1.485,1.913-2.598ZM9.608,4h2.015l.26-1.97h5.117V.043h-6.883l-.526,4h.011l.006-.043Zm-3.608,11.987c0-1.533,.585-2.926,1.535-3.987H.613l1.505,12H7.552c-.961-1.064-1.552-2.469-1.552-4.013v-4Zm2,1h4.723l-3.675-3.675c-.644,.71-1.047,1.643-1.047,2.675v1ZM.76,5.024C.107,5.708-.131,6.727,.056,7.557l.306,2.443H5.735L.76,5.024Z"/>
</svg>
