<?xml version="1.0" encoding="UTF-8"?>
<svg xmlns="http://www.w3.org/2000/svg" id="Layer_1" data-name="Layer 1" viewBox="0 0 24 24">
  <path d="M18.435,6.313l-2.487-2.532c-.122,1.225-.669,2.378-1.587,3.212l-.874,.794,1.813,1.646c1.017,.923,2.668,.721,3.407-.533,.48-.815,.331-1.858-.272-2.586Zm4.065,10.687c-.828,0-1.5-.672-1.5-1.5v-7.5s-.011,0-.011,0c.05-1.022-.267-2.061-.956-2.893L16,1.019V0h4.75s2.203,2.412,2.203,2.412c.673,.737,1.047,1.699,1.047,2.698V15.5c0,.828-.672,1.5-1.5,1.5ZM13.017,5.513l-4.317,3.92c-1.017,.923-2.668,.721-3.407-.533-.48-.815-.331-1.858,.272-2.586l3.243-3.275-1.404-1.404-3.437,3.472c-.689,.832-1.005,1.871-.956,2.893h-.011s0,7.5,0,7.5c0,.828-.672,1.5-1.5,1.5S0,16.328,0,15.5V5.11c0-.998,.373-1.961,1.047-2.698L3.25,0H14V3.292c0,.846-.357,1.652-.983,2.221Zm5.983,9.987v-4.12c-.476,.293-1.01,.492-1.578,.578-1.262,.194-2.524-.189-3.466-1.044l-1.956-1.776-1.956,1.776c-.942,.856-2.206,1.237-3.467,1.044-.567-.086-1.102-.285-1.577-.578v4.12c0,1.129-.547,2.125-1.38,2.765,1.308,3.354,4.562,5.735,8.38,5.735s7.071-2.38,8.38-5.735c-.833-.64-1.38-1.636-1.38-2.765Zm-12-1.5s1,.5,2,.5,2-.5,2-.5c0,.99-.667,2.5-2,2.5s-2-1.51-2-2.5Zm5,7c-1.686,0-3.114-.831-3.815-1.327l1.154-1.633c.507,.358,1.528,.96,2.661,.96s2.154-.602,2.661-.96l1.154,1.633c-.702,.496-2.13,1.327-3.815,1.327Zm3-4.5c-1.333,0-2-1.51-2-2.5,0,0,1,.5,2,.5s2-.5,2-.5c0,.99-.667,2.5-2,2.5Z"/>
</svg>
