<?xml version="1.0" encoding="UTF-8"?>
<svg xmlns="http://www.w3.org/2000/svg" id="Layer_1" data-name="Layer 1" viewBox="0 0 24 24">
  <path d="M7.5,22.481v1.519c-2.42,0-4.51-1.55-5.23-3.83-1.41-.93-2.27-2.48-2.27-4.17,0-.89,.24-1.74,.69-2.5-.45-.76-.69-1.61-.69-2.5,0-1.57,.75-3.04,2-3.98v-.02c0-1.9,1.33-3.49,3.1-3.9,.41-1.77,2-3.1,3.9-3.1h.02c1.1,0,1.98,.89,1.98,1.98v7.096c-.199,.026-.399,.05-.598,.092-3.009,.634-5.346,3.113-5.814,6.173-.421,2.758,.71,5.49,2.912,7.141Zm10-5.981c0,1.899-.968,3.636-2.588,4.647-.254,.158-.412,.468-.412,.807v2.046h-5v-2.045c0-.341-.153-.647-.4-.801-1.873-1.162-2.868-3.325-2.534-5.511,.343-2.239,2.05-4.055,4.249-4.518,1.655-.35,3.353,.051,4.648,1.102,1.295,1.05,2.037,2.608,2.037,4.273Zm-3.5-1.5h-4c0,.738,.405,1.376,1,1.723v4.277h2v-4.277c.595-.346,1-.984,1-1.723Zm10-4c0-1.57-.75-3.04-2-3.98v-.02c0-1.9-1.33-3.49-3.1-3.9-.41-1.77-2-3.1-3.9-3.1h-.02c-1.09,0-1.98,.89-1.98,1.98v7.091c1.352,.181,2.639,.725,3.723,1.603,1.766,1.432,2.777,3.556,2.777,5.826,0,2.379-1.11,4.571-3,5.981v1.519c2.42,0,4.51-1.56,5.23-3.83,1.41-.92,2.27-2.48,2.27-4.17,0-.89-.24-1.74-.69-2.5,.45-.76,.69-1.61,.69-2.5Z"/>
</svg>
