<?xml version="1.0" encoding="UTF-8"?>
<svg xmlns="http://www.w3.org/2000/svg" id="Layer_1" data-name="Layer 1" viewBox="0 0 24 24">
  <path d="m24,22v2h-10v-2c0-1.654,1.346-3,3-3h4c1.654,0,3,1.346,3,3ZM0,7h24v8.5h-.5c0-2.482-2.018-4.5-4.5-4.5s-4.5,2.018-4.5,4.5c0,.928.296,1.783.779,2.5H0V7Zm3,6.5c0,.828.672,1.5,1.5,1.5s1.5-.672,1.5-1.5-.672-1.5-1.5-1.5-1.5.672-1.5,1.5ZM21,0H3C1.346,0,0,1.346,0,3v2h24v-2c0-1.654-1.346-3-3-3Zm-2,18c1.381,0,2.5-1.119,2.5-2.5s-1.119-2.5-2.5-2.5-2.5,1.119-2.5,2.5,1.119,2.5,2.5,2.5Z"/>
</svg>
