<?xml version="1.0" encoding="UTF-8"?>
<svg xmlns="http://www.w3.org/2000/svg" id="Layer_1" data-name="Layer 1" viewBox="0 0 24 24">
  <path d="M21,2H3C1.346,2,0,3.346,0,5V22H24V5c0-1.654-1.346-3-3-3Zm-10,15H3v-2H11v2Zm0-4H3v-2H11v2Zm0-4H3v-2H11v2Zm4.644,1.76l3.041,.507c1.342,.223,2.315,1.373,2.315,2.733,0,1.654-1.346,3-3,3v1h-2v-1c-1.654,0-3-1.346-3-3h2c0,.551,.448,1,1,1h2c.552,0,1-.449,1-1,0-.378-.271-.698-.644-.76l-3.041-.507c-1.342-.223-2.315-1.373-2.315-2.733,0-1.654,1.346-3,3-3v-1h2v1c1.654,0,3,1.346,3,3h-2c0-.551-.448-1-1-1h-2c-.552,0-1,.449-1,1,0,.378,.271,.698,.644,.76Z"/>
</svg>
