<?xml version="1.0" encoding="UTF-8"?>
<svg xmlns="http://www.w3.org/2000/svg" id="Layer_1" data-name="Layer 1" viewBox="0 0 24 24">
  <path d="M20,9h-2.008v-3H1.992l.007,6.26c1.47,.368,2.728,1.121,3.699,2.227,1.136-.94,2.584-1.46,4.243-1.486l1.921-.03,.108,1.918c.13,2.324-.558,3.978-1.638,5.112h3.661c2.209,0,4-1.791,4-4h2.008c2.168,0,4-1.767,4-3.857,0-1.938-1.533-3.143-4-3.143Zm0,5h-2.008v-3h2.008c1.327,0,2,.385,2,1.143,0,.989-.935,1.857-2,1.857ZM11.025,4h-2V0h2V4Zm4,0h-2V0h2V4Zm-8,0h-2V0h2V4ZM0,22H20v2H0v-2ZM0,14c3.563,.057,4.953,2.466,5.495,4.213,.515-1.417,1.705-3.169,4.477-3.213,.229,4.089-2.72,4.844-4.133,4.973,.05,.024-.756,.032-.733,.006-1.626-.116-5.39-.923-5.106-5.979Z"/>
</svg>
