<?xml version="1.0" encoding="UTF-8"?>
<svg xmlns="http://www.w3.org/2000/svg" id="Layer_1" data-name="Layer 1" viewBox="0 0 24 24">
  <path d="m5.5,18c0,1.105-.895,2-2,2s-2-.895-2-2,.895-2,2-2,2,.895,2,2ZM3.5,4c1.105,0,2-.895,2-2S4.605,0,3.5,0,1.5.895,1.5,2s.895,2,2,2Zm17,0c1.105,0,2-.895,2-2s-.895-2-2-2-2,.895-2,2,.895,2,2,2Zm0,16c1.105,0,2-.895,2-2s-.895-2-2-2-2,.895-2,2,.895,2,2,2Zm-2.5-8.4l-1.2,6.4H7v-8h2.021l1.754-3.319c.144-.281.343-.491.546-.575.169-.07.342-.106.512-.106.545,0,.995.357,1.145.909.018.064.04.212-.005.479l-.464,2.612h5.491v1.6Zm-11-3.6v-1c0-1.103-.897-2-2-2h-3c-1.103,0-2,.897-2,2v1h7Zm15-3h-3c-1.103,0-2,.897-2,2v1h7v-1c0-1.103-.897-2-2-2ZM5,21h-3c-1.103,0-2,.897-2,2v1h7v-1c0-1.103-.897-2-2-2Zm17,0h-3c-1.103,0-2,.897-2,2v1h7v-1c0-1.103-.897-2-2-2Z"/>
</svg>
