<?xml version="1.0" encoding="UTF-8"?>
<svg xmlns="http://www.w3.org/2000/svg" id="Layer_1" data-name="Layer 1" viewBox="0 0 24 24">
  <path d="m18,12c-3.314,0-6,2.686-6,6s2.686,6,6,6,6-2.686,6-6-2.686-6-6-6Zm2.121,9.536l-2.121-2.121-2.121,2.121-1.414-1.414,2.121-2.121-2.121-2.121,1.414-1.414,2.121,2.121,2.121-2.121,1.414,1.414-2.121,2.121,2.121,2.121-1.414,1.414ZM15,.586v4.414h4.414L15,.586Zm-2.279,23.414H0V3C0,1.343,1.343,0,3,0h10v7h7v3.262c-.64-.165-1.308-.262-2-.262-4.418,0-8,3.582-8,8,0,2.393,1.056,4.534,2.721,6Z"/>
</svg>
