<?xml version="1.0" encoding="UTF-8"?>
<svg xmlns="http://www.w3.org/2000/svg" id="Layer_1" data-name="Layer 1" viewBox="0 0 24 24">
  <path d="M23,10H13V4.144c0-1.377,.933-2.574,2.269-2.91L19.886,.075c1.525-.429,3.156,.847,3.114,2.428v7.497ZM11,4.144c0-1.377-.933-2.574-2.269-2.91L4.114,.075C2.59-.351,.957,.921,1,2.503v7.497H11V4.144Zm13,7.856c0,6.617-5.383,12-12,12S0,18.617,0,12H2c0,1.045,.162,2.052,.461,3h3.442c-.246-.956-.403-1.958-.403-3h2c0,1.04,.179,2.048,.47,3h8.058c.292-.953,.472-1.961,.472-3h2c0,1.042-.157,2.044-.403,3h3.442c.299-.948,.461-1.955,.461-3h2Zm-15.227,5c1.024,2.086,2.413,3.725,3.226,4.586,.812-.862,2.199-2.503,3.223-4.586h-6.449Zm.616,4.642c-.94-1.167-2.024-2.767-2.811-4.642H3.353c1.308,2.253,3.466,3.945,6.036,4.642Zm11.258-4.642h-3.225c-.787,1.875-1.87,3.475-2.811,4.642,2.57-.697,4.728-2.389,6.036-4.642Z"/>
</svg>
