<?xml version="1.0" encoding="UTF-8"?>
<svg xmlns="http://www.w3.org/2000/svg" id="Layer_1" data-name="Layer 1" viewBox="0 0 24 24">
  <path d="M19,22c0,1.105-.895,2-2,2s-2-.895-2-2,.895-2,2-2,2,.895,2,2Zm-12-2c-1.105,0-2,.895-2,2s.895,2,2,2,2-.895,2-2-.895-2-2-2ZM24,3.753v7.506l-6.5,3.753-6.5-3.753V3.753L17.5,0l6.5,3.753Zm-8.5,1.247h-1v2.775l-1.539-2.775h-.961v5h1v-2.868l1.59,2.868h.91V5Zm3.501,2.011l-1.501-.004v-1.007h1.5v-1h-2.5v5h1v-1.993l1.499,.004,.003-1Zm3.999-2h-3v1h1v3.989h1v-3.989h1v-1ZM7.778,17h12.222v2H7.778c-1.521,0-2.802-1.139-2.979-2.649L3.215,2.883c-.059-.503-.486-.883-.993-.883H0V0H2.222c1.521,0,2.801,1.139,2.979,2.649l.041,.351h3.758V12.301l4.481,2.699H6.654l.131,1.116c.059,.504,.486,.884,.993,.884Z"/>
</svg>
