<?xml version="1.0" encoding="UTF-8"?>
<svg xmlns="http://www.w3.org/2000/svg" id="Layer_1" data-name="Layer 1" viewBox="0 0 24 24">
  <path d="M6.493,9.184l.51-2.364,.002-4.823C7.004,.787,8.086-.175,9.334,.027c.986,.159,1.666,1.089,1.666,2.088v6.353c-.534-.289-1.136-.468-1.785-.468-1.06,0-2.026,.458-2.722,1.184Zm2.515,.828c-.83,.094-1.458,.805-1.576,1.632l-.571,3.998-1.98-.283,.507-3.549L0,13.823v7.157l5.543-.504c3.09-.281,5.457-2.872,5.457-5.975v-2.715c0-1.052-.915-1.894-1.992-1.773Zm8.499,2.193l-.51-2.364-.002-4.823c0-1.211-1.082-2.173-2.33-1.971-.986,.159-1.666,1.089-1.666,2.088v6.353c.534-.289,1.136-.468,1.785-.468,1.06,0,2.026,.458,2.722,1.184Zm-4.507,2.601v2.715c0,3.103,2.366,5.694,5.457,5.975l5.543,.504v-7.157s-5.388-2.014-5.388-2.014l.507,3.549-1.98,.283-.571-3.998c-.118-.827-.746-1.538-1.576-1.632-1.076-.121-1.992,.721-1.992,1.773Z"/>
</svg>
