<?xml version="1.0" encoding="UTF-8"?>
<svg xmlns="http://www.w3.org/2000/svg" id="Layer_1" data-name="Layer 1" viewBox="0 0 24 24">
  <path d="M13.318,5.252c3.185,.568,5.964,2.308,7.891,4.748H12.1c.208-2.115,.719-3.72,1.218-4.748,0,0,0,0,0,0Zm9.192,6.748H12c0,3.331,.762,5.719,1.444,7h10.556v-1c0-2.167-.545-4.205-1.49-6Zm-8.51,10c-1.888,0-4-4.276-4-10S12.112,2,14,2c.783,0,1.601,.743,2.294,2.01,.975,.368,1.901,.83,2.767,1.383-1.047-3.292-2.881-5.393-5.062-5.393-2.092,0-3.866,1.936-4.931,5h-3.625c-.535,1.006-1.115,2.706-1.341,5h3.981c-.05,.649-.083,1.313-.083,2H4c0,3.331,.762,5.719,1.444,7h3.625c1.065,3.064,2.839,5,4.931,5,1.589,0,2.991-1.123,4.043-3h-2.418c-.524,.638-1.083,1-1.625,1Zm-8,0c-1.888,0-4-4.276-4-10S4.112,2,6,2c.566,0,1.152,.391,1.695,1.084,.306-.677,.65-1.296,1.026-1.852-.809-.785-1.728-1.232-2.721-1.232C2.58,0,0,5.159,0,12s2.58,12,6,12c.993,0,1.912-.446,2.721-1.232-.376-.557-.72-1.175-1.026-1.852-.543,.693-1.129,1.084-1.695,1.084Z"/>
</svg>
