<?xml version="1.0" encoding="UTF-8"?>
<svg xmlns="http://www.w3.org/2000/svg" id="Layer_1" data-name="Layer 1" viewBox="0 0 24 24">
  <path d="M6,8.837L11.796,1.224,10.204,.013l-6.08,7.987H0v10H6V8.837Zm12,9.163h6V8h-4.124L13.796,.013l-1.592,1.211,5.796,7.613v9.163Zm6.01,4.631c-.76,.87-1.856,1.369-3.01,1.369-1.201,0-2.266-.542-3-1.382-.734,.84-1.799,1.382-3,1.382s-2.266-.542-3-1.382c-.734,.84-1.8,1.382-3,1.382s-2.266-.542-3-1.382c-.734,.84-1.8,1.382-3,1.382-1.153,0-2.25-.499-3.009-1.368l1.506-1.316c.38,.436,.928,.685,1.503,.685,1.103,0,2-.897,2-2h2c0,1.103,.897,2,2,2s2-.897,2-2h2c0,1.103,.897,2,2,2s2-.897,2-2h2c0,1.103,.897,2,2,2,.575,0,1.123-.249,1.502-.684l1.508,1.314Z"/>
</svg>
