<?xml version="1.0" encoding="UTF-8"?>
<svg xmlns="http://www.w3.org/2000/svg" id="Layer_1" data-name="Layer 1" viewBox="0 0 24 24">
  <path d="M20,2c0-1.105,.895-2,2-2s2,.895,2,2-.895,2-2,2-2-.895-2-2ZM2,4c1.105,0,2-.895,2-2S3.105,0,2,0,0,.895,0,2s.895,2,2,2ZM22,20c-1.105,0-2,.895-2,2s.895,2,2,2,2-.895,2-2-.895-2-2-2Zm-20,0c-1.105,0-2,.895-2,2s.895,2,2,2,2-.895,2-2-.895-2-2-2Zm10-2c-3.309,0-6-2.691-6-6s2.691-6,6-6,6,2.691,6,6-2.691,6-6,6Zm2.447-9.141c.169,.66,.276,1.39,.326,2.141h1.085c-.224-.863-.727-1.607-1.411-2.141Zm-2.447,7.032c.259-.362,.641-1.356,.764-2.892h-1.528c.123,1.536,.505,2.529,.764,2.892Zm.764-4.892c-.123-1.536-.505-2.529-.764-2.892-.259,.362-.641,1.356-.764,2.892h1.528Zm-4.622,0h1.085c.05-.751,.157-1.48,.326-2.141-.683,.534-1.186,1.278-1.411,2.141Zm1.411,4.141c-.169-.66-.276-1.39-.326-2.141h-1.085c.224,.863,.727,1.607,1.411,2.141Zm6.305-2.141h-1.085c-.05,.751-.157,1.48-.326,2.141,.683-.534,1.186-1.278,1.411-2.141ZM4.712,8.712c.801-1.773,2.227-3.199,4-4l-1.712-1.712V0h-2V4l-1,1H0v2H3l1.712,1.712Zm14.288-4.712V0h-2V3l-1.712,1.712c1.773,.801,3.199,2.227,4,4l1.712-1.712h3v-2h-4l-1-1ZM4.712,15.288l-1.712,1.712H0v2H4l1,1v4h2v-3l1.712-1.712c-1.773-.801-3.199-2.227-4-4Zm14.575,0c-.801,1.773-2.227,3.199-4,4l1.712,1.712v3h2v-4l1-1h4v-2h-3l-1.712-1.712Z"/>
</svg>
