<?xml version="1.0" encoding="UTF-8"?>
<svg xmlns="http://www.w3.org/2000/svg" id="Layer_1" data-name="Layer 1" viewBox="0 0 24 24">
  <path d="M21,4v15H7.908l-1.908,1.272v.728h10.697l3.964,2.643c1.355,.968,3.392-.126,3.339-1.788V7c0-1.654-1.346-3-3-3ZM16,0H3C1.346,0,0,1.346,0,3v14.854c-.053,1.663,1.984,2.753,3.339,1.788l3.963-2.643h11.697V3c0-1.654-1.346-3-3-3Zm-7.5,6.6h-1.9v1.101h1.9v1.6h-1.9v1.101h1.9v1.6h-3.5V5h3.5v1.6Zm3.628,5.457c-1.168,0-2.234-.917-2.352-1.022l1.062-1.196c.271,.238,.864,.619,1.289,.619,.075,0,.739-.015,.739-.534,0-.253-.308-.44-1.042-.792-.815-.39-1.933-.925-1.933-2.208,0-1.172,.939-2.056,2.185-2.056,.938,0,1.877,.757,2.056,.908l-1.034,1.221c-.298-.25-.791-.53-1.021-.53-.06,0-.585,.013-.585,.457,0,.256,.405,.469,1.024,.765,.823,.394,1.95,.934,1.95,2.235,0,1.386-1.205,2.133-2.339,2.133Z"/>
</svg>
