<?xml version="1.0" encoding="UTF-8"?>
<svg xmlns="http://www.w3.org/2000/svg" id="Layer_1" data-name="Layer 1" viewBox="0 0 24 24">
  <path d="M0,22H20v2H0v-2Zm24-4.414v6.414h-2v-5.586l-3.536-3.535c-.142-.142-.298-.269-.464-.378v5.499H6v-5.507L.078,9.941,5,4c0-.552,.448-1,1-1h1.424c.774-1.763,2.531-3,4.576-3s3.802,1.237,4.576,3h1.424c.552,0,1,.448,1,1v2c0,.552-.448,1-1,1h-1.424c-.774,1.763-2.531,3-4.576,3s-3.802-1.237-4.576-3h-1.424c-.235,0-.442-.094-.613-.23l-2.427,2.864,3.078,2.365h10.305c1.335,0,2.591,.521,3.535,1.465l4.122,4.121Z"/>
</svg>
