<?xml version="1.0" encoding="UTF-8"?>
<svg xmlns="http://www.w3.org/2000/svg" id="Layer_1" data-name="Layer 1" viewBox="0 0 24 24">
  <path d="M14.568,3.934c.91,.762,1.432,1.88,1.432,3.066,0,1.159-.517,2.25-1.376,3h-5.254c-1.022-.892-1.535-2.251-1.322-3.633,.257-1.653,1.584-3.011,3.227-3.302h0c1.178-.209,2.383,.105,3.293,.869Zm-1.068,8.066h-3v2h3v-2ZM17.657,2.758l-1.414-1.415-1.415,1.415,1.414,1.414,1.415-1.414Zm2.843,9.242c1.381,0,2.5-1.119,2.5-2.5s-1.119-2.5-2.5-2.5-2.5,1.119-2.5,2.5,1.119,2.5,2.5,2.5ZM13,0h-2V2h2V0Zm8.496,13.041c-.879-.144-1.767,.103-2.439,.674-.105,.089-.17,.186-.219,.287l-.021-.028-2.654,2.026h-3.162v2h3.838l2.162-1.65v7.65h5v-7.893c0-1.516-1.076-2.834-2.504-3.066Zm-13.496,10.959h8v-4H8v4Zm3-8h-3.162s-2.79-2.197-2.895-2.286c-.673-.572-1.561-.82-2.44-.674-1.427,.232-2.503,1.551-2.503,3.066v7.893H5v-7.65l2.162,1.65h3.838v-2Zm-1.828-13.243l-1.415-1.415-1.414,1.415,1.415,1.414,1.414-1.414ZM3.5,12c1.381,0,2.5-1.119,2.5-2.5s-1.119-2.5-2.5-2.5-2.5,1.119-2.5,2.5,1.119,2.5,2.5,2.5Z"/>
</svg>
