<?xml version="1.0" encoding="UTF-8"?>
<svg xmlns="http://www.w3.org/2000/svg" id="Layer_1" data-name="Layer 1" viewBox="0 0 24 24">
  <path d="M4.793,13.293c5.209-5.209,13.786-5.77,14.148-5.791l1.003-.059c-.131-2.03-.486-3.871-.796-5.158-.324-1.345-1.521-2.285-2.914-2.285H7.766c-1.393,0-2.59,.939-2.913,2.284-.389,1.61-.853,4.083-.853,6.716,0,1.418,.142,3.071,.347,4.739l.446-.446ZM12,2.5c1.381,0,2.5,1.119,2.5,2.5s-1.119,2.5-2.5,2.5-2.5-1.119-2.5-2.5,1.119-2.5,2.5-2.5Zm.633,12.823l-5.165-1.722c3.022-2.331,6.888-3.357,9.302-3.795l-4.137,5.517Zm7.364-6.485c0,.054,.003,.108,.003,.162,0,5.29-1.942,13.86-2.025,14.223l-.177,.777H6.202l-.177-.777c-.056-.246-.971-4.287-1.552-8.51l8.894,2.964,6.629-8.839Z"/>
</svg>
