<?xml version="1.0" encoding="UTF-8"?>
<svg xmlns="http://www.w3.org/2000/svg" id="Layer_1" data-name="Layer 1" viewBox="0 0 24 24">
  <path d="M17.202,15.985c0,.406-.329,.735-.735,.735l-.715,.003v-1.473h.716c.406,0,.735,.329,.735,.735Zm-11.379-.515l-.552,2.279h1.451l-.514-2.283c.035-.247-.424-.232-.385,.004Zm5.644-.221h-.716v1.473l.715-.003c.406,0,.735-.329,.735-.735s-.329-.735-.735-.735ZM24,4c0-2.206-1.794-4-4-4s-4,1.794-4,4,1.794,4,4,4,4-1.794,4-4Zm-2,5.65v14.35H0V5c0-1.654,1.346-3,3-3H14.35c-.223,.627-.35,1.298-.35,2,0,3.309,2.691,6,6,6,.702,0,1.373-.128,2-.35Zm-13.48,10.35l-1.085-4.775c-.134-.797-.775-1.193-1.417-1.193-.636,0-1.272,.388-1.414,1.159l-1.105,4.809h1.227l.242-1h2.035l.225,1h1.292Zm4.932-4.015c0-1.096-.889-1.985-1.985-1.985h-1.967v6h1.25v-2.03h.717c1.096,0,1.985-.889,1.985-1.985Zm5,0c0-1.096-.889-1.985-1.985-1.985h-1.967v6h1.25v-2.03h.717c1.096,0,1.985-.889,1.985-1.985Z"/>
</svg>
