<?xml version="1.0" encoding="UTF-8"?>
<svg xmlns="http://www.w3.org/2000/svg" id="Layer_1" data-name="Layer 1" viewBox="0 0 24 24">
  <path d="M1,4h1v-1h3c1.5,0,6.5,.5,9,1,1.471,.294,4,1,4,1v2.732c0,.5,.844,.201,1.125-.096,.529-.56,1.875-2.636,1.875-2.636,.619-.044,.956-.372,1-1,.023-.338-.041-1.663,0-2,.055-.02,.945,.02,1,0,.329,.44,1,2.12,1,2.12v.88s-2.007,4.037-2,4.5c.009,.575,0,1.5,0,2.5s-.34,.805-.55,1.17c-.378,.657-1.004,1.39-1.355,2.059-.042,.079-.074,.172-.095,.27-.056,.255-.045,.551,.039,.767,.257,.656,.58,1.265,.915,1.89,.295,.552,.461,1.129,.276,1.847l-1.23-.004c-.387-.413-1-1.344-1-2s-1.383-1-2-1c-1,0-1,1-1,1h-2c-.6,.434-2,4-2,4,0,0-1.5-1.462-2-2.462-.316-.633-2-.538-2-.538,0,0-.246-.552-.5-1-.508-.896-2.423-1.821-4-2-.573-.065-1.1,.234-1.5,.5C1,15,0,12.558,0,10.519v-1.256c0-1.919,1-5.263,1-5.263Z"/>
</svg>
