<?xml version="1.0" encoding="UTF-8"?>
<svg xmlns="http://www.w3.org/2000/svg" id="Layer_1" data-name="Layer 1" viewBox="0 0 24 24">
  <path d="M22.5,18c0-.46-.089-.895-.218-1.313l1.416-.816-.998-1.733-1.411,.813c-.605-.652-1.393-1.125-2.289-1.33v-1.621h-2v1.621c-.896,.205-1.685,.678-2.289,1.33l-1.411-.813-.998,1.733,1.416,.816c-.129,.418-.218,.853-.218,1.313s.089,.895,.218,1.313l-1.416,.816,.998,1.733,1.411-.813c.605,.652,1.393,1.125,2.289,1.33v1.621h2v-1.621c.896-.205,1.685-.678,2.289-1.33l1.411,.813,.998-1.733-1.416-.816c.129-.418,.218-.853,.218-1.313Zm-4.5,1.5c-.827,0-1.5-.673-1.5-1.5s.673-1.5,1.5-1.5,1.5,.673,1.5,1.5-.673,1.5-1.5,1.5ZM7,9.04V2h-2V0h12V2h-2v7.04c.29,.253,.731,.652,1.251,1.158-2.581,.576-4.69,2.397-5.664,4.802H1.758c1.746-2.728,4.296-5.131,5.242-5.96Zm5.721,14.96H3.044c-.117-.042-3.044-1.108-3.044-4.143,0-.951,.258-1.884,.678-2.857H10.069c-.041,.328-.069,.661-.069,1,0,2.393,1.056,4.534,2.721,6Z"/>
</svg>
