<?xml version="1.0" encoding="UTF-8"?>
<svg xmlns="http://www.w3.org/2000/svg" id="Layer_1" data-name="Layer 1" viewBox="0 0 24 24">
  <path d="M21.794,6.773c-1.26-1.112-1.707-1.736-1.794-3.537V0c-1.353,0-2.48,.903-2.854,2.134-3.365,.666-3.828,2.977-4.054,4.001-.062,.28-.092,.562-.092,.864v.81c-1,2.19-3.19,3.196-4,3.196-1.145,0-2.103,.376-2.8,1.022-3.441,.114-5.2,2.111-5.2,5.972H3c0-2.486,.787-3.49,2.068-3.836-.047,.266-.073,.545-.074,.836,0,1.808,1.483,2.744,2.301,3.673l-.976,1.952,1.1,1.375h-3.419v2H20v-2h-6.019l-1.3-1.625,.819-2.875c-1.222,1.41-1.5,2.077-3.181,3.125l1.1,1.375h-1.439l-1.3-1.625,.582-1.166c1.737-1.209,2.306-2.182,2.737-2.709,1.044-.186,3.69-.958,5.158-2.844l2.107,.903-.599,1.834-.674,.398,1.016,1.723,1.326-.781,1.353-4.143-3.686-2.463v-2.627l4.122,1.166,.387-1.449c.2-.708-.164-.957-.716-1.444Z"/>
</svg>
