<?xml version="1.0" encoding="UTF-8"?>
<svg xmlns="http://www.w3.org/2000/svg" id="Layer_1" data-name="Layer 1" viewBox="0 0 24 24">
  <path d="M19.421,13.083c-.415-4.664-1.429-8.796-2.024-10.906-.361-1.282-1.547-2.177-2.885-2.177h-3.513V2h3.513c.446,0,.84,.296,.96,.719,.362,1.284,.885,3.349,1.325,5.817-1.776,.12-5.197,.573-8.251,2.133l-1.064-2.67h2.517v-2H3v2h2.33l1.482,3.72c-1.488,1.065-2.761,2.477-3.529,4.352-1.863,.34-3.283,1.968-3.283,3.927,0,2.206,1.794,4,4,4s4-1.794,4-4c0-1.713-1.087-3.165-2.604-3.735,2.416-4.674,9.284-5.56,11.725-5.726,.117,.827,.213,1.691,.294,2.569-2.515,.505-4.416,2.73-4.416,5.392,0,3.033,2.467,5.5,5.5,5.5s5.5-2.467,5.5-5.5c0-2.718-1.984-4.976-4.579-5.417Zm-.921,6.917c-.828,0-1.5-.672-1.5-1.5s.672-1.5,1.5-1.5,1.5,.672,1.5,1.5-.672,1.5-1.5,1.5Z"/>
</svg>
