<?xml version="1.0" encoding="UTF-8"?>
<svg xmlns="http://www.w3.org/2000/svg" id="Layer_1" data-name="Layer 1" viewBox="0 0 24 24">
  <path d="M23.15,8.681c-.515-.469-1.186-.712-1.878-.678-.697,.032-1.339,.334-1.794,.835l-3.541,3.737c.032,.21,.065,.42,.065,.638,0,2.083-1.555,3.876-3.617,4.17l-4.241,.606-.283-1.979,4.241-.606c1.084-.155,1.9-1.097,1.9-2.191,0-1.22-.993-2.213-2.213-2.213h-2.789v-1.642c.713-.185,1.352-.551,1.853-1.062l1.414,.815,.998-1.732-1.425-.821c.094-.339,.16-.689,.16-1.058s-.066-.719-.16-1.058l1.425-.821-.998-1.732-1.414,.815c-.501-.511-1.14-.876-1.853-1.062V0h-2V1.642c-.713,.185-1.352,.551-1.853,1.062l-1.414-.815-.998,1.732,1.425,.821c-.094,.339-.16,.689-.16,1.058s.066,.719,.16,1.058l-1.425,.821,.998,1.732,1.414-.815c.501,.511,1.14,.876,1.853,1.062v1.642H3.002C1.347,11,.002,12.346,.002,14v7c0,1.654,1.346,3,3,3H12.665l10.674-11.655c.948-1.062,.862-2.707-.189-3.665ZM6,5.5c0-1.103,.897-2,2-2s2,.897,2,2-.897,2-2,2-2-.897-2-2Z"/>
</svg>
