<?xml version="1.0" encoding="UTF-8"?>
<svg xmlns="http://www.w3.org/2000/svg" id="Layer_1" data-name="Layer 1" viewBox="0 0 24 24">
  <path d="m1,4c0-1.657,1.343-3,3-3s3,1.343,3,3c0,.068-.016.132-.02.2-1.147.718-2.134,1.667-2.885,2.791-.032.001-.063.01-.095.01-1.657,0-3-1.343-3-3Zm1.763,10.432c-1.681.851-2.763,2.565-2.763,4.507,0,2.791,2.27,5.061,5.061,5.061,1.873,0,3.532-1.029,4.407-2.603-3.32-.92-5.909-3.596-6.705-6.965Zm18.146,1.086c-.92,2.5-2.855,4.51-5.311,5.519.701,1.171,1.971,1.962,3.413,1.962,2.2,0,3.989-1.789,3.989-3.989,0-1.496-.848-2.811-2.091-3.492Zm-.781-8.162c.063.003.122.019.185.019,2.037,0,3.688-1.651,3.688-3.688s-1.651-3.688-3.688-3.688-3.688,1.651-3.688,3.688c0,.099.021.192.029.29,1.43.808,2.625,1.976,3.473,3.379Zm-8.127,12.394c-4.142,0-7.5-3.358-7.5-7.5s3.358-7.5,7.5-7.5,7.5,3.358,7.5,7.5-3.358,7.5-7.5,7.5Zm1.25-4.75c0-.69-.56-1.25-1.25-1.25s-1.25.56-1.25,1.25.56,1.25,1.25,1.25,1.25-.56,1.25-1.25Zm1.579-2.829c-1.56-1.56-4.098-1.56-5.657,0l1.132,1.131c.936-.936,2.458-.936,3.394,0l1.132-1.131Zm1.768-1.767c-1.228-1.228-2.86-1.904-4.596-1.904s-3.369.676-4.596,1.904l1.132,1.131c.925-.925,2.155-1.435,3.464-1.435s2.539.51,3.464,1.435l1.132-1.131Z"/>
</svg>
