<?xml version="1.0" encoding="UTF-8"?>
<svg xmlns="http://www.w3.org/2000/svg" id="Layer_1" data-name="Layer 1" viewBox="0 0 24 24">
  <path d="m12.513,13c.552,0,1,.448,1,1s-.448,1-1,1h-1.5v-2h1.5Zm.5,4h-2v2h2c.552,0,1-.448,1-1s-.448-1-1-1Zm8.872-9v13c0,1.654-1.346,3-3,3H4.885c-1.654,0-3-1.346-3-3v-13h3v-1c0-3.859,3.141-7,7-7s7,3.141,7,7v1h3Zm-5.872,10c0-.909-.406-1.725-1.047-2.275.345-.488.547-1.083.547-1.725,0-1.485-1.087-2.713-2.506-2.95l-.007-1.057-2,.014.006.993h-1.994v10h1.994l-.006.993,2,.014.006-1.007h.006c1.654,0,3-1.346,3-3Zm.872-11c0-2.757-2.243-5-5-5s-5,2.243-5,5v1h10v-1Z"/>
</svg>
