<?xml version="1.0" encoding="UTF-8"?>
<svg xmlns="http://www.w3.org/2000/svg" id="Layer_1" data-name="Layer 1" viewBox="0 0 24 24">
  <path d="m19.5,13.9c-1.774-.779-3.925-1.207-5.5-1.4v-1.035c1.845-1.301,3-4.323,3-6.465,0-2.886-2.114-5-5-5s-5,2.114-5,5c0,2.142,1.155,5.164,3,6.465v1.035c-1.566.192-3.738.616-5.501,1.386-.333.146-.583.386-.753.667l1.262.761c1.736.848,3.409,1.361,5.113,1.569.003,0,1.173.117,1.879.117s1.876-.117,1.879-.117c1.129-.138,2.246-.424,3.375-.838-.632.86-1.204,1.721-1.731,2.588-.471.099-.944.179-1.422.237-.053.005-1.29.129-2.101.129s-2.048-.124-2.101-.129c-1.817-.222-3.575-.75-5.375-1.585,1.096,1.455,2.114,2.999,2.978,4.714h-2.503v2h14v-2h-2.502c1.039-2.063,2.291-3.925,3.642-5.623.663-.834.337-2.049-.639-2.477Z"/>
</svg>
