<?xml version="1.0" encoding="UTF-8"?>
<svg xmlns="http://www.w3.org/2000/svg" id="Layer_1" data-name="Layer 1" viewBox="0 0 24 24">
  <path d="M1.732,5.682c-.975-.975-.975-2.561,0-3.536L3.146,.732c.974-.974,2.561-.975,3.536,0l4.75,4.75-1.767,1.767,2.359,2.353,4.081,2.398-3.096,3.096-2.424-4.106-2.334-2.328-1.769,1.769L1.732,5.682Zm17.768,7.318h-1.566l-2,2h3.566c1.379,0,2.5,1.122,2.5,2.5s-1.121,2.5-2.5,2.5c-2.676,0-5.892-1.172-8.729-2.206-2.532-.923-4.924-1.794-6.771-1.794-2.206,0-4,1.794-4,4s1.794,4,4,4h1v-2h-1c-1.103,0-2-.897-2-2s.897-2,2-2c1.494,0,3.725,.813,6.086,1.673,2.993,1.091,6.385,2.327,9.414,2.327,2.481,0,4.5-2.019,4.5-4.5s-2.019-4.5-4.5-4.5Z"/>
</svg>
