<?xml version="1.0" encoding="UTF-8"?>
<svg xmlns="http://www.w3.org/2000/svg" id="Layer_1" data-name="Layer 1" viewBox="0 0 24 24">
  <path d="M8.5,12c3.032,0,5.5-2.467,5.5-5.5S11.532,1,8.5,1,3,3.467,3,6.5s2.468,5.5,5.5,5.5Zm11.495,2.254l4.005,8.01v1.736H14.104l-.62-2h8.148l-1-2h-7.367c-1.312,0-2.228,1.3-1.787,2.535l.523,1.465h-2.092l-2.369-6.459-5.324,6.459H.109L1.508,12.875l1.984,.249-.917,7.294s2.889-3.504,4.526-5.49c.715-.867,1.698-1.463,2.797-1.698,4.099-.879,5.354-1.13,5.792-1.201,1.763-.287,3.505,.628,4.304,2.226Zm-3.163-9.588l-2.333-1.167,2.333-1.167,1.167-2.333,1.167,2.333,2.333,1.167-2.333,1.167-1.167,2.333-1.167-2.333Zm3.834,3.912l.833-1.667,.833,1.667,1.667,.833-1.667,.833-.833,1.667-.833-1.667-1.667-.833,1.667-.833Z"/>
</svg>
