<?xml version="1.0" encoding="UTF-8"?>
<svg xmlns="http://www.w3.org/2000/svg" id="Layer_1" data-name="Layer 1" viewBox="0 0 24 24">
  <path d="M5.532,9.783l.583,2.624h-1.407l.646-2.678c.019-.068,.05-.122,.097-.122,.014,.01,.057,.063,.082,.176ZM24,4V20.834l-12,2.183L0,20.834V4C-.016,2.152,1.719,.7,3.536,1.049l4.237,1.028c1.879,.362,3.235,2.01,3.227,3.923v14.8l1,.181,1-.181V6c0-1.933,1.382-3.59,3.284-3.936l4.122-1c1.792-.404,3.64,1.096,3.594,2.936ZM8.358,15l-1.266-5.572c-.311-1.853-2.97-1.844-3.303-.04l-1.29,5.612h1.583l.24-.994h2.148l.221,.994h1.667Zm12.642-7h-4.55v1.6h2.562l-2.562,3.686v1.715h4.55v-1.6h-2.563l2.563-3.686v-1.715Z"/>
</svg>
