<?xml version="1.0" encoding="UTF-8"?>
<svg xmlns="http://www.w3.org/2000/svg" id="Layer_1" data-name="Layer 1" viewBox="0 0 24 24">
  <path d="m20.499,9h-.002c-.936,0-1.837-.366-2.473-1.002-.66-.658-1.024-1.537-1.024-2.474s.361-1.812,1.019-2.468l2.481-2.428,2.467,2.414c.669.669,1.033,1.548,1.033,2.482s-.364,1.814-1.025,2.475c-.637.636-1.539,1.001-2.476,1.001ZM3.564,5.257l2.163,2.023-.844.844c-1.17,1.17-1.17,3.073,0,4.243l8.707,8.707h6s2.957,2.957,2.957,2.957l1.414-1.414-2.957-2.957v-6s-1.302-1.302-1.302-1.302l-3.207,3.207-1.414-1.414,3.207-3.207-1.586-1.586-3.207,3.207-1.414-1.414,3.207-3.207-1.586-1.586-3.207,3.207-1.414-1.414,3.206-3.206c-1.171-1.162-3.066-1.159-4.233.008l-.913.913-2.178-2.038,2.255-2.305L5.789.124.039,5.999l1.43,1.398,2.095-2.141Z"/>
</svg>
