<?xml version="1.0" encoding="UTF-8"?>
<svg xmlns="http://www.w3.org/2000/svg" id="Layer_1" data-name="Layer 1" viewBox="0 0 24 24">
  <path d="M17,12l-7,12h14l-7-12Zm1,11h-2v-2h2v2Zm-2-3v-4h2v4h-2Zm1-10v-3.407c1.809,1.696,2.886,4.023,2.981,6.548l-1.832-3.141h-1.149ZM7.685,24H0V13.5c0-2.664,1.105-5.13,3-6.907v5.907c0,3.59,2.91,6.5,6.5,6.5h1c.035,0,.069-.005,.104-.005l-2.92,5.005Zm-1.249-8.221c-.878-.821-1.435-1.981-1.435-3.279V4C5,1.791,6.791,0,9,0h2c2.209,0,4,1.791,4,4v7.459l-2.107,3.613c-.78-.665-1.786-1.072-2.893-1.072-1.458,0-2.743,.703-3.565,1.779Z"/>
</svg>
