<?xml version="1.0" encoding="UTF-8"?>
<svg xmlns="http://www.w3.org/2000/svg" id="Layer_1" data-name="Layer 1" viewBox="0 0 24 24">
  <path d="M6,7.368c-1.409,.668-2.735,1.568-3.899,2.732l-1.414-1.414c1.566-1.566,3.378-2.737,5.313-3.517v2.199Zm12-2.199v2.199c1.409,.668,2.735,1.568,3.899,2.732l1.414-1.414c-1.566-1.566-3.378-2.737-5.313-3.517Zm-6,12.831c-1.1,0-2,.9-2,2s.9,2,2,2,2-.9,2-2-.9-2-2-2Zm-6.364-4.364l1.414,1.414c1.322-1.322,3.08-2.05,4.95-2.05s3.627,.728,4.95,2.05l1.414-1.414c-1.7-1.7-3.96-2.636-6.364-2.636s-4.664,.936-6.364,2.636Zm3.371-4.729l2.993-2.993,2.993,2.993,1.414-1.414-2.993-2.993,2.993-2.993L14.993,.093l-2.993,2.993L9.007,.093l-1.414,1.414,2.993,2.993-2.993,2.993,1.414,1.414Z"/>
</svg>
