<?xml version="1.0" encoding="UTF-8"?>
<svg xmlns="http://www.w3.org/2000/svg" id="Layer_1" data-name="Layer 1" viewBox="0 0 24 24">
  <path d="M23.419,17.594c.774,.775,.774,2.037,0,2.812l-3.3,3.3-1.414-1.414,2.291-2.291H0v-2H21.008l-2.302-2.291,1.414-1.414,3.299,3.299ZM17.711,2.021c2.382,.113,4.289,2.069,4.289,4.479,0,2.481-2.019,4.5-4.5,4.5h-4c-2.481,0-4.5-2.019-4.5-4.5,0-.925,.282-1.784,.762-2.5h-2.26c-.322,.77-.502,1.614-.502,2.5,0,0,0,.017,.002,.046,.025,3.563,2.929,6.454,6.498,6.454h4c3.584,0,6.5-2.916,6.5-6.5S21.084,0,17.5,0h-1.534c.684,.576,1.27,1.26,1.745,2.021ZM6.5,13h1.534c-.684-.576-1.27-1.26-1.745-2.021-2.382-.113-4.289-2.069-4.289-4.479,0-2.481,2.019-4.5,4.5-4.5h4c2.481,0,4.5,2.019,4.5,4.5,0,.925-.282,1.784-.762,2.5h2.26c.322-.77,.502-1.614,.502-2.5,0,0,0-.017-.002-.046-.025-3.563-2.929-6.454-6.498-6.454H6.5C2.916,0,0,2.916,0,6.5s2.916,6.5,6.5,6.5Z"/>
</svg>
