<?xml version="1.0" encoding="UTF-8"?>
<svg xmlns="http://www.w3.org/2000/svg" id="Layer_1" data-name="Layer 1" viewBox="0 0 24 24">
  <path d="M12,0c-2.761,0-5,2.239-5,5s2.239,5,5,5,5-2.239,5-5S14.761,0,12,0Zm-3,5c0-1.657,1.343-3,3-3,.556,0,1.069,.161,1.516,.425-1.156,.291-2.016,1.329-2.016,2.575s.859,2.284,2.016,2.575c-.446,.263-.96,.425-1.516,.425-1.657,0-3-1.343-3-3Zm9.169,3.307c-.614,1.143-1.539,2.091-2.659,2.742,.163-.016,.322-.049,.489-.049,2.757,0,5,2.242,5,5s-2.243,5-5,5-5-2.242-5-5c0-1.7,.856-3.2,2.156-4.103-.377,.063-.761,.103-1.156,.103-2.67,0-4.989-1.495-6.169-3.693-3.359,.949-5.831,4.035-5.831,7.693,0,4.411,3.589,8,8,8h8c4.411,0,8-3.589,8-8,0-3.658-2.472-6.744-5.831-7.693Z"/>
</svg>
