<?xml version="1.0" encoding="UTF-8"?>
<svg xmlns="http://www.w3.org/2000/svg" id="Layer_1" data-name="Layer 1" viewBox="0 0 24 24">
  <path d="m18,12c-3.314,0-6,2.686-6,6s2.686,6,6,6,6-2.686,6-6-2.686-6-6-6Zm.619,8.414c-.378.378-.88.586-1.414.586h-.002c-.534,0-1.036-.209-1.413-.587l-2.012-2.012,1.414-1.414,2.013,2.013,3.615-3.615,1.414,1.414-3.615,3.615ZM8.344,7.226L14.646,1.073c1.51-1.173,3.618-1.393,5.308-.548l3.046,1.523,1-.049v10.721c-1.466-1.665-3.607-2.721-6-2.721-.572,0-1.13.063-1.668.177l-2.822-2.358,1.736-1.662-1.383-1.445-4.173,3.995c-.207.208-.493.315-.788.29-.298-.024-.56-.175-.739-.425-.274-.38-.19-.975.181-1.347Zm2.213,13.692l-7.89-5.918H0V2h2.764l1.949-1.475c.687-.344,1.456-.525,2.227-.525,1.28,0,2.471.461,3.39,1.298l.617.593-4.007,3.911c-1.073,1.072-1.244,2.767-.398,3.938.52.723,1.46,1.259,2.444,1.259.793,0,1.554-.312,2.104-.863l.967-.925,2.113,1.765c-2.483,1.358-4.168,3.993-4.168,7.023,0,1.031.202,2.013.557,2.918Z"/>
</svg>
