<?xml version="1.0" encoding="UTF-8"?>
<svg xmlns="http://www.w3.org/2000/svg" id="Layer_1" data-name="Layer 1" viewBox="0 0 24 24">
  <path d="M24,0V4c0,.552-.448,1-1,1h-4l1.962-1.962c-.631-.636-1.496-1.038-2.462-1.038-1.93,0-3.5,1.57-3.5,3.5s1.57,3.5,3.5,3.5c1.391,0,2.585-.822,3.149-2h2.138c-.655,2.305-2.775,4-5.287,4-3.032,0-5.5-2.467-5.5-5.5S15.468,0,18.5,0c1.517,0,2.883,.625,3.878,1.622l1.622-1.622Zm-5.908,12.979l-2.556,2.556c-.945,.944-2.201,1.464-3.536,1.464s-2.591-.52-3.536-1.464L0,7.071V24H24V10.587c-1.37,1.481-3.324,2.413-5.5,2.413-.138,0-.272-.013-.408-.021Zm-3.97,1.142l1.643-1.643c-2.788-1.094-4.765-3.802-4.765-6.978,0-.878,.159-1.717,.436-2.5H3c-1.147,0-2.135,.655-2.639,1.604L9.878,14.122c1.134,1.133,3.109,1.133,4.243,0Z"/>
</svg>
