<?xml version="1.0" encoding="UTF-8"?>
<svg xmlns="http://www.w3.org/2000/svg" id="Layer_1" data-name="Layer 1" viewBox="0 0 24 24">
  <path d="m9,22c0,1.105-.895,2-2,2s-2-.895-2-2,.895-2,2-2,2,.895,2,2Zm7.5-6.5c0,1.379,1.121,2.5,2.5,2.5s2.5-1.121,2.5-2.5-1.121-2.5-2.5-2.5-2.5,1.121-2.5,2.5Zm7.5,6.5v2h-10v-2c0-1.654,1.346-3,3-3h4c1.654,0,3,1.346,3,3Zm-16.222-5c-.507,0-.934-.38-.993-.883l-.131-1.117h7.897c.252-2.244,2.139-4,4.449-4,1.221,0,2.326.492,3.138,1.284l1.857-9.284H5.242l-.041-.351c-.178-1.51-1.459-2.649-2.979-2.649H0v2h2.222c.507,0,.934.38.993.883l1.584,13.468c.178,1.51,1.459,2.649,2.979,2.649h5.247c.507-.67,1.169-1.213,1.944-1.56-.07-.144-.139-.288-.193-.44h-6.998Z"/>
</svg>
