<?xml version="1.0" encoding="UTF-8"?>
<svg xmlns="http://www.w3.org/2000/svg" id="Layer_1" data-name="Layer 1" viewBox="0 0 24 24">
  <path d="M12,5.994l-7.854,6.006,7.854,6.006,7.854-6.006-7.854-6.006Zm0,9.506c-1.933,0-3.5-1.567-3.5-3.5,0-.171,.027-.334,.05-.498,.448,.016,3.713,.225,6.188,2.655-.641,.812-1.623,1.344-2.738,1.344Zm-2.518-5.922c.637-.662,1.527-1.078,2.518-1.078,1.933,0,3.5,1.567,3.5,3.5,0,.048-.012,.093-.014,.141-2.201-1.83-4.669-2.392-6.004-2.563ZM12,0C5.383,0,0,5.383,0,12s5.383,12,12,12,12-5.383,12-12S18.617,0,12,0Zm0,20.523L.854,12,12,3.477l11.146,8.523-11.146,8.523Z"/>
</svg>
