<?xml version="1.0" encoding="UTF-8"?>
<svg xmlns="http://www.w3.org/2000/svg" id="Layer_1" data-name="Layer 1" viewBox="0 0 24 24">
  <polygon points="11 6 11 12.525 16.06 15.586 17.095 13.875 13 11.397 13 6 11 6"/>
  <path d="M22,2v3.362C19.811,2.044,16.11,0,12,0,5.383,0,0,5.383,0,12H2C2,6.486,6.486,2,12,2c3.64,0,6.9,1.921,8.665,5h-3.665v2h5c1.103,0,2-.897,2-2V2h-2Z"/>
  <path d="M12,22c-3.64,0-6.9-1.921-8.665-5h3.665v-2H2c-1.103,0-2,.897-2,2v5H2v-3.362c2.189,3.319,5.891,5.362,10,5.362,6.617,0,12-5.383,12-12h-2c0,5.514-4.486,10-10,10Z"/>
</svg>
