<?xml version="1.0" encoding="UTF-8"?>
<svg xmlns="http://www.w3.org/2000/svg" id="Layer_1" data-name="Layer 1" viewBox="0 0 24 24">
  <path d="m5.325,14.549l2.659,2.659-1.414,1.414-1.57-1.57v6.948h-2v-6.948l-1.57,1.57L.016,17.208l2.659-2.659c.707-.707,1.943-.707,2.65,0Zm14.162-9.549c1.381,0,2.5-1.119,2.5-2.5s-1.119-2.5-2.5-2.5-2.5,1.119-2.5,2.5,1.119,2.5,2.5,2.5Zm-9.812,4.549l-2.659,2.659,1.414,1.414,1.57-1.57v11.948h2v-11.948l1.57,1.57,1.414-1.414-2.659-2.659c-.707-.707-1.943-.707-2.65,0Zm11.325-3.549h-4.561L11.237.324l-1.475,1.352,6.237,6.71v15.614h2v-7h2v7h2v-7h2v-8c0-1.654-1.346-3-3-3Z"/>
</svg>
