<?xml version="1.0" encoding="UTF-8"?>
<svg xmlns="http://www.w3.org/2000/svg" id="Layer_1" data-name="Layer 1" viewBox="0 0 24 24">
  <path d="m7,0C3.134,0,0,1.343,0,3s3.134,3,7,3,7-1.343,7-3S10.866,0,7,0Zm0,4c-1.381,0-2.5-.448-2.5-1s1.119-1,2.5-1,2.5.448,2.5,1-1.119,1-2.5,1Zm16.393-1.27c-.256.318-.393.7-.393,1.103s.136.784.394,1.104c.809,1.003.809,2.457,0,3.46-.258.319-.394.701-.394,1.104s.136.784.394,1.104c.809,1.003.809,2.457,0,3.46-.258.319-.394.701-.394,1.104s.137.784.395,1.104c.39.481.605,1.097.605,1.729v1h-8V3c0-1.164-.586-2.186-1.613-3h9.613v1c0,.632-.216,1.247-.607,1.73ZM7,8c-2.951,0-5.403-.639-7-1.712v14.212c0,2.298,3.521,3.5,7,3.5s7-1.202,7-3.5V6.288c-1.597,1.073-4.049,1.712-7,1.712Zm4,9h-3v3h-2v-3h-3v-2h3v-3h2v3h3v2Z"/>
</svg>
