<?xml version="1.0" encoding="UTF-8"?>
<svg xmlns="http://www.w3.org/2000/svg" id="Layer_1" data-name="Layer 1" viewBox="0 0 24 24">
  <path d="m24.01,22.631c-.76.87-1.856,1.369-3.01,1.369-1.201,0-2.266-.542-3-1.382-.734.84-1.799,1.382-3,1.382s-2.266-.542-3-1.382c-.734.84-1.8,1.382-3,1.382s-2.266-.542-3-1.382c-.734.84-1.8,1.382-3,1.382-1.153,0-2.25-.499-3.009-1.368l1.506-1.316c.38.436.928.685,1.503.685,1.103,0,2-.897,2-2h2c0,1.103.897,2,2,2s2-.897,2-2h2c0,1.103.897,2,2,2s2-.897,2-2h2c0,1.103.897,2,2,2,.575,0,1.123-.249,1.502-.684l1.508,1.314ZM3,18c-1.153,0-2.25-.499-3.009-1.368l1.506-1.316c.38.436.928.685,1.503.685,1.103,0,2-.897,2-2v-3C5,4.935,9.935,0,16,0c1.86,0,3.703.477,5.328,1.379l.876.486-.869,1.559-.777-.167c-.488-.133-1.016-.257-1.558-.257-3.589,0-6,3.361-6,6.5,0,4.07,1.683,6.5,4.5,6.5,1.45,0,2.5-1.194,2.5-2h2c0,1.103.897,2,2,2v2c-1.256,0-2.365-.594-3.099-1.502-.811.871-2.003,1.502-3.401,1.502h-.5c-2,0-3-.5-5-1.382-.734.84-1.8,1.382-3,1.382s-2.266-.542-3-1.382c-.734.84-1.8,1.382-3,1.382Z"/>
  <path d="m24.01,22.631c-.76.87-1.856,1.369-3.01,1.369-1.201,0-2.266-.542-3-1.382-.734.84-1.799,1.382-3,1.382s-2.266-.542-3-1.382c-.734.84-1.8,1.382-3,1.382s-2.266-.542-3-1.382c-.734.84-1.8,1.382-3,1.382-1.153,0-2.25-.499-3.009-1.368l1.506-1.316c.38.436.928.685,1.503.685,1.103,0,2-.897,2-2h2c0,1.103.897,2,2,2s2-.897,2-2h2c0,1.103.897,2,2,2s2-.897,2-2h2c0,1.103.897,2,2,2,.575,0,1.123-.249,1.502-.684l1.508,1.314ZM3,18c-1.153,0-2.25-.499-3.009-1.368l1.506-1.316c.38.436.928.685,1.503.685,1.103,0,2-.897,2-2v-3C5,4.935,9.935,0,16,0c1.86,0,3.703.477,5.328,1.379l.876.486-.869,1.559-.777-.167c-.488-.133-1.016-.257-1.558-.257-3.589,0-6,3.361-6,6.5,0,4.07,1.683,6.5,4.5,6.5,1.45,0,2.5-1.194,2.5-2h2c0,1.103.897,2,2,2v2c-1.256,0-2.365-.594-3.099-1.502-.811.871-2.003,1.502-3.401,1.502h-.5c-2,0-3-.5-5-1.382-.734.84-1.8,1.382-3,1.382s-2.266-.542-3-1.382c-.734.84-1.8,1.382-3,1.382Z"/>
</svg>
