<?xml version="1.0" encoding="UTF-8"?>
<svg xmlns="http://www.w3.org/2000/svg" id="Layer_1" data-name="Layer 1" viewBox="0 0 24 24">
  <path d="M12,10c1.657,0,3,1.343,3,3s-1.343,3-3,3-3-1.343-3-3,1.343-3,3-3Zm10,6.677l-5,2.912v4.41H7v-4.41l-5-2.912v-7.677h2v6.323l4.192,1.677h7.615l4.192-1.677v-6.323h2v7.677ZM5.964,6.787l1.636-1.636,1.899,2.85,.5-.5-.869-5.975c-.108-.532-.765-.73-1.149-.346l-1.626,1.626L5,0,2.712,2.288l2.15,4.335c.22,.41,.773,.492,1.102,.163Zm10.486-1.636l1.636,1.636c.329,.329,.883,.247,1.102-.163l2.15-4.335-2.288-2.288-1.357,2.804-1.626-1.626c-.384-.384-1.041-.186-1.149,.346l-.869,5.975,.5,.5,1.899-2.85Z"/>
</svg>
