<?xml version="1.0" encoding="UTF-8"?>
<svg xmlns="http://www.w3.org/2000/svg" id="Layer_1" data-name="Layer 1" viewBox="0 0 24 24">
  <path d="m16.5,18c0-.46-.089-.895-.218-1.312l1.417-.816-.999-1.732-1.41.813c-.605-.652-1.393-1.126-2.289-1.331v-1.621h-2v1.621c-.896.205-1.685.678-2.289,1.331l-1.41-.813-.999,1.732,1.417.816c-.129.418-.218.853-.218,1.312s.089.895.218,1.312l-1.417.816.999,1.732,1.41-.813c.605.652,1.393,1.126,2.289,1.331v1.621h2v-1.621c.896-.205,1.685-.678,2.289-1.331l1.41.813.999-1.732-1.417-.816c.129-.418.218-.853.218-1.312Zm-4.5,1.5c-.827,0-1.5-.673-1.5-1.5s.673-1.5,1.5-1.5,1.5.673,1.5,1.5-.673,1.5-1.5,1.5Zm12-7c0,2.909-1.668,5.431-4.096,6.674h0c.057-.384.096-.774.096-1.174,0-4.418-3.582-8-8-8s-8,3.582-8,8c0,.667.091,1.311.244,1.93-2.399-.403-4.244-2.681-4.244-5.43,0-1.722.811-3.334,2.157-4.367-.104-.535-.157-1.082-.157-1.633C2,3.813,5.813,0,10.5,0c3.453,0,6.537,2.079,7.848,5.23,3.309.833,5.652,3.803,5.652,7.27Z"/>
</svg>
