<?xml version="1.0" encoding="UTF-8"?>
<svg xmlns="http://www.w3.org/2000/svg" id="Layer_1" data-name="Layer 1" viewBox="0 0 24 24">
  <path d="M23,19V11c0-1.654-1.346-3-3-3h-1V3c0-1.654-1.346-3-3-3H8c-1.654,0-3,1.346-3,3v5h-1c-1.654,0-3,1.346-3,3v8H11v3H6v2h12v-2h-5v-3h10ZM10.184,2.625c.743-.573,1.695-.763,2.61-.522,1.072,.282,1.912,1.169,2.14,2.261,.279,1.337-.339,2.66-1.537,3.292-.215,.114-.348,.194-.395,.238,.002,.006-.003,.042-.003,.107h-2c0-1.341,.881-1.806,1.464-2.114,.334-.176,.621-.588,.512-1.114-.072-.345-.355-.648-.689-.735-.429-.114-.737,.059-.881,.171-.254,.196-.405,.502-.405,.819h-2c0-.932,.442-1.83,1.184-2.402Zm2.816,6.375v2h-2v-2h2ZM4,15c-.352,0-.686,.072-1,.184v-4.184c0-.552,.449-1,1-1h1v3h14v-3h1c.551,0,1,.448,1,1v4.184c-.314-.112-.648-.184-1-.184H4Z"/>
</svg>
