<?xml version="1.0" encoding="UTF-8"?>
<svg xmlns="http://www.w3.org/2000/svg" id="Layer_1" data-name="Layer 1" viewBox="0 0 24 24">
  <path d="M24,7.264c0,1.271-1.034,2.305-2.306,2.305h-.346v1.431h-1.697v-1.431h-.212c-1.274,0-2.322-.981-2.43-2.227h1.718c.091,.306,.376,.53,.712,.53h2.255c.336,0,.609-.273,.609-.609,0-.289-.206-.54-.49-.597l-2.96-.592c-1.074-.215-1.853-1.165-1.853-2.261,0-1.271,1.034-2.305,2.305-2.305h.347V0h1.697V1.508h.212c1.274,0,2.322,.981,2.43,2.227h-1.718c-.091-.306-.376-.53-.712-.53h-2.256c-.336,0-.608,.273-.608,.609,0,.289,.206,.54,.489,.597l2.961,.593c1.074,.214,1.853,1.165,1.853,2.261ZM5.5,11C2.462,11,0,8.538,0,5.5S2.462,0,5.5,0c2.696,0,4.934,1.941,5.405,4.5h2.095V1.75l3.089,3.161c.325,.325,.325,.853,0,1.178l-3.089,3.161v-2.75h-2.095c-.471,2.559-2.709,4.5-5.405,4.5Zm.705-3.557l.004-.004,3.045-3.186-1.398-1.43-3.053,3.192-1.916-2.001-1.387,1.441,1.882,1.968c.766,.765,2.079,.763,2.823,.019Zm7.795,4.664c0-.996-.681-1.92-1.664-2.08-1.253-.204-2.336,.758-2.336,1.973v8.817c-1.076-.886-2.111-1.752-2.145-1.784-.922-.861-2.373-.813-3.235,.109-.863,.923-.819,2.372,.098,3.23l1.821,1.628H23v-4l-9-3.538v-4.355Z"/>
</svg>
