<?xml version="1.0" encoding="UTF-8"?>
<svg xmlns="http://www.w3.org/2000/svg" id="Layer_1" data-name="Layer 1" viewBox="0 0 24 24">
  <path d="m15.037,23.998c-1.033,0-2.067-.393-2.854-1.18-.763-.762-1.183-1.776-1.183-2.855s.42-2.092,1.183-2.855l5.012-5.012,1.414,1.414-5.012,5.012c-.385.385-.597.897-.597,1.441s.212,1.056.597,1.441c.796.794,2.088.793,2.882,0l5.37-5.37c.202-.202.202-.532,0-.734-.195-.195-.537-.196-.734,0l-5.37,5.37-1.414-1.414,5.37-5.37c.951-.95,2.609-.952,3.562,0,.981.982.981,2.581,0,3.562l-5.37,5.37c-.787.787-1.821,1.18-2.855,1.18Zm-5.159-13.876c.567.566,1.344.849,2.122.85.777,0,1.555-.283,2.122-.85L23.23,1.013c-.55-.616-1.341-1.013-2.23-1.013H3c-.889,0-1.68.396-2.23,1.012l9.108,9.109Zm9.651,1.481c1.424-.665,3.147-.549,4.471.328V3.071l-6.501,6.501,2.03,2.03Zm-8.761,4.091l3.039-3.039c-.57.221-1.178.346-1.807.346-1.335,0-2.591-.52-3.536-1.464L0,3.071v15.929h9.083c.199-1.246.776-2.397,1.686-3.307Z"/>
</svg>
