<?xml version="1.0" encoding="UTF-8"?>
<svg xmlns="http://www.w3.org/2000/svg" id="Layer_1" data-name="Layer 1" viewBox="0 0 24 24">
  <path d="M21.999,5.001h-6c-1.1,0-2,.9-1.999,2l.002,7.911c0,.858,.949,1.378,1.672,.915l2.826-1.827h5.5V7.001c0-1.105-.896-2-2.001-2Zm-2.999,7.5s-3-2.122-3-3.85c0-.911,.672-1.65,1.5-1.65s1.5,.739,1.5,1.65c0-.911,.672-1.65,1.5-1.65s1.5,.739,1.5,1.65c0,1.728-3,3.85-3,3.85ZM0,18v3c0,1.654,1.346,3,3,3H13c1.654,0,3-1.346,3-3v-3H0Zm10,4H6v-2h4v2Zm2.206-6H0V0H16V3h0c-1.066,0-2.07,.417-2.827,1.175-.757,.757-1.173,1.762-1.172,2.827l.002,7.91c0,.379,.075,.745,.204,1.088Z"/>
</svg>
