<?xml version="1.0" encoding="UTF-8"?>
<svg xmlns="http://www.w3.org/2000/svg" id="Layer_1" data-name="Layer 1" viewBox="0 0 24 24">
  <path d="m11,4H2V0h9v4Zm2,2H0v4.293l2.506-2.293h2.964L0,13.004v3.539l9.338-8.543h2.964L.292,18.988c.265.891.701,1.709,1.272,2.414l11.436-10.864v-4.537Zm-6.526,13.495l4.851,4.505h3.889l-6.818-6.331-1.922,1.826Zm6.695-6.36l2.831,2.588v2.71l-4.285-3.917-1.866,1.773,8.151,7.643v-10.751l-4.031-.806-.801.761ZM3.035,22.762c1.128.779,2.494,1.238,3.965,1.238h1.386l-3.365-3.125-1.986,1.887Zm18.337-6.445c-.143-.036-1.09-.234-1.372-.296v5.978h1.122c1.575,0,2.866-1.277,2.878-2.848.009-1.36-.973-2.42-2.628-2.834Z"/>
</svg>
