<?xml version="1.0" encoding="UTF-8"?>
<svg xmlns="http://www.w3.org/2000/svg" id="Layer_1" data-name="Layer 1" viewBox="0 0 24 24">
  <path d="M.058,20c-.034,.162-.058,.328-.058,.5,0,1.381,1.119,2.5,2.5,2.5s2.5-1.119,2.5-2.5c0-.172-.024-.338-.058-.5H.058Z"/>
  <path d="M22.404,7.051c-.409-1.227-1.553-2.051-2.846-2.051h-1.559v6h5.721l-1.316-3.949Z"/>
  <path d="M7.058,20c-.034,.162-.058,.328-.058,.5,0,1.381,1.119,2.5,2.5,2.5s2.5-1.119,2.5-2.5c0-.172-.024-.338-.058-.5H7.058Z"/>
  <path d="M17.058,20c-.034,.162-.058,.328-.058,.5,0,1.381,1.119,2.5,2.5,2.5s2.5-1.119,2.5-2.5c0-.172-.024-.338-.058-.5h-4.885Z"/>
  <path d="M13,1H3C1.346,1,0,2.346,0,4v14H16V4c0-1.654-1.346-3-3-3Zm-3,8.5c0,1.378-1.121,2.5-2.5,2.5h-.5v4h-2v-4h-.5c-1.379,0-2.5-1.122-2.5-2.5V4h2v5.5c0,.276,.225,.5,.5,.5h.5V4h2v6h.5c.275,0,.5-.224,.5-.5V4h2v5.5Zm3,3.885v2.615h-2V4.432c0-.715,.983-1.01,1.446-.437,1.145,1.419,2.054,3.006,2.054,5.006,0,1.846-1,3.5-1.5,4.385Z"/>
  <rect x="18" y="13" width="6" height="5"/>
</svg>
