<?xml version="1.0" encoding="UTF-8"?>
<svg xmlns="http://www.w3.org/2000/svg" id="Layer_1" data-name="Layer 1" viewBox="0 0 24 24">
  <path d="M23.554,.45c-2.66-1.243-6.093,1.568-8.292,2.718-1.343,.938-4.43,3.836-6.094,5.5l-3.683,3.681c-.96-1.242-1.486-2.754-1.486-4.349H2c0,2.44,.95,4.734,2.676,6.461l1.724,1.724-3.208,3.208-1.793-1.793L-.015,19.015l5,5,1.414-1.414-1.793-1.793,3.208-3.208,1.725,1.725c1.726,1.726,4.021,2.676,6.46,2.676v-2c-1.6,0-3.116-.529-4.36-1.494l3.684-3.682c1.701-1.7,4.643-4.83,5.556-6.146,1.12-2.158,3.905-5.59,2.673-8.228Z"/>
</svg>
