<?xml version="1.0" encoding="UTF-8"?>
<svg xmlns="http://www.w3.org/2000/svg" id="Layer_1" data-name="Layer 1" viewBox="0 0 24 24">
  <path d="M21,4v15H7.908l-1.908,1.272v.728h10.697l3.964,2.643c1.355,.968,3.392-.126,3.339-1.788V7c0-1.654-1.346-3-3-3Zm-8.826,2.783l.583,2.624h-1.407l.646-2.678c.019-.068,.05-.122,.097-.122,.014,.01,.057,.063,.082,.176ZM16,0H3C1.346,0,0,1.346,0,3v14.854c-.053,1.663,1.984,2.753,3.339,1.788l3.963-2.643h11.697V3c0-1.654-1.346-3-3-3Zm-7.5,9.75c0,1.243-1.007,2.25-2.25,2.25s-2.25-1.007-2.25-2.25v-.75h1.6v.75c0,.358,.292,.65,.65,.65s.65-.292,.65-.65V5h1.6v4.75Zm4.833,2.25l-.221-.994h-2.148l-.24,.994h-1.583l1.29-5.612c.333-1.805,2.992-1.813,3.303,.04l1.266,5.572h-1.667Z"/>
</svg>
