<?xml version="1.0" encoding="UTF-8"?>
<svg xmlns="http://www.w3.org/2000/svg" id="Layer_1" data-name="Layer 1" viewBox="0 0 24 24">
  <path d="M3.168,4.655L1.511,2.17l2.819,.986c2.424,.848,4.486,2.402,6.176,4.609-2.411,5.408-2.53,11.433-2.506,13.234v.2c0-3.034-1.181-11.069-4.832-16.545ZM19.993,20.696c-.032-2.992-.081-7.513,2.339-11.142l1.721-2.58-2.904,1.089c-.699,.262-1.356,.587-1.974,.966-1.491,3.368-2.174,7.195-2.174,11.971v1h-2v-1c0-7.962,1.846-13.538,5.832-18.445L22.489,.069l-2.451,.892c-10.549,3.692-10.038,19.377-10.038,20.038v1h-3.987l-.013-.8c0-1.865-.532-6.047-1.946-10.118-.385-.194-.773-.372-1.164-.518L-.013,9.475s3.013,3.025,3.013,12.525H0v2H24v-2h-4.003l-.004-1.304Z"/>
</svg>
