<?xml version="1.0" encoding="UTF-8"?>
<svg xmlns="http://www.w3.org/2000/svg" id="Layer_1" data-name="Layer 1" viewBox="0 0 24 24">
  <path d="M15.5,23.703c-.464,.188-.969,.297-1.5,.297-2.209,0-4-1.791-4-4,0-.473,.097-.92,.247-1.342-.757-.642-1.247-1.588-1.247-2.658,0-1.237,.645-2.318,1.614-2.941-.067-.26-.114-.528-.114-.809,0-1.795,1.455-3.25,3.25-3.25,.646,0,1.244,.194,1.75,.519v14.185Zm2,0c.464,.188,.969,.297,1.5,.297,2.209,0,4-1.791,4-4,0-.473-.097-.92-.247-1.342,.757-.642,1.247-1.588,1.247-2.658,0-1.237-.645-2.318-1.614-2.941,.067-.26,.114-.528,.114-.809,0-1.795-1.455-3.25-3.25-3.25-.646,0-1.244,.194-1.75,.519v14.185ZM8.5,12.231c.01-2.887,2.361-5.231,5.25-5.231,.868,0,1.713,.229,2.478,.643,.037-.061,.075-.119,.112-.181,.408-.898,.659-1.818,.659-2.731,0-2.608-2.131-4.73-4.75-4.73-1.512,0-2.873,.813-3.75,2.031C7.623,.813,6.262,0,4.75,0,2.131,0,0,2.122,0,4.73c0,2.225,1.417,4.742,4.213,7.483,1.094,1.072,2.159,1.94,2.945,2.539,.221-.944,.673-1.816,1.341-2.521Z"/>
</svg>
