<?xml version="1.0" encoding="UTF-8"?>
<svg xmlns="http://www.w3.org/2000/svg" id="Layer_1" data-name="Layer 1" viewBox="0 0 24 24">
  <path d="m13,9h-2V3.012l-2.75,2.738-1.414-1.414,3.75-3.75c.779-.78,2.049-.78,2.828,0l3.785,3.699-1.398,1.431-2.801-2.737v6.022Zm11,3v12H0v-12c0-1.654,1.346-3,3-3h8v7h2v-7h8c1.654,0,3,1.346,3,3Zm-2,9.858v-2.14c-.302.177-.643.282-1,.282-1.103,0-2-.897-2-2h-2c0,1.103-.897,2-2,2s-2-.897-2-2h-2c0,1.103-.897,2-2,2s-2-.897-2-2h-2c0,1.103-.897,2-2,2-.357,0-.698-.106-1-.282v2.14c.325.085.658.142,1,.142,1.201,0,2.266-.542,3-1.382.734.84,1.799,1.382,3,1.382s2.266-.542,3-1.382c.734.84,1.799,1.382,3,1.382s2.266-.542,3-1.382c.734.84,1.799,1.382,3,1.382.342,0,.675-.057,1-.142Z"/>
</svg>
