<?xml version="1.0" encoding="UTF-8"?>
<svg xmlns="http://www.w3.org/2000/svg" id="Layer_1" data-name="Layer 1" viewBox="0 0 24 24">
  <path d="M18,12c-3.309,0-6,2.691-6,6s2.691,6,6,6,6-2.691,6-6-2.691-6-6-6Zm4,6c0,.74-.215,1.424-.567,2.019l-5.453-5.452c.595-.351,1.28-.567,2.019-.567,2.206,0,4,1.794,4,4Zm-8,0c0-.74,.215-1.424,.567-2.019l5.453,5.452c-.595,.351-1.28,.567-2.019,.567-2.206,0-4-1.794-4-4ZM2.101,6H.08C.568,2.613,3.481,0,7,0c1.623,0,3.112,.563,4.3,1.494,1.124-.162,2.245-.345,3.223-.527,2.67-.497,5.193-.967,6.977-.967,1.378,0,2.5,1.122,2.5,2.5s-1.122,2.5-2.5,2.5c-1.193,0-2.189-.841-2.438-1.96-1.402,.052-3.024,.173-4.562,.46-2.817,.524-6.341,.5-8.5,.5v-1.873c-1.955,.399-3.502,1.917-3.899,3.873ZM12.721,24H0V11c0-1.654,1.346-3,3-3h7.5c1.5,0,1.5-.531,1.5-1,0-.401-.059-.785-.148-1.158,.676-.052,1.352-.12,2.012-.213,.089,.444,.137,.902,.137,1.372v4.079c-2.389,1.384-4,3.962-4,6.921,0,2.393,1.056,4.534,2.721,6Z"/>
</svg>
