<?xml version="1.0" encoding="UTF-8"?>
<svg xmlns="http://www.w3.org/2000/svg" id="Layer_1" data-name="Layer 1" viewBox="0 0 24 24">
  <path d="M18,16c0,.378,.271,.698,.644,.76l3.042,.507c1.341,.223,2.315,1.373,2.315,2.733,0,1.654-1.346,3-3,3v1h-2v-1c-1.654,0-3-1.346-3-3h2c0,.551,.449,1,1,1h2c.551,0,1-.449,1-1,0-.378-.271-.698-.644-.76l-3.042-.507c-1.341-.223-2.315-1.373-2.315-2.733,0-1.654,1.346-3,3-3v-1h2v1c1.654,0,3,1.346,3,3h-2c0-.551-.449-1-1-1h-2c-.551,0-1,.449-1,1ZM15,0h-1V10h10v-1C24,4.038,19.962,0,15,0Zm1.031,12h-4.031V2h-1C4.935,2,0,6.935,0,13s4.935,11,11,11c1.476,0,2.882-.297,4.169-.826-.719-.866-1.169-1.963-1.169-3.174v-4c0-1.641,.806-3.088,2.031-4Z"/>
</svg>
