<?xml version="1.0" encoding="UTF-8"?>
<svg xmlns="http://www.w3.org/2000/svg" id="Layer_1" data-name="Layer 1" viewBox="0 0 24 24">
  <path d="m16.5,6c0-.452-.087-.88-.211-1.291l1.42-.809-.99-1.738-1.416.807c-.606-.66-1.4-1.14-2.303-1.347V0h-2v1.621c-.903.206-1.697.687-2.303,1.347l-1.416-.807-.99,1.738,1.42.809c-.124.412-.211.84-.211,1.291s.087.88.211,1.291l-1.42.809.99,1.738,1.416-.807c.606.66,1.4,1.14,2.303,1.347v1.621h2v-1.621c.903-.206,1.697-.687,2.303-1.347l1.416.807.99-1.738-1.42-.809c.124-.412.211-.84.211-1.291Zm-4.5,1.5c-.827,0-1.5-.673-1.5-1.5s.673-1.5,1.5-1.5,1.5.673,1.5,1.5-.673,1.5-1.5,1.5Zm-5.5,14.5v2H0v-2c0-1.105.895-2,2-2h2.5c1.105,0,2,.895,2,2Zm15.5-2h-2.5c-1.105,0-2,.895-2,2v2h6.5v-2c0-1.105-.895-2-2-2Zm-8.5,0h-3c-1.105,0-2,.895-2,2v2h7v-2c0-1.105-.895-2-2-2Zm7.269-1c1.381,0,2.5-1.119,2.5-2.5s-1.119-2.5-2.5-2.5-2.5,1.119-2.5,2.5,1.119,2.5,2.5,2.5Zm-8.769,0c1.381,0,2.5-1.119,2.5-2.5s-1.119-2.5-2.5-2.5-2.5,1.119-2.5,2.5,1.119,2.5,2.5,2.5Zm-8.769,0c1.381,0,2.5-1.119,2.5-2.5s-1.119-2.5-2.5-2.5-2.5,1.119-2.5,2.5,1.119,2.5,2.5,2.5Zm15.69-12c.047-.327.08-.66.08-1s-.033-.673-.08-1h2.08c1.654,0,3,1.346,3,3v5.38c-.542-.561-1.231-.967-2-1.187v-4.193c0-.552-.448-1-1-1h-2.08ZM0,13.38v-5.38c0-1.654,1.346-3,3-3h2.08c-.047.327-.08.66-.08,1s.033.673.08,1h-2.08c-.552,0-1,.448-1,1v4.193c-.769.221-1.458.627-2,1.187Z"/>
</svg>
