<?xml version="1.0" encoding="UTF-8"?>
<svg xmlns="http://www.w3.org/2000/svg" id="Layer_1" data-name="Layer 1" viewBox="0 0 24 24">
  <path d="m12,0l-2.972.985c-.614.203-1.028.777-1.028,1.424v3.033c0,2.662,2.925,4.332,3.822,4.78l.179.089.186-.075c.895-.36,3.813-1.769,3.813-4.795v-3.033c0-.647-.414-1.22-1.028-1.424l-2.972-.985h0Zm1.007,16.255l4.778,4.279-4.441,3.466h-2.688l-5.125-4H0v-9h5.769c.487-.232,1.523-.695,2.433-.898.458.438.932.807,1.368,1.106l-1.644,1.605c-1.066,1.068-1.232,2.759-.389,3.926.52.724,1.321,1.179,2.192,1.25.086.008.173.012.259.012.792,0,1.549-.312,2.084-.85l.935-.895Zm10.993-5.255v9h-3.814l-7.188-6.436-2.309,2.142c-.207.208-.493.315-.788.29-.298-.024-.56-.175-.739-.425-.274-.38-.19-.975.181-1.347l2.27-2.225,1.556-.007c.666-.292,1.796-.882,2.796-1.855.9.212,1.904.62,2.315.862h5.72Z"/>
</svg>
