<?xml version="1.0" encoding="UTF-8"?>
<svg xmlns="http://www.w3.org/2000/svg" id="Layer_1" data-name="Layer 1" viewBox="0 0 24 24">
  <path d="M5.039,15l-2.628,6.008H0l2.371-5.008H.771l2.838-5.008h-1.609l3.5-6c.406-.606,.791-.992,1.5-.992,.303,0,.54,.083,.751,.212l-2.418,4.788h1.407l-3.382,6h1.68Zm5.961,9h2v-3h-2v3Zm10.629-8h1.6l-2.838-5.008h1.609l-3.5-6c-.406-.606-.791-.992-1.5-.992-.303,0-.54,.083-.751,.212l2.418,4.788h-1.407l3.382,6h-1.68l2.628,6.008h2.41l-2.371-5.008Zm-4.412-3l-2.937-6h1.402L13.14,.685C12.917,.201,12.452-.02,12,.007c-.452-.027-.917,.194-1.14,.678l-2.543,6.315h1.402l-2.937,6h1.315l-3.5,8h1.403v3h2v-3h3v-6h2v6h3v3h2v-3h1.403l-3.5-8h1.315Z"/>
</svg>
