<?xml version="1.0" encoding="UTF-8"?>
<svg xmlns="http://www.w3.org/2000/svg" id="Layer_1" data-name="Layer 1" viewBox="0 0 24 24">
  <path d="M20.792,7.985l2.66-2.66c.729-.73,.729-1.919,0-2.65L20.792,.015l-1.414,1.414,1.57,1.571H12C7.029,3,3,7.029,3,12c0,.353,.026,.7,.065,1.043l4.386,4.386-1.571,1.571H3.052l1.571-1.571-1.414-1.414-2.659,2.659c-.731,.731-.731,1.92,0,2.651l2.659,2.659,1.414-1.414-1.571-1.571H12c4.971,0,9-4.029,9-9,0-.354-.026-.701-.065-1.044l-4.385-4.385,1.571-1.571h2.828l-1.57,1.571,1.414,1.414Zm-6.292,4.015v1.6h-1.7v.8h1.7v1.6h-1.7v1h-1.6v-1h-1.7v-1.6h1.7v-.8h-1.7v-1.6h1.463l-3.08-3.733,1.234-1.019,2.883,3.495,2.883-3.495,1.234,1.019-3.08,3.733h1.463Z"/>
</svg>
