<?xml version="1.0" encoding="UTF-8"?>
<svg xmlns="http://www.w3.org/2000/svg" id="Layer_1" data-name="Layer 1" viewBox="0 0 24 24">
  <path d="m20.499,22h-.001c-.937,0-1.837-.366-2.473-1.002-.66-.658-1.024-1.537-1.024-2.474s.362-1.812,1.02-2.469l2.48-2.427,2.467,2.414c.669.669,1.033,1.548,1.033,2.482s-.364,1.814-1.026,2.475c-.636.636-1.539,1.001-2.475,1.001Zm1.001-15H7v-2h5.389l-3.025-3.121c-.702-.703-1.706-1.013-2.682-.828-.625.126-1.196.44-1.637.9L0,7v14h13.806l2.014-9h5.681c1.381,0,2.5-1.119,2.5-2.5s-1.119-2.5-2.5-2.5Z"/>
</svg>
