<?xml version="1.0" encoding="UTF-8"?>
<svg xmlns="http://www.w3.org/2000/svg" id="Layer_1" data-name="Layer 1" viewBox="0 0 24 24">
  <path d="M22.647,7.262c.062-.345-.451-.562-.61-.621-.752-.277-1.43-.58-1.43-.58-.6-.382-.864-.969-.777-1.579,.094-.649,.568-1.178,1.239-1.38,1.317-.397,2.407,.499,2.452,.537l.479,.402-.805,.957-.476-.399c-.025-.021-.633-.495-1.29-.299-.293,.088-.351,.282-.362,.361-.008,.059-.013,.206,.13,.302,.016,0,.614,.263,1.272,.506,1.223,.451,1.529,1.336,1.408,2.014-.16,.899-1.019,1.552-2.04,1.552-.826,0-1.603-.333-2.13-.914l-.42-.462,.926-.84,.42,.463c.286,.315,.736,.504,1.204,.504,.448,0,.764-.265,.81-.521Zm-10.647-1.262V3c0-1.654,1.346-3,3-3s3,1.346,3,3v3c0,1.654-1.346,3-3,3s-3-1.346-3-3Zm2,0c0,.551,.449,1,1,1s1-.449,1-1V3c0-.551-.449-1-1-1s-1,.449-1,1v3Zm5,6c0,3.86-3.141,7-7,7s-7-3.14-7-7v-1H0v1c0,6.617,5.383,12,12,12s12-5.383,12-12v-1h-5v1ZM5.121,7.8l1.747,.974L11,1.356V0H5V2h3.352l-3.231,5.8Zm4.879,4.2v-1h-3v1c0,2.757,2.243,5,5,5s5-2.243,5-5v-1h-3v1c0,1.105-.895,2-2,2s-2-.895-2-2Z"/>
</svg>
