<?xml version="1.0" encoding="UTF-8"?>
<svg xmlns="http://www.w3.org/2000/svg" id="Layer_1" data-name="Layer 1" viewBox="0 0 24 24">
  <path d="M23.152,8.681c-.515-.469-1.186-.712-1.878-.678-.697,.032-1.339,.334-1.794,.835l-3.541,3.737c.032,.21,.065,.42,.065,.638,0,2.083-1.555,3.876-3.617,4.17l-4.241,.606-.283-1.979,4.241-.606c1.084-.155,1.9-1.097,1.9-2.191,0-1.22-.993-2.213-2.213-2.213H3.003C1.349,11,.003,12.346,.003,14v7c0,1.654,1.346,3,3,3H12.667l10.674-11.655c.948-1.062,.862-2.707-.189-3.665ZM12.5,0c-1.763,0-3.274,1.024-4.012,2.501h-.796l-1.465,1.399-1.414-1.414-1.414,1.414-1.399-1.399L0,4.5l2,2.001h6.489c.738,1.476,2.248,2.499,4.011,2.499,2.485,0,4.5-2.015,4.5-4.5S14.985,0,12.5,0Zm1,6c-.828,0-1.5-.672-1.5-1.5s.672-1.5,1.5-1.5,1.5,.672,1.5,1.5-.672,1.5-1.5,1.5Z"/>
</svg>
