<?xml version="1.0" encoding="UTF-8"?>
<svg xmlns="http://www.w3.org/2000/svg" id="Layer_1" data-name="Layer 1" viewBox="0 0 24 24">
  <path d="M6,19h12v5H6v-5Zm12-2c0-1.103-.897-2-2-2h-3.729l-1.714-1h-2.556c-1.103,0-2,.897-2,2v1h12Zm6-4.5c0,2.872-1.624,5.369-4,6.628v-2.128c0-2.209-1.791-4-4-4h-3l-1.641-1h-3.359c-2.209,0-4,1.791-4,4v3.604c-2.279-.511-4-2.448-4-5.104,0-1.786,.85-3.425,2.266-4.45-.142-.534-.227-1.081-.255-1.637C1.829,4.835,4.135,1.478,7.547,.386c4.171-1.334,8.405,.922,9.893,4.672,3.73,.459,6.56,3.604,6.56,7.441Zm-8-2c0-2.481-2.019-4.5-4.5-4.5-1.214,0-2.348,.502-3.175,1.325l-1.325-1.325v3.429c0,.316,.256,.571,.571,.571h3.429l-1.264-1.264c.46-.457,1.09-.736,1.764-.736,1.378,0,2.5,1.122,2.5,2.5,0,.171-.018,.338-.051,.5h2c.019-.166,.051-.329,.051-.5Z"/>
</svg>
