<?xml version="1.0" encoding="UTF-8"?>
<svg xmlns="http://www.w3.org/2000/svg" id="Layer_1" data-name="Layer 1" viewBox="0 0 24 24">
  <path d="M4,10.734c2.902-1.394,6.283,1.5,6.283,1.5l-1.77,1.766c-.859-.86-2.365-2.834-4.514-3.266ZM14,4.013c-3.209-.263-5.331,3.648-5.331,3.648l2.284,1.016c.494-1.111,1.195-3.493,3.047-4.664ZM7.084,22c-.041-1.302-.024-3.089,.916-4.5-1.997,.699-2.829,2.85-3.167,4.246-.301-1.672-1.114-4.508-3.221-5.246,.776,1.164,.922,2.992,.927,4.481-.502-1.035-1.288-2.043-2.539-2.481,.717,1.076,.896,2.369,.923,3.5H0v2H24v-2H7.084ZM22.12,2l-2.4,12h1.561l.766,3.064c1.117,.25,1.953,1.244,1.953,2.436,0,1.381-1.119,2.5-2.5,2.5-1.209,0-2.218-.859-2.45-2h-5.101c-.232,1.141-1.24,2-2.45,2-1.381,0-2.5-1.119-2.5-2.5s1.119-2.5,2.5-2.5c.063,0,.121,.014,.183,.018l.382-1.006c.395-1.188,1.538-2.013,2.832-2.013h2.784L20.481,0h3.519V2h-1.88Z"/>
</svg>
