<?xml version="1.0" encoding="UTF-8"?>
<svg xmlns="http://www.w3.org/2000/svg" id="Layer_1" data-name="Layer 1" viewBox="0 0 24 24">
  <path d="M11,15h-2.33l-.449,3.394c-.197,1.486-1.476,2.606-2.974,2.606H3v3H0V0C2.667,.483,5.071,1.924,6.776,4.186h0c1.372,1.622,3.071,6.005,4.223,8.602v2.212ZM18.441,2.9c-.038,0-.071,.026-.079,.063l-.787,3.437h1.757l-.811-3.437c-.009-.037-.041-.063-.079-.063Zm5.559-.9V11H13V4.147l-1.818-2.459c-.488-.686,.064-1.715,.904-1.688h9.914c1.105,0,2,.895,2,2Zm-2.5,7.5l-1.616-6.853c-.201-.866-1.137-1.406-2.056-1.021-.439,.184-.734,.606-.842,1.07l-1.559,6.804h1.437l.389-1.7h2.409l.401,1.7h1.437Zm2.5,5.5v9H12.086c-.841,.027-1.392-1.003-.904-1.688l1.818-2.459v-4.853c0-1.105,.895-2,2-2h7c1.105,0,2,.895,2,2Zm-2,.5h-2.873v-1h-1.253v1h-2.873v1.253h4.808c-.111,.963-.484,2.151-1.303,3.071-.36-.405-.644-.857-.847-1.325h-1.336c.265,.751,.668,1.487,1.223,2.123-.664,.403-1.495,.661-2.545,.661v1.253c1.462,0,2.615-.413,3.512-1.053,.894,.636,2.033,1.053,3.488,1.053v-1.253c-1.049,0-1.876-.262-2.539-.665,.99-1.135,1.485-2.591,1.607-3.866h.932v-1.253Z"/>
</svg>
