<?xml version="1.0" encoding="UTF-8"?>
<svg xmlns="http://www.w3.org/2000/svg" id="Layer_1" data-name="Layer 1" viewBox="0 0 24 24">
  <path d="M3,3c0-1.105,.895-2,2-2s2,.895,2,2-.895,2-2,2-2-.895-2-2Zm9,2c1.381,0,2.5-1.119,2.5-2.5s-1.119-2.5-2.5-2.5-2.5,1.119-2.5,2.5,1.119,2.5,2.5,2.5Zm7,0c1.105,0,2-.895,2-2s-.895-2-2-2-2,.895-2,2,.895,2,2,2Zm5,7c0,6.617-5.383,12-12,12S0,18.617,0,12H2c0,1.045,.163,2.052,.461,3h3.442c-.246-.956-.403-1.958-.403-3h2c0,1.04,.179,2.048,.47,3h8.058c.292-.953,.472-1.961,.472-3h2c0,1.042-.157,2.044-.403,3h3.442c.299-.948,.461-1.955,.461-3h2Zm-15.227,5c1.024,2.085,2.412,3.725,3.226,4.586,.812-.862,2.199-2.503,3.224-4.586h-6.449Zm.615,4.642c-.94-1.167-2.024-2.767-2.811-4.642H3.353c1.308,2.253,3.466,3.945,6.035,4.642Zm11.258-4.642h-3.225c-.787,1.875-1.87,3.475-2.811,4.642,2.569-.697,4.728-2.39,6.035-4.642Zm-4.647-7v-1.5c0-1.379-1.122-2.5-2.5-2.5h-3c-1.378,0-2.5,1.121-2.5,2.5v1.5h8Zm1.238-4c.391,.583,.629,1.268,.711,2l.051,.5v1.5h5v-1.5c0-1.381-1.119-2.5-2.5-2.5h-3.262Zm-11.238,3l.051-1c.082-.732,.32-1.417,.711-2H3.5c-1.381,0-2.5,1.119-2.5,2.5v1.5H6v-1Z"/>
</svg>
