<?xml version="1.0" encoding="UTF-8"?>
<svg xmlns="http://www.w3.org/2000/svg" id="Layer_1" data-name="Layer 1" viewBox="0 0 24 24">
  <path d="m19,19h4.414l-4.414,4.414v-4.414Zm-5.533-12.75h-.715l.005,1.473.71-.003c.413,0,.762-.336.762-.735s-.349-.735-.762-.735Zm10.533-3.25v14h-7v7H0V3C0,1.346,1.346,0,3,0h18c1.654,0,3,1.346,3,3ZM7.771,9.827h-2.224l2.221-3.919-.003-.908h-3.766v1.199h2.224l-2.221,3.918v.909h3.768v-1.199Zm2.509-4.827h-1.28v6h1.28v-6Zm5.199,1.985c0-1.094-.902-1.985-2.012-1.985h-1.967v6.069h1.25v-2.096l.717-.003c1.109,0,2.012-.891,2.012-1.985Z"/>
</svg>
