<?xml version="1.0" encoding="UTF-8"?>
<svg xmlns="http://www.w3.org/2000/svg" id="Layer_1" data-name="Layer 1" viewBox="0 0 24 24">
  <path d="M19,11.986c0-2.742-.154-4.982-.479-6.806,.3,.01,.595,.033,.873,.087,2.804,.514,5.098,3.196,4.497,6.15-.258,1.278-2.2,3.664-6.363,4.859,.919-1.185,1.472-2.667,1.472-4.278,0-.004,0-.008,0-.012Zm-4.803-4.455c-.666-.329-1.405-.531-2.197-.531-2.757,0-5,2.243-5,5,0,1.332,1.173,2.5,2.511,2.5,.65,0,1.238-.26,1.673-.677-.697-.313-1.184-1.009-1.184-1.823,0-2.5,2.118-4.325,4.197-4.469Zm2.803,4.469c0-1.332-1.168-2.5-2.5-2.5-.652,0-1.241,.261-1.678,.681,.693,.314,1.178,1.008,1.178,1.819,0,2.5-2.095,4.329-4.195,4.47,.666,.328,1.404,.53,2.195,.53,2.757,0,5-2.243,5-5Zm-7.362,6.583c2.421,3.512,5.711,5.036,7.413,5.036,2.98,.136,4.856-2.627,4.854-5.335,0-.525-.086-1.075-.238-1.624-2.306,1.353-5.187,2.34-9.668,2.34v-.002c-.829,0-1.623-.149-2.362-.415Zm-4.5-5.209c-1.395,3.057-1.791,6.123-1.307,7.699,.756,2.767,3.788,3.43,6.175,2.597,.387-.134,.768-.334,1.14-.563-2.2-1.758-4.896-5.069-6.008-9.733Zm11.603-6.511c-.47-3.972-1.493-5.26-2.316-5.871-2.244-1.887-5.275-.691-6.83,1.418-.27,.367-.486,.802-.675,1.259,1.579,.093,6.131,.407,9.821,3.193Zm-10.53-1.232c-1.667,.031-3.315,.688-4.303,1.292-2.475,1.44-2.319,4.788-.809,6.869,.245,.345,.718,.807,1.263,1.227,.792-2.578,2.407-6.378,6.22-9.116-.814-.177-1.605-.288-2.371-.272Z"/>
</svg>
