<?xml version="1.0" encoding="UTF-8"?>
<svg xmlns="http://www.w3.org/2000/svg" id="Layer_1" data-name="Layer 1" viewBox="0 0 24 24">
  <path d="M13,2.057c2.155,.245,4.171,1.274,5.655,2.909l-.455,.789-1.449,.127c-1.044-.979-2.345-1.608-3.751-1.811V2.057m-1-2.057C5.935,0,1,4.935,1,11c0,4.162,1.591,8.74,2.492,11H2v2h7.352s-2.352-9-2.352-13c0-2.761,2.239-5,5-5,1.612,0,3.031,.776,3.945,1.961l3.467-.305,1.645-2.852c-.254-.371-.522-.732-.819-1.068C18.222,1.451,15.28,0,12,0h0ZM7.469,5.674l-1.662-1.187c1.387-1.32,3.19-2.205,5.193-2.427v2.021c-1.335,.192-2.549,.758-3.531,1.594h0ZM3,11c0-1.841,.558-3.554,1.511-4.982l1.63,1.164c-.719,1.099-1.14,2.409-1.14,3.818H3Zm13.986,.471c-.149,4.188-2.186,12.529-2.186,12.529h7.2v-2h-1.492c.853-2.141,2.309-6.359,2.462-10.336l-2.97,1.336-3-1.5-.014-.029h0Zm5.985,.193h0s0,0,0,0h0Z"/>
</svg>
