<?xml version="1.0" encoding="UTF-8"?>
<svg xmlns="http://www.w3.org/2000/svg" id="Layer_1" data-name="Layer 1" viewBox="0 0 24 24">
  <path d="M24,2.75c0,2.88-5,6.25-5,6.25,0,0-5-3.37-5-6.25,0-1.519,1.119-2.75,2.5-2.75s2.5,1.25,2.5,2.5c0-1.25,1.119-2.5,2.5-2.5s2.5,1.231,2.5,2.75ZM14.122,14.121l3.584-3.584c-1.245-.864-5.487-4.06-5.686-7.537H3c-1.147,0-2.134,.655-2.639,1.603L9.878,14.121c1.17,1.17,3.073,1.169,4.243,0Zm9.878-6.903V24H0V7.07L8.464,15.535c.975,.975,2.255,1.462,3.536,1.462s2.561-.487,3.536-1.462l5.698-5.694c.805-.629,1.853-1.538,2.766-2.623Z"/>
</svg>
