<?xml version="1.0" encoding="UTF-8"?>
<svg xmlns="http://www.w3.org/2000/svg" id="Layer_1" data-name="Layer 1" viewBox="0 0 24 24">
  <path d="M4.027,11C1.822,11,.027,9.206,.027,7v-3C.027,1.794,1.822,0,4.027,0s4,1.794,4,4v3c0,2.206-1.794,4-4,4Zm0-9c-1.103,0-2,.897-2,2v3c0,1.103,.897,2,2,2s2-.897,2-2v-3c0-1.103-.897-2-2-2Zm1,11h-1.509L.011,16.602l1.433,1.396,1.583-1.626v7.629h2V13ZM15,0h-1.509l-3.507,3.602,1.433,1.396,1.583-1.626v7.629h2V0Zm8.959,22.545l-2.792-2.792c.524-.791,.833-1.736,.833-2.753,0-2.757-2.243-5-5-5s-5,2.243-5,5,2.243,5,5,5c1.017,0,1.962-.309,2.753-.833l2.792,2.792,1.414-1.414Zm-11.864-.555c-.032,.002-.062,.01-.095,.01-1.103,0-2-.897-2-2v-3c0-1.452,.442-2.801,1.199-3.919-1.823,.372-3.199,1.988-3.199,3.919v3c0,2.206,1.794,4,4,4,.782,0,1.506-.234,2.123-.623-.757-.342-1.443-.811-2.028-1.386Z"/>
</svg>
