<?xml version="1.0" encoding="UTF-8"?>
<svg xmlns="http://www.w3.org/2000/svg" id="Layer_1" data-name="Layer 1" viewBox="0 0 24 24">
  <path d="M14.071,18.313c-.776,1.784-1.479,2.994-2.122,3.636-1.321,1.322-3.079,2.051-4.949,2.051s-3.628-.729-4.949-2.051c-1.322-1.321-2.051-3.079-2.051-4.949s.729-3.628,2.051-4.95c.642-.643,1.851-1.346,3.635-2.122l1.525,1.525c-2.489,1.02-3.411,1.675-3.746,2.01-.944,.945-1.465,2.2-1.465,3.536s.521,2.591,1.465,3.535,2.2,1.465,3.535,1.465,2.591-.521,3.535-1.465c.336-.336,.991-1.257,2.011-3.747l1.525,1.525Zm-5.35-5.35l2.258,2.258c-.435,1.382-1.092,3.181-1.731,3.821-.601,.599-1.388,.898-2.175,.898s-1.574-.3-2.173-.898h0c-1.197-1.199-1.197-3.149,0-4.347,.64-.64,2.439-1.298,3.821-1.733Zm.23,2.029c-1.321,.435-2.392,.879-2.637,1.118-.418,.418-.418,1.1,0,1.519,.418,.419,1.1,.418,1.518,0,.239-.244,.684-1.314,1.118-2.636Zm10.148-5.746c-.647,.647-2.477,1.311-3.864,1.746l-2.228-2.228c.435-1.387,1.099-3.217,1.746-3.864,1.162-1.161,3.187-1.161,4.347,0,1.198,1.198,1.198,3.148,0,4.346Zm-1.414-2.932c-.203-.203-.473-.314-.759-.314s-.557,.112-.76,.315c-.252,.258-.702,1.384-1.115,2.635,1.32-.435,2.389-.879,2.634-1.118,.418-.418,.418-1.099,0-1.518Zm4.264-4.264c-1.322-1.322-3.08-2.05-4.949-2.05s-3.627,.728-4.949,2.05c-.643,.643-1.346,1.853-2.122,3.636l1.525,1.525c1.02-2.488,1.676-3.411,2.011-3.747,.944-.944,2.2-1.464,3.535-1.464s2.591,.52,3.535,1.464,1.465,2.2,1.465,3.536-.521,2.591-1.465,3.536c-.336,.335-1.257,.99-3.746,2.01l1.525,1.525c1.784-.776,2.994-1.479,3.636-2.121,1.322-1.322,2.051-3.08,2.051-4.95s-.729-3.627-2.051-4.95Zm-5.242,13.243L8.707,7.293l-1.414,1.414,8,8,1.414-1.414Z"/>
</svg>
