<?xml version="1.0" encoding="UTF-8"?>
<svg xmlns="http://www.w3.org/2000/svg" id="Layer_1" data-name="Layer 1" viewBox="0 0 24 24">
  <path d="M9,10h-2V4h1v-1c0-1.103,.897-2,2-2h4c1.103,0,2,.897,2,2v1h1v6h-2v-2h-6v2ZM3,6c1.381,0,2.5-1.119,2.5-2.5S4.381,1,3,1,.5,2.119,.5,3.5s1.119,2.5,2.5,2.5Zm2.856,3.097c-.229-.519-.924-2.097-2.856-2.097-1.654,0-3,1.338-3,2.983v8.017H2v6h2v-6h2v-2h-2v-6l1.808,4h4.192v-2h-2.851l-1.293-2.903Zm18.144,.887c0-1.646-1.346-2.983-3-2.983-1.932,0-2.627,1.578-2.856,2.097l-1.293,2.903h-2.851v2h4.192l1.808-4v6h-2v2h2v6h2v-6h2V9.983Zm-3-3.983c1.381,0,2.5-1.119,2.5-2.5s-1.119-2.5-2.5-2.5-2.5,1.119-2.5,2.5,1.119,2.5,2.5,2.5Z"/>
</svg>
