<?xml version="1.0" encoding="UTF-8"?>
<svg xmlns="http://www.w3.org/2000/svg" id="Layer_1" data-name="Layer 1" viewBox="0 0 24 24">
  <path d="M4,18v3c0,1.654,1.346,3,3,3h10c1.654,0,3-1.346,3-3v-3H4Zm10,4h-4v-2h4v2ZM0,7.999v6.002H4.872s2.454,1.69,2.454,1.69c.692,.456,1.674-.039,1.672-.915l.002-6.774c0-1.1-.899-2-1.999-2.001l-5-.002h0c-1.104,0-2,.895-2,2ZM22,0h0l-5,.002c-1.1,0-2,.901-1.999,2.001l.002,6.774c-.002,.876,.98,1.371,1.672,.915l2.454-1.69h4.872V2C24,.895,23.104,0,22,0Zm-2,10.002v5.998H10.79c.129-.34,.208-.84,.208-1.224v-6.773c.002-1.066-.415-2.07-1.17-2.827-.757-.757-1.761-1.174-2.826-1.174h-3.001V0H13.558c-.345,.592-.558,1.271-.558,2.004l.002,6.772c0,1.703,1.386,3.088,3.089,3.088,.587,0,1.162-.169,1.717-.525l1.942-1.337h.25Z"/>
</svg>
