<?xml version="1.0" encoding="UTF-8"?>
<svg xmlns="http://www.w3.org/2000/svg" id="Layer_1" data-name="Layer 1" viewBox="0 0 24 24">
  <path d="M18.5,12c-.664,0-1.298,.124-1.888,.34l-1.003-1.697c1.156-1.008,1.89-2.488,1.89-4.143,0-3.038-2.462-5.5-5.5-5.5S6.5,3.462,6.5,6.5c0,1.655,.734,3.135,1.89,4.143l-1.003,1.697c-.59-.216-1.223-.34-1.888-.34-3.038,0-5.5,2.462-5.5,5.5s2.462,5.5,5.5,5.5c2.696,0,4.934-1.941,5.405-4.5h2.19c.471,2.559,2.709,4.5,5.405,4.5,3.038,0,5.5-2.462,5.5-5.5s-2.462-5.5-5.5-5.5Zm0,2c.828,0,1.5,.672,1.5,1.5s-.672,1.5-1.5,1.5-1.5-.672-1.5-1.5,.672-1.5,1.5-1.5ZM12,3c.828,0,1.5,.672,1.5,1.5s-.672,1.5-1.5,1.5-1.5-.672-1.5-1.5,.672-1.5,1.5-1.5Zm-1.5,4h3c.763,0,1.386,.572,1.481,1.309-.615,1.009-1.716,1.691-2.981,1.691s-2.366-.681-2.981-1.69c.094-.738,.717-1.31,1.481-1.31Zm-5,7c.828,0,1.5,.672,1.5,1.5s-.672,1.5-1.5,1.5-1.5-.672-1.5-1.5,.672-1.5,1.5-1.5Zm0,7c-1.265,0-2.366-.681-2.981-1.69,.094-.738,.717-1.31,1.481-1.31h3c.763,0,1.386,.572,1.481,1.309-.615,1.009-1.716,1.691-2.981,1.691Zm7.595-4.5h-2.19c-.229-1.246-.878-2.343-1.795-3.143l1.003-1.697c.589,.216,1.223,.339,1.887,.339s1.298-.124,1.887-.339l1.003,1.697c-.917,.8-1.565,1.897-1.795,3.143Zm5.405,4.5c-1.265,0-2.366-.681-2.981-1.69,.094-.738,.717-1.31,1.481-1.31h3c.763,0,1.386,.572,1.481,1.309-.615,1.009-1.716,1.691-2.981,1.691Z"/>
</svg>
