<?xml version="1.0" encoding="UTF-8"?>
<svg xmlns="http://www.w3.org/2000/svg" id="Layer_1" data-name="Layer 1" viewBox="0 0 24 24">
  <path d="M22,6c0,1.869-.807,3.77-1.971,5.547-2.438-.818-7.399-2.483-9.851-3.306-1.199-.402-2.342,.74-1.939,1.939,.741,2.208,2.561,7.626,3.281,9.772l-.521,.372-.581-.415c-.904-.646-3.247-2.396-5.488-4.714C1.659,11.812,0,8.719,0,6,0,2.691,2.691,0,6,0c1.491,0,3.01,.67,4.168,1.839,.314,.317,.589,.661,.826,1.022,1.12-1.666,3.026-2.86,5.005-2.86,3.309,0,6,2.691,6,6Zm-3.144,11.442l5.101,5.101-1.414,1.414-5.102-5.102-2.422,5.144-4.671-13.65,13.652,4.671-5.144,2.422Zm0,0l5.101,5.101-1.414,1.414-5.102-5.102"/>
</svg>
