<?xml version="1.0" encoding="UTF-8"?>
<svg xmlns="http://www.w3.org/2000/svg" id="Layer_1" data-name="Layer 1" viewBox="0 0 24 24">
  <path d="m21,2H3c-1.654,0-3,1.346-3,3v17h11.5v-2.033c-.742-.838-1.224-1.864-1.409-2.967h-5.091v-2h5.09s0,.004,0,.006c.124-.74.383-1.383.753-2.006-.01.017-5.842,0-5.842,0v-2h7.686c-.007.004-.012.01-.019.014.954-.64,2.1-1.014,3.333-1.014,3.309,0,6,2.691,6,6,0,1.48-.537,2.88-1.5,3.967v2.033h3.5V5c0-1.654-1.346-3-3-3Zm-2,7H5v-2h14v2Zm-5.5,15v-4.88c-.914-.734-1.5-1.859-1.5-3.12,0-2.206,1.794-4,4-4s4,1.794,4,4c0,1.261-.586,2.386-1.5,3.12v4.88l-2.5-2.5-2.5,2.5Z"/>
</svg>
