<?xml version="1.0" encoding="UTF-8"?>
<svg xmlns="http://www.w3.org/2000/svg" id="Layer_1" data-name="Layer 1" viewBox="0 0 24 24">
  <path d="M12.02,5.493c-.955,.112-1.85-1.097-1.999-2.699C9.871,1.191,10.554,.121,11.509,.009s1.82,.776,1.969,2.379c.149,1.603-.504,2.993-1.459,3.105Zm6.593-1.352c.611-.017,1.103-.86,1.099-1.883s-.502-1.634-1.112-1.617c-.611,.017-1.103,.655-1.099,1.678s.502,1.838,1.113,1.821Zm-3-.641c.611-.017,1.103-.86,1.099-1.883-.004-1.023-.502-1.634-1.112-1.617-.611,.017-1.103,.655-1.099,1.678,.004,1.023,.502,1.838,1.113,1.821Zm5.845,2c.526-.015,.949-.737,.946-1.614-.003-.877-.432-1.4-.958-1.386-.526,.015-.95,.562-.946,1.438s.432,1.576,.958,1.561Zm1.906-.5c-.349,.01-.63,.374-.628,.959s.287,1.05,.636,1.041,.63-.491,.628-1.076c-.002-.585-.287-.934-.636-.924Zm-12.364,6.5v3c0,1.381-1.119,2.5-2.5,2.5s-2.5-1.119-2.5-2.5v-3c0-1.381,1.119-2.5,2.5-2.5s2.5,1.119,2.5,2.5Zm-1.6,0c0-.496-.404-.9-.9-.9s-.9,.404-.9,.9v3c0,.496,.404,.9,.9,.9s.9-.404,.9-.9v-3Zm-6.9-.9c.496,0,.9,.404,.9,.9h1.6c0-1.381-1.119-2.5-2.5-2.5s-2.5,1.119-2.5,2.5v3c0,1.381,1.119,2.5,2.5,2.5s2.5-1.119,2.5-2.5h-1.6c0,.496-.404,.9-.9,.9s-.9-.404-.9-.9v-3c0-.496,.404-.9,.9-.9Zm13.5,8.067h-2c.575-.526,2-1.244,2-2.667,0-1.105-.895-2-2-2s-2,.895-2,2v.333h1.333v-.333c0-.368,.298-.667,.667-.667s.667,.298,.667,.667c0,1-2.667,1.84-2.667,3.346v.654h4v-1.333Zm2.5-12.667c-.371,0-.869-.221-1.35-.434-.629-.278-1.278-.566-1.988-.566-1.571,0-3.162,1.066-3.162,3.104,0,1.362,.857,2.367,1.614,3.254,.189,.221,.374,.439,.545,.659,2.134,.085,3.841,1.829,3.841,3.984v4c0,1.105-.895,2-2,2h-1.649c.626,1.308,2.028,2.176,3.614,1.97,1.77-.231,3.035-1.847,3.035-3.631v-1.942c0-1.606,.515-3.049,1.014-4.443,.484-1.358,.986-2.763,.986-4.271,0-3.682-3.153-3.682-4.5-3.682Z"/>
</svg>
