<?xml version="1.0" encoding="UTF-8"?>
<svg xmlns="http://www.w3.org/2000/svg" id="Layer_1" data-name="Layer 1" viewBox="0 0 24 24">
  <path d="M8,6h-3v-2h3v2ZM3,4H0v2H3v-2ZM24,15v6c0,1.657-1.343,3-3,3H13V12h8c1.657,0,3,1.343,3,3Zm-5.167,3c0-1.662,1.146-3.046,2.687-3.434-.595-.351-1.28-.566-2.021-.566-2.209,0-4,1.791-4,4s1.791,4,4,4c.741,0,1.426-.215,2.021-.566-1.541-.388-2.687-1.772-2.687-3.434Zm-.127-9.709l1.414,1.414,3.299-3.299c.774-.775,.774-2.037,0-2.812L20.12,.295l-1.414,1.414,2.302,2.291H10v2h10.997l-2.291,2.291ZM3,12H11v12H3c-1.657,0-3-1.343-3-3v-6c0-1.657,1.343-3,3-3Zm.563,3.727l-1.027-.593-1,1.732,1.019,.588c-.033,.177-.055,.359-.055,.545s.022,.368,.055,.545l-1.019,.588,1,1.732,1.027-.593c.275,.235,.589,.419,.937,.543v1.184h2v-1.184c.348-.124,.662-.308,.937-.543l1.027,.593,1-1.732-1.019-.588c.033-.177,.055-.359,.055-.545s-.022-.368-.055-.545l1.019-.588-1-1.732-1.027,.593c-.275-.235-.589-.419-.937-.543v-1.184h-2v1.184c-.348,.124-.662,.308-.937,.543Z"/>
</svg>
