<?xml version="1.0" encoding="UTF-8"?>
<svg xmlns="http://www.w3.org/2000/svg" id="Layer_1" data-name="Layer 1" viewBox="0 0 24 24">
  <path d="M22,14v-1c0-2.206-1.794-4-4-4s-4,1.794-4,4v1h-2v7c0,1.654,1.346,3,3,3h6c1.654,0,3-1.346,3-3v-7h-2Zm-3,6h-2v-2h2v2Zm1-6h-4v-1c0-1.103,.897-2,2-2s2,.897,2,2v1Zm1-12H3C1.343,2,0,3.343,0,5V15H10v-1c0-1.105,.895-2,2-2h.083c.478-2.834,2.949-5,5.917-5s5.439,2.166,5.917,5h.083V5c0-1.657-1.343-3-3-3ZM6.471,9.543l-1.414,1.414-1.043-1.043-1.043,1.043-1.414-1.414,1.043-1.043-1.043-1.043,1.414-1.414,1.043,1.043,1.043-1.043,1.414,1.414-1.043,1.043,1.043,1.043Zm4.486-1.043l1.043,1.043-1.414,1.414-1.043-1.043-1.043,1.043-1.414-1.414,1.043-1.043-1.043-1.043,1.414-1.415,1.043,1.043,1.043-1.043,1.415,1.414-1.043,1.043Z"/>
</svg>
