<?xml version="1.0" encoding="UTF-8"?>
<svg xmlns="http://www.w3.org/2000/svg" id="Layer_1" data-name="Layer 1" viewBox="0 0 24 24">
  <path d="M24,6c0,2.209-1.791,4-4,4-.519,0-1.012-.106-1.468-.287-.956,.802-2.187,1.287-3.532,1.287-1.108,0-2.137-.33-3-.894-.863,.563-1.892,.894-3,.894-1.345,0-2.576-.484-3.532-1.287-.455,.18-.948,.287-1.468,.287C1.791,10,0,8.209,0,6S1.791,2,4,2c.241,0,.475,.03,.704,.071C5.712,.81,7.26,0,9,0c1.108,0,2.137,.33,3,.894,.863-.563,1.892-.894,3-.894,1.74,0,3.288,.81,4.296,2.071,.229-.041,.463-.071,.704-.071,2.209,0,4,1.791,4,4Zm-9.889,12.847c2.661-.388,4.889-1.52,4.889-3.347,0-.942-.598-1.697-1.536-2.263-.223,.511-.402,1.244-.448,2.263h-.016c0,.295-1.009,1.01-2.944,1.334,.152-1.714,.615-2.98,1.072-3.841-.043,0-.085,.006-.128,.006-1.067,0-2.08-.227-3-.63-.92,.403-1.933,.63-3,.63-.043,0-.085-.006-.129-.007,.458,.861,.921,2.128,1.072,3.841-1.935-.324-2.944-1.04-2.944-1.334h-.016c-.046-1.019-.224-1.752-.448-2.263-.938,.566-1.536,1.321-1.536,2.263,0,1.827,2.228,2.959,4.889,3.347-.767,3.09-5.665,3.152-5.891,3.153l.002,2H20l.002-2c-.226,0-5.124-.063-5.891-3.153Z"/>
</svg>
