<?xml version="1.0" encoding="UTF-8"?>
<svg xmlns="http://www.w3.org/2000/svg" id="Layer_1" data-name="Layer 1" viewBox="0 0 24 24">
  <path d="M14,1c0,2.469-.753,4-4.5,4H3c-1.654,0-3,1.346-3,3v3c0,1.654,1.346,3,3,3h6.5c3.747,0,4.5,1.531,4.5,4h2V1h-2Zm7.636,14.207l-1.414-1.414c1.146-1.147,1.778-2.671,1.778-4.293s-.632-3.146-1.778-4.293l1.414-1.414c1.524,1.524,2.364,3.551,2.364,5.707s-.84,4.183-2.364,5.707Zm.021-.05l-1.414-1.414c2.339-2.339,2.339-6.146,0-8.485l1.414-1.414c3.119,3.119,3.119,8.194,0,11.313Zm-2.822-2.821l-1.414-1.414c.783-.784,.783-2.059,0-2.843l1.414-1.414c1.563,1.563,1.563,4.107,0,5.671Zm-9.565,6.682c.836,1.798-.646,4.045-2.634,3.982h-1.286l-3.141-7.08c.26,.042,.521,.08,.792,.08h5.012l1.258,3.018Z"/>
</svg>
