<?xml version="1.0" encoding="UTF-8"?>
<svg xmlns="http://www.w3.org/2000/svg" id="Layer_1" data-name="Layer 1" viewBox="0 0 24 24">
  <path d="M21,21.333v2.667h-5v-7.973c2.778,.144,5,2.458,5,5.306Zm-18,0v2.667h5v-7.973c-2.778,.144-5,2.458-5,5.306Zm9-3.333c-.831,0-1.525-.437-2-.85v6.85h4v-6.85c-.476,.413-1.169,.85-2,.85Zm6.327-9.217c.348-.994,.673-2.417,.673-4.283,0-3-3.5-4.5-7-4.5-1.259,0-2.515,.197-3.61,.585,4.059,4.734,8.386,7.349,9.937,8.197Zm-7.872-3.224c-1.264-1.141-2.581-2.478-3.876-4.027-.964,.729-1.579,1.716-1.579,2.968,0,1.866,.326,3.289,.674,4.283,.884-.482,2.667-1.537,4.781-3.224Zm1.542,1.328c-2.695,2.194-4.915,3.426-5.734,3.85,.745,2.466,3.029,4.263,5.738,4.263s4.993-1.797,5.738-4.263c-.822-.423-3.046-1.654-5.741-3.85Z"/>
</svg>
