<?xml version="1.0" encoding="UTF-8"?>
<svg xmlns="http://www.w3.org/2000/svg" id="Layer_1" data-name="Layer 1" viewBox="0 0 24 24">
  <path d="M18,2.5c0-1.381,1.119-2.5,2.5-2.5s2.5,1.119,2.5,2.5-1.119,2.5-2.5,2.5-2.5-1.119-2.5-2.5Zm.178,14.198l3.797,2.327-2.646,4.974h-2.241l2.272-4.235-4.088-2.51c-1.195-.896-1.58-2.379-1.016-3.658l2.594-4.971c-.064,.037-5.809,3.716-5.809,3.716l-1.081-1.683,5.615-3.61c1.068-.686,2.303-1.049,3.571-1.049h.354c.878,0,1.611,.344,2.064,.968,.479,.66,.572,1.544,.263,2.49l-.86,1.726,2.967,1.765-1.022,1.719-2.849-1.695-1.885,3.726Zm-9.678-7.698l-4.5,1c.63,1.259,1.307,2.516,2.066,3.276-2.746,1.113-6.066,5.42-6.066,7.754,0,.9,.255,1.61,.759,2.11,.889,.882,2.265,.873,3.72,.86,0,0,1.365,.002,1.524,.002,1.274,0,2.448-.079,3.238-.862,.503-.5,.759-1.21,.759-2.11,0-3.141-.139-6.451-1.516-7.602,.617-.879,.727-2.651,.016-4.428Zm2.449,15h2.236l2.287-4.348-1.726-1.02-2.797,5.367Z"/>
</svg>
