<?xml version="1.0" encoding="UTF-8"?>
<svg xmlns="http://www.w3.org/2000/svg" id="Layer_1" data-name="Layer 1" viewBox="0 0 24 24">
  <path d="m23.932,22.518l-1.414,1.414-6.191-6.191c-.714.583-1.496,1.059-2.327,1.422v-5.163c0-2.761-2.239-5-5-5h-3c-2.761,0-5,2.239-5,5v.344c-.648-1.339-1-2.813-1-4.344,0-2.671,1.04-5.183,2.929-7.071C4.818,1.04,7.329,0,10,0s5.182,1.04,7.071,2.929c1.889,1.889,2.929,4.4,2.929,7.071,0,2.335-.795,4.548-2.257,6.329l6.188,6.188Zm-14.932-11.518h-3c-1.654,0-3,1.346-3,3v4.05c-.162-.033-.329-.05-.5-.05-1.381,0-2.5,1.119-2.5,2.5s1.119,2.5,2.5,2.5,2.5-1.119,2.5-2.5v-6.5c0-.552.449-1,1-1h3c.551,0,1,.448,1,1v4.05c-.162-.033-.329-.05-.5-.05-1.381,0-2.5,1.119-2.5,2.5s1.119,2.5,2.5,2.5,2.5-1.119,2.5-2.5v-6.5c0-1.654-1.346-3-3-3Z"/>
</svg>
