<?xml version="1.0" encoding="UTF-8"?>
<svg xmlns="http://www.w3.org/2000/svg" id="Layer_1" data-name="Layer 1" viewBox="0 0 24 24">
  <path d="M14,2.5c0-1.381,1.119-2.5,2.5-2.5s2.5,1.119,2.5,2.5-1.119,2.5-2.5,2.5-2.5-1.119-2.5-2.5Zm4,7.064l-1.41,6,3.41,1.854v6.582h-2v-5.418l-4.482-2.546c-1.148-.652-1.74-2.006-1.439-3.292l1.025-4.383-3.028,1.672-.981,1.911-1.779-.914,1.26-2.453,4.667-2.577h3.258c.865,0,1.688,.374,2.258,1.024l2.344,3.702,2.903,1.414-.876,1.798-3.416-1.664-1.713-2.71Zm-5.978,7.568l-.463,1.996-2.272,4.872h2.199l1.923-4.086,.388-1.688-1.029-.585c-.259-.147-.508-.317-.747-.509Zm-1.841,.518l-2.015,4.077L0,17.812l2.015-4.077c.358-.747,1.254-1.062,2.001-.704l.55,.264,.022-.046c.352-.755,1.251-1.079,2.003-.721l1.582,.751c.744,.354,1.064,1.241,.716,1.988l-.038,.082,.628,.301c.747,.358,1.062,1.254,.704,2.001Z"/>
</svg>
