<?xml version="1.0" encoding="UTF-8"?>
<svg xmlns="http://www.w3.org/2000/svg" id="Layer_1" data-name="Layer 1" viewBox="0 0 24 24">
  <path d="M9.074,5.036l-1.452-1.376L10.444,.683c.765-.854,2.331-.873,3.131,.021l2.844,2.888-1.426,1.403-1.98-1.981-.014,5.988-2-.005,.014-6.008-1.94,2.047Zm12.926,8.964c0,5.514-4.486,10-10,10S2,19.514,2,14c0-3.692,2.016-6.915,5-8.647v2.412c-.964,.775-1.739,1.771-2.263,2.906l5.491,1.159c1.132,.226,2.297,.226,3.428,0l5.625-1.116c-.524-1.153-1.305-2.165-2.281-2.95v-2.412c2.984,1.732,5,4.955,5,8.647Zm-12,7.737v-2.317c0-.544-.136-1.08-.395-1.558l-.511-.943c-.463-.855-1.283-1.46-2.236-1.651l-2.823-.565c.298,3.406,2.739,6.199,5.964,7.034Zm9.964-7.034l-2.823,.565c-.954,.191-1.773,.796-2.236,1.651l-.511,.943c-.259,.479-.395,1.014-.395,1.558v2.317c3.225-.835,5.666-3.628,5.964-7.034Z"/>
</svg>
