<?xml version="1.0" encoding="UTF-8"?>
<svg xmlns="http://www.w3.org/2000/svg" id="Layer_1" data-name="Layer 1" viewBox="0 0 24 24">
  <path d="m22.535,1.464c-.945-.944-2.2-1.464-3.535-1.464s-2.59.52-3.535,1.464c-.944.944-1.465,2.2-1.465,3.536s.523,2.596,1.482,3.552l3.518,3.442,3.535-3.458c.944-.944,1.465-2.2,1.465-3.536s-.521-2.592-1.465-3.536Zm-3.535,5.036c-.828,0-1.5-.672-1.5-1.5s.672-1.5,1.5-1.5,1.5.672,1.5,1.5-.672,1.5-1.5,1.5Zm-1.387,6.348l6.265,6.266-3.171,3.171c-1.105,1.106-2.6,1.716-4.207,1.716C9.252,24,0,14.748,0,7.5c0-1.608.609-3.103,1.716-4.208L4.887.122l6.265,6.265-4.125,4.125c1.373,3.061,3.493,5.186,6.453,6.468l4.133-4.132Z"/>
</svg>
