<?xml version="1.0" encoding="UTF-8"?>
<svg xmlns="http://www.w3.org/2000/svg" id="Layer_1" data-name="Layer 1" viewBox="0 0 24 24">
  <path d="M11.757,8.723l-.005-1.473h.215c.413,0,.762,.336,.762,.735s-.349,.735-.762,.735l-.21,.003Zm-2.674,6.277H2V3H22V15h-7.068l-.846,1h-4.157l-.846-1Zm5.418-3h1.28v-3.041l1.44,3.041h1.28V6h-1.28v3.047l-1.44-3.041v-.006h-1.28v6Zm-4,0h1.25v-2.027l.217-.003c1.109,0,2.012-.891,2.012-1.985s-.902-1.985-2.012-1.985h-1.467v6Zm-1.529-1.181l.981-4.819h-1.261l-.94,4.55-.94-4.55h-1.31l1.036,4.852c.081,.421,.463,1.148,1.214,1.148s1.127-.696,1.221-1.181Zm6.889,6.181l-.846,1h-6.023l-.846-1H0v1c0,1.657,1.343,3,3,3H21c1.657,0,3-1.343,3-3v-1H15.86Z"/>
</svg>
