<?xml version="1.0" encoding="UTF-8"?>
<svg xmlns="http://www.w3.org/2000/svg" id="Layer_1" data-name="Layer 1" viewBox="0 0 24 24">
  <path d="M22.238,12c-.38-1.475-1.166-2.783-2.238-3.799V3s-2.694,.001-4.03,2.029c-.147,1.83-1.044,3.483-2.48,4.59l.026,4.381H5.5v-4.39c-.646-.496-1.169-1.105-1.576-1.782-.412,.34-.794,.715-1.132,1.13-.448-.099-.792-.48-.792-.958,0-.551,.449-1,1-1v-2c-1.654,0-3,1.346-3,3,0,1.194,.706,2.218,1.718,2.701-.457,1.007-.718,2.121-.718,3.299,0,2.959,1.611,5.537,4,6.921v3.079h5v-2h4v2h5v-3.387c1.297-.884,2.316-2.14,2.913-3.613h2.087v-5h-1.762Zm-4.738,2c-.828,0-1.5-.672-1.5-1.5s.672-1.5,1.5-1.5,1.5,.672,1.5,1.5-.672,1.5-1.5,1.5ZM5.085,3.619c.327-1.704,1.676-3.109,3.355-3.497,1.372-.318,2.777-.006,3.858,.854,1.081,.86,1.701,2.144,1.701,3.524,0,1.392-.641,2.66-1.706,3.5H6.71c-1.304-1.019-1.952-2.676-1.625-4.381Zm6.407,6.381l.008,2H7.5v-2h3.992Z"/>
</svg>
