<?xml version="1.0" encoding="UTF-8"?>
<svg xmlns="http://www.w3.org/2000/svg" id="Layer_1" data-name="Layer 1" viewBox="0 0 24 24">
  <path d="M3,2.5c0-1.381,1.119-2.5,2.5-2.5s2.5,1.119,2.5,2.5-1.119,2.5-2.5,2.5-2.5-1.119-2.5-2.5Zm1.024,6.548l-.027,4.563-1.996,6.389h2l1.892-6h3.387l.667,2h2.108l-1.333-4h-2.721v-4h4v-2H5.036c-.801,0-1.559,.388-2.026,1.036L-.042,11.26l1.621,1.172,2.444-3.384Zm12.976,14.952h7v-2h-7v2Zm0-4h7v-2h-7v2Zm0-4h7v-2h-7v2Zm-9,8h7.046v-2h-7.046v2Zm0-4h7.046v-2h-7.046v2ZM0,24H6.045v-2H0v2ZM22,2l-4,2.5,4,2.5v5h2V2h-2Z"/>
</svg>
