<?xml version="1.0" encoding="UTF-8"?>
<svg xmlns="http://www.w3.org/2000/svg" id="Layer_1" data-name="Layer 1" viewBox="0 0 24 24">
  <path d="M0,1.226S3.666-1.304,7.672,.905c1.533,.845,2.18,2.638,1.625,4.22,.171,.454,.305,.923,.403,1.388,.399-.424,.865-.81,1.399-1.136-.308-1.207,.205-2.516,1.344-3.153,3.161-1.768,6.557,.276,6.557,.276-.742,1.863-2.052,3.659-3.808,4.641-.957,.535-2.087,.441-2.939-.13-1.551,.879-2.253,2.492-2.253,2.989h-2c0-1.581-.162-2.73-.399-3.592-.255-1.139-1.194-2.117-1.194-2.117-1.669-2.01-3.907-2.291-3.907-2.291,2.179,2.49,3,3.5,3.471,5.484-.605,.008-1.218-.121-1.784-.433C1.961,5.824,1,3,0,1.226Zm23.152,7.455c-.515-.469-1.186-.712-1.878-.678-.697,.032-1.339,.334-1.794,.835l-3.541,3.737c.032,.21,.065,.42,.065,.638,0,2.083-1.555,3.876-3.617,4.17l-4.241,.606-.283-1.979,4.241-.606c1.084-.155,1.9-1.097,1.9-2.191,0-1.22-.993-2.213-2.213-2.213H3.003C1.349,11,.003,12.346,.003,14v7c0,1.654,1.346,3,3,3H12.667l10.674-11.655c.948-1.062,.862-2.707-.189-3.665Z"/>
</svg>
