<?xml version="1.0" encoding="UTF-8"?>
<svg xmlns="http://www.w3.org/2000/svg" id="Layer_1" data-name="Layer 1" viewBox="0 0 24 24">
  <path d="m18.75,19.25l1.414,1.414-2.75,2.75c-.39.39-.902.585-1.414.585s-1.024-.195-1.414-.585l-2.75-2.75,1.414-1.414,1.75,1.75v-10h2v10l1.75-1.75Zm-5.586-4.914l-2.75-2.75c-.779-.78-2.049-.78-2.828,0l-2.75,2.75,1.414,1.414,1.75-1.75v10h2v-10l1.75,1.75,1.414-1.414Zm5.184-9.106c-1.311-3.151-4.395-5.23-7.848-5.23C5.813,0,2,3.813,2,8.5c0,.551.053,1.098.157,1.633-1.347,1.033-2.157,2.645-2.157,4.367,0,3.032,2.243,5.5,5,5.5h1v-1.672l-3.992-3.992,4.164-4.164c1.508-1.51,4.147-1.511,5.657,0l1.171,1.171v-2.344h6v7.672l1.903,1.903c1.648-1.192,2.752-3.018,3.026-5.075h.071v-1c0-3.467-2.344-6.437-5.652-7.27Z"/>
</svg>
