<?xml version="1.0" encoding="UTF-8"?>
<svg xmlns="http://www.w3.org/2000/svg" id="Layer_1" data-name="Layer 1" viewBox="0 0 24 24">
  <path d="M12,0C5.383,0,0,5.383,0,12s5.383,12,12,12,12-5.383,12-12S18.617,0,12,0ZM2,12c0-2.398,.85-4.6,2.262-6.324l2.055,2.055,1.414-1.414-2.055-2.055c1.725-1.412,3.927-2.262,6.324-2.262,5.514,0,10,4.486,10,10,0,2.398-.85,4.6-2.262,6.324l-1.793-1.793-1.414,1.414,1.793,1.793c-1.725,1.412-3.927,2.262-6.324,2.262-5.514,0-10-4.486-10-10Zm7.257-3.999h0c-.757,0-1.281,.586-1.385,1.166l-1.372,6.833h1.469l.275-1.474h2.006l.262,1.474h1.488l-1.397-6.807c-.12-.668-.589-1.192-1.346-1.192Zm-.645,4.999l.624-3.295,.638,3.295h-1.262Zm8.988,.7v-3.4c0-1.269-1.031-2.3-2.3-2.3h-2.3v8h2.3c1.269,0,2.3-1.031,2.3-2.3Zm-1.6,0c0,.386-.314,.7-.7,.7h-.7v-4.802h.7c.386,0,.7,.314,.7,.7v3.402Z"/>
</svg>
