<?xml version="1.0" encoding="UTF-8"?>
<svg xmlns="http://www.w3.org/2000/svg" id="Layer_1" data-name="Layer 1" viewBox="0 0 24 24">
  <path d="m21.245,5.186c-.565,0-1.124.311-1.593.675.251-.626.6-1.241,1.061-1.866.748.022,1.944-.054,2.586-.696.974-.974.649-3.247.649-3.247,0,0-2.273-.325-3.247.649-.629.629-.715,1.792-.698,2.543-.392.378-.742.763-1.046,1.152-.067-.617-.239-1.275-.659-1.695-.974-.974-3.247-.649-3.247-.649,0,0-.325,2.273.649,3.247.55.55,1.504.681,2.239.695-.585,1.168-.852,2.336-.92,3.427l-2.113-.826c-.194-1.035-.744-1.839-1.586-2.261-1.554-.779-3.452-.148-4.224,1.392l-.662,1.513c-3.26-.792-5.435-3.24-5.435-3.24,0,0-.193.837-.059,2.231,0,0,1.46,1.545,3.175,2.27,0,0,.685.264,1.548.505l-.641,1.466C2.41,11.779,0,6.979,0,6.979v1.521c0,4.993,1.336,8.371,3.242,10.5H0v.831c0,2.228,1.168,3.125,1.866,3.662l.537.412,3.36-2.932c1.332.704,2.755,1.027,4.112,1.027,1.369,0,2.656-.533,3.623-1.501.968-.968,1.5-2.255,1.499-3.625l-.005-5.558,2.035-.763c.129,2.436,1.038,4.31,1.08,4.394l1.895-.945c-.009-.018-1-1.786-1-4.003,0-.817.044-1.555.148-2.254.53.514,1.309,1.113,2.097,1.113,1.378,0,2.755-1.837,2.755-1.837,0,0-1.377-1.837-2.755-1.837Z"/>
</svg>
