<?xml version="1.0" encoding="UTF-8"?>
<svg xmlns="http://www.w3.org/2000/svg" id="Layer_1" data-name="Layer 1" viewBox="0 0 24 24">
  <path d="m24,2.449v2.551c0,1.105-.895,2-2,2h-3c-1.105,0-2-.895-2-2v-3c0-1.105.895-2,2-2h3c.455,0,.869.158,1.205.414l-2.647,2.714-1.11-1.195-1.387,1.441,1.651,1.766c.455.478,1.216.481,1.674.007l2.613-2.698Zm-4.287,11.191l-1.651-1.766,1.387-1.441,1.11,1.195,2.647-2.714c-.336-.256-.751-.414-1.205-.414h-3c-1.105,0-2,.895-2,2v3c0,1.105.895,2,2,2h3c1.105,0,2-.895,2-2v-2.551l-2.613,2.698c-.459.474-1.22.471-1.674-.007Zm0,8.5l-1.651-1.766,1.387-1.441,1.11,1.195,2.647-2.714c-.336-.256-.751-.414-1.205-.414h-3c-1.105,0-2,.895-2,2v3c0,1.105.895,2,2,2h3c1.105,0,2-.895,2-2v-2.551l-2.613,2.698c-.459.474-1.22.471-1.674-.007ZM4.5,5c1.381,0,2.5-1.119,2.5-2.5S5.881,0,4.5,0s-2.5,1.119-2.5,2.5,1.119,2.5,2.5,2.5Zm4.5,4v8h-2v7h-2v-7h-1v7h-2v-7H0v-8c0-1.654,1.346-3,3-3h3c1.654,0,3,1.346,3,3Zm2-4.5v15c0,1.379,1.122,2.5,2.5,2.5h1.5v-2h-1.5c-.276,0-.5-.225-.5-.5v-6.5h2v-2h-2v-6.5c0-.275.224-.5.5-.5h1.5v-2h-1.5c-1.378,0-2.5,1.121-2.5,2.5Z"/>
</svg>
