<?xml version="1.0" encoding="UTF-8"?>
<svg xmlns="http://www.w3.org/2000/svg" id="Layer_1" data-name="Layer 1" viewBox="0 0 24 24">
  <path d="M21.609,19.418c-.578-.578-1.586-.578-2.164,0l-1.289,1.289c-.187,.187-.444,.293-.707,.293h-2.449v-4h1v1.006c0,.422,.179,.826,.491,1.11,.312,.283,.737,.427,1.155,.383,.771-.075,1.354-.727,1.354-1.515v-1.484c0-1.379-1.121-2.5-2.5-2.5h-3.5V7.5c0-.829-.671-1.5-1.5-1.5s-1.5,.671-1.5,1.5v6.551c-1.14,.232-2,1.242-2,2.449v7.5h9.534c1.054,0,2.085-.427,2.829-1.172l1.246-1.246c.597-.597,.597-1.567,0-2.164ZM6.136,15.411C2.342,13.277,.254,9.718,.132,9.504l-.132-.23v-.529l.129-.27C2.286,4.663,5.143,1.722,7.017,.498c1.215-.794,2.844-.624,3.875,.407l1.107,1.108,1.107-1.107c1.031-1.029,2.66-1.201,3.875-.408,1.788,1.167,4.667,3.968,6.894,8.017l.124,.225v.523l-.132,.252c-.095,.166-1.39,2.364-3.75,4.335-.82-1.116-2.131-1.85-3.618-1.85h-1.5v-1.255c3.489-.536,6.549-1.748,6.549-1.748-.004-.002-3.077-1.219-6.575-1.752-.134-1.808-1.632-3.244-3.474-3.244-1.902,0-3.447,1.527-3.492,3.419-3.056,.587-5.557,1.578-5.557,1.578,0,0,2.496,.989,5.549,1.576v2.189c-.92,.618-1.59,1.564-1.864,2.65Z"/>
</svg>
