<?xml version="1.0" encoding="UTF-8"?>
<svg xmlns="http://www.w3.org/2000/svg" id="Layer_1" data-name="Layer 1" viewBox="0 0 24 24">
  <path d="M15.449,4.523l-1.414-1.414,2.514-2.514c.791-.792,2.08-.792,2.871,0l2.529,2.529-1.414,1.414-1.535-1.535v4.997h-2V2.998l-1.551,1.525Zm-9.449,3.477c3.314,0,6-1.343,6-3s-2.686-3-6-3S0,3.343,0,5s2.686,3,6,3Zm0,8c3.421,0,6-1.505,6-3.5v-2c0,1.971-2.5,3.5-6,3.5S0,12.471,0,10.5v2c0,1.995,2.579,3.5,6,3.5Zm0-4c3.421,0,6-1.505,6-3.5v-2c0,1.971-2.5,3.5-6,3.5S0,8.471,0,6.5v2c0,1.995,2.579,3.5,6,3.5Zm12,4c3.314,0,6-1.343,6-3s-2.686-3-6-3-6,1.343-6,3,2.686,3,6,3Zm0,6c-3.5,0-6-1.529-6-3.5,0,1.971-2.5,3.5-6,3.5s-6-1.529-6-3.5v2c0,1.995,2.579,3.5,6,3.5s6-1.505,6-3.5c0,1.995,2.579,3.5,6,3.5s6-1.505,6-3.5v-2c0,1.971-2.5,3.5-6,3.5Zm0-4c-3.5,0-6-1.529-6-3.5,0,1.971-2.5,3.5-6,3.5S0,16.471,0,14.5v2c0,1.995,2.579,3.5,6,3.5s6-1.505,6-3.5c0,1.995,2.579,3.5,6,3.5s6-1.505,6-3.5v-2c0,1.971-2.5,3.5-6,3.5Z"/>
</svg>
