<?xml version="1.0" encoding="UTF-8"?>
<svg xmlns="http://www.w3.org/2000/svg" id="Layer_1" data-name="Layer 1" viewBox="0 0 24 24">
  <path d="M20.06,11.099h0c-.537-1.078-3.48-5.099-8.059-5.099S4.478,10.021,3.941,11.098c-.287,.574-.287,1.232,0,1.805,.538,1.077,3.482,5.097,8.059,5.097s7.522-4.021,8.06-5.099c.285-.572,.285-1.229,0-1.802Zm-8.059,3.401c-1.381,0-2.5-1.119-2.5-2.5s1.119-2.5,2.5-2.5,2.5,1.119,2.5,2.5-1.119,2.5-2.5,2.5Zm-5,9.5H3c-1.654,0-3-1.346-3-3v-4H2v4c0,.551,.449,1,1,1H7v2Zm14,0h-4v-2h4c.551,0,1-.449,1-1v-4h2v4c0,1.654-1.346,3-3,3Zm3-17h-2V3c0-.551-.449-1-1-1h-4V0h4c1.654,0,3,1.346,3,3V7ZM2,7H0V3C0,1.346,1.346,0,3,0H7V2H3c-.551,0-1,.449-1,1V7Z"/>
</svg>
