<?xml version="1.0" encoding="UTF-8"?>
<svg xmlns="http://www.w3.org/2000/svg" id="Layer_1" data-name="Layer 1" viewBox="0 0 24 24">
  <path d="m12.207,6.985c0,.398-.349.735-.762.735l-.71.003-.005-1.473h.715c.413,0,.762.336.762.735Zm-6.24-.735h-.715l.005,1.473.71-.003c.413,0,.762-.336.762-.735s-.349-.735-.762-.735Zm13.033,17.164l4.414-4.414h-4.414v4.414ZM24,3v14h-7v7H0V3C0,1.346,1.346,0,3,0h18c1.654,0,3,1.346,3,3ZM7.979,6.985c0-1.094-.902-1.985-2.012-1.985h-1.967v6.069h1.25v-2.096l.717-.003c1.109,0,2.012-.891,2.012-1.985Zm5.479,0c0-1.094-.902-1.985-2.012-1.985h-1.967v6.069h1.25v-2.096l.717-.003c1.109,0,2.012-.891,2.012-1.985Zm5.158-1.985h-4v1.25h1.375v4.819h1.25v-4.819h1.375v-1.25Z"/>
</svg>
