<?xml version="1.0" encoding="UTF-8"?>
<svg xmlns="http://www.w3.org/2000/svg" id="Layer_1" data-name="Layer 1" viewBox="0 0 24 24">
  <path d="m4.5,2.5c0-1.381,1.119-2.5,2.5-2.5s2.5,1.119,2.5,2.5-1.119,2.5-2.5,2.5-2.5-1.119-2.5-2.5Zm18.778,7.54l-3.732,1.089c.089-.159.187-.319.247-.474.35-.894.191-1.574-.003-1.987-.42-.892-1.607-1.898-4.917-1.617-1.104.142-1.942.343-2.666.546.239.493.689,1.25,1.491,2.071l.584.576-1.523,1.244s-.325-.273-.812-.767c-.861-.961-1.402-2.029-1.671-2.62,2.527-1.729,4.725-5.878,4.725-8.098h-2c0,1.357-1.464,4.397-3.278,6h-5.496C2.5,3.5,2,1.718,2,0H0c0,3.769,2.83,7.494,3.045,7.813,2.147,3.187,5.124,5.553,5.124,5.553-.21.01-.41.015-.586.015-1.391,0-2.727-.544-2.727-.544,0,0-.324-.213-1.313-1.269-2.113,1.673-2.99,3.37-2.334,4.762.552,1.171,2.005,1.664,3.869,1.664,1.183,0,2.533-.204,3.92-.554v6.561h2v-7.16c.424-.147.847-.301,1.264-.47,1.631-.662,3.087-1.453,4.298-2.288l7.275-2.122-.56-1.92Z"/>
</svg>
