<?xml version="1.0" encoding="UTF-8"?>
<svg xmlns="http://www.w3.org/2000/svg" id="Layer_1" data-name="Layer 1" viewBox="0 0 24 24">
  <path d="M8.032,7.777l.583,2.624h-1.407l.646-2.678c.019-.068,.05-.122,.097-.122,.014,.01,.057,.063,.082,.176ZM22,2V18H4c-.738-.001-1.451,.271-2,.765V3C2,1.343,3.343,0,5,0h3s0,0,0,0h12c1.105,0,2,.895,2,2ZM10.858,12.994l-1.266-5.572c-.311-1.853-2.97-1.844-3.303-.04l-1.29,5.612h1.583l.24-.994h2.148l.221,.994h1.667Zm2.642-4.594h-2v1.6h2v-1.6Zm5.5-2.4h-4.55v1.6h2.562l-2.562,3.686v1.715h4.55v-1.6h-2.562l2.562-3.686v-1.715ZM2,22c0,1.105,.895,2,2,2H22v-4H4c-1.105,0-2,.895-2,2Z"/>
</svg>
