<?xml version="1.0" encoding="UTF-8"?>
<svg xmlns="http://www.w3.org/2000/svg" id="Layer_1" data-name="Layer 1" viewBox="0 0 24 24">
  <path d="M2.251,5.029C4.248,2.246,7.397,.35,11,.051V4.069c-2.146,.269-4.027,1.39-5.298,3.015l-3.45-2.055Zm10.749-.96c2.146,.269,4.027,1.39,5.298,3.015l3.45-2.055C19.752,2.246,16.603,.35,13,.051V4.069Zm5,7.931c0-3.309-2.691-6-6-6s-6,2.691-6,6,2.691,6,6,6,6-2.691,6-6Zm4.773,5.253c.778-1.589,1.227-3.368,1.227-5.253s-.449-3.664-1.228-5.253l-3.445,2.053c.43,.981,.673,2.063,.673,3.201s-.243,2.219-.673,3.201l3.446,2.053Zm-4.475-.337c-1.271,1.625-3.152,2.745-5.298,3.015v4.019c3.603-.299,6.752-2.195,8.748-4.978l-3.45-2.056Zm-13.625-1.715c-.43-.981-.673-2.062-.673-3.201s.243-2.22,.673-3.201L1.228,6.747c-.778,1.589-1.228,3.368-1.228,5.253s.449,3.664,1.227,5.253l3.446-2.053Zm6.327,4.73c-2.146-.269-4.027-1.39-5.298-3.015l-3.45,2.056c1.996,2.783,5.146,4.679,8.748,4.978v-4.019Z"/>
</svg>
