<?xml version="1.0" encoding="UTF-8"?>
<svg xmlns="http://www.w3.org/2000/svg" id="Layer_1" data-name="Layer 1" viewBox="0 0 24 24">
  <path d="m24,2v12c0,1.654-1.346,3-3,3h-4v-2.914l5-5v-4.251l-6,5.653v1.512c0,1.105-.895,2-2,2H2.002C.898,14,.003,13.107.002,12.003l-.002-2.003h13.602L22.106,2h1.894Zm-13.34.766c-.482-1.079-1.557-1.766-2.739-1.766h-2.921v7h8l-2.34-5.234Zm5.34,17.234c0,2.205-1.795,4-4,4H4c-2.205,0-4-1.795-4-4s1.795-4,4-4h8c2.205,0,4,1.794,4,4Zm-10,0c0-.828-.672-1.5-1.5-1.5s-1.5.672-1.5,1.5.672,1.5,1.5,1.5,1.5-.672,1.5-1.5Zm7,0c0-.828-.672-1.5-1.5-1.5s-1.5.672-1.5,1.5.672,1.5,1.5,1.5,1.5-.672,1.5-1.5Z"/>
</svg>
