<?xml version="1.0" encoding="UTF-8"?>
<svg xmlns="http://www.w3.org/2000/svg" id="Layer_1" data-name="Layer 1" viewBox="0 0 24 24">
  <path d="M1.993,17.421l-1.414-1.414c1.973-1.973,1.973-5.184,0-7.157l1.414-1.414c2.753,2.753,2.753,7.232,0,9.985ZM4.778,4.651l-1.414,1.414c3.509,3.509,3.509,9.219,0,12.728l1.414,1.414c4.289-4.289,4.289-11.267,0-15.556ZM20.829,2.422C18.815,.623,16.112-.238,13.403,.069c-2.669,.3-5.043,1.767-6.581,3.866,1.067,1.233,1.862,2.617,2.388,4.081,.653-2.309,2.774-4.008,5.289-4.008,3.032,0,5.5,2.467,5.5,5.5h-2c0-1.93-1.57-3.5-3.5-3.5-1.758,0-3.217,1.303-3.463,2.993h.963c1.654,0,3,1.346,3,3s-1.346,3-3,3v-2c.551,0,1-.449,1-1s-.449-1-1-1v.007h-2.091c.38,3.484-.646,7.086-3.068,9.897,.369,.739,.882,1.4,1.597,1.933,1.038,.773,2.304,1.163,3.569,1.163,1.159,0,2.318-.327,3.302-.986,.891-.595,1.604-1.405,2.062-2.34,.796-1.626,1.633-2.714,2.631-3.425,2.504-1.78,3.999-4.674,3.999-7.742,0-2.701-1.156-5.284-3.171-7.085Z"/>
</svg>
