<?xml version="1.0" encoding="UTF-8"?>
<svg xmlns="http://www.w3.org/2000/svg" id="Layer_1" data-name="Layer 1" viewBox="0 0 24 24">
  <path d="M24,10.088v2h-3v-2h3Zm-21,0H0v2H3v-2ZM23.75,6l-.823-1.823-2.942,1.328,.823,1.823,2.942-1.328Zm-3.766,10.672l2.942,1.328,.823-1.823-2.942-1.328-.823,1.823ZM.25,6l2.942,1.328,.823-1.823-2.942-1.328-.823,1.823ZM.25,16.177l.823,1.823,2.942-1.328-.823-1.823-2.942,1.328Zm18.75-1.065c0,.66-.388,1.258-.991,1.527l-1.009,.446v2.915h-2v4h-6v-3.375l-1.647,.729c-1.106,.493-2.353-.316-2.353-1.527,0-.66,.388-1.258,.991-1.527l10.656-4.715c1.106-.493,2.354,.316,2.354,1.527Zm-2.354-7.009L5.991,12.817c-.603,.269-.991,.867-.991,1.527,0,1.211,1.247,2.021,2.353,1.527l10.656-4.715c.603-.269,.991-.867,.991-1.527,0-1.211-1.247-2.021-2.354-1.527Zm0-5.375L5.991,7.442c-.603,.269-.991,.867-.991,1.527,0,1.211,1.247,2.021,2.353,1.527l10.656-4.715c.603-.269,.991-.867,.991-1.527,0-1.211-1.247-2.021-2.354-1.527ZM7.353,5.014l4.177-1.813c.603-.269,.991-.867,.991-1.527,0-1.211-1.247-2.021-2.353-1.527L5.991,1.96c-.603,.269-.991,.867-.991,1.527,0,1.211,1.247,2.021,2.353,1.527Z"/>
</svg>
