<?xml version="1.0" encoding="UTF-8"?>
<svg xmlns="http://www.w3.org/2000/svg" id="Layer_1" data-name="Layer 1" viewBox="0 0 24 24">
  <path d="M11.942,20c.034,.162,.058,.328,.058,.5,0,1.381-1.119,2.5-2.5,2.5s-2.5-1.119-2.5-2.5c0-.172,.024-.338,.058-.5h4.885ZM24,1V3H13v3h2v6H0v-3c0-1.657,1.343-3,3-3V3H0V1H24ZM7,3h-2v3h2V3Zm4,0h-2v3h2V3ZM.058,20c-.034,.162-.058,.328-.058,.5,0,1.381,1.119,2.5,2.5,2.5s2.5-1.119,2.5-2.5c0-.172-.024-.338-.058-.5H.058Zm-.058-2H15v-4H0v4ZM18.5,4c-.828,0-1.5,.672-1.5,1.5v6.5h6.721l-1.316-3.949c-.362-1.085-1.299-1.853-2.404-2.016v-.535c0-.828-.672-1.5-1.5-1.5Zm-1.5,14h7v-4h-7v4Zm.058,2c-.034,.162-.058,.328-.058,.5,0,1.381,1.119,2.5,2.5,2.5s2.5-1.119,2.5-2.5c0-.172-.024-.338-.058-.5h-4.885Z"/>
</svg>
