<?xml version="1.0" encoding="UTF-8"?>
<svg xmlns="http://www.w3.org/2000/svg" id="Layer_1" data-name="Layer 1" viewBox="0 0 24 24">
  <path d="M7.174,5.783l.583,2.624h-1.407l.646-2.678c.019-.068,.05-.122,.097-.122,.014,.01,.057,.063,.082,.176Zm15.826-2.783V15H14.851l-2.851,2.28-2.851-2.28H1V3C1,1.346,2.346,0,4,0H20c1.654,0,3,1.346,3,3ZM10,11l-1.266-5.572c-.311-1.853-2.97-1.844-3.303-.04l-1.29,5.612h1.583l.24-.994h2.148l.221,.994h1.667Zm3-4.6h-2v1.6h2v-1.6Zm6.05-2.4h-4.55v1.6h2.562l-2.562,3.686v1.715h4.55v-1.6h-2.562l2.562-3.686v-1.715Zm-2.161,15c-2.778,0-4.242,1.334-4.944,2.748-.702-1.414-2.166-2.748-4.944-2.748H0v5H24v-5h-7.111Z"/>
</svg>
