<?xml version="1.0" encoding="UTF-8"?>
<svg xmlns="http://www.w3.org/2000/svg" id="Layer_1" data-name="Layer 1" viewBox="0 0 24 24">
  <path d="M12.5,24c-1.93,0-3.5-1.57-3.5-3.5,0-1.261,.339-2.923,.639-4.389,.178-.87,.361-1.771,.361-2.111,0-1.02-.673-1.808-1.386-2.643-.757-.887-1.614-1.892-1.614-3.254,0-2.037,1.591-3.104,3.162-3.104,.71,0,1.359,.288,1.988,.566,.481,.213,.979,.434,1.35,.434,1.347,0,4.5,0,4.5,3.682,0,1.509-.501,2.913-.987,4.271-.498,1.395-1.013,2.837-1.013,4.443v2.104c0,1.93-1.57,3.5-3.5,3.5ZM5.021,2.793c.149,1.603,1.044,2.811,1.999,2.699,.955-.112,1.608-1.502,1.459-3.105C8.33,.785,7.464-.102,6.509,.009c-.955,.112-1.638,1.181-1.489,2.784ZM13.599,.641c-.611,.017-1.103,.655-1.099,1.678,.004,1.023,.502,1.838,1.113,1.821,.611-.017,1.103-.86,1.099-1.883-.004-1.023-.502-1.634-1.112-1.617ZM10.599,0c-.611,.017-1.103,.655-1.099,1.678,.004,1.023,.502,1.838,1.113,1.821,.611-.017,1.103-.86,1.099-1.883C11.708,.594,11.21-.017,10.599,0Zm5.847,2.5c-.526,.015-.95,.562-.946,1.438,.003,.877,.432,1.576,.958,1.561,.526-.015,.949-.737,.946-1.614-.004-.877-.432-1.4-.958-1.386Zm2.182,2.5c-.349,.01-.631,.374-.628,.959,.002,.584,.287,1.05,.636,1.041,.349-.01,.63-.491,.628-1.076-.002-.584-.287-.934-.636-.924Z"/>
</svg>
