<?xml version="1.0" encoding="UTF-8"?>
<svg xmlns="http://www.w3.org/2000/svg" id="Layer_1" data-name="Layer 1" viewBox="0 0 24 24">
  <path d="M7.674,14.783l.583,2.624h-1.407l.646-2.678c.013-.061,.048-.104,.076-.119,.005-.003,.006-.003,.007-.003h.014c.014,.011,.057,.064,.082,.177Zm1.344-9.504c-.404,0-.733,.329-.733,.733v2.871c0,.404,.329,.733,.733,.733s.733-.329,.733-.733v-2.871c0-.404-.329-.733-.733-.733Zm14.982-2.278V24H0V3C0,1.346,1.346,0,3,0H21c1.654,0,3,1.346,3,3ZM10.5,20l-1.266-5.572c-.311-1.853-2.97-1.844-3.303-.04l-1.29,5.612h1.583l.24-.994h2.148l.221,.994h1.667Zm.851-13.988c0-1.289-1.045-2.333-2.333-2.333s-2.333,1.045-2.333,2.333v2.871c0,1.289,1.045,2.333,2.333,2.333s2.333-1.045,2.333-2.333v-2.871Zm1.748,6.988h-1.6v7h1.6v-7Zm1.127-5.547l1.68,3.547h1.493V4h-1.493v3.555l-1.68-3.547v-.008h-1.493v7h1.493v-3.547Zm4.898,12.547l-1.064-2.927c.567-.409,.94-1.07,.94-1.823,0-1.243-1.007-2.25-2.25-2.25h-2.25v7h1.6v-2.5h.413l.909,2.5h1.703Zm-2.374-5.4h-.65v1.3h.65c.358,0,.65-.292,.65-.65s-.292-.65-.65-.65Z"/>
</svg>
