<?xml version="1.0" encoding="UTF-8"?>
<svg xmlns="http://www.w3.org/2000/svg" id="Layer_1" data-name="Layer 1" viewBox="0 0 24 24">
  <path d="M16.679,7.938c-1.25-1.249-2.911-1.938-4.679-1.938s-3.429,.688-4.679,1.938l-1.414-1.414c1.627-1.627,3.791-2.523,6.093-2.523s4.466,.896,6.093,2.523l-1.414,1.414Zm-7.801,1.355l1.416,1.414c.91-.912,2.502-.912,3.412,0l1.416-1.414c-.833-.834-1.941-1.293-3.122-1.293s-2.289,.459-3.122,1.293Zm3.122-7.293c2.768,0,5.369,1.077,7.325,3.034l1.414-1.414C18.406,1.286,15.303,0,12,0S5.594,1.286,3.261,3.62l1.414,1.414c1.956-1.957,4.558-3.034,7.325-3.034Zm12,14v6h-2v2h-2v-2H4v2H2v-2H0v-6c0-1.654,1.346-3,3-3H21c1.654,0,3,1.346,3,3Zm-18,1.5c0-.828-.672-1.5-1.5-1.5s-1.5,.672-1.5,1.5,.672,1.5,1.5,1.5,1.5-.672,1.5-1.5Zm4,0c0-.828-.672-1.5-1.5-1.5s-1.5,.672-1.5,1.5,.672,1.5,1.5,1.5,1.5-.672,1.5-1.5Z"/>
</svg>
