<?xml version="1.0" encoding="UTF-8"?>
<svg xmlns="http://www.w3.org/2000/svg" id="Layer_1" data-name="Layer 1" viewBox="0 0 24 24">
  <path d="m19.296,8.899l-1.584,2.919s-1.707.712-4.201-.682c-2.494-1.394-2.782-3.221-2.782-3.221l1.616-2.975,1.12,1.941c.763,1.321,2.175,2.119,3.724,2.119.076,0,2.109-.101,2.109-.101Zm4.704-2.291l-3.196-5.49C20.385.392,19.562-.041,18.684.003l-6.684.339,3.196,5.539c.42.727,1.242,1.16,2.12,1.116l4.684-.238v5.241h2v-5.392Zm-11,11.392v2.5c0,1.334,1.157,1.486,1.521,1.5h1.479v2H5v-2h1.481c.35-.013,1.519-.16,1.519-1.5v-2.5C2.482,18,0,14.465,0,11.955c0-1.553,1.163-2.777,2.694-2.925-.292-.655-.521-1.292-.641-1.874-.157-.766.039-1.556.538-2.168.512-.627,1.27-.987,2.078-.987h5.909l-1.931,3.557.105.67c.045.285.533,2.84,3.782,4.655.956.534,1.839.829,2.619.98-.417.488-.836.948-1.243,1.331-.236.222-.418.496-.566.794,2.704-.087,4.252-1.173,5.023-2.282.04-.015,2.531-.86,2.531-.86-.507,2.379-3.008,5.155-7.899,5.155Zm-5.345-2.013c-.148-.297-.331-.571-.566-.793-1.127-1.062-2.359-2.601-3.339-4.194h-.75c-.589,0-1,.393-1,.955,0,1.285,1.399,3.895,5.655,4.032Z"/>
</svg>
