<?xml version="1.0" encoding="UTF-8"?>
<svg xmlns="http://www.w3.org/2000/svg" id="Layer_1" data-name="Layer 1" viewBox="0 0 24 24">
  <path d="m8.5,16c3.58,0,6.624-.839,8.5-2.173v1.74c0,1.621-3.635,3.434-8.5,3.434S0,17.188,0,15.566v-1.74c1.876,1.334,4.92,2.174,8.5,2.174ZM0,18.826v.96c0,2.767,4.276,4.214,8.5,4.214s8.5-1.447,8.5-4.214v-.96c-1.876,1.334-4.92,2.174-8.5,2.174s-6.624-.839-8.5-2.174ZM22,0v1.534c-1.078-.97-2.482-1.534-4-1.534-2.967,0-5.431,2.167-5.91,5h2.052c.447-1.72,1.999-3,3.858-3,1,0,1.928.367,2.644,1h-1.644v2h5V0h-2Zm-4,10c-.994,0-1.929-.368-2.646-1h1.646v-2h-5v5h2v-1.531c1.08.966,2.494,1.531,4,1.531,2.967,0,5.431-2.167,5.91-5h-2.052c-.447,1.72-1.999,3-3.858,3Zm-9.5-1c.513,0,1.012-.028,1.5-.074v-2.926c0-2.151.854-4.1,2.235-5.538-1.128-.293-2.393-.462-3.735-.462C3.806,0,0,2.015,0,4.5s3.806,4.5,8.5,4.5Zm0,5c.516,0,1.015-.024,1.5-.063v-3.003c-.489.04-.987.066-1.5.066-3.58,0-6.624-1.004-8.5-2.6v2.167c0,1.621,3.635,3.433,8.5,3.433Z"/>
</svg>
