<?xml version="1.0" encoding="UTF-8"?>
<svg xmlns="http://www.w3.org/2000/svg" id="Layer_1" data-name="Layer 1" viewBox="0 0 24 24">
  <path d="m8.998,9h-2l.002-9h2l-.002,9Zm4.002-7h-2s-.002,6.999-.002,6.999h2s.002-6.999.002-6.999Zm-8,2h-2s-.002,4.999-.002,4.999h2s.002-4.999.002-4.999Zm18.341,8.345l-10.674,11.655H3.003C1.349,24,.003,22.654.003,21v-7C.003,12.346,1.349,11,3.003,11h8.787c1.22,0,2.213.993,2.213,2.213,0,1.094-.816,2.036-1.9,2.191l-4.241.606.283,1.979,4.241-.606c2.062-.294,3.617-2.087,3.617-4.17,0-.219-.032-.429-.065-.638l3.541-3.737c.455-.5,1.097-.803,1.794-.835.692-.034,1.363.209,1.878.678,1.052.958,1.138,2.602.189,3.665Z"/>
</svg>
