<?xml version="1.0" encoding="UTF-8"?>
<svg xmlns="http://www.w3.org/2000/svg" id="Layer_1" data-name="Layer 1" viewBox="0 0 24 24">
  <path d="M22,14v-1c0-2.206-1.794-4-4-4s-4,1.794-4,4v1h-2v7c0,1.654,1.346,3,3,3h6c1.654,0,3-1.346,3-3v-7h-2Zm-3,6h-2v-2h2v2Zm1-6h-4v-1c0-1.103,.897-2,2-2s2,.897,2,2v1ZM13,6h-2V0h2l4,2.5-4,2.5v1Zm1.883,1.883l-1.883-1.883h8c1.654,0,3,1.346,3,3v2h-.345c-.826-2.327-3.048-4-5.655-4-1.142,0-2.207,.326-3.117,.883Zm-8.883,3.117H0v-2c0-1.654,1.346-3,3-3H11l-5,5Zm4,10V12h2.083c.172-1.022,.611-1.951,1.231-2.729l-1.314-1.271-5.172,5H0v11H11.026c-.635-.838-1.026-1.87-1.026-3Zm-4,1H3v-2h3v2Zm0-4H3v-2h3v2Z"/>
</svg>
