<?xml version="1.0" encoding="UTF-8"?>
<svg xmlns="http://www.w3.org/2000/svg" id="Layer_1" data-name="Layer 1" viewBox="0 0 24 24">
  <path d="M8,11.993l3.536-3.458c.944-.944,1.464-2.199,1.464-3.535s-.52-2.591-1.464-3.535c-.945-.944-2.2-1.465-3.536-1.465s-2.591,.521-3.536,1.465-1.464,2.199-1.464,3.535,.52,2.591,1.472,3.543l3.528,3.45Zm0-8.993c1.105,0,2,.895,2,2s-.895,2-2,2-2-.895-2-2,.895-2,2-2Zm16,4s-2.007,4.037-2,4.5c.009,.575,0,1.5,0,2.5,0,.5-.34,.805-.55,1.17-.378,.657-1.004,1.39-1.355,2.059-.042,.079-.074,.172-.095,.27-.056,.255-.045,.551,.039,.767,.257,.656,.58,1.265,.915,1.89,.295,.552,.461,1.129,.276,1.847l-1.23-.004c-.387-.413-1-1.344-1-2,0-1-1.383-1-2-1-1,0-1,1-1,1h-2c-.6,.434-2,4-2,4,0,0-1.5-1.462-2-2.462-.244-.487-1.3-.543-1.771-.543-.14,0-.229,.005-.229,.005,0,0-.246-.552-.5-1-.508-.896-2.423-1.821-4-2-.51,0-1.138,.259-1.5,.5-1-1.5-2-3.942-2-5.981v-1.256c0-1.919,1-5.263,1-5.263h.08c.214,1.492,.895,2.873,1.994,3.973l4.926,4.818,4.95-4.842c1.042-1.042,1.709-2.357,1.947-3.782,1.565,.415,3.104,.833,3.104,.833v2.732c0,.194,.127,.268,.3,.268,.271,0,.654-.182,.825-.364,.529-.56,1.875-2.636,1.875-2.636,.619-.044,.956-.372,1-1,.023-.338-.041-1.663,0-2,.012-.004,.988,.004,1,0,.329,.44,1,2.12,1,2.12v.88Z"/>
</svg>
