<?xml version="1.0" encoding="UTF-8"?>
<svg xmlns="http://www.w3.org/2000/svg" id="Layer_1" data-name="Layer 1" viewBox="0 0 24 24">
  <path d="M21,4v15H7.908l-1.908,1.272v.728h10.697l3.964,2.643c1.355,.968,3.392-.126,3.339-1.788V7c0-1.654-1.346-3-3-3Zm-8.1,3.25c0,.358-.292,.65-.65,.65h-.65v-1.3h.65c.358,0,.65,.292,.65,.65ZM16,0H3C1.346,0,0,1.346,0,3v14.854c-.053,1.663,1.984,2.753,3.339,1.788l3.963-2.643h11.697V3c0-1.654-1.346-3-3-3Zm-6.876,12h-1.703l-1.321-2.9v2.9h-1.6V5h1.6v2.5l1.321-2.5h1.703l-1.651,3.308,1.651,3.692Zm3.797,0l-.909-2.5h-.413v2.5h-1.6V5h2.25c1.243,0,2.25,1.007,2.25,2.25,0,.753-.373,1.414-.94,1.823l1.064,2.927h-1.703Z"/>
</svg>
