<?xml version="1.0" encoding="UTF-8"?>
<svg xmlns="http://www.w3.org/2000/svg" id="Layer_1" data-name="Layer 1" viewBox="0 0 24 24">
  <path d="M22,0h-7c-1.105,0-2,.895-2,2V10.069c1.083,.135,2.096,.486,3,1.01v-.079h5v2h-2.76c.698,.869,1.212,1.888,1.498,3h4.262V2c0-1.105-.895-2-2-2Zm-1,9h-5v-2h5v2Zm0-4h-5V3h5v2ZM5.76,13H3v-2h5v.079c.904-.523,1.917-.875,3-1.01V2c0-1.105-.895-2-2-2H2C.895,0,0,.895,0,2v14H4.262c.287-1.112,.801-2.131,1.498-3ZM3,3h5v2H3V3Zm0,4h5v2H3v-2Zm9,5c-3.314,0-6,2.686-6,6s2.686,6,6,6,6-2.686,6-6-2.686-6-6-6Zm2.121,9.536l-2.121-2.121-2.121,2.121-1.414-1.414,2.121-2.121-2.121-2.121,1.414-1.414,2.121,2.121,2.121-2.121,1.414,1.414-2.121,2.121,2.121,2.121-1.414,1.414Z"/>
</svg>
