<?xml version="1.0" encoding="UTF-8"?>
<svg xmlns="http://www.w3.org/2000/svg" id="Layer_1" data-name="Layer 1" viewBox="0 0 24 24">
  <path d="M23.152,11.681c-1.007-.963-2.764-.882-3.672,.157l-3.541,3.737c.032,.21,.065,.42,.065,.638,0,2.083-1.555,3.876-3.617,4.17l-4.241,.606-.283-1.979,4.241-.606c1.084-.155,1.9-1.097,1.9-2.191,0-1.22-.993-2.213-2.213-2.213H3.003C1.349,14,.003,15.346,.003,17v7H15.414l7.927-8.655c.948-1.062,.862-2.707-.189-3.665ZM16.922,.879c-.228-.685-1.027-1.052-1.697-.801-2.795,1.007-5.019,2.282-6.835,3.921h-.006c-1.883,0-3.383,1-4.383,2.415v1.586h2l.793,.793-1,1,1.414,1.414,1-1,.793,.793v2h1.586c1.414-1,2.386-2.5,2.386-4.35h0c1.622-1.793,2.951-4.106,3.949-6.874,.106-.292,.104-.614,0-.896Zm-6.422,7.121c-.828,0-1.5-.672-1.5-1.5s.672-1.5,1.5-1.5,1.5,.672,1.5,1.5-.672,1.5-1.5,1.5Z"/>
</svg>
