<?xml version="1.0" encoding="UTF-8"?>
<svg xmlns="http://www.w3.org/2000/svg" id="Layer_1" data-name="Layer 1" viewBox="0 0 24 24">
  <path d="M19.828,11.259L9.919,1.043c-1.289-1.337-3.375-1.404-4.794-.112-.726,.662-1.131,1.605-1.111,2.56l-.014,1.5,2,.019,.014-1.529c-.008-.407,.159-.797,.505-1.113,.567-.517,1.428-.488,1.963,.066l2.961,3.053-.562,.562c-1.17,1.17-1.17,3.073,0,4.243l.707,.707L.045,22.541l1.414,1.414L13.002,12.412l.707,.707c.566,.566,1.32,.879,2.121,.879s1.556-.312,2.118-.876l1.88-1.863Zm-7.533-2.382c-.39-.39-.39-1.024,0-1.415l.541-.541,1.393,1.436-1.226,1.226-.707-.707Zm4.241,2.829c-.376,.376-1.033,.378-1.413,0l-.707-.707,1.205-1.205,1.395,1.438-.479,.475Zm2.896,7.776c-.279,.279-.433,.65-.433,1.045s.154,.767,.434,1.046,.65,.433,1.045,.433h.003c.837-.002,1.519-.685,1.519-1.522v-.482h2v.482c0,1.938-1.577,3.519-3.516,3.522h-.005c-.929,0-1.802-.361-2.459-1.018-.658-.657-1.021-1.531-1.021-2.461s.361-1.803,1.019-2.459l2.79-2.79c1.584-1.584,1.597-4.174,.029-5.774L14.245,2.773,16.94-.011l1.438,1.392-1.342,1.385,1.378,1.407,1.366-1.366,1.414,1.414-1.38,1.38,1.4,1.429,1.394-1.395,1.414,1.414-1.444,1.445c1.986,2.394,1.88,5.963-.355,8.198l-2.79,2.79Z"/>
</svg>
