<?xml version="1.0" encoding="UTF-8"?>
<svg xmlns="http://www.w3.org/2000/svg" id="Layer_1" data-name="Layer 1" viewBox="0 0 24 24">
  <path d="m16.899,20c-.465,2.279-2.485,4-4.899,4s-4.435-1.721-4.899-4h9.799Zm3.601-13c1.93,0,3.5-1.57,3.5-3.5s-1.57-3.5-3.5-3.5-3.5,1.57-3.5,3.5,1.57,3.5,3.5,3.5Zm.24,1.988c-.08.003-.159.012-.24.012-3.033,0-5.5-2.467-5.5-5.5,0-.904.223-1.756.612-2.509-1.182-.635-2.526-.991-3.936-.991C7.775,0,4.398,2.709,3.552,6.516l-2.35,7.597c-.597,1.93.846,3.886,2.866,3.886h15.656c2.08,0,3.529-2.065,2.821-4.021l-1.806-4.992Z"/>
</svg>
