<?xml version="1.0" encoding="UTF-8"?>
<svg xmlns="http://www.w3.org/2000/svg" id="Layer_1" data-name="Layer 1" viewBox="0 0 24 24">
  <path d="m14.558,16c-1.183,0-1.757,1.002-1.883,1.581l-1.375,5.984v.434h1.507l.33-1.4h2.829l.325,1.4h1.609l-1.447-6.373c-.146-.668-.711-1.627-1.894-1.627Zm-1.045,5l.726-3.079c.028-.128.118-.321.319-.321s.288.169.334.381l.701,3.019h-2.081Zm8.493-1l1.994,4h-1.812l-1.088-2.182-1.088,2.182h-1.812l1.994-4-1.994-4h1.812l1.088,2.182,1.088-2.182h1.812l-1.994,4Zm-16.306-.4h-1.9v-5.6h18.2V3c0-1.654-1.346-3-3-3H3C1.346,0,0,1.346,0,3v21h5.7v-4.4Zm4.3-8.6h-2v-2h2v2Zm4,0h-2v-2h2v2Zm4,0h-2v-2h2v2ZM4,3h14v4H4V3Zm0,6h2v2h-2v-2Zm5.3,8.6v6.4h-1.6v-6.4h-1.9v-1.6h5.5v1.6h-2Z"/>
</svg>
