<?xml version="1.0" encoding="UTF-8"?>
<svg xmlns="http://www.w3.org/2000/svg" id="Layer_1" data-name="Layer 1" viewBox="0 0 24 24">
  <path d="m1.611,9.389C-.537,7.241-.537,3.759,1.611,1.611s5.63-2.148,7.778,0l1.197,1.197-7.778,7.778-1.197-1.197Zm19.581,4.025l-7.778,7.778,1.197,1.197c2.148,2.148,5.63,2.148,7.778,0h0c2.148-2.148,2.148-5.63,0-7.778l-1.197-1.197Zm1.197-4.025l-13,13c-2.148,2.148-5.63,2.148-7.778,0h0c-2.148-2.148-2.148-5.63,0-7.778L14.611,1.611c2.148-2.148,5.63-2.148,7.778,0s2.148,5.63,0,7.778Zm-10.346,7.568l-5-5-1.414,1.414,5,5,1.414-1.414Zm6.328-6.328l-5-5-1.414,1.414,5,5,1.414-1.414Z"/>
</svg>
