<?xml version="1.0" encoding="UTF-8"?>
<svg xmlns="http://www.w3.org/2000/svg" id="Layer_1" data-name="Layer 1" viewBox="0 0 24 24">
  <path d="M16.66,11C15.643,3.212,14.277,0,12,0s-3.643,3.212-4.66,11H0v2H24v-2h-7.34ZM12,2c.015,0,1.45,.112,2.644,9h-5.289c1.194-8.888,2.629-9,2.644-9Zm9.995,13h2.005c-.382,5.757-1.574,9-4,9-2.073,0-3.829-2.651-4.816-9h2.029c1.123,6.905,2.773,7,2.787,7,.678,0,1.629-1.79,1.995-7Zm-15.209,0h2.029c-.987,6.349-2.742,9-4.815,9-2.426,0-3.618-3.243-4-9H2.005c.366,5.21,1.317,7,1.995,7,.014,0,1.663-.095,2.786-7Z"/>
</svg>
