<?xml version="1.0" encoding="UTF-8"?>
<svg xmlns="http://www.w3.org/2000/svg" id="Layer_1" data-name="Layer 1" viewBox="0 0 24 24">
  <path d="M21.833,14.227l2.063-2.227-2.063-2.227,2.064-2.228-2.161-2.331,2.122-3.214h-1.858c-3.33,0-5.327,1.425-6.933,2.57-1.119,.799-2.004,1.43-3.067,1.43s-1.948-.631-3.067-1.43c-1.605-1.145-3.603-2.57-6.933-2.57H.142l2.122,3.214L.103,7.545l2.064,2.228L.104,12l2.063,2.227L.103,16.455l2.161,2.331L.142,22h1.858c3.33,0,5.327-1.425,6.933-2.57,1.119-.799,2.004-1.43,3.067-1.43s1.948,.631,3.067,1.43c1.605,1.146,3.603,2.57,6.933,2.57h1.858l-2.122-3.214,2.161-2.331-2.064-2.229Zm-5.833-1.227H8v-2h8v2Z"/>
</svg>
