<?xml version="1.0" encoding="UTF-8"?>
<svg xmlns="http://www.w3.org/2000/svg" id="Layer_1" data-name="Layer 1" viewBox="0 0 24 24">
  <path d="m13,1.5C13,.672,13.671,0,14.499,0l6-.002c.829,0,1.501.671,1.501,1.5v5.503l-5.495.004-2.288,1.87c-.526.336-1.215-.041-1.215-.665l-.002-6.709Zm-2,0C11,.672,10.329,0,9.501,0L3.501-.003c-.829,0-1.501.671-1.501,1.5v5.503l5.495.004,2.288,1.87c.526.336,1.215-.041,1.215-.665l.002-6.709Zm7.28,9.5c-.571-.336-2.29-1-3.28-1-.891,0-1.622.296-2.288.923l-3.369,3.302c-.371.372-.455.967-.181,1.347.18.25.441.4.739.425.295.025.581-.082.788-.29l2.309-2.142,7.188,6.436h3.814v-9h-5.72Zm-6.208,6.15c-.535.538-1.292.85-2.084.85-.086,0-.172-.004-.259-.012-.871-.071-1.672-.526-2.192-1.25-.843-1.167-.678-2.857.389-3.926l2.533-2.473c-.457-.214-.956-.34-1.482-.34-1.004,0-2.573.697-3.208,1H0v9h5.531l5.125,4h2.688l4.441-3.466-4.778-4.279-.935.895Z"/>
</svg>
