<?xml version="1.0" encoding="UTF-8"?>
<svg xmlns="http://www.w3.org/2000/svg" id="Layer_1" data-name="Layer 1" viewBox="0 0 24 24">
  <path d="M21.99,18l2.01-.531V2s-2,0-2,0c-.944,0-1.833,.445-2.4,1.2-.371,.571-1.104,1.33-1.6,1.8h-2v-1s2-1,2-2.487v-.513h-3.605c-.992,0-1.959,.34-2.706,.992-1.814,1.585-3.748,4.067-4.689,6.008v.621c0,.494,.406,.854,.853,.854,.126,0,.256-.029,.381-.091,.427-.214,1.334-.667,1.766-.883v1s0,1,1,1,1-1,1-1v-1s-.56-1.102-.5-1.5c.5-2,2-3,2-3l-.5,2.5v1.5h2v2s-1,0-1,1v1c-5,0-5-1-6-1h-1.5l-2.5,2.5v1.507c0,.408-.334,.717-.715,.717-.075,0-.151-.012-.228-.037l-2.057-.686-1,3.308v1l2.009,1.519c.176,.117,.374,.173,.569,.173,.375,0,.74-.205,.922-.569l1.5-3.431h2.5s1.041,2.403,1.5,3c-.062,.244-.501,.696-.952,1.108-.346,.316-.125,.892,.344,.892h1.108c.932-.801,1.5-1,1.5-2l-1.5-3s1,0,2,1,1,1,1,2c.015,.521,.999,1.07,1.5,1l.336-1s1.664-.268,1.664-2.268c0-1,.716-1.032,1.394-1.264,.92-.286,1.735-.437,2.034-.468,.234,0,.584,.104,.571,.732-.007,.318-.15,1.063-.5,1.768-.223,.449-1.487,.507-2.128,.507-.224,0-.372-.007-.372-.007l-1,1.5v2.5h2c.882,0,1.574-.262,2.303-1.05,.253-.04,3.697-.45,3.697-.45v-1.5s-1.124-.603-2.003-1.046c-.003-.487-.007-.954-.007-.954Z"/>
</svg>
