<?xml version="1.0" encoding="UTF-8"?>
<svg xmlns="http://www.w3.org/2000/svg" id="Layer_1" data-name="Layer 1" viewBox="0 0 24 24">
  <path d="m10.071,19c.089.698.261,1.37.516,2H3v-7.587c.63.255,1.302.428,2,.516v5.071h5.071ZM13.413,3c.255.63.428,1.302.516,2h5.071v5.071c.698.089,1.37.261,2,.516V3h-7.587Zm-1.413,3c0,3.309-2.691,6-6,6S0,9.309,0,6,2.691,0,6,0s6,2.691,6,6Zm-7.5-1.5c0,.828.672,1.5,1.5,1.5s1.5-.672,1.5-1.5-.672-1.5-1.5-1.5-1.5.672-1.5,1.5Zm4.5,4c0-.828-.672-1.5-1.5-1.5h-3c-.828,0-1.5.672-1.5,1.5v.118c.734.84,1.799,1.382,3,1.382s2.266-.542,3-1.382v-.118Zm15,9.5c0,3.309-2.691,6-6,6s-6-2.691-6-6,2.691-6,6-6,6,2.691,6,6Zm-7.5-1.5c0,.828.672,1.5,1.5,1.5s1.5-.672,1.5-1.5-.672-1.5-1.5-1.5-1.5.672-1.5,1.5Zm4.5,4c0-.828-.672-1.5-1.5-1.5h-3c-.828,0-1.5.672-1.5,1.5v.118c.734.84,1.799,1.382,3,1.382s2.266-.542,3-1.382v-.118Z"/>
</svg>
