<?xml version="1.0" encoding="UTF-8"?>
<svg xmlns="http://www.w3.org/2000/svg" id="Layer_1" data-name="Layer 1" viewBox="0 0 24 24">
  <path d="m7,15.5c0,.47.048.928.122,1.378C3.09,16.216,0,12.717,0,8.5,0,3.813,3.813,0,8.5,0c4.217,0,7.716,3.09,8.378,7.122-.45-.074-.908-.122-1.378-.122-4.687,0-8.5,3.813-8.5,8.5Zm9.878-8.378c.074.45.122.908.122,1.378,0,4.687-3.813,8.5-8.5,8.5-.47,0-.928-.048-1.378-.122.662,4.032,4.161,7.122,8.378,7.122,4.687,0,8.5-3.813,8.5-8.5,0-4.217-3.09-7.716-7.122-8.378Z"/>
</svg>
