<?xml version="1.0" encoding="UTF-8"?>
<svg xmlns="http://www.w3.org/2000/svg" id="Layer_1" data-name="Layer 1" viewBox="0 0 24 24">
  <path d="M17,15c-3.98,0-5.896,3.092-6.388,4.04l-.239,.46,.239,.461c.492,.947,2.406,4.039,6.388,4.039s5.896-3.092,6.387-4.039l.24-.461-.24-.461c-.492-.947-2.407-4.039-6.387-4.039Zm0,6.5c-1.105,0-2-.895-2-2s.895-2,2-2,2,.895,2,2-.895,2-2,2ZM0,7v-2c0-1.654,1.346-3,3-3H21c1.654,0,3,1.346,3,3v2H0Zm0,2v11H7.998l.839-1.882c.621-1.199,3.049-5.118,8.163-5.118,3.492,0,5.732,1.83,7,3.372v-7.372H0Zm5.5,7c-.828,0-1.5-.672-1.5-1.5s.672-1.5,1.5-1.5,1.5,.672,1.5,1.5-.672,1.5-1.5,1.5Z"/>
</svg>
