<?xml version="1.0" encoding="UTF-8"?>
<svg xmlns="http://www.w3.org/2000/svg" id="Layer_1" data-name="Layer 1" viewBox="0 0 24 24">
  <path d="M4,15.982v8.018h-1.6v-5.332l-.917,.946-1.149-1.113,2.44-2.519h1.226Zm18.75,5.5c-.69,0-1.25,.56-1.25,1.25s.56,1.25,1.25,1.25,1.25-.56,1.25-1.25-.56-1.25-1.25-1.25Zm-4.5-5.5c-.69,0-1.25,.56-1.25,1.25s.56,1.25,1.25,1.25,1.25-.56,1.25-1.25-.56-1.25-1.25-1.25Zm-1.383,8h1.911l5.222-8h-1.911l-5.222,8Zm-9.367-6.382c-.496,0-.9,.404-.9,.9v3c0,.496,.404,.9,.9,.9s.9-.404,.9-.9v-3c0-.496-.404-.9-.9-.9m0-1.6c1.381,0,2.5,1.119,2.5,2.5v3c0,1.381-1.119,2.5-2.5,2.5s-2.5-1.119-2.5-2.5v-3c0-1.381,1.119-2.5,2.5-2.5h0Zm6,1.6c-.496,0-.9,.404-.9,.9v3c0,.496,.404,.9,.9,.9s.9-.404,.9-.9v-3c0-.496-.404-.9-.9-.9m0-1.6c1.381,0,2.5,1.119,2.5,2.5v3c0,1.381-1.119,2.5-2.5,2.5s-2.5-1.119-2.5-2.5v-3c0-1.381,1.119-2.5,2.5-2.5h0Zm2.5-11H6v4h10V5Zm8-2V11h-2c0,1.657-1.343,3-3,3H0S0,0,0,0H19c1.654,0,3,1.346,3,3h2Zm-6,0H4V11h14V3Z"/>
</svg>
