<?xml version="1.0" encoding="UTF-8"?>
<svg xmlns="http://www.w3.org/2000/svg" id="Layer_1" data-name="Layer 1" viewBox="0 0 24 24">
  <path d="M20.744,11.67l1.425-1.425c.948,1.2,1.579,2.659,1.767,4.254h-2.021c-.162-1.047-.572-2.01-1.171-2.83Zm0,7.659l1.425,1.425c.948-1.2,1.579-2.659,1.767-4.254h-2.021c-.162,1.047-.572,2.01-1.171,2.83Zm-9.073,1.414l-1.425,1.425c1.2,.948,2.659,1.579,4.254,1.767v-2.021c-1.047-.162-2.01-.572-2.83-1.171Zm4.83,1.171v2.021c1.595-.188,3.054-.819,4.254-1.767l-1.425-1.425c-.819,.599-1.782,1.009-2.83,1.171Zm-9.385-5.039c.239,1.447,.844,2.772,1.716,3.878l1.424-1.424s.002,0,.003,0c-.509-.695-.868-1.5-1.07-2.364-.228,.018-.456,.035-.689,.035-.473,0-.933-.049-1.385-.123ZM16.877,7.115c.075,.452,.123,.912,.123,1.385,0,.233-.016,.461-.035,.689,.864,.203,1.669,.561,2.363,1.07,0,0,0-.002,0-.003l1.425-1.425c-1.105-.873-2.43-1.477-3.877-1.716Zm-7.877,8.385c0,.507,.078,.992,.189,1.465,4.137-.334,7.442-3.638,7.776-7.776-.473-.111-.959-.189-1.465-.189-3.584,0-6.5,2.916-6.5,6.5ZM15.5,7c.469,0,.929,.041,1.377,.115C16.212,3.086,12.714,0,8.5,0,3.813,0,0,3.813,0,8.5c0,4.214,3.086,7.712,7.115,8.376-.074-.448-.115-.907-.115-1.376,0-4.687,3.813-8.5,8.5-8.5Z"/>
</svg>
