<?xml version="1.0" encoding="UTF-8"?>
<svg xmlns="http://www.w3.org/2000/svg" id="Layer_1" data-name="Layer 1" viewBox="0 0 24 24">
  <path d="M5.565,16.687l2.487,2.532c.122-1.225,.669-2.378,1.587-3.212l.874-.794-1.813-1.646c-1.017-.923-2.668-.721-3.407,.533-.48,.815-.331,1.858,.272,2.586ZM1.5,6c.828,0,1.5,.672,1.5,1.5v7.5s.011,0,.011,0c-.05,1.022,.267,2.061,.956,2.893l4.033,4.088v2.019H3.25s-2.203-2.412-2.203-2.412C.373,20.851,0,19.889,0,18.89V7.5c0-.828,.672-1.5,1.5-1.5Zm9.483,11.487l4.317-3.92c1.017-.923,2.668-.721,3.407,.533,.48,.815,.331,1.858-.272,2.586l-3.243,3.275,1.404,1.404,3.437-3.472c.689-.832,1.005-1.871,.956-2.893h.011s0-7.5,0-7.5c0-.828,.672-1.5,1.5-1.5s1.5,.672,1.5,1.5v11.39c0,.998-.373,1.961-1.047,2.698l-2.203,2.412H10v-4.292c0-.846,.357-1.652,.983-2.221Zm.017-5.67c-.313,.114-.647,.183-1,.183-1.657,0-3-1.343-3-3,0-.277,.05-.541,.12-.796-.676-.501-1.12-1.298-1.12-2.204,0-1.114,.665-2.067,1.617-2.5-.068-.24-.117-.488-.117-.75,0-1.519,1.231-2.75,2.75-2.75,.263,0,.511,.048,.75,.118V11.817Zm5.88-3.613c.07,.255,.12,.518,.12,.796,0,1.657-1.343,3-3,3-.353,0-.687-.069-1-.183V.118c.239-.07,.487-.118,.75-.118,1.519,0,2.75,1.231,2.75,2.75,0,.262-.048,.51-.117,.75,.952,.432,1.617,1.386,1.617,2.5,0,.906-.444,1.703-1.12,2.204Z"/>
</svg>
