<?xml version="1.0" encoding="UTF-8"?>
<svg xmlns="http://www.w3.org/2000/svg" id="Layer_1" data-name="Layer 1" viewBox="0 0 24 24">
  <path d="M24,0V2H6v.719l9.207,2.302c1.556,.108,2.793,1.396,2.793,2.979v2h-2v-2c0-.551-.449-1-1-1s-1,.449-1,1v2h-2v-2c0-.59,.177-1.137,.472-1.601L4,4.281V2H0V0H24Zm0,19.5c0,2.481-2.019,4.5-4.5,4.5H4.5c-2.481,0-4.5-2.019-4.5-4.5,0-2.31,1.756-4.197,4-4.449v-3.051h4v3h2v-3h4v3h2v-3h4v3.051c2.244,.252,4,2.139,4,4.449Zm-18,0c0-.828-.672-1.5-1.5-1.5s-1.5,.672-1.5,1.5,.672,1.5,1.5,1.5,1.5-.672,1.5-1.5Zm7.5,0c0-.828-.672-1.5-1.5-1.5s-1.5,.672-1.5,1.5,.672,1.5,1.5,1.5,1.5-.672,1.5-1.5Zm7.5,0c0-.828-.672-1.5-1.5-1.5s-1.5,.672-1.5,1.5,.672,1.5,1.5,1.5,1.5-.672,1.5-1.5Z"/>
</svg>
