<?xml version="1.0" encoding="UTF-8"?>
<svg xmlns="http://www.w3.org/2000/svg" id="Layer_1" data-name="Layer 1" viewBox="0 0 24 24">
  <path d="M12.44,9.985c0,.398-.349,.735-.762,.735l-.21,.003-.005-1.473h.215c.413,0,.762,.336,.762,.735Zm9.56-4.485v6.428c0,7.435-7.047,10.848-9.207,11.716l-.835,.337-.806-.404c-2.146-1.073-9.152-5.085-9.152-11.649V5.5c0-1.292,.826-2.435,2.054-2.842L12,.023l7.945,2.634c1.229,.407,2.055,1.549,2.055,2.842Zm-12.337,2.5h-1.261l-.94,4.55-.94-4.55h-1.31l1.036,4.852c.081,.421,.405,1.148,1.214,1.148s1.127-.696,1.221-1.181l.981-4.819Zm4.027,1.985c0-1.094-.902-1.985-2.012-1.985h-1.467v6h1.25v-2.027l.217-.003c1.109,0,2.012-.891,2.012-1.985Zm4.521-1.985h-1.28v3.047l-1.44-3.041v-.006h-1.28v6h1.28v-3.041l1.44,3.041h1.28v-6Z"/>
</svg>
