<?xml version="1.0" encoding="UTF-8"?>
<svg xmlns="http://www.w3.org/2000/svg" id="Layer_1" data-name="Layer 1" viewBox="0 0 24 24">
  <path d="m0,3V1c4.244,0,7.617,2.52,8.687,6.298L19.339,1.45l4.683,6.61-5.302,4.798c-.95-.543-2.047-.858-3.22-.858-2.795,0-5.172,1.768-6.09,4.244l-4.751-6.735,2.214-1.215C6.193,5.096,3.526,3,0,3Zm20,15.5c0,2.485-2.015,4.5-4.5,4.5s-4.5-2.015-4.5-4.5,2.015-4.5,4.5-4.5,4.5,2.015,4.5,4.5Zm-3,0c0-.828-.672-1.5-1.5-1.5s-1.5.672-1.5,1.5.672,1.5,1.5,1.5,1.5-.672,1.5-1.5ZM2.895,10.478l-.249.137C1.28,11.582.372,13.024.09,14.675c-.281,1.651.096,3.312,1.063,4.679,1.221,1.724,3.158,2.644,5.125,2.644,1.118,0,2.239-.316,3.249-.933-.253-.587-.421-1.219-.491-1.88L2.895,10.478Z"/>
</svg>
