<?xml version="1.0" encoding="UTF-8"?>
<svg xmlns="http://www.w3.org/2000/svg" id="Layer_1" data-name="Layer 1" viewBox="0 0 24 24">
  <path d="M23.959,22.545l-2.792-2.792c.524-.791,.833-1.736,.833-2.753,0-2.757-2.243-5-5-5s-5,2.243-5,5,2.243,5,5,5c1.017,0,1.962-.309,2.753-.833l2.792,2.792,1.414-1.414ZM8.654,12H2V0H22V12h-.11c-1.263-1.235-2.988-2-4.89-2-2.373,0-4.47,1.189-5.736,3h-1.764l-.846-1Zm1.426,6H3c-1.657,0-3-1.343-3-3v-1H7.716l.846,1h1.733c-.19,.634-.295,1.305-.295,2,0,.34,.033,.672,.08,1Z"/>
</svg>
