<?xml version="1.0" encoding="UTF-8"?>
<svg xmlns="http://www.w3.org/2000/svg" id="Layer_1" data-name="Layer 1" viewBox="0 0 24 24">
  <path d="m5,13c1.379,0,2.5,1.121,2.5,2.5s-1.121,2.5-2.5,2.5-2.5-1.121-2.5-2.5,1.121-2.5,2.5-2.5Zm2,6H3c-1.654,0-3,1.346-3,3v2h10v-2c0-1.654-1.346-3-3-3Zm12-6c-1.379,0-2.5,1.121-2.5,2.5s1.121,2.5,2.5,2.5,2.5-1.121,2.5-2.5-1.121-2.5-2.5-2.5Zm2,6h-4c-1.654,0-3,1.346-3,3v2h10v-2c0-1.654-1.346-3-3-3Zm-9.068-8c1.379,0,2.5-1.121,2.5-2.5s-1.121-2.5-2.5-2.5-2.5,1.121-2.5,2.5,1.121,2.5,2.5,2.5Zm8.068-2.001c.509,0,1.019-.194,1.406-.581l2.506-2.507-1.414-1.414-1.498,1.508V0h-2v5.996l-1.498-1.499-1.414,1.414,2.507,2.508c.388.387.896.58,1.405.58Zm-16,0c.509,0,1.019-.194,1.406-.581l2.506-2.507-1.414-1.414-1.498,1.508V0h-2v5.996l-1.498-1.499L.088,5.911l2.507,2.508c.388.387.896.58,1.405.58Zm5.224,8.001h5.553c-.168-.471-.276-.971-.276-1.5,0-1.154.449-2.196,1.165-2.993-.477-.319-1.049-.507-1.665-.507h-4c-.616,0-1.188.187-1.665.507.716.797,1.165,1.84,1.165,2.993,0,.529-.108,1.029-.276,1.5Z"/>
</svg>
