<?xml version="1.0" encoding="UTF-8"?>
<svg xmlns="http://www.w3.org/2000/svg" id="Layer_1" data-name="Layer 1" viewBox="0 0 24 24">
  <path d="M10.002,24V15.234c-1.392-.962-2.997-2.378-2.997-3.795,0-1.5,1-2.5,2.5-2.5,.541,0,1.077,.249,1.5,.616l1,1.124,1-1.124c.423-.368,.959-.616,1.5-.616,1.5,0,2.5,1,2.5,2.5,0,1.419-1.61,2.836-3.003,3.798v8.762l8.829-2.386-1.832-4.932c.301-.869,.989-3.135,.989-5.713C21.988,3.383,12.709,.236,12.314,.105L12.001,.003l-.313,.104c-.395,.13-9.659,3.276-9.659,10.863,0,2.577,.688,4.841,.989,5.712l-1.85,4.932,8.833,2.387Z"/>
</svg>
