<?xml version="1.0" encoding="UTF-8"?>
<svg xmlns="http://www.w3.org/2000/svg" id="Layer_1" data-name="Layer 1" viewBox="0 0 24 24">
  <path d="M10,7c-2.85,0-4.442,1.838-5.165,3,.722,1.162,2.314,3,5.165,3s4.442-1.838,5.165-3c-.722-1.162-2.314-3-5.165-3Zm0,4.5c-.829,0-1.5-.671-1.5-1.5s.671-1.5,1.5-1.5,1.5,.671,1.5,1.5-.671,1.5-1.5,1.5Zm7.738,4.824c1.412-1.725,2.262-3.927,2.262-6.324C20,4.486,15.514,0,10,0S0,4.486,0,10s4.486,10,10,10c2.397,0,4.599-.85,6.324-2.262l6.219,6.219,1.414-1.414-6.219-6.219Zm-.536-5.862c-.555,1.064-2.715,4.538-7.202,4.538s-6.647-3.473-7.202-4.538l-.241-.462,.241-.462c.555-1.064,2.715-4.538,7.202-4.538s6.647,3.474,7.202,4.538l.241,.462-.241,.462Z"/>
</svg>
