<?xml version="1.0" encoding="UTF-8"?>
<svg xmlns="http://www.w3.org/2000/svg" id="Layer_1" data-name="Layer 1" viewBox="0 0 24 24">
  <path d="M21.91,21.555c-1.12,.949-2.488,1.448-3.896,1.448-.475,0-.954-.057-1.43-.172h0c-1.58-.384-2.941-1.434-3.772-2.831h2.575c.473,.419,1.041,.734,1.669,.887,0,0,.001,0,.002,0,1.258,.305,2.555-.007,3.56-.859,1.213-1.027,1.701-2.788,1.188-4.28-.411-1.192-1.273-2.082-2.427-2.504-1.138-.416-2.386-.301-3.425,.319l-.859,.511-3.027-5.081c-.023,0-.044,.007-.067,.007-1.105,0-2-.895-2-2s.895-2,2-2,2,.895,2,2c0,.338-.092,.651-.239,.93l2.07,3.475c1.349-.526,2.847-.547,4.234-.038,1.705,.624,3.028,1.984,3.63,3.73,.789,2.29,.071,4.885-1.785,6.458Zm-9.101-1.555h.002c-.014-.023,.01,.023-.002,0Zm5.191-1c1.105,0,2-.895,2-2s-.895-2-2-2c-.738,0-1.376,.405-1.723,1h-6.277v1c0,1.209-.539,2.341-1.479,3.105-.954,.775-2.16,1.058-3.393,.803-1.545-.322-2.808-1.642-3.07-3.21-.217-1.298,.178-2.573,1.085-3.498h0s0,0,0,0c.456-.465,1.021-.793,1.629-.985l1.325-2.208c-.033,0-.065-.006-.098-.006-1.625,0-3.147,.639-4.284,1.8h0s0,0,0,0C.356,14.187-.238,16.092,.086,18.028c.401,2.4,2.264,4.345,4.634,4.838,.424,.088,.85,.132,1.271,.132,1.378,0,2.713-.464,3.792-1.341,1.146-.932,1.895-2.229,2.134-3.657h4.36c.346,.595,.984,1,1.723,1Zm-9.93-7.465l-2.111,3.469c-1.085,.023-1.959,.905-1.959,1.996,0,1.105,.895,2,2,2s2-.895,2-2c0-.376-.11-.724-.291-1.025l3.066-5.038-.854-.52c-1.033-.628-1.72-1.677-1.884-2.877-.167-1.217,.216-2.395,1.077-3.316,1.079-1.152,2.863-1.544,4.338-.953,1.222,.489,2.106,1.49,2.425,2.745,0,0,0,0,0,0,.159,.626,.146,1.275-.003,1.89l1.205,2.276c.845-1.388,1.136-3.083,.736-4.658h0c-.478-1.882-1.797-3.38-3.62-4.11-2.261-.906-4.888-.325-6.542,1.443-1.262,1.349-1.845,3.155-1.598,4.954,.2,1.463,.919,2.777,2.015,3.724Zm9.01-1.352v-.002c-.015,.023,.015-.019,0,.002Z"/>
</svg>
