<?xml version="1.0" encoding="UTF-8"?>
<svg xmlns="http://www.w3.org/2000/svg" id="Layer_1" data-name="Layer 1" viewBox="0 0 24 24">
  <path d="m24,2c0,2.333-4,5-4,5,0,0-4-2.667-4-5,0-1.105.895-2,2-2s2,.895,2,2c0-1.105.895-2,2-2s2,.895,2,2Zm0,8.469s-1.482-.5-3.577-.5c-1.299,0-2.607.737-3.602,1.48.787.571,1.268,1.1,1.311,1.148l-1.492,1.332c-.018-.02-2.015-1.96-4.14-1.96-2.376,0-4.81,1.852-6.213,3.133,1.393-3.503.345-8.359.901-9.93l2.84-.904v-.981l1.981-.788c0-1.048-.905-2.5-3-2.5-1.5,0-2.714,1.071-2.714,1.071C-.515,6.31.009,15.612.009,18.755c0,0,4.658,5.238,11.991,5.238s12-3.143,12-3.143v-10.381Z"/>
</svg>
