<?xml version="1.0" encoding="UTF-8"?>
<svg xmlns="http://www.w3.org/2000/svg" id="Layer_1" data-name="Layer 1" viewBox="0 0 24 24">
  <path d="M10,12.788v2.212h-2.33l-.449,3.394c-.197,1.486-1.476,2.606-2.974,2.606H2v3H0V0C2.265,.638,4.287,1.995,5.777,3.971h0c1.494,1.84,2.975,6.061,4.223,8.817Zm14-.788c0,6.841-2.58,12-6,12s-6-5.159-6-12S14.58,0,18,0s6,5.159,6,12Zm-3.03,6.477c-.058-.106-.103-.22-.12-.345l-.678-5.132h-1.991c.954-2.165,2.081-4.866,3.1-6.499-.242-.854-.532-1.615-.856-2.253-1.53,1.796-3.042,5.645-4.336,8.54v2.212h2.33l.449,3.394c.109,.829,.548,1.544,1.185,2.015,.335-.531,.647-1.18,.918-1.932Z"/>
</svg>
