<?xml version="1.0" encoding="UTF-8"?>
<svg xmlns="http://www.w3.org/2000/svg" id="Layer_1" data-name="Layer 1" viewBox="0 0 24 24">
  <path d="M3.525,6C4.765,2.51,8.091,0,12,0s7.235,2.51,8.475,6H3.525ZM15.789,15.03l-.759-.147-.048-.771c-.074-1.184-1.054-2.111-2.231-2.111-1.241,0-2.25,1.01-2.25,2.25,0,.246,.048,.497,.146,.767l.458,1.253-1.332,.088c-.433,.028-.772,.387-.772,.816,0,.455,.371,.826,.826,.826h5.674c.827,0,1.5-.673,1.5-1.5,0-.715-.509-1.333-1.211-1.47Zm5.152-7.03c.037,.329,.059,.662,.059,1v6c0,4.963-4.038,9-9,9S3,19.963,3,15v-6c0-.338,.022-.671,.059-1H20.941Zm-1.941,8.5c0-1.42-.86-2.677-2.125-3.217-.44-1.889-2.133-3.283-4.125-3.283-2.343,0-4.25,1.906-4.25,4.25,0,.141,.008,.282,.023,.424-.907,.474-1.523,1.422-1.523,2.5,0,1.559,1.268,2.826,2.826,2.826h5.674c1.93,0,3.5-1.57,3.5-3.5Z"/>
</svg>
