<?xml version="1.0" encoding="UTF-8"?>
<svg xmlns="http://www.w3.org/2000/svg" id="Layer_1" data-name="Layer 1" viewBox="0 0 24 24">
  <path d="m14.121,17.122l6.879-6.879V3c0-1.654-1.346-3-3-3H6c-1.654,0-3,1.346-3,3v7.243l6.878,6.879c1.134,1.133,3.11,1.133,4.243,0ZM6.804,7.718l1.393-1.436,2.793,2.707,4.811-4.703,1.4,1.428-4.793,4.707c-.386.386-.895.579-1.405.579s-1.025-.195-1.416-.586l-2.782-2.696Zm17.196,4.514v11.769H0v-11.769c.001-.609.156-1.201.419-1.742l8.046,8.046c.945.944,2.2,1.464,3.536,1.464s2.591-.52,3.535-1.464l8.048-8.048c.263.541.417,1.134.417,1.744Z"/>
</svg>
