<?xml version="1.0" encoding="UTF-8"?>
<svg xmlns="http://www.w3.org/2000/svg" id="Layer_1" data-name="Layer 1" viewBox="0 0 24 24">
  <path d="M23.97,8.942l-.055-.957-.959,.015c-6.708,.104-9.661,4.232-10.956,7.606-1.295-3.375-4.248-7.502-10.956-7.606l-.959-.015-.055,.957c-.219,3.798,.749,6.79,2.874,8.893,2.635,2.606,6.303,3.085,8.096,3.154v3.022h2v-3.022c1.793-.069,5.46-.549,8.096-3.154,2.125-2.103,3.093-5.094,2.874-8.893Zm-15.47-3.442l-1.414-1.414L10.586,.586c.779-.78,2.049-.78,2.828,0l3.5,3.5-1.414,1.414-2.5-2.5v7h-2V3l-2.5,2.5Z"/>
</svg>
