<?xml version="1.0" encoding="UTF-8"?>
<svg xmlns="http://www.w3.org/2000/svg" id="Layer_1" data-name="Layer 1" viewBox="0 0 24 24">
  <path d="M0,9.062c1.073-1.104,2.546-1.79,4.03-2.292,.499-.973,1.093-2.045,2.005-2.69,.829-.698,1.881-1.08,2.965-1.08h0s2-2,2-2l2.426,.693c.586,.167,.914,.789,.721,1.367l-.147,.44s1.073,1.5,2,1.5c.5,0,1,.078,1-1,0-1.5,.336-2.825,1-3,.422-.111,.717,.538,1,2,.15,.143,2.769,2.231,3,5,.819,.62,2,2.459,2,3.487,0,3.013-1.99,4.518-3,7.013,0,0-3.02,.492-3.5,.5-1-.5-2.5-1.5-2.5-1.5,0,0,.179-1.167-.154-1.474s-1.346,.474-1.346,.474c0,0-.747-1-3-1-3,0-3,2-5.911,1.952-.791,.973-2.589,.648-2.589-.954,0-1.5-1.015-2.755-1.538-3.857-.215-.526-.462-1.927-.462-1.927,0,0,0-1.101,0-1.652Zm21,11.901c-.071,.68-.282,2.037-1.154,2.037-1.346,0-1.692-1.654-1.846-2.5l3-.5s.023,.679,0,.963Z"/>
</svg>
