<?xml version="1.0" encoding="UTF-8"?>
<svg xmlns="http://www.w3.org/2000/svg" id="Layer_1" data-name="Layer 1" viewBox="0 0 24 24">
  <path d="M15.818,11.6c0,2.199-3.818,4.9-3.818,4.9,0,0-3.818-2.701-3.818-4.9,0-1.16,.855-2.1,1.909-2.1s1.909,.94,1.909,2.1c0-1.16,.855-2.1,1.909-2.1s1.909,.94,1.909,2.1ZM24,.602c-.629-.391-1.359-.602-2.11-.602H9.5c-.828,0-1.5,.672-1.5,1.5s.672,1.5,1.5,1.5h7.5v.011c1.022-.05,2.061,.267,2.893,.956l2.588,2.552-1.404,1.404-2.39-2.358c-.728-.603-1.772-.752-2.586-.272-1.254,.739-1.457,2.39-.533,3.407l3.92,4.317c.569,.626,1.375,.983,2.221,.983h2.292V.602ZM0,23.398c.629,.391,1.359,.602,2.11,.602H14.5c.828,0,1.5-.672,1.5-1.5s-.672-1.5-1.5-1.5H7v-.011c-1.022,.05-2.061-.267-2.893-.956l-2.588-2.552,1.404-1.404,2.39,2.358c.728,.603,1.772,.752,2.586,.272,1.254-.739,1.457-2.39,.533-3.407l-3.92-4.317c-.569-.626-1.375-.983-2.221-.983H0v13.398Z"/>
</svg>
