<?xml version="1.0" encoding="UTF-8"?>
<svg xmlns="http://www.w3.org/2000/svg" id="Layer_1" data-name="Layer 1" viewBox="0 0 24 24">
  <path d="M5.14,5.01l-1.712-2.887,1.721-1.021,1.712,2.887-1.721,1.021Zm16.86,6.987c-.197,.627-3.417,6.695-10,7.003-6.869-.313-9.777-6.361-10-6.994,.196-.633,3.4-6.695,10-7.006,6.18,.139,9.455,5.59,10,6.997Zm-6,.003c0-2.206-1.794-4-4-4s-4,1.794-4,4,1.794,4,4,4,4-1.794,4-4Zm-4-2c-1.103,0-2,.897-2,2s.897,2,2,2,2-.897,2-2-.897-2-2-2ZM13,0h-2V3h2V0Zm7.572,2.124l-1.721-1.021-1.712,2.887,1.721,1.021,1.712-2.887Zm0,19.753l-1.712-2.887-1.721,1.021,1.712,2.887,1.721-1.021Zm-7.572-.876h-2v3h2v-3Zm-6.14-.99l-1.721-1.021-1.712,2.887,1.721,1.021,1.712-2.887Z"/>
</svg>
