<?xml version="1.0" encoding="UTF-8"?>
<svg xmlns="http://www.w3.org/2000/svg" id="Layer_1" data-name="Layer 1" viewBox="0 0 24 24">
  <path d="m6.284,10.158l-.601-.452,1.086-3.396-2.769-1.54v-.769h3.625l.981-3.75h.809l.98,3.75h3.605v.764l-2.75,1.591,1.105,3.357-.625.436-2.717-2.101-2.729,2.11Zm16.865-1.477c-.515-.469-1.186-.712-1.878-.678-.697.032-1.339.334-1.794.835l-3.541,3.737c.032.21.065.42.065.638,0,2.083-1.555,3.876-3.617,4.17l-4.241.606-.283-1.979,4.241-.606c1.084-.155,1.9-1.097,1.9-2.191,0-1.22-.993-2.213-2.213-2.213H3c-1.654,0-3,1.346-3,3v7c0,1.654,1.346,3,3,3h9.664l10.674-11.655c.948-1.062.862-2.707-.189-3.665Z"/>
</svg>
