<?xml version="1.0" encoding="UTF-8"?>
<svg xmlns="http://www.w3.org/2000/svg" id="Layer_1" data-name="Layer 1" viewBox="0 0 24 24">
  <path d="M8.029,21.864c.633,.723,1.541,1.136,2.506,1.136,1.221,0,2.245-.853,2.436-2.028,.143-.882-.224-2.036-1.685-2.627-.56-.228-1.084-.467-1.366-.595-.099-.045-.428-.173-.433-.615-.002-.131,.103-.441,.515-.577,.73-.236,1.392,.2,1.611,.367l.86-1.113c-.401-.369-1.539-1.123-2.863-.686-.796,.263-1.359,.951-1.471,1.796-.106,.818,.23,1.565,.921,2.049h0s.838,.409,1.753,.78c.214,.086,.905,.409,.817,.959-.065,.391-.492,.795-1.096,.795-.572,0-1.124-.24-1.497-.645l-1.009,1.006Zm15.971,1.136h-3.733v-8h1.6v6.401s1.028,0,2.133,0v1.599Zm-4.269-.399l-.998-.998c.165-.334,.267-.705,.267-1.102v-3c0-1.381-1.119-2.5-2.5-2.5s-2.5,1.119-2.5,2.5v3c0,1.381,1.119,2.5,2.5,2.5,.398,0,.769-.101,1.102-.267l.998,.998,1.131-1.131Zm-4.131-2.101v-3c0-.496,.404-.9,.9-.9s.9,.404,.9,.9v3c0,.496-.404,.9-.9,.9s-.9-.404-.9-.9ZM0,4.5C0,2.015,3.806,0,8.5,0s8.5,2.015,8.5,4.5-3.806,4.5-8.5,4.5S0,6.985,0,4.5Zm8.5,6.5c3.58,0,6.624-1.004,8.5-2.6v2.167c0,1.621-3.635,3.433-8.5,3.433S0,12.188,0,10.567v-2.167c1.876,1.596,4.92,2.6,8.5,2.6ZM0,15.566v-1.74c1.421,1.01,3.514,1.735,6,2.028v2.978c-3.558-.483-6-1.938-6-3.266Zm6,8.259c-3.259-.458-6-1.825-6-4.039v-.96c1.421,1.01,3.514,1.735,6,2.028v2.971Z"/>
</svg>
