<?xml version="1.0" encoding="UTF-8"?>
<svg xmlns="http://www.w3.org/2000/svg" id="Layer_1" data-name="Layer 1" viewBox="0 0 24 24">
  <path d="M10,10.685v-2.685H4v2.685C1.639,11.812,0,14.215,0,17c0,3.859,3.14,7,7,7s7-3.141,7-7c0-2.785-1.639-5.188-4-6.315Zm-3,11.315c-2.757,0-5-2.243-5-5s2.243-5,5-5,5,2.243,5,5-2.243,5-5,5ZM13.985,2.526l.995-1.735c.698,.4,1.301,.929,1.791,1.57l-1.59,1.214c-.327-.429-.73-.782-1.196-1.049Zm1.711,1.952l1.851-.762c.29,.704,.453,1.475,.453,2.284h-2c0-.539-.11-1.052-.303-1.522Zm-4.611-2.363l-.459-1.951c.442-.104,.9-.164,1.373-.164s.932,.06,1.373,.164l-.459,1.951c-.295-.069-.598-.115-.914-.115s-.619,.046-.914,.115Zm-2.267,1.46l-1.59-1.214c.489-.642,1.092-1.17,1.791-1.57l.995,1.735c-.466,.267-.869,.62-1.196,1.049Zm-.819,2.425h-2c0-.809,.162-1.58,.453-2.284l1.851,.762c-.194,.47-.303,.983-.303,1.522Zm16,11c0,3.859-3.141,7-7,7-1.236,0-2.396-.325-3.405-.89,.462-.498,.869-1.047,1.21-1.64,.666,.329,1.404,.53,2.196,.53,2.757,0,5-2.243,5-5s-2.243-5-5-5c-.791,0-1.53,.202-2.196,.53-.234-.408-.511-.787-.804-1.151v-3.379h6v2.685c2.361,1.126,4,3.53,4,6.315Z"/>
</svg>
