<?xml version="1.0" encoding="UTF-8"?>
<svg xmlns="http://www.w3.org/2000/svg" id="Layer_1" data-name="Layer 1" viewBox="0 0 24 24">
  <path d="M17,17c0-1.336-.521-2.591-1.465-3.535-.944-.945-2.2-1.465-3.535-1.465s-2.592,.521-3.535,1.465c-.944,.943-1.465,2.199-1.465,3.535s.521,2.592,1.473,3.543l3.527,3.45,3.535-3.458c.944-.943,1.465-2.199,1.465-3.535Zm-5,1.5c-.828,0-1.5-.672-1.5-1.5s.672-1.5,1.5-1.5,1.5,.672,1.5,1.5-.672,1.5-1.5,1.5Zm6-12.5c0-3.309-2.691-6-6-6S6,2.691,6,6H0v15c0,1.654,1.346,3,3,3h6.147l-2.073-2.027c-1.343-1.341-2.074-3.102-2.074-4.973s.729-3.629,2.052-4.95c1.319-1.321,3.077-2.05,4.948-2.05s3.628,.729,4.95,2.051c1.321,1.322,2.05,3.08,2.05,4.949s-.729,3.629-2.052,4.95l-2.095,2.05h6.147c1.654,0,3-1.346,3-3V6h-6Zm-10,0c0-2.206,1.794-4,4-4s4,1.794,4,4H8Z"/>
</svg>
