<?xml version="1.0" encoding="UTF-8"?>
<svg xmlns="http://www.w3.org/2000/svg" id="Layer_1" data-name="Layer 1" viewBox="0 0 24 24">
  <path d="M24,2v1H11v-1c0-1.105,.895-2,2-2h9c1.105,0,2,.895,2,2ZM11,12h13V5H11v7Zm7.594,3.581l-2.506,2.507,1.414,1.414,1.498-1.508v3.006c0,.552-.448,1-1,1h-3v2h3c1.654,0,3-1.346,3-3v-2.997l1.498,1.499,1.414-1.414-2.507-2.508c-.774-.772-2.035-.773-2.812,0ZM4,9c.509,0,1.019-.193,1.406-.581l2.506-2.506-1.414-1.414-1.498,1.508V3c0-.551,.448-1,1-1h3.051c.082-.732,.32-1.417,.711-2h-3.762c-1.654,0-3,1.346-3,3v2.997l-1.498-1.498L.088,5.913l2.507,2.507c.388,.386,.896,.58,1.405,.58Zm5,3H2.5c-1.379,0-2.5,1.121-2.5,2.5v.5H9v-3ZM0,24H13v-7H0v7Z"/>
</svg>
