<?xml version="1.0" encoding="UTF-8"?>
<svg xmlns="http://www.w3.org/2000/svg" id="Layer_1" data-name="Layer 1" viewBox="0 0 24 24">
  <path d="M-1,20v-2c2.654,0,4-2.355,4-7,0-.393,.033-.786,.098-1.167l1.972,.335c-.046,.271-.069,.551-.069,.833,0,5.804-2.131,9-6,9ZM1,11C1,6.038,5.038,2,10,2c1.963,0,3.83,.624,5.399,1.804l1.202-1.599C14.683,.763,12.401,0,10,0,3.935,0-1,4.935-1,11v3H1v-3Zm12,0c0-1.654-1.346-3-3-3s-3,1.346-3,3l-.007,1.076c0,4.19-.553,8.104-7.231,9.934l.528,1.93c8.703-2.386,8.703-8.551,8.703-11.863l.007-1.076c0-.551,.449-1,1-1s1,.449,1,1h2Zm8,.079c0-.025,0-.055,0-.079,0-1.679-.37-3.292-1.101-4.794l-1.799,.875c.487,1.001,.767,2.067,.858,3.17,.725,.183,1.41,.462,2.042,.827ZM7.312,22.496l1.378,1.449c.558-.53,1.056-1.119,1.506-1.754-.425-.688-.746-1.443-.948-2.248-.528,.973-1.172,1.827-1.936,2.553ZM10,4c-1.985,0-3.885,.85-5.213,2.333l1.49,1.334c.949-1.059,2.307-1.667,3.724-1.667,2.511,0,4.575,1.866,4.927,4.281,.637-.171,1.304-.27,1.993-.277-.486-3.388-3.4-6.004-6.921-6.004Zm7,8c-3.314,0-6,2.686-6,6s2.686,6,6,6,6-2.686,6-6-2.686-6-6-6Zm.619,8.414c-.378,.378-.88,.586-1.414,.586h-.002c-.534,0-1.036-.209-1.413-.587l-2.012-2.012,1.414-1.414,2.013,2.013,3.615-3.615,1.414,1.414-3.615,3.615Z"/>
</svg>
