<?xml version="1.0" encoding="UTF-8"?>
<svg xmlns="http://www.w3.org/2000/svg" id="Layer_1" data-name="Layer 1" viewBox="0 0 24 24">
  <path d="M1,0V2h1.093l1.894,19.293c.151,1.543,1.435,2.707,2.986,2.707h10.054c1.551,0,2.834-1.164,2.986-2.707l1.894-19.293h1.093V0H1ZM19.525,5.786l-2.694,2.694,2.212,2.212-.261,2.659-1.931,1.931,1.586,1.586-.253,2.575-2.747-2.747-1.997,1.997,3.306,3.306h-2.828l-1.892-1.892-1.892,1.892h-2.828l3.306-3.306-1.997-1.997-2.795,2.795-.253-2.575,1.634-1.634-1.978-1.978-.01,.01-.253-2.575,2.26-2.26-2.752-2.752-.308-3.136,4.474,4.474,1.977-1.977-3.088-3.088h2.828l1.674,1.674,1.674-1.674h2.828l-3.088,3.088,1.978,1.978,4.415-4.415-.308,3.136Zm-8.913,6.085l-1.997,1.997-1.978-1.978,1.997-1.997,1.978,1.978Zm1.414-5.369l1.978,1.978-1.977,1.977-1.978-1.978,1.977-1.977Zm0,6.783l1.997,1.997-1.997,1.997-1.997-1.997,1.997-1.997Zm1.414-1.414l1.977-1.977,1.997,1.997-1.977,1.977-1.997-1.997Z"/>
</svg>
