<?xml version="1.0" encoding="UTF-8"?>
<svg xmlns="http://www.w3.org/2000/svg" id="Layer_1" data-name="Layer 1" viewBox="0 0 24 24">
  <path d="M21,4v15H7.908l-1.908,1.272v.728h10.697l3.964,2.643c1.355,.968,3.392-.126,3.339-1.788V7c0-1.654-1.346-3-3-3ZM7.4,7.25c0,.358-.292,.65-.65,.65h-.65v-1.3h.65c.358,0,.65,.292,.65,.65ZM16,0H3C1.346,0,0,1.346,0,3v14.854c-.053,1.663,1.984,2.753,3.339,1.788l3.963-2.643h11.697V3c0-1.654-1.346-3-3-3ZM6.75,9.5h-.65v2.5h-1.6V5h2.25c1.243,0,2.25,1.007,2.25,2.25s-1.007,2.25-2.25,2.25Zm8.25-2.9h-1.7v5.4h-1.6V6.6h-1.7v-1.6h5v1.6Z"/>
</svg>
