<?xml version="1.0" encoding="UTF-8"?>
<svg xmlns="http://www.w3.org/2000/svg" id="Layer_1" data-name="Layer 1" viewBox="0 0 24 24">
  <path d="M0,7V2H2v3.362C4.189,2.044,7.89,0,12,0c6.617,0,12,5.383,12,12,0,.647-.053,1.281-.152,1.9-.568-.396-1.22-.674-1.926-.807,.04-.361,.078-.722,.078-1.093,0-5.514-4.486-10-10-10-3.64,0-6.9,1.921-8.665,5h3.665v2H2c-1.103,0-2-.897-2-2Zm11,4H7v2h6V6h-2v5Zm13,7v3c0,1.654-1.346,3-3,3s-3-1.346-3-3v-3c0-1.654,1.346-3,3-3s3,1.346,3,3Zm-2,0c0-.551-.448-1-1-1s-1,.449-1,1v3c0,.551,.448,1,1,1s1-.449,1-1v-3ZM2,12H0c0,6.617,5.383,12,12,12,.338,0,.669-.023,1-.051v-2c-.329,.033-.662,.051-1,.051-5.514,0-10-4.486-10-10Zm14.324,3.083c-.408-.17-.878-.077-1.208,.253l-2.839,2.972,1.445,1.382,1.277-1.337v5.646h2v-7.905c0-.444-.266-.841-.676-1.011Z"/>
</svg>
