<?xml version="1.0" encoding="UTF-8"?>
<svg xmlns="http://www.w3.org/2000/svg" id="Layer_1" data-name="Layer 1" viewBox="0 0 24 24">
  <path d="M3.5,2.5c0-1.381,1.119-2.5,2.5-2.5s2.5,1.119,2.5,2.5-1.119,2.5-2.5,2.5-2.5-1.119-2.5-2.5Zm12.5,5.7c0-1.215-.895-2.2-2-2.2s-2,.985-2,2.2c0-1.215-.895-2.2-2-2.2s-2,.985-2,2.2c0,2.304,4,5.133,4,5.133,0,0,4-2.829,4-5.133Zm2-3.2c1.381,0,2.5-1.119,2.5-2.5s-1.119-2.5-2.5-2.5-2.5,1.119-2.5,2.5,1.119,2.5,2.5,2.5Zm-12,3.2c0-.809,.229-1.558,.608-2.2h-1.608c-1.39,.125-2.536,1.22-2.711,2.628L.867,20H3v4h2v-4h2v4h2v-4h2.133l-.669-5.313c-1.413-1.06-4.464-3.675-4.464-6.487Zm7.536,6.487l-.669,5.313h2.133s0,4,0,4h2v-4s2,0,2,0v4h2v-4s2.133,0,2.133,0l-1.422-11.372c-.175-1.408-1.32-2.503-2.711-2.628h-1.608c.379,.642,.608,1.391,.608,2.2,0,2.812-3.051,5.426-4.464,6.487Z"/>
</svg>
