<?xml version="1.0" encoding="UTF-8"?>
<svg xmlns="http://www.w3.org/2000/svg" id="Layer_1" data-name="Layer 1" viewBox="0 0 24 24">
  <path d="M21.364,23.864l-1.414-1.414c2.729-2.729,2.729-7.171,0-9.9l1.414-1.414c3.509,3.51,3.509,9.219,0,12.729Zm-2.83-9.898l-1.414,1.414c.566,.566,.878,1.319,.878,2.12s-.312,1.554-.878,2.12l1.414,1.414c1.949-1.948,1.949-5.12,0-7.068Zm-3.258-2.826l.724,1.648v2.212h-2.33l-.448,3.394c-.197,1.486-1.476,2.606-2.975,2.606h-2.247v3H0V.411C.477,.276,.962,.174,1.453,.106c0,0,0,0,0,0h0C5.491-.443,9.363,1.164,11.8,4.419c1.182,1.46,2.296,4.016,3.476,6.721Z"/>
</svg>
