<?xml version="1.0" encoding="UTF-8"?>
<svg xmlns="http://www.w3.org/2000/svg" id="Layer_1" data-name="Layer 1" viewBox="0 0 24 24">
  <path d="m13,15h-2v-6h2v6Zm-9-.646c0-.411.247-.776.629-.928l2.485-.994c1.146-.458,1.886-1.552,1.886-2.786v-.646h-2v.646c0,.411-.247.776-.629.928l-2.485.994c-1.146.458-1.886,1.552-1.886,2.786v.646h2v-.646Zm18,0c0-1.233-.74-2.327-1.886-2.786l-2.485-.994c-.382-.153-.629-.518-.629-.929v-.646h-2v.646c0,1.233.74,2.327,1.886,2.786l2.485.994c.382.153.629.518.629.929v.646h2v-.646ZM3.462,20c1.105,0,2-.895,2-2s-.895-2-2-2-2,.895-2,2,.895,2,2,2Zm8.5,0c1.105,0,2-.895,2-2s-.895-2-2-2-2,.895-2,2,.895,2,2,2Zm8.5,0c1.105,0,2-.895,2-2s-.895-2-2-2-2,.895-2,2,.895,2,2,2Zm-13.5,3c0-1.103-.897-2-2-2H1.961c-1.103,0-2,.897-2,2v1h7v-1Zm17,0c0-1.103-.897-2-2-2h-3c-1.103,0-2,.897-2,2v1h7v-1Zm-8.5,0c0-1.103-.897-2-2-2h-3c-1.103,0-2,.897-2,2v1h7v-1Zm-3.5-19c1.105,0,2-.895,2-2s-.895-2-2-2-2,.895-2,2,.895,2,2,2Zm3.538,3c0-1.103-.897-2-2-2h-3c-1.103,0-2,.897-2,2v1h7v-1Z"/>
</svg>
