<?xml version="1.0" encoding="UTF-8"?>
<svg xmlns="http://www.w3.org/2000/svg" id="Layer_1" data-name="Layer 1" viewBox="0 0 24 24">
  <path d="m24,17c0,3.86-3.141,7-7,7v-2c2.757,0,5-2.243,5-5h2Zm-5.269-6.731l-8.452,8.464-.662-.663c-2.845-2.85-3.965-4.091-6.427-7.388-1.477-1.978-1.561-4.521-.315-6.393L.075,1.489,1.489.075l2.795,2.795c1.837-1.234,4.334-1.16,6.388.285,2.761,1.943,4.443,3.493,7.399,6.453l.66.661Zm-7.731-.769c0-.828-.672-1.5-1.5-1.5s-1.5.672-1.5,1.5.672,1.5,1.5,1.5,1.5-.672,1.5-1.5Zm8.235,3.095l-6.634,6.645c1.381,1.041,2.494,1.799,2.494,1.799l5.944-5.944s-.76-1.116-1.804-2.5Z"/>
</svg>
