<?xml version="1.0" encoding="UTF-8"?>
<svg xmlns="http://www.w3.org/2000/svg" id="Layer_1" data-name="Layer 1" viewBox="0 0 24 24">
  <path d="M11,6h2v7H7v-2h4V6ZM2,12H0c0,5.579,3.832,10.268,9,11.604v-2.07c-4.051-1.278-7-5.065-7-9.534Zm0-3H7v-2H3.335c1.765-3.079,5.025-5,8.665-5,5.514,0,10,4.486,10,10,0,.371-.039,.733-.078,1.093,.706,.132,1.358,.411,1.926,.807,.099-.619,.152-1.253,.152-1.9C24,5.383,18.617,0,12,0,7.89,0,4.189,2.044,2,5.362V2H0V7c0,1.103,.897,2,2,2Zm14.562,8.75c0-1.517-1.233-2.75-2.75-2.75h-2.812v2h2.812c.413,0,.75,.336,.75,.75s-.337,.75-.75,.75h-1.812v2h2.25c.413,0,.75,.336,.75,.75s-.337,.75-.75,.75h-3.25v2h3.25c1.517,0,2.75-1.233,2.75-2.75,0-.794-.343-1.505-.884-2.008,.28-.431,.446-.942,.446-1.492Zm7.438,.25v3c0,1.654-1.346,3-3,3s-3-1.346-3-3v-3c0-1.654,1.346-3,3-3s3,1.346,3,3Zm-2,0c0-.551-.448-1-1-1s-1,.449-1,1v3c0,.551,.448,1,1,1s1-.449,1-1v-3Z"/>
</svg>
