<?xml version="1.0" encoding="UTF-8"?>
<svg xmlns="http://www.w3.org/2000/svg" id="Layer_1" data-name="Layer 1" viewBox="0 0 24 24">
  <path d="M3,7h-.5c-1.379,0-2.5-1.122-2.5-2.5V0H2V4.5c0,.276,.225,.5,.5,.5h.5V0h2V5h.5c.275,0,.5-.224,.5-.5V0h2V4.5c0,1.378-1.121,2.5-2.5,2.5h-.5v5H3V7ZM22.782,.186c-.816,.683-2.176,2.451-2.28,4.944-.032,1.289,.361,2.712,1.498,4.122v2.749h2V.597c-.004-.51-.75-.813-1.218-.411Zm-.782,13.814h2v7h-1.625l-3.375-3.515v6.515H8v-6.53l-3.419,3.53h-1.581v-7h2v3.693l2.398-2.476c.748-.773,1.795-1.217,2.872-1.217h6.451c1.083,0,2.134,.448,2.885,1.229l2.394,2.493v-3.722ZM9,7.5c0-2.481,2.019-4.5,4.5-4.5s4.5,2.019,4.5,4.5-2.019,4.5-4.5,4.5-4.5-2.019-4.5-4.5Z"/>
</svg>
