<?xml version="1.0" encoding="UTF-8"?>
<svg xmlns="http://www.w3.org/2000/svg" id="Layer_1" data-name="Layer 1" viewBox="0 0 24 24">
  <path d="m19.221,8.919c-.047.069-.188.281.066.881.086.203.173.395.258.583.469,1.038.954,2.11.955,4.116,0,3.658-1.626,7.993-4.738,9.198-.523.202-1.084.303-1.693.303-.48,0-.99-.062-1.535-.188-6.277-1.443-10.498-5.797-10.53-10.846.013-2.144,1.251-3.955,2.969-4.65C4.687,3.253,1.325,1.999,1.177,1.946L1.816.051c.202.067,4.713,1.66,5.141,7.982,1.895.163,3.063,1.279,3.554,1.88-.014.968-.352,3.91-3.85,5.436.312.576.729,1.125,1.234,1.635,3.431-1.695,4.543-4.81,4.661-6.796.079-.171,2.024-4.188,9.395-4.188h2.044l.005.005v2c-3.513-.024-4.586.625-4.779.915Zm-11.813-2.863c1.957.241,3.326,1.225,4.149,2.042.947-1.166,3.016-2.855,6.351-3.657l1.925-2.887-1.664-1.109-1.475,2.212c-.498-.281-1.058-.481-1.693-.576V0h-2v2.087c-.711.104-1.353.313-1.938.593l-1.447-2.294-1.691,1.066,1.462,2.319c-.86.734-1.522,1.572-1.978,2.286Z"/>
</svg>
