<?xml version="1.0" encoding="UTF-8"?>
<svg xmlns="http://www.w3.org/2000/svg" id="Layer_1" data-name="Layer 1" viewBox="0 0 24 24">
  <path d="M20,14.748h0c0,.66-.388,1.258-.991,1.527l-2.009,.826v2.899h-2v4h-6v-3.61l-3,1.233c-1.106,.493-2.354-.316-2.354-1.527,0-.66,.388-1.258,.991-1.527l13.009-5.348c1.106-.493,2.354,.316,2.354,1.527Zm-2.354-7.009L4.637,13.087c-.603,.269-.991,.867-.991,1.527,0,1.211,1.247,2.021,2.354,1.527l13.009-5.348c.603-.269,.991-.867,.991-1.527,0-1.211-1.247-2.021-2.354-1.527Zm-11.646,3.027l13.009-5.348c.603-.269,.991-.867,.991-1.527,0-1.211-1.247-2.021-2.354-1.527L4.637,7.712c-.603,.269-.991,.867-.991,1.527,0,1.211,1.247,2.021,2.354,1.527Zm0-5.482l5.009-2.083c.603-.269,.991-.867,.991-1.527,0-1.211-1.247-2.021-2.354-1.527L4.637,2.23c-.603,.269-.991,.867-.991,1.527,0,1.211,1.247,2.021,2.354,1.527Z"/>
</svg>
