<?xml version="1.0" encoding="UTF-8"?>
<svg xmlns="http://www.w3.org/2000/svg" id="Layer_1" data-name="Layer 1" viewBox="0 0 24 24">
  <path d="m18,12c-3.308,0-6,2.692-6,6s2.692,6,6,6,6-2.692,6-6-2.692-6-6-6Zm1,10h-2v-2h2v2Zm0-3h-2v-5h2v5Zm-7.07,4.202c-.888.427-1.517.644-1.613.676l-.368.122-.354-.157c-.392-.173-9.594-4.328-9.594-11.852v-6.51c0-1.293.828-2.441,2.056-2.848L10,0l7.944,2.634c1.227.407,2.056,1.555,2.056,2.848v4.781c-.64-.165-1.308-.262-2-.262-4.418,0-8,3.582-8,8,0,1.988.729,3.803,1.93,5.202Z"/>
</svg>
