<?xml version="1.0" encoding="UTF-8"?>
<svg xmlns="http://www.w3.org/2000/svg" id="Layer_1" data-name="Layer 1" viewBox="0 0 24 24">
  <path d="M22.975,14c-6.004,0-8.8,4.077-9.973,6.672v-4.866c.884-.373,1.505-1.248,1.505-2.268l-.496-2.232,1.724,1.502c1.194,.65,2.689,.208,3.339-.986,.65-1.194,.208-2.689-.986-3.339l-1.686-.484,1.686-.484c1.194-.65,1.636-2.144,.986-3.339-.65-1.194-2.144-1.636-3.339-.986l-1.724,1.502,.496-2.232c0-1.359-1.102-2.461-2.462-2.461s-2.461,1.102-2.461,2.461l.496,2.232-1.724-1.502c-1.194-.65-2.689-.208-3.338,.986s-.208,2.689,.986,3.339l1.686,.484-1.686,.484c-1.194,.65-1.636,2.144-.986,3.339s2.144,1.636,3.338,.986l1.724-1.502-.496,2.232c0,.985,.583,1.829,1.418,2.222v4.912c-1.172-2.596-3.969-6.672-9.973-6.672H.004l.127,1.124c.794,7.021,7.367,8.876,10.731,8.876h2.28c3.365,0,9.936-1.855,10.731-8.876l.127-1.124h-1.025Zm-12.975-6c0-1.105,.895-2,2-2s2,.895,2,2-.895,2-2,2-2-.895-2-2Z"/>
</svg>
