<?xml version="1.0" encoding="UTF-8"?>
<svg xmlns="http://www.w3.org/2000/svg" id="Layer_1" data-name="Layer 1" viewBox="0 0 24 24">
  <path d="M18.781,21h2.219v2h-3.781l-1.5-6h-5.719c-1.654,0-3-1.346-3-3v-6h2v3h6v2h-6v1c0,.551,.449,1,1,1h7.281l1.5,6ZM8,6c1.379,0,2.5-1.121,2.5-2.5s-1.121-2.5-2.5-2.5-2.5,1.121-2.5,2.5,1.121,2.5,2.5,2.5ZM24,0h-5V2h2.086l-2.086,2.086v1.914h5v-2h-2.086l2.086-2.086V0Zm-6,7h-2.086l2.086-2.086v-1.914h-5v2h2.086l-2.086,2.086v1.914h5v-2ZM5,14v-4.562C1.645,10.629-.623,14.133,.152,18.03c.577,2.903,2.915,5.24,5.818,5.818,3.896,.775,7.401-1.493,8.592-4.848h-4.562c-2.761,0-5-2.239-5-5Z"/>
</svg>
