<?xml version="1.0" encoding="UTF-8"?>
<svg xmlns="http://www.w3.org/2000/svg" id="Layer_1" data-name="Layer 1" viewBox="0 0 24 24">
  <path d="m17.765,7.656l2.827-2.832c.282.11.587.176.908.176,1.381,0,2.5-1.119,2.5-2.5s-1.119-2.5-2.5-2.5-2.5,1.119-2.5,2.5c0,.322.066.627.177.91l-2.82,2.825-3.299-3.329-1.42,1.407,3.306,3.337-5.231,5.241-4.129-4.163,1.296-1.296-1.414-1.414L1.467,10.018l1.414,1.414,1.29-1.29,2.278,2.296-4.538,4.491c-.587.587-.91,1.367-.91,2.198,0,.701.242,1.358.667,1.901L.018,22.677v1.323s1.323,0,1.323,0l1.653-1.653c.535.403,1.177.632,1.859.632.831,0,1.611-.323,2.193-.906l4.521-4.474,3.468,3.496c.584.583,1.36.905,2.187.905s1.603-.322,2.186-.906l3.688-3.687c1.205-1.206,1.205-3.167.003-4.369l-5.333-5.383Zm-1.412,1.415l2.127,2.147-5.233,5.233-2.124-2.141,5.23-5.24Zm5.328,6.923l-3.688,3.687c-.413.413-1.135.409-1.541.003l-1.797-1.812,5.232-5.232,1.794,1.81c.426.426.426,1.119,0,1.544Z"/>
</svg>
