<?xml version="1.0" encoding="UTF-8"?>
<svg xmlns="http://www.w3.org/2000/svg" id="Layer_1" data-name="Layer 1" viewBox="0 0 24 24">
  <path d="m9,15.5c0,.827-.673,1.5-1.5,1.5s-1.5-.673-1.5-1.5.673-1.5,1.5-1.5,1.5.673,1.5,1.5Zm15,2.167c0,2.51-1.923,4.615-4.5,5.179v1.154h-2v-1H7.5c-.34,0-.672-.031-1-.075v1.075h-2v-1.63c-2.646-1.16-4.5-3.801-4.5-6.87,0-2.68,1.417-5.029,3.537-6.356l-1.275-4.144H0v-2h7v2h-2.646l1.019,3.312c.675-.2,1.388-.312,2.127-.312,2.438,0,3.479.415,5.759,1.325.724.289,1.602.638,2.707,1.048,1.192-4.12,1.535-7.438,1.539-7.473l.091-.9h3.789l.584-2h2.031l-1.037,4h-3.58c-.185,1.32-.631,3.959-1.535,7.05.46.161.941.326,1.469.502,3.169,1.266,4.684,3.259,4.684,6.115Zm-10-3.167h-3.163c-.434-1.441-1.757-2.5-3.337-2.5-1.93,0-3.5,1.57-3.5,3.5s1.57,3.5,3.5,3.5c1.58,0,2.903-1.059,3.337-2.5h3.163v-2Z"/>
</svg>
