<?xml version="1.0" encoding="UTF-8"?>
<svg xmlns="http://www.w3.org/2000/svg" id="Layer_1" data-name="Layer 1" viewBox="0 0 24 24">
  <path d="m17.613,12.848l6.265,6.266-3.171,3.171c-1.105,1.106-2.6,1.716-4.207,1.716C9.252,24,0,14.748,0,7.5c0-1.608.609-3.103,1.716-4.208L4.887.122l6.265,6.265-4.125,4.125c1.373,3.061,3.493,5.186,6.453,6.468l4.133-4.132Zm1.387-12.848c-2.761,0-5,2.239-5,5s2.239,5,5,5,5-2.239,5-5S21.761,0,19,0Zm1.293,7.707l-2.293-2.293v-3.414h2v2.586l1.707,1.707-1.414,1.414Z"/>
</svg>
