<?xml version="1.0" encoding="UTF-8"?>
<svg xmlns="http://www.w3.org/2000/svg" id="Layer_1" data-name="Layer 1" viewBox="0 0 24 24">
  <path d="m4,19.872l-3.354-3.461c-.713-.715-.88-1.87-.276-2.68.63-.845,1.741-1.031,2.584-.561.201.131.353.245.441.333l.605.615v5.753Zm15-8.872V2.5c0-.828-.672-1.5-1.5-1.5s-1.5.672-1.5,1.5v8.5h3Zm5,0v-6.5c0-.828-.672-1.5-1.5-1.5s-1.5.672-1.5,1.5v6.5h3Zm-10,0V1.5c0-.828-.672-1.5-1.5-1.5s-1.5.672-1.5,1.5v9.5h3Zm-5,0V3.58c0-.747-.511-1.44-1.248-1.56-.94-.153-1.752.568-1.752,1.479v7.5h3Zm10.282,4.083l4.718,4.258v-6.341h-2.547l-2.171,2.083Zm-4.851-2.083l-8.431,7.889v1.047l1.567,1.617,10.997-10.553h-4.133Zm3.928,11l-4.293-3.912-4.076,3.912h8.37Zm-6.857-11h-5.503v5.149l5.503-5.149Zm6.333,3.471l-2.322,2.229,5.817,5.3h2.67v-1.965l-6.164-5.563Z"/>
</svg>
