<?xml version="1.0" encoding="UTF-8"?>
<svg xmlns="http://www.w3.org/2000/svg" id="Layer_1" data-name="Layer 1" viewBox="0 0 24 24">
  <path d="M24,10v5h-2v-3.586l-3.414,3.414c-.372,.372-.586,.888-.586,1.414v7.758h-2v-7.758c0-1.053,.427-2.084,1.172-2.828l3.414-3.414h-3.586v-2h5c1.103,0,2,.897,2,2Zm-20.547,0h3.586v-2H2.039C.936,8,.039,8.897,.039,10v5H2.039v-3.586l3.414,3.414c.373,.372,.586,.888,.586,1.414v7.758h2v-7.758c0-1.053-.427-2.084-1.172-2.828l-3.414-3.414Zm13.708-5.651L13.557,.703c-.8-.895-2.368-.871-3.127-.023l-3.562,3.719,1.444,1.383,2.688-2.806V24h2V3.018l2.736,2.737,1.424-1.406Z"/>
</svg>
