<?xml version="1.0" encoding="UTF-8"?>
<svg xmlns="http://www.w3.org/2000/svg" id="Layer_1" data-name="Layer 1" viewBox="0 0 24 24">
  <path d="m10.643,11l1.157-3.886c.089-.137.311-.136.399,0l1.159,3.886h-2.715Zm3.312,2h-3.907l-.596,2h5.099l-.596-2Zm10.045-1.001c0,.867-.337,1.683-.95,2.296l-8.756,8.755c-.633.633-1.464.949-2.296.949s-1.662-.316-2.295-.949L.948,14.294C.334,13.682-.003,12.866-.003,11.999c0-.867.337-1.682.95-2.295L9.703.949c1.266-1.266,3.325-1.266,4.591,0l8.755,8.755c.613.613.951,1.428.951,2.295Zm-6,3.001h-1.362l-2.598-8.678c-.37-.809-1.152-1.311-2.041-1.311s-1.671.502-2.041,1.311l-2.594,8.678h-1.366v2h12v-2Z"/>
</svg>
