<?xml version="1.0" encoding="UTF-8"?>
<svg xmlns="http://www.w3.org/2000/svg" id="Layer_1" data-name="Layer 1" viewBox="0 0 24 24">
  <path d="M18,12c-3.309,0-6,2.691-6,6s2.691,6,6,6,6-2.691,6-6-2.691-6-6-6Zm4,6c0,.74-.215,1.424-.567,2.019l-5.453-5.452c.595-.351,1.28-.567,2.019-.567,2.206,0,4,1.794,4,4Zm-8,0c0-.74,.215-1.424,.567-2.019l5.453,5.452c-.595,.351-1.28,.567-2.019,.567-2.206,0-4-1.794-4-4Zm-1.279,6H0V11c0-1.654,1.346-3,3-3h7.5c1.5,0,1.5-.531,1.5-1,0-2.761-2.239-5-5-5-2.419,0-4.436,1.718-4.899,4H.08C.568,2.613,3.481,0,7,0c3.86,0,7,3.14,7,7v4.079c-2.389,1.384-4,3.962-4,6.921,0,2.393,1.056,4.534,2.721,6Z"/>
</svg>
