<?xml version="1.0" encoding="UTF-8"?>
<svg xmlns="http://www.w3.org/2000/svg" id="Layer_1" data-name="Layer 1" viewBox="0 0 24 24">
  <path d="m8.5,0C5.467,0,3,2.467,3,5.5s2.467,5.5,5.5,5.5,5.5-2.467,5.5-5.5S11.533,0,8.5,0Zm0,7c-.828,0-1.5-.672-1.5-1.5s.672-1.5,1.5-1.5,1.5.672,1.5,1.5-.672,1.5-1.5,1.5Zm15.5,13.857s-4.667,3.143-12,3.143S.009,18.762.009,18.762C.009,16.862.268,13.049,1.968,9.174c1.046,1.852,2.852,3.219,4.995,3.667-.098,1.184-.293,2.329-.676,3.293,1.402-1.282,3.836-3.133,6.213-3.133,2.125,0,4.122,1.94,4.14,1.96l1.492-1.332c-.043-.048-.523-.577-1.311-1.148.995-.743,2.303-1.48,3.602-1.48,2.095,0,3.577.5,3.577.5v9.357Z"/>
</svg>
