<?xml version="1.0" encoding="UTF-8"?>
<svg xmlns="http://www.w3.org/2000/svg" id="Layer_1" data-name="Layer 1" viewBox="0 0 24 24">
  <path d="M23.821,11.181c-.878-1.92-4.321-8.181-11.821-8.181S1.057,9.261,.179,11.181c-.239,.521-.239,1.119,0,1.64,.878,1.918,4.321,8.179,11.821,8.179s10.943-6.261,11.821-8.181c.238-.52,.238-1.118,0-1.638Zm-11.821,5.819c-1.669,0-3.138-.826-4.046-2.083l1.503-1.503,1.5,1.5,2.707-2.707,1.293,1.293v-3.429c0-.316-.256-.571-.571-.571h-3.429l1.293,1.293-1.293,1.293-1.5-1.5-2.362,2.362c-.059-.307-.096-.623-.096-.947,0-2.761,2.239-5,5-5s5,2.239,5,5-2.239,5-5,5Z"/>
</svg>
