<?xml version="1.0" encoding="UTF-8"?>
<svg xmlns="http://www.w3.org/2000/svg" id="Layer_1" data-name="Layer 1" viewBox="0 0 24 24">
  <path d="M23,11c0-2.067-.584-3.996-1.58-5.65h0c-.346-.574-.74-1.114-1.182-1.614C18.222,1.451,15.28,0,12,0,5.935,0,1,4.935,1,11c0,4.162,1.591,8.74,2.492,11h-1.492v2h7.352s-2.352-9-2.352-13c0-2.761,2.239-5,5-5s5,2.239,5,5c0,4-2.2,13-2.2,13h7.2v-2h-1.492c.901-2.26,2.492-6.838,2.492-11Zm-18,0H3c0-1.841,.558-3.554,1.511-4.982l1.63,1.164c-.719,1.099-1.14,2.409-1.14,3.818Zm6-6.92c-1.335,.192-2.549,.758-3.531,1.594l-1.662-1.187c1.387-1.32,3.19-2.205,5.193-2.427v2.021Zm5.531,1.594c-.982-.836-2.196-1.402-3.531-1.594V2.059c2.003,.223,3.805,1.108,5.193,2.427l-1.662,1.187Zm1.329,1.509l1.63-1.164c.953,1.428,1.511,3.14,1.511,4.982h-2c0-1.408-.422-2.719-1.14-3.818Z"/>
</svg>
