<?xml version="1.0" encoding="UTF-8"?>
<svg xmlns="http://www.w3.org/2000/svg" id="Layer_1" data-name="Layer 1" viewBox="0 0 24 24">
  <path d="M4,2.5c0-1.381,1.119-2.5,2.5-2.5s2.5,1.119,2.5,2.5-1.119,2.5-2.5,2.5-2.5-1.119-2.5-2.5Zm13.5,2.5c1.381,0,2.5-1.119,2.5-2.5s-1.119-2.5-2.5-2.5-2.5,1.119-2.5,2.5,1.119,2.5,2.5,2.5Zm6.5,3h-3.641l1.5,10h-2.339l-.438,1.37,2.701,4.63h-2.315l-2.549-4.37-1.324,4.37h-2.087l1.805-6h-1.972l1.5-10h-6.68l-1.24,6h5.081v1.712l-2.086,5.694-1.827-.812,1.597-4.594H4.154l2.495,8h-2.104l-2.174-6.688c-.354-1.088-.435-2.258-.236-3.385l1.05-5.927H0V2H2V6H22V2h2v6Z"/>
</svg>
