<?xml version="1.0" encoding="UTF-8"?>
<svg xmlns="http://www.w3.org/2000/svg" id="Layer_1" data-name="Layer 1" viewBox="0 0 24 24">
  <path d="m22,12h2c0,6.617-5.383,12-12,12-4.055,0-7.794-2.058-9.995-5.368l-.005,2.368H0v-3.991c0-1.107.901-2.009,2.008-2.009h3.992v2h-2.637c1.776,3.06,5.052,5,8.637,5,5.514,0,10-4.486,10-10Zm0-9l-.005,2.355C19.806,2.04,16.106,0,12,0,5.383,0,0,5.383,0,12h2C2,6.486,6.486,2,12,2c3.64,0,6.9,1.921,8.665,5h-2.665v2h3.992c1.107,0,2.008-.901,2.008-2.009v-3.991h-2Zm-12,7.5v5.5h4.469l2.314,1.874c.135.086.281.126.424.126.411,0,.791-.327.792-.791l.002-6.709c0-.827-.673-1.5-1.5-1.5h-5c-.827,0-1.5.673-1.5,1.5Zm3.5-5.5h-6c-.827,0-1.5.673-1.5,1.5l.002,7.209c0,.463.381.791.792.791.142,0,.288-.039.424-.126l.783-.634v-3.24c0-1.93,1.57-3.5,3.5-3.5h3.5v-.5c0-.827-.673-1.5-1.5-1.5Z"/>
</svg>
