<?xml version="1.0" encoding="UTF-8"?>
<svg xmlns="http://www.w3.org/2000/svg" id="Layer_1" data-name="Layer 1" viewBox="0 0 24 24">
  <path d="m0,22h4v2H0v-2Zm6,2h4v-2h-4v2Zm14-8H6c-2.206,0-4-1.794-4-4s1.794-4,4-4h3v-2h-3c-3.309,0-6,2.691-6,6s2.691,6,6,6h14c1.103,0,2,.897,2,2s-.897,2-2,2h-8v2h8c2.206,0,4-1.794,4-4s-1.794-4-4-4Zm-.5-9l-8.231,1.295-1.269,3.738c-.002.508,0,1.968,1.881,1.968.326,0,.651-.089.943-.267l11.104-6.735L12.827.267C12.57.11,12.289.003,12,.003,10,.003,10,1.64,10,1.96l1.256,3.784,8.244,1.256Z"/>
</svg>
