<?xml version="1.0" encoding="UTF-8"?>
<svg xmlns="http://www.w3.org/2000/svg" id="Layer_1" data-name="Layer 1" viewBox="0 0 24 24">
  <path d="m24,22v2h-10v-2c0-1.654,1.346-3,3-3h4c1.654,0,3,1.346,3,3Zm-9.5-6.5c0-.647.143-1.259.39-1.816-.594.199-1.215.316-1.852.316h-2.077c-1.056,0-2.082-.288-2.981-.818-.899.53-1.925.818-2.98.818h-1c-1.093,0-2.116-.297-3-.807v7.807c0,1.654,1.346,3,3,3h8v-2c0-2.023,1.209-3.771,2.941-4.557-.283-.588-.441-1.248-.441-1.943ZM21.619,0h-4.619v5h-2V0h-6v5h-2V0H2.381L0,6.949v1.09c0,2.185,1.794,3.961,4,3.961h1c1.194,0,2.254-.548,2.981-1.394.727.847,1.786,1.394,2.981,1.394h2.077c1.194,0,2.254-.547,2.981-1.394.293.341.651.615,1.038.843.589-.283,1.245-.449,1.943-.449.901,0,1.739.267,2.443.723,1.493-.575,2.557-2.005,2.557-3.684v-1.09l-2.381-6.949Zm-5.119,15.5c0,1.379,1.121,2.5,2.5,2.5s2.5-1.121,2.5-2.5-1.121-2.5-2.5-2.5-2.5,1.121-2.5,2.5Z"/>
</svg>
