<?xml version="1.0" encoding="UTF-8"?>
<svg xmlns="http://www.w3.org/2000/svg" id="Layer_1" data-name="Layer 1" viewBox="0 0 24 24">
  <path d="M17,12.013v8.115c0,1.004-.423,1.9-1,2.63v1.255h-6v-.4l-4.657-4.604c-.457-.457-.457-1.197,0-1.654,.457-.457,1.197-.457,1.654,0l1.003,1.003v-7.346c0-.552,.448-1,1-1,.552,0,1,.448,1,1v5h1.5v-6c0-.552,.448-1,1-1,.552,0,1,.448,1,1v6h1.5v-4c0-.552,.448-1,1-1s1,.448,1,1Zm-11-1c0-1.654,1.346-3,3-3,.387,0,.756,.074,1.096,.207,.472-.63,1.191-1.049,2.008-1.159l-2.692-2.692h1.419c1.524,.022,1.51-2.371,0-2.356H4.282L2.275,.013H0V6.271l.644,.644c.108,.924,.443,1.857,1.153,2.567l4.203,4.203v-2.672ZM24,.013l-4.218-.013-1.628,1.628c-.924,.108-1.857,.443-2.567,1.153l-2.468,2.468,5.075,5.075c.686,.688,.685,1.894,.685,1.894l1.821-1.821v1.419c0,.646,.524,1.17,1.17,1.17,.646,0,1.17-.524,1.17-1.17l-.038-6.549,.999-.999V.013Z"/>
</svg>
