<?xml version="1.0" encoding="UTF-8"?>
<svg xmlns="http://www.w3.org/2000/svg" id="Layer_1" data-name="Layer 1" viewBox="0 0 24 24">
  <path d="m21.406,15.581l2.507,2.507-1.414,1.414-1.499-1.499v2.997c0,1.654-1.346,3-3,3h-6v-2h6c.551,0,1-.449,1-1v-3.006l-1.499,1.508-1.414-1.414,2.506-2.506c.775-.775,2.038-.775,2.812,0ZM4,9c.509,0,1.019-.193,1.406-.581l2.506-2.506-1.414-1.414-1.499,1.508v-3.006c0-.551.449-1,1-1h6V0h-6c-1.654,0-3,1.346-3,3v2.997l-1.499-1.499L.087,5.913l2.507,2.507c.387.387.896.581,1.406.581Zm3,4c0-.718-.845-1.745-1.437-2.689-.26-.415-.867-.415-1.127,0-.591.944-1.437,1.971-1.437,2.689,0,1.105.895,2,2,2s2-.895,2-2Zm16-3v-4h0v-1.179s0-4.821-5.424-4.821c-.508,2.034-1.417,2.781-2.774,3.326-.481.193-.802.656-.802,1.174v1.5s4,0,4,0c-.346,3.462-2.5,5-4,5v2h10v-2s-1,0-1-1Zm-16.5,7h1.5v-2H2v2h1.5c0,3-2,5-2,5H0v2h10v-2h-1.5s-2-2-2-5Z"/>
</svg>
