<?xml version="1.0" encoding="UTF-8"?>
<svg xmlns="http://www.w3.org/2000/svg" id="Layer_1" data-name="Layer 1" viewBox="0 0 24 24">
  <path d="M18.789,23.957l-.578-1.914c2-.604,3.252-1.855,3.829-3.824l1.92,.562c-.771,2.631-2.511,4.373-5.171,5.176ZM5.789,1.958L5.211,.042C2.626,.823,.789,2.662,.04,5.219l1.92,.562c.561-1.915,1.885-3.237,3.829-3.824Zm12.822,1.475c-.586-.586-1.536-.586-2.121,0l-1.342,1.342c.73,.89,1.084,2.058,.869,3.224-.013,.072-.042,.138-.059,.209l2.654-2.654c.586-.586,.586-1.536,0-2.121Zm-7.173-.605l1.516-1.516c.586-.586,1.536-.586,2.121,0,.586,.586,.586,1.536,0,2.121l-.652,.652c-.344-.258-.726-.475-1.151-.619l-1.834-.639Zm7.763,13.578l-3.054,3.054c-1.055,1.055-2.375,1.821-3.814,2.213l-1.688,.461-1.867,1.867H0V15.808l2.816-2.816,2.234-6.695c.588-1.763,2.504-2.704,4.259-2.093l3.307,1.151c.956,.325,1.618,1.287,1.435,2.28-.191,1.036-1.104,1.696-2.069,1.648-.087-.01-.166-.022-.238-.034l-3.167-1.123-.632,1.899c.318,.118,2.71,1.007,3.131,1.109,.451,.11,.94,.151,1.005,.151,.747,0,1.451-.211,2.056-.575l.003,.19c.099,.631,.363,1.237,.821,1.739,.543,.595,1.241,.957,1.972,1.087,.121,.682,.444,1.334,.969,1.859,.379,.379,.825,.653,1.3,.821Zm4.36-4.36l-2.121,2.121c-.586,.586-1.536,.586-2.121,0s-.586-1.536,0-2.121l2.121-2.121c.586-.586,1.536-.586,2.121,0s.586,1.536,0,2.121Zm-7.071-.707c-.586-.586-.586-1.536,0-2.121l2.828-2.828c.586-.586,1.536-.586,2.121,0,.586,.586,.586,1.536,0,2.121l-2.828,2.828c-.586,.586-1.536,.586-2.121,0Z"/>
</svg>
