<?xml version="1.0" encoding="UTF-8"?>
<svg xmlns="http://www.w3.org/2000/svg" id="Layer_1" data-name="Layer 1" viewBox="0 0 24 24">
  <path d="M5,17c1.105,0,2,.895,2,2s-.895,2-2,2-2-.895-2-2,.895-2,2-2Zm12,2c0,1.105,.895,2,2,2s2-.895,2-2-.895-2-2-2-2,.895-2,2Zm-1.859-1h-6.283c.083,.321,.141,.653,.141,1s-.058,.679-.141,1h6.283c-.083-.321-.141-.653-.141-1s.058-.679,.141-1Zm-5.141-9.993c0,1.336-.52,2.591-1.464,3.535l-3.536,3.458-3.528-3.45c-.952-.952-1.472-2.207-1.472-3.543s.52-2.591,1.464-3.535,2.2-1.465,3.536-1.465,2.591,.521,3.536,1.465c.944,.944,1.464,2.199,1.464,3.535Zm-3,0c0-1.105-.895-2-2-2s-2,.895-2,2,.895,2,2,2,2-.895,2-2Zm17,0c0,1.336-.52,2.591-1.464,3.535l-3.536,3.458-3.528-3.45c-.952-.952-1.472-2.207-1.472-3.543s.52-2.591,1.464-3.535,2.2-1.465,3.536-1.465,2.591,.521,3.536,1.465c.944,.944,1.464,2.199,1.464,3.535Zm-3,0c0-1.105-.895-2-2-2s-2,.895-2,2,.895,2,2,2,2-.895,2-2Z"/>
</svg>
