<?xml version="1.0" encoding="UTF-8"?>
<svg xmlns="http://www.w3.org/2000/svg" id="Layer_1" data-name="Layer 1" viewBox="0 0 24 24">
  <path d="m12.954,17h-4.907c-1.13,0-2.046.916-2.046,2.046v4.907c0,.026.021.046.046.046h8.907c.026,0,.046-.021.046-.046v-4.907c0-1.13-.916-2.046-2.046-2.046Zm-1,4h-2.907c-.026,0-.046-.021-.046-.046v-1.907c0-.026.021-.046.046-.046h2.907c.026,0,.046.021.046.046v1.907c0,.026-.021.046-.046.046Zm12.046-12h-4.473c-.017,0-.03.004-.038.019-.116.205-1.135,2.007-1.332,2.337-1.142,1.909-3.076,3.111-3.377,3.291-.386.231-.829.354-1.279.354-1.452,0-2.756-1.279-2.456-3.014.123-.71.619-1.288,1.231-1.669.88-.548,1.725-1.341,1.725-2.318,0-1.202-1.067-2.16-2.303-1.978-1.007.149-1.697,1.11-1.697,2.128v5.994c0,1.203-1.062,2.158-2.3,1.978-1.007-.146-1.7-1.105-1.7-2.122v-7.954c0-3.339,2.707-6.046,6.046-6.046h11.954v9ZM4,13.731c-.722.414-1.67.361-2.352-.261-.752-.686-.789-1.867-.218-2.711l2.57-3.799v6.77Zm0-6.984l-1.175.534c-1.095.498-2.404-.074-2.753-1.275-.284-.978.302-2.005,1.229-2.426l3.926-1.785c-.773,1.235-1.227,2.689-1.227,4.251v.701Z"/>
</svg>
