<?xml version="1.0" encoding="UTF-8"?>
<svg xmlns="http://www.w3.org/2000/svg" id="Layer_1" data-name="Layer 1" viewBox="0 0 24 24">
  <path d="m16.243,7.757c-1.133-1.133-2.64-1.757-4.243-1.757s-3.109.624-4.243,1.757l-1.414-1.414c1.511-1.511,3.52-2.343,5.657-2.343s4.146.832,5.657,2.343l-1.414,1.414Zm1.414,9.9l-1.414-1.414c-2.34,2.34-6.146,2.34-8.485,0l-1.414,1.414c1.56,1.56,3.608,2.34,5.657,2.34s4.097-.78,5.657-2.34Zm-1.657-5.657c0-2.206-1.794-4-4-4s-4,1.794-4,4,1.794,4,4,4,4-1.794,4-4Zm-2,0c0,1.103-.897,2-2,2s-2-.897-2-2,.897-2,2-2,2,.897,2,2Zm6.485-8.485C15.807-1.164,8.193-1.164,3.515,3.515l1.414,1.414c3.899-3.898,10.243-3.898,14.143,0l1.414-1.414Zm0,16.971l-1.414-1.414c-3.899,3.898-10.243,3.898-14.143,0l-1.414,1.414c2.339,2.34,5.413,3.509,8.485,3.509s6.146-1.169,8.485-3.509Zm-3.485-10.485h2v6h2v-6h2v-2h-6v2Zm-12,6v-8h-2v8h2Z"/>
</svg>
