<?xml version="1.0" encoding="UTF-8"?>
<svg xmlns="http://www.w3.org/2000/svg" id="Layer_1" data-name="Layer 1" viewBox="0 0 24 24">
  <path d="M12,16.875s-5-3.37-5-6.25c0-1.519,1.119-2.625,2.5-2.625s2.5,.981,2.5,2.5c0-1.519,1.119-2.5,2.5-2.5s2.5,1.106,2.5,2.625c0,2.88-5,6.25-5,6.25ZM.009,10.365c.199-1.461,.67-2.839,1.374-4.119-.3-.516-.485-1.107-.485-1.746,0-1.93,1.57-3.5,3.5-3.5,.637,0,1.227,.184,1.742,.482C7.425,.777,8.808,.309,10.264,.111l.27,1.981c-1.044,.142-2.043,.452-2.985,.909,.218,.456,.35,.96,.35,1.499,0,1.93-1.57,3.5-3.5,3.5-.539,0-1.043-.132-1.499-.351-.456,.939-.765,1.937-.908,2.986L.009,10.365ZM16.35,3.001c-.942-.457-1.942-.767-2.985-.909l.27-1.981c1.455,.198,2.838,.666,4.124,1.372,.515-.299,1.105-.482,1.742-.482,1.93,0,3.5,1.57,3.5,3.5,0,.638-.185,1.229-.484,1.745,.704,1.28,1.175,2.659,1.374,4.12l-1.982,.27c-.142-1.048-.452-2.046-.908-2.985-.456,.218-.961,.351-1.499,.351-1.93,0-3.5-1.57-3.5-3.5,0-.538,.132-1.043,.35-1.499ZM7.548,20.999c.942,.457,1.941,.767,2.985,.909l-.27,1.981c-1.456-.198-2.838-.667-4.123-1.372-.515,.299-1.105,.482-1.742,.482-1.93,0-3.5-1.57-3.5-3.5,0-.639,.185-1.23,.485-1.746C.679,16.474,.208,15.096,.009,13.635l1.981-.271c.143,1.049,.452,2.047,.908,2.986,.456-.218,.961-.351,1.499-.351,1.93,0,3.5,1.57,3.5,3.5,0,.538-.132,1.043-.35,1.499Zm16.342-7.364c-.199,1.462-.67,2.84-1.374,4.12,.3,.516,.484,1.107,.484,1.745,0,1.93-1.57,3.5-3.5,3.5-.637,0-1.227-.184-1.742-.482-1.286,.705-2.669,1.174-4.124,1.372l-.27-1.981c1.044-.142,2.043-.452,2.985-.909-.218-.456-.35-.96-.35-1.499,0-1.93,1.57-3.5,3.5-3.5,.539,0,1.043,.132,1.499,.351,.456-.939,.766-1.937,.908-2.985l1.982,.27Z"/>
</svg>
