<?xml version="1.0" encoding="UTF-8"?>
<svg xmlns="http://www.w3.org/2000/svg" id="Layer_1" data-name="Layer 1" viewBox="0 0 24 24">
  <path d="m4,11.003c0-3.315,2.488-6.003,5.5-6.003h1.486c-.074-1.903-.8-3.45-1.124-4.046L11.617-.003c.412.754,1.039,2.152,1.279,3.909.154-.839.497-1.914,1.263-2.668C15.589-.169,18,.007,18,.007c0,0-.034,2.562-1.464,3.969-.576.567-1.295.866-1.954,1.029,2.975.049,5.418,2.714,5.418,5.998,0,3.315-2.442,6.003-5.455,6.003-.92,0-1.785-.253-2.545-.696-.76.443-1.626.696-2.545.696-3.013,0-5.455-2.688-5.455-6.003Zm20,6.997H3c-1.654,0-3,1.346-3,3s1.346,3,3,3h21s-1-1.5-1-3,1-3,1-3Z"/>
</svg>
