<?xml version="1.0" encoding="UTF-8"?>
<svg xmlns="http://www.w3.org/2000/svg" id="Layer_1" data-name="Layer 1" viewBox="0 0 24 24">
  <path d="M5,12H3v-2c0-.374,.038-.738,.095-1.096l1.984,.315c-.041,.256-.079,.514-.079,.781v2Zm2.582-6.349l-.981-1.765c-1.116,.623-2.042,1.543-2.676,2.651l1.752,.999c.453-.791,1.109-1.44,1.906-1.884Zm2.418-.651h2V3h-2c-.367,0-.725,.037-1.077,.092l.31,1.986c.252-.039,.505-.078,.768-.078Zm11.5,15h-3c-1.208,0-2.217,.86-2.45,2h-.101c-.232-1.14-1.242-2-2.449-2h-3c-1.207,0-2.217,.86-2.449,2h-.101c-.232-1.14-1.242-2-2.45-2H2.5c-1.378,0-2.5,1.122-2.5,2.5v1.5H24v-1.5c0-1.378-1.122-2.5-2.5-2.5Zm-17.5-1c1.379,0,2.5-1.121,2.5-2.5s-1.121-2.5-2.5-2.5-2.5,1.121-2.5,2.5,1.121,2.5,2.5,2.5Zm5.5-2.5c0,1.381,1.119,2.5,2.5,2.5s2.5-1.119,2.5-2.5-1.119-2.5-2.5-2.5-2.5,1.119-2.5,2.5Zm13,0c0-1.381-1.119-2.5-2.5-2.5s-2.5,1.119-2.5,2.5,1.119,2.5,2.5,2.5,2.5-1.119,2.5-2.5Zm.25-13.5h-1.25l-1.929-2.421c-.195-.357-.569-.579-.975-.579h-1.096l1.184,3h-2.241l-1.11-.772c-.146-.146-.345-.228-.551-.228-.599,0-.974,.647-.677,1.167l1.546,1.833h3.017l-1.167,3h1.113c.407,0,.781-.222,.975-.579l1.911-2.421h2.5v-1c0-.552-.448-1-1.25-1Z"/>
</svg>
