<?xml version="1.0" encoding="UTF-8"?>
<svg xmlns="http://www.w3.org/2000/svg" id="Layer_1" data-name="Layer 1" viewBox="0 0 24 24">
  <path d="M17.497,9.385l-2.69-2.691,1.414-1.414,1.779,1.78V0h2V7.027l1.764-1.763,1.414,1.414-2.707,2.707c-.41,.41-.948,.614-1.487,.614s-1.076-.205-1.486-.614Zm6.503-.702v15.317H3.5c-1.933,0-3.5-1.567-3.5-3.5V6.5H.051c.24-1.416,1.466-2.5,2.949-2.5H13v2H3c-.552,0-1,.449-1,1s.448,1,1,1H13.285l2.811,2.811c1.595,1.595,4.181,1.595,5.776,0l2.128-2.128Zm-4,7.317c0-.828-.672-1.5-1.5-1.5s-1.5,.672-1.5,1.5,.672,1.5,1.5,1.5,1.5-.672,1.5-1.5Z"/>
</svg>
