<?xml version="1.0" encoding="UTF-8"?>
<svg xmlns="http://www.w3.org/2000/svg" id="Layer_1" data-name="Layer 1" viewBox="0 0 24 24">
  <path d="m18,5c1.381,0,2.5-1.119,2.5-2.5s-1.119-2.5-2.5-2.5-2.5,1.119-2.5,2.5,1.119,2.5,2.5,2.5Zm-3,7.982v-4.075l-3,2-3-2v4.075l-2.554-1.703c.07-.359.131-.651.18-.846.704-2.817,2.663-4.434,5.375-4.434s4.67,1.616,5.375,4.434c.049.195.11.487.18.846l-2.554,1.703Zm-10.315-3.034c-.498,1.992-2.306,14.052-2.306,14.052H-.036s1.763-11.721,2.224-13.566h0s0-.001,0-.001c.634-2.538,2.328-4.082,4.631-4.367-.991.988-1.737,2.287-2.135,3.882Zm19.351,14.052h-2.414s-1.808-12.06-2.306-14.052c-.399-1.595-1.145-2.895-2.135-3.882,2.304.285,3.997,1.829,4.631,4.367h0s0,.001,0,.001c.461,1.846,2.224,13.566,2.224,13.566Zm-6.098-10.572c.621,3.659,1.661,10.572,1.661,10.572H4.401s1.04-6.913,1.661-10.572l3.858,2.572h4.16l3.858-2.572ZM6,5c1.381,0,2.5-1.119,2.5-2.5S7.381,0,6,0s-2.5,1.119-2.5,2.5,1.119,2.5,2.5,2.5Zm6,0c1.381,0,2.5-1.119,2.5-2.5s-1.119-2.5-2.5-2.5-2.5,1.119-2.5,2.5,1.119,2.5,2.5,2.5Z"/>
</svg>
