<?xml version="1.0" encoding="UTF-8"?>
<svg xmlns="http://www.w3.org/2000/svg" id="Layer_1" data-name="Layer 1" viewBox="0 0 24 24">
  <path d="M24,6v2h-3v-2h3Zm0,4v14H3c-1.654,0-3-1.346-3-3V9c0-1.654,1.346-3,3-3h1v2h-1c-.551,0-1,.449-1,1s.449,1,1,1h3V3.753L12.5,0l6.5,3.753v6.247h5ZM10.5,5h-1v2.775l-1.539-2.775h-.961v5h1v-2.868l1.59,2.868h.91V5Zm3.501,2.011l-1.501-.004v-1.007h1.5v-1h-2.5v5h1v-1.993l1.499,.004,.003-1Zm.999-1h1v3.989h1v-3.989h1v-1h-3v1Zm5,10.989c0-.828-.672-1.5-1.5-1.5s-1.5,.672-1.5,1.5,.672,1.5,1.5,1.5,1.5-.672,1.5-1.5Z"/>
</svg>
