<?xml version="1.0" encoding="UTF-8"?>
<svg xmlns="http://www.w3.org/2000/svg" id="Layer_1" data-name="Layer 1" viewBox="0 0 24 24">
  <path d="M8.69,9h1.261l-.981,4.819c-.094,.485-.471,1.181-1.221,1.181s-1.132-.727-1.214-1.148l-1.036-4.852h1.31l.94,4.55,.94-4.55Zm8.53,3.047l-1.44-3.041v-.006h-1.28v6h1.28v-3.041l1.44,3.041h1.28v-6h-1.28v3.047Zm-3.242-1.097c0,1.094-.902,1.985-2.012,1.985l-.217,.003v2.062h-1.25v-6.034h1.467c1.109,0,2.012,.891,2.012,1.985Zm-1.25,0c0-.398-.349-.735-.762-.735h-.215l.005,1.473,.21-.003c.413,0,.762-.336,.762-.735Zm11.271,1.049c0,6.617-5.383,12-12,12S0,18.617,0,12,5.383,0,12,0s12,5.383,12,12Zm-2.051,1h-1.949v-2h1.949c-.43-4.306-3.604-7.808-7.741-8.746,.785,1.169,1.724,2.807,2.398,4.746h-2.148c-.764-1.916-1.776-3.48-2.459-4.4-.683,.92-1.695,2.484-2.459,4.4h-2.148c.674-1.939,1.613-3.577,2.398-4.746C5.646,3.193,2.469,6.708,2.049,11.026h2.349l.422,1.974H2.051c.43,4.306,3.604,7.808,7.741,8.746-.785-1.169-1.724-2.807-2.398-4.746h2.148c.764,1.916,1.776,3.48,2.459,4.4,.683-.92,1.695-2.484,2.459-4.4h2.148c-.673,1.939-1.613,3.577-2.398,4.746,4.137-.938,7.311-4.44,7.741-8.746Z"/>
</svg>
