<?xml version="1.0" encoding="UTF-8"?>
<svg xmlns="http://www.w3.org/2000/svg" id="Layer_1" data-name="Layer 1" viewBox="0 0 24 24">
  <path d="M0,22H24v2H0v-2Zm11.959-3.887c-6.859,0-11.017-2.004-11.058-2.024L.015,17.881c.184,.092,4.58,2.231,11.942,2.232t.004,0c7.362,0,11.758-2.141,11.942-2.232l-.887-1.792c-.041,.021-4.199,2.023-11.057,2.024Zm.043-6.615c.493,0,.987-.188,1.363-.563l3.094-3.094-1.414-1.414-2.043,2.043-.002-8.471h-2l.002,8.47-2.042-2.042-1.414,1.414,3.095,3.095c.375,.375,.869,.562,1.362,.562Zm-.007,4.501s.002,0,.004,0c7.314-.002,11.822-5.246,12.01-5.469l-1.528-1.29c-.041,.048-4.088,4.758-10.483,4.759-6.364,0-10.449-4.713-10.488-4.759L-.019,10.531c.188,.224,4.701,5.467,12.014,5.469Z"/>
</svg>
