<?xml version="1.0" encoding="UTF-8"?>
<svg xmlns="http://www.w3.org/2000/svg" id="Layer_1" data-name="Layer 1" viewBox="0 0 24 24">
  <path d="M8.697,5.217l-1.395-1.434L10.596,.576c.77-.769,2.039-.771,2.818,.01l3.283,3.197-1.395,1.434-2.303-2.243v5.026h-2V2.987l-2.303,2.229Zm3.375,11.936c-.535,.538-1.292,.85-2.084,.85-.086,0-.172-.004-.259-.012-.871-.071-1.672-.526-2.192-1.25-.843-1.167-.678-2.857,.389-3.926l2.533-2.473c-.457-.214-.956-.34-1.482-.34-1.004,0-2.573,.697-3.208,1H0v9H5.531l5.125,4h2.688l4.441-3.466-4.778-4.279-.935,.895Zm6.208-6.15c-.571-.336-2.29-1-3.28-1-.891,0-1.622,.296-2.288,.923l-3.369,3.302c-.371,.372-.455,.967-.181,1.347,.18,.25,.441,.4,.739,.425,.295,.025,.581-.082,.788-.29l2.309-2.142,7.188,6.436h3.814V11.003h-5.72Z"/>
</svg>
