<?xml version="1.0" encoding="UTF-8"?>
<svg xmlns="http://www.w3.org/2000/svg" id="Layer_1" data-name="Layer 1" viewBox="0 0 24 24">
  <path d="m12,0c-3.314,0-6,2.686-6,6s2.686,6,6,6,6-2.686,6-6S15.314,0,12,0Zm1.126,9.8h-.326v1.128c-.261.043-.526.072-.8.072s-.539-.03-.8-.073v-1.127h-.2c-1.201,0-2.189-.925-2.291-2.1h1.62c.086.289.354.5.671.5h2.126c.316,0,.574-.257.574-.574,0-.272-.194-.509-.462-.563l-2.791-.559c-1.013-.203-1.747-1.099-1.747-2.131,0-1.199.975-2.173,2.173-2.173h.327v-1.2h1.6v1.2h.2c1.201,0,2.189.925,2.291,2.1h-1.62c-.086-.289-.354-.5-.671-.5h-2.127c-.316,0-.573.257-.573.574,0,.272.194.509.461.562l2.792.559c1.013.202,1.747,1.099,1.747,2.131,0,1.199-.975,2.173-2.174,2.173Zm-3.964,5.772c-.274-.38-.19-.975.181-1.347l.531-.521c.678.188,1.389.296,2.126.296.189,0,.373-.015.559-.028l-1.87,1.735c-.207.208-.493.315-.788.29-.298-.024-.56-.175-.739-.425Zm14.838-4.572v9h-3.814l-6.838-6.123c1.972-.337,3.7-1.393,4.9-2.894.009.005.024.012.032.017h5.72Zm-10.993,5.255l4.778,4.279-4.441,3.466h-2.688l-5.125-4H0v-9h5.765c.592.737,1.314,1.363,2.128,1.852-1.033,1.07-1.189,2.732-.355,3.886.52.724,1.321,1.179,2.192,1.25.086.008.173.012.259.012.792,0,1.549-.312,2.084-.85l.935-.895Z"/>
</svg>
