<?xml version="1.0" encoding="UTF-8"?>
<svg xmlns="http://www.w3.org/2000/svg" id="Layer_1" data-name="Layer 1" viewBox="0 0 24 24">
  <path d="M18.065,15.463l.787,3.437h-1.757l.811-3.437c.009-.037,.041-.063,.079-.063s.071,.026,.079,.063Zm5.935-1.463v10H12V14c0-1.105,.895-2,2-2h8c1.105,0,2,.895,2,2Zm-3,8l-1.559-6.804c-.107-.464-.403-.886-.842-1.07-.919-.385-1.855,.155-2.056,1.021l-1.616,6.853h1.437l.401-1.7h2.409l.389,1.7h1.437ZM12,12H0V2C0,.895,.895,0,2,0H10c1.105,0,2,.895,2,2V12ZM9.5,3.065h-2.873v-1h-1.253v1H2.5v1.253H7.308c-.111,.963-.484,2.151-1.303,3.071-.36-.405-.644-.857-.847-1.325h-1.336c.265,.751,.668,1.487,1.223,2.123-.664,.403-1.495,.661-2.545,.661v1.253c1.462,0,2.615-.413,3.512-1.053,.894,.636,2.033,1.053,3.488,1.053v-1.253c-1.049,0-1.876-.262-2.539-.665,.99-1.135,1.485-2.591,1.607-3.866h.932v-1.253Zm11.5-.065h-2.997l1.499-1.499L18.087,.087l-2.507,2.507c-.774,.775-.774,2.037,0,2.812l2.506,2.506,1.414-1.414-1.508-1.499h3.006c.551,0,1,.449,1,1v4h2V6c0-1.654-1.346-3-3-3ZM5.913,16.088l-1.414,1.414,1.508,1.498H3c-.551,0-1-.448-1-1v-4H0v4c0,1.654,1.346,3,3,3h2.997l-1.498,1.498,1.414,1.414,2.507-2.507c.773-.774,.773-2.036,0-2.812l-2.506-2.506Z"/>
</svg>
