<?xml version="1.0" encoding="UTF-8"?>
<svg xmlns="http://www.w3.org/2000/svg" id="Layer_1" data-name="Layer 1" viewBox="0 0 24 24">
  <path d="M24.052,11c0-1.085-.379-2.574-2.096-3.747v-.492c0-1.822-1.314-3.209-3.233-3.542C18.35,1.369,16.874,.015,15.061,0c-1.148-.001-2.188,.409-2.934,1.149-.049,.049-.084,.107-.13,.158C11.216,.453,10.085,0,8.948,0,7.128,0,5.647,1.355,5.276,3.219c-1.918,.333-3.232,1.721-3.232,3.542v.492C.327,8.426-.052,9.915-.052,11c0,.954,.272,1.868,.793,2.674C.259,14.422,0,15.29,0,16.191,0,17.964,1.032,19.591,2.611,20.37c1.079,2.345,2.979,3.63,5.389,3.63,1.555,0,3.055-.892,4-2.164,.945,1.272,2.445,2.164,4,2.164,2.409,0,4.31-1.285,5.389-3.63,1.579-.778,2.612-2.405,2.612-4.179,0-.901-.26-1.769-.742-2.517,.521-.806,.793-1.72,.793-2.674Zm-8.187,.249l-4.298,5.751h-1.066l1.056-4h-2.735c-.55,0-.944-.531-.785-1.058l2.139-5.942h3.825l-1.523,4h2.717c.642,0,1.025,.715,.67,1.249Z"/>
</svg>
