<?xml version="1.0" encoding="UTF-8"?>
<svg xmlns="http://www.w3.org/2000/svg" id="Layer_1" data-name="Layer 1" viewBox="0 0 24 24">
  <path d="M19,18h2v2H3c-.551,0-1,.448-1,1s.449,1,1,1H13v2H3c-1.654,0-3-1.346-3-3s1.346-3,3-3h1c0-.079,.076-6.266,4.974-8.866,.492,.477,1.055,.888,1.691,1.195,.027,.064,.152,.357,.152,.357,1.308,2.622,4.133,4.315,7.197,4.315h.985v3Zm5-8.812v2.259c0,.858-.696,1.554-1.554,1.554h-4.432c-2.336,0-4.44-1.269-5.408-3.208-.163-.412-.323-.743-.476-1.027-1.811-.582-3.131-2.26-3.131-4.265,0-2.485,2.015-4.5,4.5-4.5,1.978,0,3.638,1.284,4.242,3.057,.164,.321,.258,1.442,.258,1.442,0,0,0,0,0,0s0,0,0,0v.999c1.256-1.064,1.282-2.423,1.282-3.423,0,0,.32,.141,.71,.3,2.542,1.019,4.008,3.953,4.008,6.811Zm-2-.688c0-.828-.672-1.5-1.5-1.5s-1.5,.672-1.5,1.5,.672,1.5,1.5,1.5,1.5-.672,1.5-1.5Z"/>
</svg>
