<?xml version="1.0" encoding="UTF-8"?>
<svg xmlns="http://www.w3.org/2000/svg" id="Layer_1" data-name="Layer 1" viewBox="0 0 24 24">
  <path d="M16.5,10c-1.381,0-2.5,1.119-2.5,2.5v3c0,1.381,1.119,2.5,2.5,2.5s2.5-1.119,2.5-2.5v-3c0-1.381-1.119-2.5-2.5-2.5Zm.9,5.5c0,.496-.404,.9-.9,.9s-.9-.404-.9-.9v-3c0-.496,.404-.9,.9-.9s.9,.404,.9,.9v3Zm-7.8-3v3c0,.496,.404,.9,.9,.9s.9-.404,.9-.9h1.6c0,1.381-1.119,2.5-2.5,2.5s-2.5-1.119-2.5-2.5v-3c0-1.381,1.119-2.5,2.5-2.5s2.5,1.119,2.5,2.5h-1.6c0-.496-.404-.9-.9-.9s-.9,.404-.9,.9Zm12.4,7.167h2v1.333h-4v-.654c0-1.506,2.667-2.346,2.667-3.346,0-.368-.298-.667-.667-.667s-.667,.298-.667,.667v.333h-1.333v-.333c0-1.105,.895-2,2-2s2,.895,2,2c0,1.423-1.425,2.141-2,2.667Zm-13.365-.373l1.414,1.414-2.758,2.758c-.344,.345-.803,.535-1.292,.535s-.947-.19-1.292-.535l-2.757-2.758,1.414-1.414,1.635,1.635v-5.929h2v5.929l1.635-1.635Zm12.365-6.294c0-2.761-2.239-5-5-5h-5c-2.761,0-5,2.239-5,5H3l-.046,3.877-1.41,1.41c-.948-.987-1.544-2.313-1.544-3.786,0-1.786,.85-3.425,2.266-4.45-.142-.537-.228-1.087-.256-1.645C1.832,4.823,4.146,1.467,7.564,.381c4.166-1.323,8.391,.932,9.877,4.677,3.73,.46,6.56,3.604,6.56,7.441,0,.344-.037,.679-.083,1.011-.572-.316-1.219-.511-1.917-.511-.016,0-.031,.005-.047,.005l-.953-.005Z"/>
</svg>
