<?xml version="1.0" encoding="UTF-8"?>
<svg xmlns="http://www.w3.org/2000/svg" id="Layer_1" data-name="Layer 1" viewBox="0 0 24 24">
  <path d="m23.378,14.196c-.964-2.213-1.875-4.303-2.849-5.506-2.08-2.777-5.51-4.141-8.95-3.553-3.575.609-6.526,3.392-7.343,6.926-.656,2.836.088,5.626,2.04,7.657.459.478.723,1.19.723,1.954v2.327h10v-1h1.36c1.425,0,2.663-1.014,2.942-2.412l.518-2.588h2.18v-2.388l-.622-1.416Zm-7.378.804h-3v6h-2v-5h-.75c-1.243,0-2.25-1.007-2.25-2.25,0-.799.419-1.496,1.047-1.895-.028-.114-.047-.232-.047-.355,0-.828.672-1.5,1.5-1.5.198,0,.385.04.558.11.173-.638.75-1.11,1.442-1.11.534,0,.999.28,1.265.7.218-.124.467-.2.735-.2.828,0,1.5.672,1.5,1.5,1.105,0,2,.895,2,2s-.895,2-2,2ZM10.481,3.245l-.417-2.971L12.045-.003l.417,2.971-1.98.277Zm-4.562,2.278l-1.707-2.468,1.645-1.138,1.707,2.467-1.645,1.139Zm-3.021,4.006l-2.622-1.458.972-1.748,2.623,1.458-.973,1.748Zm14.604-5.615l-1.893-.646.97-2.839,1.893.646-.97,2.839Zm3.993,3.027l-1.412-1.416,2.124-2.118,1.412,1.416-2.124,2.118Z"/>
</svg>
