<?xml version="1.0" encoding="UTF-8"?>
<svg xmlns="http://www.w3.org/2000/svg" id="Layer_1" data-name="Layer 1" viewBox="0 0 24 24">
  <path d="M21,10v-2h2V3h-1.382l1.5-3H5c-1.654,0-3,1.346-3,3V7c0,1.654,1.346,3,3,3h5.057l-2.006,5.351c-.146,.389-.522,.649-.937,.649H2v-4H0v10H2v-4H7.114c1.243,0,2.372-.782,2.81-1.946l2.27-6.054h8.807Zm2.387,9.039c-.492-.947-2.407-4.039-6.387-4.039s-5.896,3.092-6.388,4.04l-.239,.46,.239,.461c.492,.947,2.406,4.039,6.388,4.039s5.896-3.092,6.387-4.039l.24-.461-.24-.461Zm-6.387,2.461c-1.105,0-2-.895-2-2s.895-2,2-2,2,.895,2,2-.895,2-2,2Z"/>
</svg>
