<?xml version="1.0" encoding="UTF-8"?>
<svg xmlns="http://www.w3.org/2000/svg" id="Layer_1" data-name="Layer 1" viewBox="0 0 24 24">
  <path d="M.499,5.216c-.667-.667-.667-1.765,.008-2.439L3.208,.013l1.43,1.398-1.553,1.589h1.915c1.654,0,3,1.346,3,3v3h-2v-3c0-.552-.448-1-1-1h-1.915l1.553,1.589-1.43,1.398L.499,5.216Zm11.501,.784c0-.552,.448-1,1-1h1.915l-1.553,1.589,1.43,1.398,2.701-2.764c.675-.675,.675-1.772,.008-2.439L14.792,.013l-1.43,1.398,1.553,1.589h-1.915c-1.654,0-3,1.346-3,3v3h2v-3Zm11.152,2.681c-.515-.469-1.186-.712-1.878-.678-.697,.032-1.339,.334-1.794,.835l-3.541,3.737c.032,.21,.065,.42,.065,.638,0,2.083-1.555,3.876-3.617,4.17l-4.241,.606-.283-1.979,4.241-.606c1.084-.155,1.9-1.097,1.9-2.191,0-1.22-.993-2.213-2.213-2.213H3.003C1.349,11,.003,12.346,.003,14v7c0,1.654,1.346,3,3,3H12.667l10.674-11.655c.948-1.062,.862-2.707-.189-3.665Z"/>
</svg>
