<?xml version="1.0" encoding="UTF-8"?>
<svg xmlns="http://www.w3.org/2000/svg" id="Layer_1" data-name="Layer 1" viewBox="0 0 24 24">
  <path d="M11,6h2v7H7v-2h4V6ZM2,9H7v-2H3.335c1.766-3.079,5.026-5,8.665-5,5.514,0,10,4.486,10,10,0,.339-.033,.67-.069,1h2.025c.028-.33,.044-.663,.044-1C24,5.383,18.617,0,12,0,7.891,0,4.189,2.044,2,5.362V2H0V7c0,1.103,.897,2,2,2Zm0,3H0c0,6.617,5.383,12,12,12,1.404,0,2.747-.255,4-.7v-2.141c-1.226,.538-2.578,.841-4,.841-5.514,0-10-4.486-10-10Zm19,6h-1v-1h3.5v-2h-5.5v5h3c.551,0,1,.449,1,1s-.449,1-1,1h-3v2h3c1.654,0,3-1.346,3-3s-1.346-3-3-3Z"/>
</svg>
