<?xml version="1.0" encoding="UTF-8"?>
<svg xmlns="http://www.w3.org/2000/svg" id="Layer_1" data-name="Layer 1" viewBox="0 0 24 24">
  <path d="m6.001,5.999c.056-1.942,1.391-3.614,3.247-4.093l4.252-.905L14.5,0h9.5v5l-4.5,5h-8.49s.028-4.07.028-4.07l-2-.014-.039,5.584c0,.827-.673,1.5-1.5,1.5s-1.5-.673-1.5-1.5v-5.495s.001,0,.001,0v-.007Zm17.999,12.001c0,3.314-2.686,6-6,6s-6-2.686-6-6,2.686-6,6-6,6,2.686,6,6Zm-1.765-1.201l-1.414-1.414-3.615,3.615-2.013-2.013-1.414,1.414,2.012,2.012c.377.378.879.587,1.413.587h.002c.534,0,1.036-.208,1.414-.586l3.615-3.615Zm-12.235,1.201c0-2.393,1.056-4.534,2.721-6h-1.771c-.243,1.689-1.69,3-3.45,3-1.93,0-3.5-1.57-3.5-3.5l.002-4.902c-1.002.581-1.766,1.547-2.071,2.729l-.984,3.811L.027,14.057l-.027,9.943h4.923l3.5-3.964,1.847-.006c-.17-.65-.27-1.328-.27-2.031Z"/>
</svg>
