<?xml version="1.0" encoding="UTF-8"?>
<svg xmlns="http://www.w3.org/2000/svg" id="Layer_1" data-name="Layer 1" viewBox="0 0 24 24">
  <path d="M19,10c2.761,0,5-2.239,5-5S21.761,0,19,0s-5,2.239-5,5,2.239,5,5,5Zm-3-6h2V2h2v2h2v2h-2v2h-2v-2h-2v-2Zm-6.12,10.12L.362,4.602c.505-.948,1.491-1.602,2.638-1.602H12.294c-.189,.634-.294,1.305-.294,2,0,3.041,1.943,5.622,4.652,6.588l-2.532,2.532c-1.17,1.17-3.07,1.17-4.24,0Zm9.194-2.124c1.93-.02,3.672-.82,4.926-2.102v14.106H0V7.07L8.46,15.53c.98,.97,2.26,1.46,3.54,1.46s2.57-.49,3.54-1.46l3.534-3.534Z"/>
</svg>
